%TF.GenerationSoftware,KiCad,Pcbnew,4.0.7-e2-6376~58~ubuntu16.04.1*%
%TF.CreationDate,2018-03-12T18:00:00+01:00*%
%TF.ProjectId,SLAMP-WiFi,534C414D502D576946692E6B69636164,rev?*%
%TF.FileFunction,Legend,Bot*%
%FSLAX46Y46*%
G04 Gerber Fmt 4.6, Leading zero omitted, Abs format (unit mm)*
G04 Created by KiCad (PCBNEW 4.0.7-e2-6376~58~ubuntu16.04.1) date Mon Mar 12 18:00:00 2018*
%MOMM*%
%LPD*%
G01*
G04 APERTURE LIST*
%ADD10C,0.127000*%
%ADD11C,0.010000*%
G04 APERTURE END LIST*
D10*
X143637000Y-54991000D02*
X143637000Y-56769000D01*
X181864000Y-54991000D02*
X143637000Y-54991000D01*
X181864000Y-56769000D02*
X181864000Y-54991000D01*
X143637000Y-56769000D02*
X143637000Y-60833000D01*
X181864000Y-58166000D02*
X181864000Y-56769000D01*
X181864000Y-60833000D02*
X181864000Y-58166000D01*
X201041000Y-60833000D02*
X181864000Y-60833000D01*
X143637000Y-108077000D02*
X143637000Y-60833000D01*
X205232000Y-108077000D02*
X143637000Y-108077000D01*
X205232000Y-60833000D02*
X205232000Y-108077000D01*
X201041000Y-60833000D02*
X205232000Y-60833000D01*
D11*
G36*
X198326186Y-71636931D02*
X198242365Y-72081555D01*
X197933080Y-72209053D01*
X197623794Y-72336551D01*
X197252754Y-72084246D01*
X197148843Y-72013996D01*
X197054913Y-71951272D01*
X196975348Y-71898938D01*
X196914530Y-71859857D01*
X196876843Y-71836893D01*
X196866579Y-71831942D01*
X196848090Y-71844676D01*
X196808580Y-71879882D01*
X196752478Y-71933062D01*
X196684213Y-71999718D01*
X196608214Y-72075354D01*
X196528908Y-72155472D01*
X196450725Y-72235574D01*
X196378093Y-72311164D01*
X196315441Y-72377745D01*
X196267197Y-72430818D01*
X196237790Y-72465887D01*
X196230759Y-72477623D01*
X196240877Y-72499260D01*
X196269241Y-72546662D01*
X196312871Y-72615193D01*
X196368782Y-72700215D01*
X196433994Y-72797093D01*
X196471781Y-72852350D01*
X196540657Y-72953248D01*
X196601860Y-73044299D01*
X196652422Y-73120970D01*
X196689372Y-73178728D01*
X196709742Y-73213043D01*
X196712803Y-73220254D01*
X196705864Y-73240748D01*
X196686949Y-73288513D01*
X196658913Y-73356832D01*
X196624609Y-73438989D01*
X196586891Y-73528270D01*
X196548613Y-73617958D01*
X196512630Y-73701338D01*
X196481794Y-73771694D01*
X196458961Y-73822310D01*
X196446983Y-73846471D01*
X196446276Y-73847422D01*
X196427469Y-73852036D01*
X196377382Y-73862328D01*
X196301207Y-73877287D01*
X196204135Y-73895901D01*
X196091357Y-73917159D01*
X196025558Y-73929418D01*
X195905050Y-73952362D01*
X195796203Y-73974195D01*
X195704524Y-73993722D01*
X195635519Y-74009748D01*
X195594696Y-74021079D01*
X195586489Y-74024674D01*
X195578452Y-74049006D01*
X195571967Y-74103959D01*
X195567030Y-74183108D01*
X195563636Y-74280026D01*
X195561782Y-74388287D01*
X195561462Y-74501465D01*
X195562673Y-74613135D01*
X195565410Y-74716868D01*
X195569669Y-74806241D01*
X195575445Y-74874826D01*
X195582733Y-74916197D01*
X195587105Y-74924810D01*
X195613236Y-74935133D01*
X195668607Y-74949892D01*
X195745893Y-74967352D01*
X195837770Y-74985780D01*
X195869842Y-74991741D01*
X196024476Y-75020066D01*
X196146625Y-75042876D01*
X196240327Y-75061080D01*
X196309616Y-75075583D01*
X196358529Y-75087292D01*
X196391103Y-75097115D01*
X196411372Y-75105956D01*
X196423374Y-75114724D01*
X196425053Y-75116457D01*
X196441816Y-75144371D01*
X196467386Y-75198695D01*
X196499212Y-75272777D01*
X196534740Y-75359965D01*
X196571417Y-75453608D01*
X196606689Y-75547052D01*
X196638004Y-75633647D01*
X196662807Y-75706740D01*
X196678546Y-75759678D01*
X196682668Y-75785811D01*
X196682324Y-75786726D01*
X196668359Y-75808086D01*
X196636678Y-75855084D01*
X196590609Y-75922827D01*
X196533482Y-76006423D01*
X196468627Y-76100982D01*
X196450157Y-76127854D01*
X196384301Y-76225275D01*
X196326350Y-76314163D01*
X196279462Y-76389412D01*
X196246793Y-76445920D01*
X196231500Y-76478581D01*
X196230759Y-76482593D01*
X196243608Y-76503684D01*
X196279112Y-76545464D01*
X196332707Y-76603445D01*
X196399829Y-76673135D01*
X196475913Y-76750045D01*
X196556396Y-76829683D01*
X196636713Y-76907561D01*
X196712301Y-76979186D01*
X196778595Y-77040070D01*
X196831031Y-77085721D01*
X196865045Y-77111650D01*
X196874455Y-77115883D01*
X196896357Y-77105912D01*
X196941200Y-77079020D01*
X197001679Y-77039736D01*
X197048211Y-77008117D01*
X197132525Y-76950098D01*
X197232374Y-76881784D01*
X197332527Y-76813579D01*
X197386373Y-76777075D01*
X197568629Y-76653800D01*
X197721619Y-76736520D01*
X197791318Y-76772759D01*
X197850586Y-76800926D01*
X197890689Y-76816991D01*
X197900897Y-76819226D01*
X197913171Y-76802722D01*
X197937387Y-76756082D01*
X197971737Y-76683609D01*
X198014412Y-76589606D01*
X198063606Y-76478374D01*
X198117510Y-76354215D01*
X198174316Y-76221432D01*
X198232218Y-76084327D01*
X198289407Y-75947202D01*
X198344076Y-75814358D01*
X198394416Y-75690098D01*
X198438620Y-75578725D01*
X198474881Y-75484539D01*
X198501391Y-75411844D01*
X198516342Y-75364941D01*
X198518746Y-75348833D01*
X198499689Y-75328286D01*
X198457964Y-75294933D01*
X198402294Y-75255702D01*
X198397622Y-75252599D01*
X198253736Y-75137423D01*
X198137717Y-75003053D01*
X198050570Y-74853784D01*
X197993301Y-74693913D01*
X197966914Y-74527737D01*
X197972415Y-74359552D01*
X198010810Y-74193655D01*
X198083105Y-74034342D01*
X198104374Y-73999487D01*
X198215004Y-73858737D01*
X198345698Y-73745714D01*
X198491936Y-73661003D01*
X198649192Y-73605194D01*
X198812943Y-73578874D01*
X198978667Y-73582630D01*
X199141838Y-73617050D01*
X199297935Y-73682723D01*
X199442433Y-73780235D01*
X199487131Y-73819813D01*
X199600888Y-73943703D01*
X199683782Y-74074124D01*
X199740644Y-74220315D01*
X199772313Y-74365088D01*
X199780131Y-74527860D01*
X199754062Y-74691440D01*
X199696755Y-74850298D01*
X199610856Y-74998906D01*
X199499014Y-75131735D01*
X199363877Y-75243256D01*
X199346117Y-75255011D01*
X199289850Y-75293508D01*
X199247077Y-75326863D01*
X199226628Y-75348160D01*
X199226331Y-75348833D01*
X199230721Y-75371871D01*
X199248124Y-75424157D01*
X199276732Y-75501390D01*
X199314735Y-75599268D01*
X199360326Y-75713491D01*
X199411697Y-75839758D01*
X199467038Y-75973767D01*
X199524542Y-76111218D01*
X199582399Y-76247808D01*
X199638802Y-76379237D01*
X199691942Y-76501205D01*
X199740010Y-76609409D01*
X199781199Y-76699549D01*
X199813699Y-76767323D01*
X199835703Y-76808430D01*
X199844564Y-76819226D01*
X199871640Y-76810819D01*
X199922303Y-76788272D01*
X199987817Y-76755613D01*
X200023841Y-76736520D01*
X200176832Y-76653800D01*
X200359088Y-76777075D01*
X200452125Y-76840228D01*
X200553985Y-76909727D01*
X200649438Y-76975165D01*
X200697250Y-77008117D01*
X200764495Y-77053273D01*
X200821436Y-77089057D01*
X200860646Y-77110938D01*
X200873381Y-77115563D01*
X200891917Y-77103085D01*
X200932941Y-77068252D01*
X200992475Y-77014678D01*
X201066542Y-76945983D01*
X201151165Y-76865781D01*
X201204685Y-76814286D01*
X201298319Y-76722286D01*
X201379241Y-76639999D01*
X201444177Y-76570945D01*
X201489858Y-76518644D01*
X201513011Y-76486616D01*
X201515232Y-76480116D01*
X201504924Y-76455394D01*
X201476439Y-76405405D01*
X201432937Y-76335212D01*
X201377577Y-76249875D01*
X201313520Y-76154456D01*
X201295303Y-76127854D01*
X201228927Y-76031167D01*
X201169378Y-75944117D01*
X201119984Y-75871595D01*
X201084075Y-75818493D01*
X201064981Y-75789703D01*
X201063136Y-75786726D01*
X201065895Y-75763782D01*
X201080538Y-75713336D01*
X201104513Y-75642041D01*
X201135266Y-75556547D01*
X201170244Y-75463507D01*
X201206893Y-75369574D01*
X201242661Y-75281399D01*
X201274994Y-75205634D01*
X201301338Y-75148931D01*
X201319142Y-75117943D01*
X201320407Y-75116457D01*
X201331294Y-75107601D01*
X201349682Y-75098843D01*
X201379606Y-75089277D01*
X201425103Y-75077996D01*
X201490209Y-75064093D01*
X201578961Y-75046663D01*
X201695393Y-75024798D01*
X201843542Y-74997591D01*
X201875618Y-74991741D01*
X201970686Y-74973374D01*
X202053565Y-74955405D01*
X202116930Y-74939569D01*
X202153458Y-74927600D01*
X202158356Y-74924810D01*
X202166427Y-74900072D01*
X202172987Y-74844790D01*
X202178033Y-74765389D01*
X202181559Y-74668296D01*
X202183561Y-74559938D01*
X202184036Y-74446740D01*
X202182977Y-74335128D01*
X202180382Y-74231529D01*
X202176246Y-74142368D01*
X202170563Y-74074072D01*
X202163331Y-74033066D01*
X202158971Y-74024674D01*
X202134698Y-74016208D01*
X202079426Y-74002435D01*
X201998662Y-73984550D01*
X201897912Y-73963748D01*
X201782683Y-73941223D01*
X201719902Y-73929418D01*
X201600787Y-73907151D01*
X201494565Y-73886979D01*
X201406427Y-73869915D01*
X201341566Y-73856969D01*
X201305174Y-73849155D01*
X201299184Y-73847422D01*
X201289061Y-73827890D01*
X201267662Y-73780843D01*
X201237839Y-73713003D01*
X201202445Y-73631091D01*
X201164332Y-73541828D01*
X201126353Y-73451935D01*
X201091360Y-73368135D01*
X201062206Y-73297147D01*
X201041743Y-73245694D01*
X201032823Y-73220497D01*
X201032657Y-73219396D01*
X201042769Y-73199519D01*
X201071117Y-73153777D01*
X201114723Y-73086717D01*
X201170606Y-73002884D01*
X201235787Y-72906826D01*
X201273679Y-72851650D01*
X201342725Y-72750481D01*
X201404050Y-72658630D01*
X201454663Y-72580744D01*
X201491571Y-72521469D01*
X201511782Y-72485451D01*
X201514701Y-72477377D01*
X201502153Y-72458584D01*
X201467463Y-72418457D01*
X201415063Y-72361493D01*
X201349384Y-72292185D01*
X201274856Y-72215031D01*
X201195913Y-72134525D01*
X201116983Y-72055163D01*
X201042500Y-71981440D01*
X200976894Y-71917852D01*
X200924596Y-71868894D01*
X200890039Y-71839061D01*
X200878478Y-71831942D01*
X200859654Y-71841953D01*
X200814631Y-71870078D01*
X200747787Y-71913454D01*
X200663499Y-71969218D01*
X200566144Y-72034506D01*
X200492707Y-72084246D01*
X200121667Y-72336551D01*
X199503095Y-72081555D01*
X199419275Y-71636931D01*
X199335454Y-71192307D01*
X198410006Y-71192307D01*
X198326186Y-71636931D01*
X198326186Y-71636931D01*
G37*
X198326186Y-71636931D02*
X198242365Y-72081555D01*
X197933080Y-72209053D01*
X197623794Y-72336551D01*
X197252754Y-72084246D01*
X197148843Y-72013996D01*
X197054913Y-71951272D01*
X196975348Y-71898938D01*
X196914530Y-71859857D01*
X196876843Y-71836893D01*
X196866579Y-71831942D01*
X196848090Y-71844676D01*
X196808580Y-71879882D01*
X196752478Y-71933062D01*
X196684213Y-71999718D01*
X196608214Y-72075354D01*
X196528908Y-72155472D01*
X196450725Y-72235574D01*
X196378093Y-72311164D01*
X196315441Y-72377745D01*
X196267197Y-72430818D01*
X196237790Y-72465887D01*
X196230759Y-72477623D01*
X196240877Y-72499260D01*
X196269241Y-72546662D01*
X196312871Y-72615193D01*
X196368782Y-72700215D01*
X196433994Y-72797093D01*
X196471781Y-72852350D01*
X196540657Y-72953248D01*
X196601860Y-73044299D01*
X196652422Y-73120970D01*
X196689372Y-73178728D01*
X196709742Y-73213043D01*
X196712803Y-73220254D01*
X196705864Y-73240748D01*
X196686949Y-73288513D01*
X196658913Y-73356832D01*
X196624609Y-73438989D01*
X196586891Y-73528270D01*
X196548613Y-73617958D01*
X196512630Y-73701338D01*
X196481794Y-73771694D01*
X196458961Y-73822310D01*
X196446983Y-73846471D01*
X196446276Y-73847422D01*
X196427469Y-73852036D01*
X196377382Y-73862328D01*
X196301207Y-73877287D01*
X196204135Y-73895901D01*
X196091357Y-73917159D01*
X196025558Y-73929418D01*
X195905050Y-73952362D01*
X195796203Y-73974195D01*
X195704524Y-73993722D01*
X195635519Y-74009748D01*
X195594696Y-74021079D01*
X195586489Y-74024674D01*
X195578452Y-74049006D01*
X195571967Y-74103959D01*
X195567030Y-74183108D01*
X195563636Y-74280026D01*
X195561782Y-74388287D01*
X195561462Y-74501465D01*
X195562673Y-74613135D01*
X195565410Y-74716868D01*
X195569669Y-74806241D01*
X195575445Y-74874826D01*
X195582733Y-74916197D01*
X195587105Y-74924810D01*
X195613236Y-74935133D01*
X195668607Y-74949892D01*
X195745893Y-74967352D01*
X195837770Y-74985780D01*
X195869842Y-74991741D01*
X196024476Y-75020066D01*
X196146625Y-75042876D01*
X196240327Y-75061080D01*
X196309616Y-75075583D01*
X196358529Y-75087292D01*
X196391103Y-75097115D01*
X196411372Y-75105956D01*
X196423374Y-75114724D01*
X196425053Y-75116457D01*
X196441816Y-75144371D01*
X196467386Y-75198695D01*
X196499212Y-75272777D01*
X196534740Y-75359965D01*
X196571417Y-75453608D01*
X196606689Y-75547052D01*
X196638004Y-75633647D01*
X196662807Y-75706740D01*
X196678546Y-75759678D01*
X196682668Y-75785811D01*
X196682324Y-75786726D01*
X196668359Y-75808086D01*
X196636678Y-75855084D01*
X196590609Y-75922827D01*
X196533482Y-76006423D01*
X196468627Y-76100982D01*
X196450157Y-76127854D01*
X196384301Y-76225275D01*
X196326350Y-76314163D01*
X196279462Y-76389412D01*
X196246793Y-76445920D01*
X196231500Y-76478581D01*
X196230759Y-76482593D01*
X196243608Y-76503684D01*
X196279112Y-76545464D01*
X196332707Y-76603445D01*
X196399829Y-76673135D01*
X196475913Y-76750045D01*
X196556396Y-76829683D01*
X196636713Y-76907561D01*
X196712301Y-76979186D01*
X196778595Y-77040070D01*
X196831031Y-77085721D01*
X196865045Y-77111650D01*
X196874455Y-77115883D01*
X196896357Y-77105912D01*
X196941200Y-77079020D01*
X197001679Y-77039736D01*
X197048211Y-77008117D01*
X197132525Y-76950098D01*
X197232374Y-76881784D01*
X197332527Y-76813579D01*
X197386373Y-76777075D01*
X197568629Y-76653800D01*
X197721619Y-76736520D01*
X197791318Y-76772759D01*
X197850586Y-76800926D01*
X197890689Y-76816991D01*
X197900897Y-76819226D01*
X197913171Y-76802722D01*
X197937387Y-76756082D01*
X197971737Y-76683609D01*
X198014412Y-76589606D01*
X198063606Y-76478374D01*
X198117510Y-76354215D01*
X198174316Y-76221432D01*
X198232218Y-76084327D01*
X198289407Y-75947202D01*
X198344076Y-75814358D01*
X198394416Y-75690098D01*
X198438620Y-75578725D01*
X198474881Y-75484539D01*
X198501391Y-75411844D01*
X198516342Y-75364941D01*
X198518746Y-75348833D01*
X198499689Y-75328286D01*
X198457964Y-75294933D01*
X198402294Y-75255702D01*
X198397622Y-75252599D01*
X198253736Y-75137423D01*
X198137717Y-75003053D01*
X198050570Y-74853784D01*
X197993301Y-74693913D01*
X197966914Y-74527737D01*
X197972415Y-74359552D01*
X198010810Y-74193655D01*
X198083105Y-74034342D01*
X198104374Y-73999487D01*
X198215004Y-73858737D01*
X198345698Y-73745714D01*
X198491936Y-73661003D01*
X198649192Y-73605194D01*
X198812943Y-73578874D01*
X198978667Y-73582630D01*
X199141838Y-73617050D01*
X199297935Y-73682723D01*
X199442433Y-73780235D01*
X199487131Y-73819813D01*
X199600888Y-73943703D01*
X199683782Y-74074124D01*
X199740644Y-74220315D01*
X199772313Y-74365088D01*
X199780131Y-74527860D01*
X199754062Y-74691440D01*
X199696755Y-74850298D01*
X199610856Y-74998906D01*
X199499014Y-75131735D01*
X199363877Y-75243256D01*
X199346117Y-75255011D01*
X199289850Y-75293508D01*
X199247077Y-75326863D01*
X199226628Y-75348160D01*
X199226331Y-75348833D01*
X199230721Y-75371871D01*
X199248124Y-75424157D01*
X199276732Y-75501390D01*
X199314735Y-75599268D01*
X199360326Y-75713491D01*
X199411697Y-75839758D01*
X199467038Y-75973767D01*
X199524542Y-76111218D01*
X199582399Y-76247808D01*
X199638802Y-76379237D01*
X199691942Y-76501205D01*
X199740010Y-76609409D01*
X199781199Y-76699549D01*
X199813699Y-76767323D01*
X199835703Y-76808430D01*
X199844564Y-76819226D01*
X199871640Y-76810819D01*
X199922303Y-76788272D01*
X199987817Y-76755613D01*
X200023841Y-76736520D01*
X200176832Y-76653800D01*
X200359088Y-76777075D01*
X200452125Y-76840228D01*
X200553985Y-76909727D01*
X200649438Y-76975165D01*
X200697250Y-77008117D01*
X200764495Y-77053273D01*
X200821436Y-77089057D01*
X200860646Y-77110938D01*
X200873381Y-77115563D01*
X200891917Y-77103085D01*
X200932941Y-77068252D01*
X200992475Y-77014678D01*
X201066542Y-76945983D01*
X201151165Y-76865781D01*
X201204685Y-76814286D01*
X201298319Y-76722286D01*
X201379241Y-76639999D01*
X201444177Y-76570945D01*
X201489858Y-76518644D01*
X201513011Y-76486616D01*
X201515232Y-76480116D01*
X201504924Y-76455394D01*
X201476439Y-76405405D01*
X201432937Y-76335212D01*
X201377577Y-76249875D01*
X201313520Y-76154456D01*
X201295303Y-76127854D01*
X201228927Y-76031167D01*
X201169378Y-75944117D01*
X201119984Y-75871595D01*
X201084075Y-75818493D01*
X201064981Y-75789703D01*
X201063136Y-75786726D01*
X201065895Y-75763782D01*
X201080538Y-75713336D01*
X201104513Y-75642041D01*
X201135266Y-75556547D01*
X201170244Y-75463507D01*
X201206893Y-75369574D01*
X201242661Y-75281399D01*
X201274994Y-75205634D01*
X201301338Y-75148931D01*
X201319142Y-75117943D01*
X201320407Y-75116457D01*
X201331294Y-75107601D01*
X201349682Y-75098843D01*
X201379606Y-75089277D01*
X201425103Y-75077996D01*
X201490209Y-75064093D01*
X201578961Y-75046663D01*
X201695393Y-75024798D01*
X201843542Y-74997591D01*
X201875618Y-74991741D01*
X201970686Y-74973374D01*
X202053565Y-74955405D01*
X202116930Y-74939569D01*
X202153458Y-74927600D01*
X202158356Y-74924810D01*
X202166427Y-74900072D01*
X202172987Y-74844790D01*
X202178033Y-74765389D01*
X202181559Y-74668296D01*
X202183561Y-74559938D01*
X202184036Y-74446740D01*
X202182977Y-74335128D01*
X202180382Y-74231529D01*
X202176246Y-74142368D01*
X202170563Y-74074072D01*
X202163331Y-74033066D01*
X202158971Y-74024674D01*
X202134698Y-74016208D01*
X202079426Y-74002435D01*
X201998662Y-73984550D01*
X201897912Y-73963748D01*
X201782683Y-73941223D01*
X201719902Y-73929418D01*
X201600787Y-73907151D01*
X201494565Y-73886979D01*
X201406427Y-73869915D01*
X201341566Y-73856969D01*
X201305174Y-73849155D01*
X201299184Y-73847422D01*
X201289061Y-73827890D01*
X201267662Y-73780843D01*
X201237839Y-73713003D01*
X201202445Y-73631091D01*
X201164332Y-73541828D01*
X201126353Y-73451935D01*
X201091360Y-73368135D01*
X201062206Y-73297147D01*
X201041743Y-73245694D01*
X201032823Y-73220497D01*
X201032657Y-73219396D01*
X201042769Y-73199519D01*
X201071117Y-73153777D01*
X201114723Y-73086717D01*
X201170606Y-73002884D01*
X201235787Y-72906826D01*
X201273679Y-72851650D01*
X201342725Y-72750481D01*
X201404050Y-72658630D01*
X201454663Y-72580744D01*
X201491571Y-72521469D01*
X201511782Y-72485451D01*
X201514701Y-72477377D01*
X201502153Y-72458584D01*
X201467463Y-72418457D01*
X201415063Y-72361493D01*
X201349384Y-72292185D01*
X201274856Y-72215031D01*
X201195913Y-72134525D01*
X201116983Y-72055163D01*
X201042500Y-71981440D01*
X200976894Y-71917852D01*
X200924596Y-71868894D01*
X200890039Y-71839061D01*
X200878478Y-71831942D01*
X200859654Y-71841953D01*
X200814631Y-71870078D01*
X200747787Y-71913454D01*
X200663499Y-71969218D01*
X200566144Y-72034506D01*
X200492707Y-72084246D01*
X200121667Y-72336551D01*
X199503095Y-72081555D01*
X199419275Y-71636931D01*
X199335454Y-71192307D01*
X198410006Y-71192307D01*
X198326186Y-71636931D01*
G36*
X200247115Y-89623567D02*
X200179764Y-89657831D01*
X200083630Y-89709732D01*
X199966097Y-89775012D01*
X199834549Y-89849412D01*
X199696369Y-89928675D01*
X199558940Y-90008541D01*
X199429647Y-90084751D01*
X199315872Y-90153048D01*
X199225000Y-90209173D01*
X199164414Y-90248867D01*
X199142350Y-90266368D01*
X199131353Y-90295793D01*
X199122933Y-90355577D01*
X199116872Y-90450092D01*
X199112955Y-90583705D01*
X199110964Y-90760789D01*
X199110600Y-90906374D01*
X199111067Y-91107073D01*
X199113043Y-91262651D01*
X199117391Y-91378787D01*
X199124974Y-91461155D01*
X199136653Y-91515432D01*
X199153293Y-91547294D01*
X199175755Y-91562419D01*
X199204903Y-91566481D01*
X199210930Y-91566475D01*
X199243738Y-91554052D01*
X199313341Y-91519595D01*
X199412755Y-91466842D01*
X199534997Y-91399528D01*
X199673084Y-91321392D01*
X199727727Y-91289947D01*
X199871307Y-91206212D01*
X200002285Y-91128452D01*
X200113400Y-91061086D01*
X200197392Y-91008536D01*
X200247000Y-90975223D01*
X200254777Y-90969035D01*
X200269896Y-90952747D01*
X200281595Y-90930498D01*
X200290309Y-90896118D01*
X200296476Y-90843441D01*
X200300531Y-90766298D01*
X200302910Y-90658523D01*
X200304051Y-90513946D01*
X200304390Y-90326402D01*
X200304400Y-90267663D01*
X200303396Y-90039264D01*
X200300400Y-89858786D01*
X200295441Y-89726914D01*
X200288545Y-89644336D01*
X200279739Y-89611737D01*
X200278300Y-89611200D01*
X200247115Y-89623567D01*
X200247115Y-89623567D01*
G37*
X200247115Y-89623567D02*
X200179764Y-89657831D01*
X200083630Y-89709732D01*
X199966097Y-89775012D01*
X199834549Y-89849412D01*
X199696369Y-89928675D01*
X199558940Y-90008541D01*
X199429647Y-90084751D01*
X199315872Y-90153048D01*
X199225000Y-90209173D01*
X199164414Y-90248867D01*
X199142350Y-90266368D01*
X199131353Y-90295793D01*
X199122933Y-90355577D01*
X199116872Y-90450092D01*
X199112955Y-90583705D01*
X199110964Y-90760789D01*
X199110600Y-90906374D01*
X199111067Y-91107073D01*
X199113043Y-91262651D01*
X199117391Y-91378787D01*
X199124974Y-91461155D01*
X199136653Y-91515432D01*
X199153293Y-91547294D01*
X199175755Y-91562419D01*
X199204903Y-91566481D01*
X199210930Y-91566475D01*
X199243738Y-91554052D01*
X199313341Y-91519595D01*
X199412755Y-91466842D01*
X199534997Y-91399528D01*
X199673084Y-91321392D01*
X199727727Y-91289947D01*
X199871307Y-91206212D01*
X200002285Y-91128452D01*
X200113400Y-91061086D01*
X200197392Y-91008536D01*
X200247000Y-90975223D01*
X200254777Y-90969035D01*
X200269896Y-90952747D01*
X200281595Y-90930498D01*
X200290309Y-90896118D01*
X200296476Y-90843441D01*
X200300531Y-90766298D01*
X200302910Y-90658523D01*
X200304051Y-90513946D01*
X200304390Y-90326402D01*
X200304400Y-90267663D01*
X200303396Y-90039264D01*
X200300400Y-89858786D01*
X200295441Y-89726914D01*
X200288545Y-89644336D01*
X200279739Y-89611737D01*
X200278300Y-89611200D01*
X200247115Y-89623567D01*
G36*
X197198962Y-89629440D02*
X197191542Y-89685943D01*
X197186079Y-89783382D01*
X197182457Y-89924431D01*
X197180562Y-90111764D01*
X197180200Y-90267172D01*
X197180311Y-90466505D01*
X197180979Y-90621265D01*
X197182707Y-90737681D01*
X197186000Y-90821980D01*
X197191359Y-90880391D01*
X197199289Y-90919139D01*
X197210294Y-90944454D01*
X197224876Y-90962564D01*
X197237350Y-90974171D01*
X197278346Y-91003799D01*
X197353445Y-91051606D01*
X197454853Y-91113150D01*
X197574776Y-91183989D01*
X197705420Y-91259681D01*
X197838990Y-91335783D01*
X197967693Y-91407854D01*
X198083734Y-91471452D01*
X198179318Y-91522134D01*
X198246652Y-91555460D01*
X198277569Y-91567000D01*
X198325850Y-91550321D01*
X198343520Y-91536520D01*
X198354143Y-91508862D01*
X198362300Y-91447249D01*
X198368169Y-91347976D01*
X198371928Y-91207337D01*
X198373755Y-91021628D01*
X198374000Y-90901520D01*
X198373686Y-90708835D01*
X198372449Y-90560551D01*
X198369848Y-90450267D01*
X198365443Y-90371587D01*
X198358794Y-90318111D01*
X198349459Y-90283442D01*
X198336998Y-90261181D01*
X198329301Y-90252550D01*
X198295085Y-90227588D01*
X198225289Y-90183280D01*
X198127354Y-90123881D01*
X198008723Y-90053651D01*
X197876836Y-89976847D01*
X197739136Y-89897728D01*
X197603065Y-89820552D01*
X197476064Y-89749577D01*
X197365575Y-89689062D01*
X197279040Y-89643264D01*
X197223900Y-89616441D01*
X197208454Y-89611200D01*
X197198962Y-89629440D01*
X197198962Y-89629440D01*
G37*
X197198962Y-89629440D02*
X197191542Y-89685943D01*
X197186079Y-89783382D01*
X197182457Y-89924431D01*
X197180562Y-90111764D01*
X197180200Y-90267172D01*
X197180311Y-90466505D01*
X197180979Y-90621265D01*
X197182707Y-90737681D01*
X197186000Y-90821980D01*
X197191359Y-90880391D01*
X197199289Y-90919139D01*
X197210294Y-90944454D01*
X197224876Y-90962564D01*
X197237350Y-90974171D01*
X197278346Y-91003799D01*
X197353445Y-91051606D01*
X197454853Y-91113150D01*
X197574776Y-91183989D01*
X197705420Y-91259681D01*
X197838990Y-91335783D01*
X197967693Y-91407854D01*
X198083734Y-91471452D01*
X198179318Y-91522134D01*
X198246652Y-91555460D01*
X198277569Y-91567000D01*
X198325850Y-91550321D01*
X198343520Y-91536520D01*
X198354143Y-91508862D01*
X198362300Y-91447249D01*
X198368169Y-91347976D01*
X198371928Y-91207337D01*
X198373755Y-91021628D01*
X198374000Y-90901520D01*
X198373686Y-90708835D01*
X198372449Y-90560551D01*
X198369848Y-90450267D01*
X198365443Y-90371587D01*
X198358794Y-90318111D01*
X198349459Y-90283442D01*
X198336998Y-90261181D01*
X198329301Y-90252550D01*
X198295085Y-90227588D01*
X198225289Y-90183280D01*
X198127354Y-90123881D01*
X198008723Y-90053651D01*
X197876836Y-89976847D01*
X197739136Y-89897728D01*
X197603065Y-89820552D01*
X197476064Y-89749577D01*
X197365575Y-89689062D01*
X197279040Y-89643264D01*
X197223900Y-89616441D01*
X197208454Y-89611200D01*
X197198962Y-89629440D01*
G36*
X201579532Y-88861429D02*
X201511866Y-88895278D01*
X201415510Y-88946483D01*
X201297977Y-89010782D01*
X201166779Y-89083915D01*
X201029427Y-89161618D01*
X200893433Y-89239630D01*
X200766310Y-89313688D01*
X200655570Y-89379532D01*
X200568723Y-89432898D01*
X200513283Y-89469526D01*
X200501250Y-89478822D01*
X200487635Y-89494647D01*
X200477096Y-89519577D01*
X200469247Y-89559665D01*
X200463700Y-89620963D01*
X200460070Y-89709523D01*
X200457968Y-89831396D01*
X200457008Y-89992635D01*
X200456800Y-90173936D01*
X200457010Y-90373790D01*
X200457896Y-90528534D01*
X200459845Y-90643859D01*
X200463244Y-90725455D01*
X200468479Y-90779011D01*
X200475937Y-90810217D01*
X200486004Y-90824764D01*
X200499067Y-90828340D01*
X200501250Y-90828285D01*
X200535056Y-90815338D01*
X200605890Y-90780144D01*
X200707050Y-90726317D01*
X200831839Y-90657466D01*
X200973555Y-90577205D01*
X201066400Y-90523635D01*
X201214950Y-90436315D01*
X201349703Y-90355187D01*
X201464072Y-90284371D01*
X201551475Y-90227986D01*
X201605326Y-90190153D01*
X201618850Y-90177994D01*
X201629495Y-90148351D01*
X201637733Y-90088914D01*
X201643764Y-89995400D01*
X201647786Y-89863526D01*
X201649996Y-89689009D01*
X201650600Y-89492045D01*
X201650294Y-89293075D01*
X201649144Y-89139275D01*
X201646802Y-89025014D01*
X201642923Y-88944666D01*
X201637160Y-88892599D01*
X201629166Y-88863188D01*
X201618594Y-88850801D01*
X201610997Y-88849200D01*
X201579532Y-88861429D01*
X201579532Y-88861429D01*
G37*
X201579532Y-88861429D02*
X201511866Y-88895278D01*
X201415510Y-88946483D01*
X201297977Y-89010782D01*
X201166779Y-89083915D01*
X201029427Y-89161618D01*
X200893433Y-89239630D01*
X200766310Y-89313688D01*
X200655570Y-89379532D01*
X200568723Y-89432898D01*
X200513283Y-89469526D01*
X200501250Y-89478822D01*
X200487635Y-89494647D01*
X200477096Y-89519577D01*
X200469247Y-89559665D01*
X200463700Y-89620963D01*
X200460070Y-89709523D01*
X200457968Y-89831396D01*
X200457008Y-89992635D01*
X200456800Y-90173936D01*
X200457010Y-90373790D01*
X200457896Y-90528534D01*
X200459845Y-90643859D01*
X200463244Y-90725455D01*
X200468479Y-90779011D01*
X200475937Y-90810217D01*
X200486004Y-90824764D01*
X200499067Y-90828340D01*
X200501250Y-90828285D01*
X200535056Y-90815338D01*
X200605890Y-90780144D01*
X200707050Y-90726317D01*
X200831839Y-90657466D01*
X200973555Y-90577205D01*
X201066400Y-90523635D01*
X201214950Y-90436315D01*
X201349703Y-90355187D01*
X201464072Y-90284371D01*
X201551475Y-90227986D01*
X201605326Y-90190153D01*
X201618850Y-90177994D01*
X201629495Y-90148351D01*
X201637733Y-90088914D01*
X201643764Y-89995400D01*
X201647786Y-89863526D01*
X201649996Y-89689009D01*
X201650600Y-89492045D01*
X201650294Y-89293075D01*
X201649144Y-89139275D01*
X201646802Y-89025014D01*
X201642923Y-88944666D01*
X201637160Y-88892599D01*
X201629166Y-88863188D01*
X201618594Y-88850801D01*
X201610997Y-88849200D01*
X201579532Y-88861429D01*
G36*
X202944582Y-88082992D02*
X202880469Y-88112855D01*
X202787233Y-88160566D01*
X202672125Y-88222034D01*
X202542396Y-88293168D01*
X202405297Y-88369877D01*
X202268077Y-88448069D01*
X202137988Y-88523654D01*
X202022280Y-88592539D01*
X201928203Y-88650633D01*
X201863009Y-88693846D01*
X201834750Y-88716968D01*
X201824246Y-88745060D01*
X201816088Y-88802363D01*
X201810081Y-88893180D01*
X201806028Y-89021813D01*
X201803734Y-89192567D01*
X201803001Y-89409744D01*
X201803000Y-89412854D01*
X201803540Y-89621673D01*
X201805307Y-89784289D01*
X201808525Y-89905289D01*
X201813415Y-89989262D01*
X201820201Y-90040794D01*
X201829104Y-90064472D01*
X201834750Y-90067297D01*
X201864668Y-90054667D01*
X201932017Y-90019739D01*
X202030463Y-89966008D01*
X202153675Y-89896973D01*
X202295318Y-89816128D01*
X202411763Y-89748728D01*
X202562838Y-89660016D01*
X202699421Y-89578380D01*
X202815298Y-89507651D01*
X202904257Y-89451659D01*
X202960086Y-89414232D01*
X202976524Y-89400580D01*
X202983040Y-89365823D01*
X202988233Y-89289692D01*
X202992130Y-89180473D01*
X202994756Y-89046455D01*
X202996139Y-88895924D01*
X202996304Y-88737167D01*
X202995277Y-88578473D01*
X202993085Y-88428127D01*
X202989754Y-88294418D01*
X202985311Y-88185632D01*
X202979781Y-88110058D01*
X202973191Y-88075981D01*
X202972322Y-88075069D01*
X202944582Y-88082992D01*
X202944582Y-88082992D01*
G37*
X202944582Y-88082992D02*
X202880469Y-88112855D01*
X202787233Y-88160566D01*
X202672125Y-88222034D01*
X202542396Y-88293168D01*
X202405297Y-88369877D01*
X202268077Y-88448069D01*
X202137988Y-88523654D01*
X202022280Y-88592539D01*
X201928203Y-88650633D01*
X201863009Y-88693846D01*
X201834750Y-88716968D01*
X201824246Y-88745060D01*
X201816088Y-88802363D01*
X201810081Y-88893180D01*
X201806028Y-89021813D01*
X201803734Y-89192567D01*
X201803001Y-89409744D01*
X201803000Y-89412854D01*
X201803540Y-89621673D01*
X201805307Y-89784289D01*
X201808525Y-89905289D01*
X201813415Y-89989262D01*
X201820201Y-90040794D01*
X201829104Y-90064472D01*
X201834750Y-90067297D01*
X201864668Y-90054667D01*
X201932017Y-90019739D01*
X202030463Y-89966008D01*
X202153675Y-89896973D01*
X202295318Y-89816128D01*
X202411763Y-89748728D01*
X202562838Y-89660016D01*
X202699421Y-89578380D01*
X202815298Y-89507651D01*
X202904257Y-89451659D01*
X202960086Y-89414232D01*
X202976524Y-89400580D01*
X202983040Y-89365823D01*
X202988233Y-89289692D01*
X202992130Y-89180473D01*
X202994756Y-89046455D01*
X202996139Y-88895924D01*
X202996304Y-88737167D01*
X202995277Y-88578473D01*
X202993085Y-88428127D01*
X202989754Y-88294418D01*
X202985311Y-88185632D01*
X202979781Y-88110058D01*
X202973191Y-88075981D01*
X202972322Y-88075069D01*
X202944582Y-88082992D01*
G36*
X200251881Y-88082817D02*
X200187888Y-88112785D01*
X200094776Y-88160625D01*
X199979789Y-88222239D01*
X199850168Y-88293529D01*
X199713157Y-88370399D01*
X199575996Y-88448752D01*
X199445929Y-88524490D01*
X199330199Y-88593516D01*
X199236047Y-88651733D01*
X199170716Y-88695044D01*
X199142350Y-88718130D01*
X199131859Y-88745702D01*
X199123711Y-88802348D01*
X199117708Y-88892386D01*
X199113654Y-89020132D01*
X199111350Y-89189905D01*
X199110601Y-89406021D01*
X199110600Y-89412854D01*
X199111140Y-89621690D01*
X199112909Y-89784322D01*
X199116128Y-89905339D01*
X199121020Y-89989327D01*
X199127809Y-90040873D01*
X199136715Y-90064564D01*
X199142350Y-90067396D01*
X199172276Y-90054800D01*
X199239636Y-90019919D01*
X199338094Y-89966247D01*
X199461313Y-89897279D01*
X199602956Y-89816508D01*
X199719016Y-89749387D01*
X199870085Y-89660736D01*
X200006679Y-89579117D01*
X200122572Y-89508369D01*
X200211544Y-89452328D01*
X200267372Y-89414830D01*
X200283777Y-89401141D01*
X200290429Y-89366156D01*
X200295731Y-89289823D01*
X200299710Y-89180429D01*
X200302392Y-89046262D01*
X200303804Y-88895612D01*
X200303973Y-88736765D01*
X200302925Y-88578010D01*
X200300688Y-88427635D01*
X200297287Y-88293928D01*
X200292749Y-88185177D01*
X200287101Y-88109670D01*
X200280369Y-88075695D01*
X200279513Y-88074816D01*
X200251881Y-88082817D01*
X200251881Y-88082817D01*
G37*
X200251881Y-88082817D02*
X200187888Y-88112785D01*
X200094776Y-88160625D01*
X199979789Y-88222239D01*
X199850168Y-88293529D01*
X199713157Y-88370399D01*
X199575996Y-88448752D01*
X199445929Y-88524490D01*
X199330199Y-88593516D01*
X199236047Y-88651733D01*
X199170716Y-88695044D01*
X199142350Y-88718130D01*
X199131859Y-88745702D01*
X199123711Y-88802348D01*
X199117708Y-88892386D01*
X199113654Y-89020132D01*
X199111350Y-89189905D01*
X199110601Y-89406021D01*
X199110600Y-89412854D01*
X199111140Y-89621690D01*
X199112909Y-89784322D01*
X199116128Y-89905339D01*
X199121020Y-89989327D01*
X199127809Y-90040873D01*
X199136715Y-90064564D01*
X199142350Y-90067396D01*
X199172276Y-90054800D01*
X199239636Y-90019919D01*
X199338094Y-89966247D01*
X199461313Y-89897279D01*
X199602956Y-89816508D01*
X199719016Y-89749387D01*
X199870085Y-89660736D01*
X200006679Y-89579117D01*
X200122572Y-89508369D01*
X200211544Y-89452328D01*
X200267372Y-89414830D01*
X200283777Y-89401141D01*
X200290429Y-89366156D01*
X200295731Y-89289823D01*
X200299710Y-89180429D01*
X200302392Y-89046262D01*
X200303804Y-88895612D01*
X200303973Y-88736765D01*
X200302925Y-88578010D01*
X200300688Y-88427635D01*
X200297287Y-88293928D01*
X200292749Y-88185177D01*
X200287101Y-88109670D01*
X200280369Y-88075695D01*
X200279513Y-88074816D01*
X200251881Y-88082817D01*
G36*
X197197946Y-88103567D02*
X197192278Y-88174568D01*
X197187699Y-88279784D01*
X197184237Y-88410928D01*
X197181915Y-88559714D01*
X197180759Y-88717853D01*
X197180795Y-88877060D01*
X197182049Y-89029047D01*
X197184545Y-89165527D01*
X197188309Y-89278213D01*
X197193367Y-89358818D01*
X197199744Y-89399054D01*
X197200606Y-89400788D01*
X197227060Y-89421249D01*
X197290395Y-89462229D01*
X197383320Y-89519491D01*
X197498549Y-89588798D01*
X197628792Y-89665912D01*
X197766760Y-89746596D01*
X197905167Y-89826612D01*
X198036722Y-89901725D01*
X198154138Y-89967696D01*
X198250126Y-90020288D01*
X198317397Y-90055265D01*
X198348663Y-90068388D01*
X198348969Y-90068400D01*
X198357127Y-90043468D01*
X198363803Y-89970507D01*
X198368891Y-89852269D01*
X198372287Y-89691508D01*
X198373885Y-89490975D01*
X198374000Y-89412854D01*
X198373286Y-89195053D01*
X198371013Y-89023730D01*
X198366984Y-88894583D01*
X198361003Y-88803308D01*
X198352875Y-88745602D01*
X198342401Y-88717162D01*
X198342250Y-88716968D01*
X198310104Y-88691098D01*
X198242391Y-88646575D01*
X198146362Y-88587490D01*
X198029269Y-88517934D01*
X197898361Y-88441998D01*
X197760890Y-88363775D01*
X197624105Y-88287354D01*
X197495258Y-88216828D01*
X197381598Y-88156288D01*
X197290378Y-88109824D01*
X197228846Y-88081529D01*
X197204679Y-88075069D01*
X197197946Y-88103567D01*
X197197946Y-88103567D01*
G37*
X197197946Y-88103567D02*
X197192278Y-88174568D01*
X197187699Y-88279784D01*
X197184237Y-88410928D01*
X197181915Y-88559714D01*
X197180759Y-88717853D01*
X197180795Y-88877060D01*
X197182049Y-89029047D01*
X197184545Y-89165527D01*
X197188309Y-89278213D01*
X197193367Y-89358818D01*
X197199744Y-89399054D01*
X197200606Y-89400788D01*
X197227060Y-89421249D01*
X197290395Y-89462229D01*
X197383320Y-89519491D01*
X197498549Y-89588798D01*
X197628792Y-89665912D01*
X197766760Y-89746596D01*
X197905167Y-89826612D01*
X198036722Y-89901725D01*
X198154138Y-89967696D01*
X198250126Y-90020288D01*
X198317397Y-90055265D01*
X198348663Y-90068388D01*
X198348969Y-90068400D01*
X198357127Y-90043468D01*
X198363803Y-89970507D01*
X198368891Y-89852269D01*
X198372287Y-89691508D01*
X198373885Y-89490975D01*
X198374000Y-89412854D01*
X198373286Y-89195053D01*
X198371013Y-89023730D01*
X198366984Y-88894583D01*
X198361003Y-88803308D01*
X198352875Y-88745602D01*
X198342401Y-88717162D01*
X198342250Y-88716968D01*
X198310104Y-88691098D01*
X198242391Y-88646575D01*
X198146362Y-88587490D01*
X198029269Y-88517934D01*
X197898361Y-88441998D01*
X197760890Y-88363775D01*
X197624105Y-88287354D01*
X197495258Y-88216828D01*
X197381598Y-88156288D01*
X197290378Y-88109824D01*
X197228846Y-88081529D01*
X197204679Y-88075069D01*
X197197946Y-88103567D01*
G36*
X204275993Y-87311984D02*
X204209013Y-87345712D01*
X204113225Y-87396747D01*
X203996109Y-87460852D01*
X203865149Y-87533790D01*
X203727825Y-87611324D01*
X203591620Y-87689216D01*
X203464015Y-87763231D01*
X203352492Y-87829129D01*
X203264533Y-87882676D01*
X203207619Y-87919633D01*
X203193650Y-87930129D01*
X203180037Y-87945719D01*
X203169499Y-87970431D01*
X203161650Y-88010310D01*
X203156104Y-88071402D01*
X203152473Y-88159753D01*
X203150371Y-88281409D01*
X203149410Y-88442413D01*
X203149200Y-88624536D01*
X203149411Y-88824410D01*
X203150300Y-88979181D01*
X203152255Y-89094546D01*
X203155661Y-89176200D01*
X203160905Y-89229841D01*
X203168374Y-89261164D01*
X203178454Y-89275866D01*
X203191532Y-89279643D01*
X203193650Y-89279623D01*
X203227780Y-89266869D01*
X203298675Y-89231915D01*
X203399406Y-89178477D01*
X203523046Y-89110268D01*
X203662666Y-89031003D01*
X203730033Y-88992036D01*
X203905141Y-88890831D01*
X204043399Y-88808961D01*
X204149141Y-88738725D01*
X204226700Y-88672424D01*
X204280409Y-88602357D01*
X204314601Y-88520825D01*
X204333611Y-88420126D01*
X204341772Y-88292561D01*
X204343416Y-88130429D01*
X204342877Y-87926031D01*
X204342870Y-87903050D01*
X204342494Y-87709075D01*
X204341046Y-87560322D01*
X204338193Y-87451217D01*
X204333601Y-87376187D01*
X204326935Y-87329658D01*
X204317862Y-87306058D01*
X204306683Y-87299800D01*
X204275993Y-87311984D01*
X204275993Y-87311984D01*
G37*
X204275993Y-87311984D02*
X204209013Y-87345712D01*
X204113225Y-87396747D01*
X203996109Y-87460852D01*
X203865149Y-87533790D01*
X203727825Y-87611324D01*
X203591620Y-87689216D01*
X203464015Y-87763231D01*
X203352492Y-87829129D01*
X203264533Y-87882676D01*
X203207619Y-87919633D01*
X203193650Y-87930129D01*
X203180037Y-87945719D01*
X203169499Y-87970431D01*
X203161650Y-88010310D01*
X203156104Y-88071402D01*
X203152473Y-88159753D01*
X203150371Y-88281409D01*
X203149410Y-88442413D01*
X203149200Y-88624536D01*
X203149411Y-88824410D01*
X203150300Y-88979181D01*
X203152255Y-89094546D01*
X203155661Y-89176200D01*
X203160905Y-89229841D01*
X203168374Y-89261164D01*
X203178454Y-89275866D01*
X203191532Y-89279643D01*
X203193650Y-89279623D01*
X203227780Y-89266869D01*
X203298675Y-89231915D01*
X203399406Y-89178477D01*
X203523046Y-89110268D01*
X203662666Y-89031003D01*
X203730033Y-88992036D01*
X203905141Y-88890831D01*
X204043399Y-88808961D01*
X204149141Y-88738725D01*
X204226700Y-88672424D01*
X204280409Y-88602357D01*
X204314601Y-88520825D01*
X204333611Y-88420126D01*
X204341772Y-88292561D01*
X204343416Y-88130429D01*
X204342877Y-87926031D01*
X204342870Y-87903050D01*
X204342494Y-87709075D01*
X204341046Y-87560322D01*
X204338193Y-87451217D01*
X204333601Y-87376187D01*
X204326935Y-87329658D01*
X204317862Y-87306058D01*
X204306683Y-87299800D01*
X204275993Y-87311984D01*
G36*
X195849267Y-87343134D02*
X195844089Y-87414866D01*
X195839748Y-87523371D01*
X195836474Y-87661635D01*
X195834496Y-87822646D01*
X195834000Y-87958885D01*
X195834310Y-88156474D01*
X195835512Y-88309569D01*
X195838019Y-88424476D01*
X195842240Y-88507497D01*
X195848589Y-88564937D01*
X195857475Y-88603100D01*
X195869310Y-88628291D01*
X195878450Y-88640320D01*
X195912716Y-88667190D01*
X195982815Y-88713321D01*
X196081194Y-88774366D01*
X196200299Y-88845977D01*
X196332576Y-88923806D01*
X196470470Y-89003506D01*
X196606427Y-89080728D01*
X196732893Y-89151126D01*
X196842315Y-89210350D01*
X196927137Y-89254054D01*
X196979806Y-89277890D01*
X196991621Y-89281000D01*
X197002822Y-89274107D01*
X197011520Y-89249869D01*
X197018011Y-89202943D01*
X197022588Y-89127985D01*
X197025545Y-89019654D01*
X197027177Y-88872607D01*
X197027777Y-88681501D01*
X197027800Y-88623710D01*
X197027490Y-88421409D01*
X197026319Y-88263956D01*
X197023925Y-88145404D01*
X197019949Y-88059803D01*
X197014029Y-88001204D01*
X197005804Y-87963659D01*
X196994914Y-87941219D01*
X196985812Y-87931560D01*
X196944875Y-87903649D01*
X196869870Y-87858215D01*
X196768112Y-87799244D01*
X196646917Y-87730725D01*
X196513600Y-87656646D01*
X196375480Y-87580994D01*
X196239870Y-87507758D01*
X196114089Y-87440926D01*
X196005451Y-87384486D01*
X195921273Y-87342426D01*
X195868870Y-87318733D01*
X195855053Y-87315187D01*
X195849267Y-87343134D01*
X195849267Y-87343134D01*
G37*
X195849267Y-87343134D02*
X195844089Y-87414866D01*
X195839748Y-87523371D01*
X195836474Y-87661635D01*
X195834496Y-87822646D01*
X195834000Y-87958885D01*
X195834310Y-88156474D01*
X195835512Y-88309569D01*
X195838019Y-88424476D01*
X195842240Y-88507497D01*
X195848589Y-88564937D01*
X195857475Y-88603100D01*
X195869310Y-88628291D01*
X195878450Y-88640320D01*
X195912716Y-88667190D01*
X195982815Y-88713321D01*
X196081194Y-88774366D01*
X196200299Y-88845977D01*
X196332576Y-88923806D01*
X196470470Y-89003506D01*
X196606427Y-89080728D01*
X196732893Y-89151126D01*
X196842315Y-89210350D01*
X196927137Y-89254054D01*
X196979806Y-89277890D01*
X196991621Y-89281000D01*
X197002822Y-89274107D01*
X197011520Y-89249869D01*
X197018011Y-89202943D01*
X197022588Y-89127985D01*
X197025545Y-89019654D01*
X197027177Y-88872607D01*
X197027777Y-88681501D01*
X197027800Y-88623710D01*
X197027490Y-88421409D01*
X197026319Y-88263956D01*
X197023925Y-88145404D01*
X197019949Y-88059803D01*
X197014029Y-88001204D01*
X197005804Y-87963659D01*
X196994914Y-87941219D01*
X196985812Y-87931560D01*
X196944875Y-87903649D01*
X196869870Y-87858215D01*
X196768112Y-87799244D01*
X196646917Y-87730725D01*
X196513600Y-87656646D01*
X196375480Y-87580994D01*
X196239870Y-87507758D01*
X196114089Y-87440926D01*
X196005451Y-87384486D01*
X195921273Y-87342426D01*
X195868870Y-87318733D01*
X195855053Y-87315187D01*
X195849267Y-87343134D01*
G36*
X193167880Y-87305326D02*
X193158335Y-87325788D01*
X193151368Y-87367012D01*
X193146596Y-87434825D01*
X193143634Y-87535053D01*
X193142099Y-87673521D01*
X193141608Y-87856057D01*
X193141600Y-87888680D01*
X193140878Y-88095036D01*
X193141575Y-88260574D01*
X193147986Y-88392395D01*
X193164408Y-88497602D01*
X193195136Y-88583294D01*
X193244465Y-88656574D01*
X193316691Y-88724542D01*
X193416110Y-88794300D01*
X193547017Y-88872950D01*
X193713708Y-88967592D01*
X193836248Y-89037038D01*
X193970870Y-89112775D01*
X194091849Y-89178937D01*
X194191763Y-89231618D01*
X194263193Y-89266913D01*
X194298717Y-89280916D01*
X194299798Y-89281000D01*
X194310853Y-89273688D01*
X194319440Y-89248227D01*
X194325846Y-89199331D01*
X194330357Y-89121711D01*
X194333260Y-89010082D01*
X194334842Y-88859155D01*
X194335390Y-88663643D01*
X194335400Y-88624536D01*
X194335131Y-88423221D01*
X194334064Y-88266652D01*
X194331812Y-88148780D01*
X194327989Y-88063552D01*
X194322208Y-88004917D01*
X194314081Y-87966825D01*
X194303221Y-87943224D01*
X194290950Y-87929509D01*
X194251007Y-87901331D01*
X194176498Y-87854614D01*
X194074930Y-87793614D01*
X193953808Y-87722588D01*
X193820639Y-87645790D01*
X193682929Y-87567477D01*
X193548182Y-87491905D01*
X193423906Y-87423330D01*
X193317605Y-87366007D01*
X193236786Y-87324193D01*
X193188954Y-87302144D01*
X193180387Y-87299800D01*
X193167880Y-87305326D01*
X193167880Y-87305326D01*
G37*
X193167880Y-87305326D02*
X193158335Y-87325788D01*
X193151368Y-87367012D01*
X193146596Y-87434825D01*
X193143634Y-87535053D01*
X193142099Y-87673521D01*
X193141608Y-87856057D01*
X193141600Y-87888680D01*
X193140878Y-88095036D01*
X193141575Y-88260574D01*
X193147986Y-88392395D01*
X193164408Y-88497602D01*
X193195136Y-88583294D01*
X193244465Y-88656574D01*
X193316691Y-88724542D01*
X193416110Y-88794300D01*
X193547017Y-88872950D01*
X193713708Y-88967592D01*
X193836248Y-89037038D01*
X193970870Y-89112775D01*
X194091849Y-89178937D01*
X194191763Y-89231618D01*
X194263193Y-89266913D01*
X194298717Y-89280916D01*
X194299798Y-89281000D01*
X194310853Y-89273688D01*
X194319440Y-89248227D01*
X194325846Y-89199331D01*
X194330357Y-89121711D01*
X194333260Y-89010082D01*
X194334842Y-88859155D01*
X194335390Y-88663643D01*
X194335400Y-88624536D01*
X194335131Y-88423221D01*
X194334064Y-88266652D01*
X194331812Y-88148780D01*
X194327989Y-88063552D01*
X194322208Y-88004917D01*
X194314081Y-87966825D01*
X194303221Y-87943224D01*
X194290950Y-87929509D01*
X194251007Y-87901331D01*
X194176498Y-87854614D01*
X194074930Y-87793614D01*
X193953808Y-87722588D01*
X193820639Y-87645790D01*
X193682929Y-87567477D01*
X193548182Y-87491905D01*
X193423906Y-87423330D01*
X193317605Y-87366007D01*
X193236786Y-87324193D01*
X193188954Y-87302144D01*
X193180387Y-87299800D01*
X193167880Y-87305326D01*
G36*
X200254483Y-86535028D02*
X200191180Y-86565471D01*
X200098603Y-86613796D01*
X199983926Y-86675921D01*
X199854319Y-86747764D01*
X199716953Y-86825244D01*
X199579001Y-86904279D01*
X199447634Y-86980789D01*
X199330023Y-87050693D01*
X199233341Y-87109908D01*
X199164759Y-87154354D01*
X199131448Y-87179949D01*
X199130039Y-87181744D01*
X199124972Y-87214159D01*
X199120396Y-87290268D01*
X199116513Y-87402966D01*
X199113518Y-87545147D01*
X199111610Y-87709707D01*
X199110989Y-87864950D01*
X199111407Y-88073545D01*
X199113083Y-88235947D01*
X199116240Y-88356751D01*
X199121097Y-88440553D01*
X199127875Y-88491947D01*
X199136794Y-88515531D01*
X199142350Y-88518329D01*
X199172460Y-88505974D01*
X199240060Y-88471629D01*
X199338698Y-88418789D01*
X199461920Y-88350948D01*
X199603274Y-88271602D01*
X199707500Y-88212261D01*
X199858106Y-88125089D01*
X199994886Y-88044126D01*
X200111314Y-87973381D01*
X200200865Y-87916863D01*
X200257011Y-87878578D01*
X200272650Y-87865177D01*
X200281455Y-87829350D01*
X200288985Y-87752140D01*
X200295189Y-87641836D01*
X200300011Y-87506726D01*
X200303399Y-87355100D01*
X200305297Y-87195248D01*
X200305654Y-87035458D01*
X200304414Y-86884019D01*
X200301524Y-86749221D01*
X200296930Y-86639353D01*
X200290579Y-86562703D01*
X200282415Y-86527562D01*
X200281341Y-86526546D01*
X200254483Y-86535028D01*
X200254483Y-86535028D01*
G37*
X200254483Y-86535028D02*
X200191180Y-86565471D01*
X200098603Y-86613796D01*
X199983926Y-86675921D01*
X199854319Y-86747764D01*
X199716953Y-86825244D01*
X199579001Y-86904279D01*
X199447634Y-86980789D01*
X199330023Y-87050693D01*
X199233341Y-87109908D01*
X199164759Y-87154354D01*
X199131448Y-87179949D01*
X199130039Y-87181744D01*
X199124972Y-87214159D01*
X199120396Y-87290268D01*
X199116513Y-87402966D01*
X199113518Y-87545147D01*
X199111610Y-87709707D01*
X199110989Y-87864950D01*
X199111407Y-88073545D01*
X199113083Y-88235947D01*
X199116240Y-88356751D01*
X199121097Y-88440553D01*
X199127875Y-88491947D01*
X199136794Y-88515531D01*
X199142350Y-88518329D01*
X199172460Y-88505974D01*
X199240060Y-88471629D01*
X199338698Y-88418789D01*
X199461920Y-88350948D01*
X199603274Y-88271602D01*
X199707500Y-88212261D01*
X199858106Y-88125089D01*
X199994886Y-88044126D01*
X200111314Y-87973381D01*
X200200865Y-87916863D01*
X200257011Y-87878578D01*
X200272650Y-87865177D01*
X200281455Y-87829350D01*
X200288985Y-87752140D01*
X200295189Y-87641836D01*
X200300011Y-87506726D01*
X200303399Y-87355100D01*
X200305297Y-87195248D01*
X200305654Y-87035458D01*
X200304414Y-86884019D01*
X200301524Y-86749221D01*
X200296930Y-86639353D01*
X200290579Y-86562703D01*
X200282415Y-86527562D01*
X200281341Y-86526546D01*
X200254483Y-86535028D01*
G36*
X197204386Y-86525850D02*
X197195738Y-86555769D01*
X197188917Y-86628156D01*
X197183877Y-86734712D01*
X197180570Y-86867140D01*
X197178951Y-87017142D01*
X197178971Y-87176420D01*
X197180585Y-87336676D01*
X197183744Y-87489612D01*
X197188403Y-87626931D01*
X197194514Y-87740334D01*
X197202031Y-87821523D01*
X197210906Y-87862201D01*
X197211950Y-87863831D01*
X197241492Y-87886488D01*
X197307503Y-87929142D01*
X197402600Y-87987535D01*
X197519399Y-88057408D01*
X197650517Y-88134503D01*
X197788570Y-88214560D01*
X197926175Y-88293322D01*
X198055948Y-88366530D01*
X198170506Y-88429926D01*
X198262464Y-88479250D01*
X198324440Y-88510245D01*
X198347900Y-88519000D01*
X198356987Y-88493728D01*
X198364128Y-88418356D01*
X198369297Y-88293546D01*
X198372467Y-88119962D01*
X198373613Y-87898266D01*
X198373612Y-87864950D01*
X198372801Y-87686714D01*
X198370721Y-87524674D01*
X198367571Y-87385938D01*
X198363551Y-87277619D01*
X198358861Y-87206828D01*
X198354410Y-87181330D01*
X198326236Y-87158211D01*
X198261857Y-87115727D01*
X198168451Y-87057968D01*
X198053191Y-86989023D01*
X197923254Y-86912983D01*
X197785815Y-86833936D01*
X197648050Y-86755973D01*
X197517133Y-86683184D01*
X197400240Y-86619658D01*
X197304547Y-86569485D01*
X197237228Y-86536755D01*
X197205460Y-86525558D01*
X197204386Y-86525850D01*
X197204386Y-86525850D01*
G37*
X197204386Y-86525850D02*
X197195738Y-86555769D01*
X197188917Y-86628156D01*
X197183877Y-86734712D01*
X197180570Y-86867140D01*
X197178951Y-87017142D01*
X197178971Y-87176420D01*
X197180585Y-87336676D01*
X197183744Y-87489612D01*
X197188403Y-87626931D01*
X197194514Y-87740334D01*
X197202031Y-87821523D01*
X197210906Y-87862201D01*
X197211950Y-87863831D01*
X197241492Y-87886488D01*
X197307503Y-87929142D01*
X197402600Y-87987535D01*
X197519399Y-88057408D01*
X197650517Y-88134503D01*
X197788570Y-88214560D01*
X197926175Y-88293322D01*
X198055948Y-88366530D01*
X198170506Y-88429926D01*
X198262464Y-88479250D01*
X198324440Y-88510245D01*
X198347900Y-88519000D01*
X198356987Y-88493728D01*
X198364128Y-88418356D01*
X198369297Y-88293546D01*
X198372467Y-88119962D01*
X198373613Y-87898266D01*
X198373612Y-87864950D01*
X198372801Y-87686714D01*
X198370721Y-87524674D01*
X198367571Y-87385938D01*
X198363551Y-87277619D01*
X198358861Y-87206828D01*
X198354410Y-87181330D01*
X198326236Y-87158211D01*
X198261857Y-87115727D01*
X198168451Y-87057968D01*
X198053191Y-86989023D01*
X197923254Y-86912983D01*
X197785815Y-86833936D01*
X197648050Y-86755973D01*
X197517133Y-86683184D01*
X197400240Y-86619658D01*
X197304547Y-86569485D01*
X197237228Y-86536755D01*
X197205460Y-86525558D01*
X197204386Y-86525850D01*
G36*
X194503888Y-86555429D02*
X194496903Y-86627919D01*
X194491708Y-86734573D01*
X194488262Y-86867091D01*
X194486522Y-87017173D01*
X194486446Y-87176517D01*
X194487990Y-87336825D01*
X194491114Y-87489794D01*
X194495773Y-87627125D01*
X194501927Y-87740517D01*
X194509531Y-87821670D01*
X194518545Y-87862283D01*
X194519550Y-87863831D01*
X194549092Y-87886488D01*
X194615103Y-87929142D01*
X194710200Y-87987535D01*
X194826999Y-88057408D01*
X194958117Y-88134503D01*
X195096170Y-88214560D01*
X195233775Y-88293322D01*
X195363548Y-88366530D01*
X195478106Y-88429926D01*
X195570064Y-88479250D01*
X195632040Y-88510245D01*
X195655500Y-88519000D01*
X195664581Y-88493731D01*
X195671757Y-88418384D01*
X195677000Y-88293644D01*
X195680283Y-88120197D01*
X195681579Y-87898729D01*
X195681600Y-87862536D01*
X195681330Y-87661203D01*
X195680261Y-87504613D01*
X195678006Y-87386713D01*
X195674179Y-87301446D01*
X195668392Y-87242759D01*
X195660258Y-87204596D01*
X195649390Y-87180903D01*
X195637150Y-87167119D01*
X195594253Y-87135978D01*
X195518048Y-87087080D01*
X195415761Y-87024548D01*
X195294615Y-86952505D01*
X195161834Y-86875074D01*
X195024641Y-86796376D01*
X194890259Y-86720535D01*
X194765913Y-86651672D01*
X194658826Y-86593910D01*
X194576221Y-86551372D01*
X194525323Y-86528181D01*
X194512707Y-86525404D01*
X194503888Y-86555429D01*
X194503888Y-86555429D01*
G37*
X194503888Y-86555429D02*
X194496903Y-86627919D01*
X194491708Y-86734573D01*
X194488262Y-86867091D01*
X194486522Y-87017173D01*
X194486446Y-87176517D01*
X194487990Y-87336825D01*
X194491114Y-87489794D01*
X194495773Y-87627125D01*
X194501927Y-87740517D01*
X194509531Y-87821670D01*
X194518545Y-87862283D01*
X194519550Y-87863831D01*
X194549092Y-87886488D01*
X194615103Y-87929142D01*
X194710200Y-87987535D01*
X194826999Y-88057408D01*
X194958117Y-88134503D01*
X195096170Y-88214560D01*
X195233775Y-88293322D01*
X195363548Y-88366530D01*
X195478106Y-88429926D01*
X195570064Y-88479250D01*
X195632040Y-88510245D01*
X195655500Y-88519000D01*
X195664581Y-88493731D01*
X195671757Y-88418384D01*
X195677000Y-88293644D01*
X195680283Y-88120197D01*
X195681579Y-87898729D01*
X195681600Y-87862536D01*
X195681330Y-87661203D01*
X195680261Y-87504613D01*
X195678006Y-87386713D01*
X195674179Y-87301446D01*
X195668392Y-87242759D01*
X195660258Y-87204596D01*
X195649390Y-87180903D01*
X195637150Y-87167119D01*
X195594253Y-87135978D01*
X195518048Y-87087080D01*
X195415761Y-87024548D01*
X195294615Y-86952505D01*
X195161834Y-86875074D01*
X195024641Y-86796376D01*
X194890259Y-86720535D01*
X194765913Y-86651672D01*
X194658826Y-86593910D01*
X194576221Y-86551372D01*
X194525323Y-86528181D01*
X194512707Y-86525404D01*
X194503888Y-86555429D01*
G36*
X204279417Y-85762523D02*
X204213189Y-85796081D01*
X204118113Y-85846856D01*
X204001687Y-85910629D01*
X203871411Y-85983183D01*
X203734783Y-86060299D01*
X203599303Y-86137759D01*
X203472470Y-86211344D01*
X203361783Y-86276838D01*
X203274742Y-86330021D01*
X203244450Y-86349358D01*
X203149200Y-86411520D01*
X203149200Y-87070061D01*
X203149933Y-87247768D01*
X203151995Y-87408242D01*
X203155186Y-87544639D01*
X203159303Y-87650113D01*
X203164144Y-87717820D01*
X203168977Y-87740824D01*
X203195609Y-87732137D01*
X203259881Y-87701213D01*
X203355526Y-87651368D01*
X203476280Y-87585922D01*
X203615878Y-87508192D01*
X203721427Y-87448263D01*
X203872728Y-87361101D01*
X204011060Y-87280292D01*
X204129705Y-87209850D01*
X204221946Y-87153789D01*
X204281063Y-87116124D01*
X204298550Y-87103403D01*
X204312170Y-87087104D01*
X204322711Y-87061733D01*
X204330562Y-87021222D01*
X204336109Y-86959509D01*
X204339738Y-86870526D01*
X204341839Y-86748211D01*
X204342796Y-86586497D01*
X204343000Y-86406863D01*
X204342541Y-86200926D01*
X204340991Y-86040757D01*
X204338092Y-85921329D01*
X204333586Y-85837617D01*
X204327215Y-85784595D01*
X204318722Y-85757236D01*
X204309296Y-85750400D01*
X204279417Y-85762523D01*
X204279417Y-85762523D01*
G37*
X204279417Y-85762523D02*
X204213189Y-85796081D01*
X204118113Y-85846856D01*
X204001687Y-85910629D01*
X203871411Y-85983183D01*
X203734783Y-86060299D01*
X203599303Y-86137759D01*
X203472470Y-86211344D01*
X203361783Y-86276838D01*
X203274742Y-86330021D01*
X203244450Y-86349358D01*
X203149200Y-86411520D01*
X203149200Y-87070061D01*
X203149933Y-87247768D01*
X203151995Y-87408242D01*
X203155186Y-87544639D01*
X203159303Y-87650113D01*
X203164144Y-87717820D01*
X203168977Y-87740824D01*
X203195609Y-87732137D01*
X203259881Y-87701213D01*
X203355526Y-87651368D01*
X203476280Y-87585922D01*
X203615878Y-87508192D01*
X203721427Y-87448263D01*
X203872728Y-87361101D01*
X204011060Y-87280292D01*
X204129705Y-87209850D01*
X204221946Y-87153789D01*
X204281063Y-87116124D01*
X204298550Y-87103403D01*
X204312170Y-87087104D01*
X204322711Y-87061733D01*
X204330562Y-87021222D01*
X204336109Y-86959509D01*
X204339738Y-86870526D01*
X204341839Y-86748211D01*
X204342796Y-86586497D01*
X204343000Y-86406863D01*
X204342541Y-86200926D01*
X204340991Y-86040757D01*
X204338092Y-85921329D01*
X204333586Y-85837617D01*
X204327215Y-85784595D01*
X204318722Y-85757236D01*
X204309296Y-85750400D01*
X204279417Y-85762523D01*
G36*
X193166032Y-85757773D02*
X193157406Y-85783443D01*
X193150993Y-85832738D01*
X193146500Y-85910983D01*
X193143633Y-86023505D01*
X193142099Y-86175632D01*
X193141604Y-86372689D01*
X193141600Y-86395286D01*
X193141902Y-86595361D01*
X193143072Y-86750882D01*
X193145508Y-86868092D01*
X193149608Y-86953234D01*
X193155769Y-87012551D01*
X193164390Y-87052286D01*
X193175869Y-87078683D01*
X193186050Y-87092845D01*
X193220546Y-87120482D01*
X193292342Y-87168495D01*
X193394381Y-87232497D01*
X193519606Y-87308105D01*
X193660960Y-87390934D01*
X193725800Y-87428168D01*
X193900197Y-87527719D01*
X194035513Y-87604868D01*
X194136847Y-87662285D01*
X194209301Y-87702644D01*
X194257973Y-87728616D01*
X194287963Y-87742874D01*
X194304370Y-87748089D01*
X194312295Y-87746933D01*
X194316837Y-87742079D01*
X194319361Y-87739172D01*
X194323698Y-87710423D01*
X194327591Y-87637802D01*
X194330872Y-87528237D01*
X194333377Y-87388656D01*
X194334938Y-87225986D01*
X194335400Y-87070076D01*
X194335017Y-86866619D01*
X194333647Y-86708173D01*
X194330964Y-86588952D01*
X194326640Y-86503172D01*
X194320348Y-86445046D01*
X194311761Y-86408791D01*
X194300552Y-86388621D01*
X194296631Y-86384844D01*
X194257277Y-86357830D01*
X194183362Y-86312121D01*
X194082315Y-86251929D01*
X193961563Y-86181462D01*
X193828535Y-86104931D01*
X193690661Y-86026547D01*
X193555367Y-85950519D01*
X193430084Y-85881057D01*
X193322240Y-85822371D01*
X193239263Y-85778671D01*
X193188581Y-85754168D01*
X193177167Y-85750400D01*
X193166032Y-85757773D01*
X193166032Y-85757773D01*
G37*
X193166032Y-85757773D02*
X193157406Y-85783443D01*
X193150993Y-85832738D01*
X193146500Y-85910983D01*
X193143633Y-86023505D01*
X193142099Y-86175632D01*
X193141604Y-86372689D01*
X193141600Y-86395286D01*
X193141902Y-86595361D01*
X193143072Y-86750882D01*
X193145508Y-86868092D01*
X193149608Y-86953234D01*
X193155769Y-87012551D01*
X193164390Y-87052286D01*
X193175869Y-87078683D01*
X193186050Y-87092845D01*
X193220546Y-87120482D01*
X193292342Y-87168495D01*
X193394381Y-87232497D01*
X193519606Y-87308105D01*
X193660960Y-87390934D01*
X193725800Y-87428168D01*
X193900197Y-87527719D01*
X194035513Y-87604868D01*
X194136847Y-87662285D01*
X194209301Y-87702644D01*
X194257973Y-87728616D01*
X194287963Y-87742874D01*
X194304370Y-87748089D01*
X194312295Y-87746933D01*
X194316837Y-87742079D01*
X194319361Y-87739172D01*
X194323698Y-87710423D01*
X194327591Y-87637802D01*
X194330872Y-87528237D01*
X194333377Y-87388656D01*
X194334938Y-87225986D01*
X194335400Y-87070076D01*
X194335017Y-86866619D01*
X194333647Y-86708173D01*
X194330964Y-86588952D01*
X194326640Y-86503172D01*
X194320348Y-86445046D01*
X194311761Y-86408791D01*
X194300552Y-86388621D01*
X194296631Y-86384844D01*
X194257277Y-86357830D01*
X194183362Y-86312121D01*
X194082315Y-86251929D01*
X193961563Y-86181462D01*
X193828535Y-86104931D01*
X193690661Y-86026547D01*
X193555367Y-85950519D01*
X193430084Y-85881057D01*
X193322240Y-85822371D01*
X193239263Y-85778671D01*
X193188581Y-85754168D01*
X193177167Y-85750400D01*
X193166032Y-85757773D01*
G36*
X200252737Y-84984948D02*
X200186764Y-85014745D01*
X200092619Y-85063413D01*
X199977573Y-85126641D01*
X199848898Y-85200116D01*
X199713865Y-85279525D01*
X199579746Y-85360555D01*
X199453811Y-85438895D01*
X199343332Y-85510231D01*
X199255580Y-85570252D01*
X199197827Y-85614643D01*
X199180172Y-85632570D01*
X199162498Y-85659381D01*
X199148811Y-85688554D01*
X199138502Y-85726770D01*
X199130964Y-85780707D01*
X199125590Y-85857044D01*
X199121770Y-85962461D01*
X199118898Y-86103636D01*
X199116365Y-86287249D01*
X199115709Y-86340950D01*
X199113765Y-86542378D01*
X199113528Y-86698103D01*
X199115202Y-86813198D01*
X199118995Y-86892737D01*
X199125110Y-86941794D01*
X199133755Y-86965442D01*
X199141169Y-86969600D01*
X199171629Y-86957399D01*
X199239523Y-86923129D01*
X199338388Y-86870286D01*
X199461759Y-86802364D01*
X199603173Y-86722860D01*
X199707561Y-86663266D01*
X199858098Y-86575873D01*
X199994823Y-86494731D01*
X200111218Y-86423852D01*
X200200764Y-86367248D01*
X200256944Y-86328929D01*
X200272650Y-86315512D01*
X200281194Y-86280161D01*
X200288581Y-86203375D01*
X200294747Y-86093440D01*
X200299624Y-85958642D01*
X200303149Y-85807266D01*
X200305254Y-85647598D01*
X200305873Y-85487923D01*
X200304943Y-85336528D01*
X200302395Y-85201698D01*
X200298165Y-85091718D01*
X200292187Y-85014875D01*
X200284395Y-84979453D01*
X200283266Y-84978336D01*
X200252737Y-84984948D01*
X200252737Y-84984948D01*
G37*
X200252737Y-84984948D02*
X200186764Y-85014745D01*
X200092619Y-85063413D01*
X199977573Y-85126641D01*
X199848898Y-85200116D01*
X199713865Y-85279525D01*
X199579746Y-85360555D01*
X199453811Y-85438895D01*
X199343332Y-85510231D01*
X199255580Y-85570252D01*
X199197827Y-85614643D01*
X199180172Y-85632570D01*
X199162498Y-85659381D01*
X199148811Y-85688554D01*
X199138502Y-85726770D01*
X199130964Y-85780707D01*
X199125590Y-85857044D01*
X199121770Y-85962461D01*
X199118898Y-86103636D01*
X199116365Y-86287249D01*
X199115709Y-86340950D01*
X199113765Y-86542378D01*
X199113528Y-86698103D01*
X199115202Y-86813198D01*
X199118995Y-86892737D01*
X199125110Y-86941794D01*
X199133755Y-86965442D01*
X199141169Y-86969600D01*
X199171629Y-86957399D01*
X199239523Y-86923129D01*
X199338388Y-86870286D01*
X199461759Y-86802364D01*
X199603173Y-86722860D01*
X199707561Y-86663266D01*
X199858098Y-86575873D01*
X199994823Y-86494731D01*
X200111218Y-86423852D01*
X200200764Y-86367248D01*
X200256944Y-86328929D01*
X200272650Y-86315512D01*
X200281194Y-86280161D01*
X200288581Y-86203375D01*
X200294747Y-86093440D01*
X200299624Y-85958642D01*
X200303149Y-85807266D01*
X200305254Y-85647598D01*
X200305873Y-85487923D01*
X200304943Y-85336528D01*
X200302395Y-85201698D01*
X200298165Y-85091718D01*
X200292187Y-85014875D01*
X200284395Y-84979453D01*
X200283266Y-84978336D01*
X200252737Y-84984948D01*
G36*
X204283872Y-84213284D02*
X204216790Y-84247297D01*
X204120941Y-84298781D01*
X204003768Y-84363479D01*
X203872712Y-84437131D01*
X203735215Y-84515480D01*
X203598719Y-84594267D01*
X203470665Y-84669235D01*
X203358496Y-84736125D01*
X203269653Y-84790678D01*
X203211578Y-84828638D01*
X203193900Y-84842350D01*
X203180100Y-84860146D01*
X203169445Y-84886808D01*
X203161535Y-84928498D01*
X203155972Y-84991381D01*
X203152357Y-85081621D01*
X203150290Y-85205380D01*
X203149374Y-85368824D01*
X203149200Y-85533000D01*
X203149983Y-85709020D01*
X203152187Y-85867792D01*
X203155593Y-86002395D01*
X203159983Y-86105909D01*
X203165141Y-86171412D01*
X203169951Y-86192026D01*
X203196916Y-86183571D01*
X203261480Y-86152939D01*
X203357306Y-86103457D01*
X203478058Y-86038448D01*
X203617399Y-85961238D01*
X203715788Y-85905599D01*
X203866601Y-85818947D01*
X204004858Y-85738180D01*
X204123660Y-85667436D01*
X204216107Y-85610853D01*
X204275298Y-85572567D01*
X204291937Y-85560138D01*
X204307480Y-85543773D01*
X204319506Y-85522141D01*
X204328465Y-85489058D01*
X204334807Y-85438338D01*
X204338980Y-85363797D01*
X204341434Y-85259250D01*
X204342619Y-85118512D01*
X204342983Y-84935398D01*
X204343000Y-84857463D01*
X204342216Y-84636999D01*
X204339784Y-84464639D01*
X204335591Y-84337710D01*
X204329521Y-84253537D01*
X204321460Y-84209448D01*
X204314747Y-84201000D01*
X204283872Y-84213284D01*
X204283872Y-84213284D01*
G37*
X204283872Y-84213284D02*
X204216790Y-84247297D01*
X204120941Y-84298781D01*
X204003768Y-84363479D01*
X203872712Y-84437131D01*
X203735215Y-84515480D01*
X203598719Y-84594267D01*
X203470665Y-84669235D01*
X203358496Y-84736125D01*
X203269653Y-84790678D01*
X203211578Y-84828638D01*
X203193900Y-84842350D01*
X203180100Y-84860146D01*
X203169445Y-84886808D01*
X203161535Y-84928498D01*
X203155972Y-84991381D01*
X203152357Y-85081621D01*
X203150290Y-85205380D01*
X203149374Y-85368824D01*
X203149200Y-85533000D01*
X203149983Y-85709020D01*
X203152187Y-85867792D01*
X203155593Y-86002395D01*
X203159983Y-86105909D01*
X203165141Y-86171412D01*
X203169951Y-86192026D01*
X203196916Y-86183571D01*
X203261480Y-86152939D01*
X203357306Y-86103457D01*
X203478058Y-86038448D01*
X203617399Y-85961238D01*
X203715788Y-85905599D01*
X203866601Y-85818947D01*
X204004858Y-85738180D01*
X204123660Y-85667436D01*
X204216107Y-85610853D01*
X204275298Y-85572567D01*
X204291937Y-85560138D01*
X204307480Y-85543773D01*
X204319506Y-85522141D01*
X204328465Y-85489058D01*
X204334807Y-85438338D01*
X204338980Y-85363797D01*
X204341434Y-85259250D01*
X204342619Y-85118512D01*
X204342983Y-84935398D01*
X204343000Y-84857463D01*
X204342216Y-84636999D01*
X204339784Y-84464639D01*
X204335591Y-84337710D01*
X204329521Y-84253537D01*
X204321460Y-84209448D01*
X204314747Y-84201000D01*
X204283872Y-84213284D01*
G36*
X201589048Y-84213414D02*
X201521031Y-84247800D01*
X201424352Y-84299874D01*
X201306423Y-84365351D01*
X201174659Y-84439946D01*
X201036471Y-84519376D01*
X200899273Y-84599355D01*
X200770478Y-84675599D01*
X200657498Y-84743824D01*
X200567748Y-84799745D01*
X200508639Y-84839077D01*
X200488550Y-84855515D01*
X200480056Y-84890677D01*
X200472695Y-84967300D01*
X200466535Y-85077098D01*
X200461645Y-85211784D01*
X200458093Y-85363071D01*
X200455946Y-85522675D01*
X200455274Y-85682307D01*
X200456144Y-85833683D01*
X200458624Y-85968515D01*
X200462784Y-86078517D01*
X200468690Y-86155403D01*
X200476411Y-86190887D01*
X200477551Y-86192026D01*
X200504516Y-86183571D01*
X200569080Y-86152939D01*
X200664906Y-86103457D01*
X200785658Y-86038448D01*
X200924999Y-85961238D01*
X201023388Y-85905599D01*
X201174201Y-85818947D01*
X201312458Y-85738180D01*
X201431260Y-85667436D01*
X201523707Y-85610853D01*
X201582898Y-85572567D01*
X201599537Y-85560138D01*
X201615080Y-85543773D01*
X201627106Y-85522141D01*
X201636065Y-85489058D01*
X201642407Y-85438338D01*
X201646580Y-85363797D01*
X201649034Y-85259250D01*
X201650219Y-85118512D01*
X201650583Y-84935398D01*
X201650600Y-84857463D01*
X201649930Y-84642618D01*
X201647810Y-84474868D01*
X201644071Y-84350524D01*
X201638549Y-84265895D01*
X201631077Y-84217294D01*
X201621488Y-84201030D01*
X201620989Y-84201000D01*
X201589048Y-84213414D01*
X201589048Y-84213414D01*
G37*
X201589048Y-84213414D02*
X201521031Y-84247800D01*
X201424352Y-84299874D01*
X201306423Y-84365351D01*
X201174659Y-84439946D01*
X201036471Y-84519376D01*
X200899273Y-84599355D01*
X200770478Y-84675599D01*
X200657498Y-84743824D01*
X200567748Y-84799745D01*
X200508639Y-84839077D01*
X200488550Y-84855515D01*
X200480056Y-84890677D01*
X200472695Y-84967300D01*
X200466535Y-85077098D01*
X200461645Y-85211784D01*
X200458093Y-85363071D01*
X200455946Y-85522675D01*
X200455274Y-85682307D01*
X200456144Y-85833683D01*
X200458624Y-85968515D01*
X200462784Y-86078517D01*
X200468690Y-86155403D01*
X200476411Y-86190887D01*
X200477551Y-86192026D01*
X200504516Y-86183571D01*
X200569080Y-86152939D01*
X200664906Y-86103457D01*
X200785658Y-86038448D01*
X200924999Y-85961238D01*
X201023388Y-85905599D01*
X201174201Y-85818947D01*
X201312458Y-85738180D01*
X201431260Y-85667436D01*
X201523707Y-85610853D01*
X201582898Y-85572567D01*
X201599537Y-85560138D01*
X201615080Y-85543773D01*
X201627106Y-85522141D01*
X201636065Y-85489058D01*
X201642407Y-85438338D01*
X201646580Y-85363797D01*
X201649034Y-85259250D01*
X201650219Y-85118512D01*
X201650583Y-84935398D01*
X201650600Y-84857463D01*
X201649930Y-84642618D01*
X201647810Y-84474868D01*
X201644071Y-84350524D01*
X201638549Y-84265895D01*
X201631077Y-84217294D01*
X201621488Y-84201030D01*
X201620989Y-84201000D01*
X201589048Y-84213414D01*
G36*
X195852783Y-84219222D02*
X195845375Y-84275670D01*
X195839914Y-84373018D01*
X195836286Y-84513937D01*
X195834376Y-84701100D01*
X195834000Y-84860107D01*
X195834000Y-85519214D01*
X195916550Y-85580309D01*
X195958322Y-85607626D01*
X196035963Y-85655170D01*
X196141163Y-85718095D01*
X196265607Y-85791558D01*
X196400983Y-85870716D01*
X196538978Y-85950725D01*
X196671279Y-86026741D01*
X196789574Y-86093920D01*
X196885549Y-86147420D01*
X196941911Y-86177761D01*
X196989280Y-86193538D01*
X197011761Y-86189772D01*
X197016129Y-86160999D01*
X197020045Y-86088408D01*
X197023337Y-85978983D01*
X197025838Y-85839706D01*
X197027376Y-85677560D01*
X197027800Y-85530266D01*
X197027517Y-85330946D01*
X197026398Y-85176245D01*
X197024042Y-85059986D01*
X197020049Y-84975990D01*
X197014016Y-84918079D01*
X197005542Y-84880074D01*
X196994226Y-84855796D01*
X196983101Y-84842350D01*
X196948885Y-84817388D01*
X196879089Y-84773080D01*
X196781154Y-84713681D01*
X196662523Y-84643451D01*
X196530636Y-84566647D01*
X196392936Y-84487528D01*
X196256865Y-84410352D01*
X196129864Y-84339377D01*
X196019375Y-84278862D01*
X195932840Y-84233064D01*
X195877700Y-84206241D01*
X195862254Y-84201000D01*
X195852783Y-84219222D01*
X195852783Y-84219222D01*
G37*
X195852783Y-84219222D02*
X195845375Y-84275670D01*
X195839914Y-84373018D01*
X195836286Y-84513937D01*
X195834376Y-84701100D01*
X195834000Y-84860107D01*
X195834000Y-85519214D01*
X195916550Y-85580309D01*
X195958322Y-85607626D01*
X196035963Y-85655170D01*
X196141163Y-85718095D01*
X196265607Y-85791558D01*
X196400983Y-85870716D01*
X196538978Y-85950725D01*
X196671279Y-86026741D01*
X196789574Y-86093920D01*
X196885549Y-86147420D01*
X196941911Y-86177761D01*
X196989280Y-86193538D01*
X197011761Y-86189772D01*
X197016129Y-86160999D01*
X197020045Y-86088408D01*
X197023337Y-85978983D01*
X197025838Y-85839706D01*
X197027376Y-85677560D01*
X197027800Y-85530266D01*
X197027517Y-85330946D01*
X197026398Y-85176245D01*
X197024042Y-85059986D01*
X197020049Y-84975990D01*
X197014016Y-84918079D01*
X197005542Y-84880074D01*
X196994226Y-84855796D01*
X196983101Y-84842350D01*
X196948885Y-84817388D01*
X196879089Y-84773080D01*
X196781154Y-84713681D01*
X196662523Y-84643451D01*
X196530636Y-84566647D01*
X196392936Y-84487528D01*
X196256865Y-84410352D01*
X196129864Y-84339377D01*
X196019375Y-84278862D01*
X195932840Y-84233064D01*
X195877700Y-84206241D01*
X195862254Y-84201000D01*
X195852783Y-84219222D01*
G36*
X193158773Y-84244415D02*
X193151514Y-84324582D01*
X193146183Y-84451791D01*
X193142856Y-84624178D01*
X193141608Y-84839880D01*
X193141600Y-84860085D01*
X193141913Y-85057760D01*
X193143124Y-85210958D01*
X193145645Y-85325997D01*
X193149888Y-85409198D01*
X193156263Y-85466880D01*
X193165182Y-85505364D01*
X193177056Y-85530968D01*
X193186050Y-85543109D01*
X193220682Y-85570872D01*
X193292470Y-85618999D01*
X193394252Y-85683022D01*
X193518869Y-85758473D01*
X193659159Y-85840885D01*
X193713100Y-85871957D01*
X193889017Y-85972736D01*
X194025912Y-86050965D01*
X194128867Y-86109305D01*
X194202961Y-86150421D01*
X194253273Y-86176974D01*
X194284885Y-86191630D01*
X194302877Y-86197049D01*
X194312327Y-86195896D01*
X194318317Y-86190834D01*
X194319361Y-86189772D01*
X194323729Y-86160999D01*
X194327645Y-86088408D01*
X194330937Y-85978983D01*
X194333438Y-85839706D01*
X194334976Y-85677560D01*
X194335400Y-85530266D01*
X194335120Y-85331016D01*
X194334011Y-85176383D01*
X194331668Y-85060183D01*
X194327689Y-84976236D01*
X194321671Y-84918358D01*
X194313209Y-84880369D01*
X194301902Y-84856085D01*
X194290513Y-84842350D01*
X194251314Y-84812660D01*
X194177878Y-84765231D01*
X194077513Y-84704155D01*
X193957524Y-84633530D01*
X193825219Y-84557448D01*
X193687904Y-84480007D01*
X193552886Y-84405301D01*
X193427472Y-84337426D01*
X193318969Y-84280475D01*
X193234682Y-84238546D01*
X193181919Y-84215732D01*
X193167884Y-84213154D01*
X193158773Y-84244415D01*
X193158773Y-84244415D01*
G37*
X193158773Y-84244415D02*
X193151514Y-84324582D01*
X193146183Y-84451791D01*
X193142856Y-84624178D01*
X193141608Y-84839880D01*
X193141600Y-84860085D01*
X193141913Y-85057760D01*
X193143124Y-85210958D01*
X193145645Y-85325997D01*
X193149888Y-85409198D01*
X193156263Y-85466880D01*
X193165182Y-85505364D01*
X193177056Y-85530968D01*
X193186050Y-85543109D01*
X193220682Y-85570872D01*
X193292470Y-85618999D01*
X193394252Y-85683022D01*
X193518869Y-85758473D01*
X193659159Y-85840885D01*
X193713100Y-85871957D01*
X193889017Y-85972736D01*
X194025912Y-86050965D01*
X194128867Y-86109305D01*
X194202961Y-86150421D01*
X194253273Y-86176974D01*
X194284885Y-86191630D01*
X194302877Y-86197049D01*
X194312327Y-86195896D01*
X194318317Y-86190834D01*
X194319361Y-86189772D01*
X194323729Y-86160999D01*
X194327645Y-86088408D01*
X194330937Y-85978983D01*
X194333438Y-85839706D01*
X194334976Y-85677560D01*
X194335400Y-85530266D01*
X194335120Y-85331016D01*
X194334011Y-85176383D01*
X194331668Y-85060183D01*
X194327689Y-84976236D01*
X194321671Y-84918358D01*
X194313209Y-84880369D01*
X194301902Y-84856085D01*
X194290513Y-84842350D01*
X194251314Y-84812660D01*
X194177878Y-84765231D01*
X194077513Y-84704155D01*
X193957524Y-84633530D01*
X193825219Y-84557448D01*
X193687904Y-84480007D01*
X193552886Y-84405301D01*
X193427472Y-84337426D01*
X193318969Y-84280475D01*
X193234682Y-84238546D01*
X193181919Y-84215732D01*
X193167884Y-84213154D01*
X193158773Y-84244415D01*
G36*
X202925852Y-83451174D02*
X202857454Y-83484835D01*
X202760593Y-83535684D01*
X202642923Y-83599425D01*
X202512098Y-83671762D01*
X202375773Y-83748397D01*
X202241601Y-83825034D01*
X202117238Y-83897376D01*
X202010336Y-83961127D01*
X201928550Y-84011990D01*
X201885550Y-84041100D01*
X201803000Y-84101985D01*
X201803000Y-84761092D01*
X201803540Y-84970686D01*
X201805305Y-85134065D01*
X201808516Y-85255803D01*
X201813394Y-85340475D01*
X201820158Y-85392655D01*
X201829030Y-85416919D01*
X201834750Y-85420025D01*
X201864882Y-85407846D01*
X201932535Y-85373729D01*
X202031248Y-85321156D01*
X202154559Y-85253607D01*
X202296006Y-85174562D01*
X202399900Y-85115650D01*
X202550599Y-85028690D01*
X202687449Y-84947792D01*
X202803914Y-84876977D01*
X202893453Y-84820265D01*
X202949529Y-84781679D01*
X202965050Y-84768070D01*
X202975698Y-84738299D01*
X202983939Y-84678700D01*
X202989971Y-84584993D01*
X202993992Y-84452899D01*
X202996200Y-84278137D01*
X202996800Y-84081845D01*
X202996474Y-83882439D01*
X202995269Y-83728248D01*
X202992851Y-83613692D01*
X202988883Y-83533188D01*
X202983031Y-83481154D01*
X202974958Y-83452010D01*
X202964329Y-83440173D01*
X202958133Y-83439000D01*
X202925852Y-83451174D01*
X202925852Y-83451174D01*
G37*
X202925852Y-83451174D02*
X202857454Y-83484835D01*
X202760593Y-83535684D01*
X202642923Y-83599425D01*
X202512098Y-83671762D01*
X202375773Y-83748397D01*
X202241601Y-83825034D01*
X202117238Y-83897376D01*
X202010336Y-83961127D01*
X201928550Y-84011990D01*
X201885550Y-84041100D01*
X201803000Y-84101985D01*
X201803000Y-84761092D01*
X201803540Y-84970686D01*
X201805305Y-85134065D01*
X201808516Y-85255803D01*
X201813394Y-85340475D01*
X201820158Y-85392655D01*
X201829030Y-85416919D01*
X201834750Y-85420025D01*
X201864882Y-85407846D01*
X201932535Y-85373729D01*
X202031248Y-85321156D01*
X202154559Y-85253607D01*
X202296006Y-85174562D01*
X202399900Y-85115650D01*
X202550599Y-85028690D01*
X202687449Y-84947792D01*
X202803914Y-84876977D01*
X202893453Y-84820265D01*
X202949529Y-84781679D01*
X202965050Y-84768070D01*
X202975698Y-84738299D01*
X202983939Y-84678700D01*
X202989971Y-84584993D01*
X202993992Y-84452899D01*
X202996200Y-84278137D01*
X202996800Y-84081845D01*
X202996474Y-83882439D01*
X202995269Y-83728248D01*
X202992851Y-83613692D01*
X202988883Y-83533188D01*
X202983031Y-83481154D01*
X202974958Y-83452010D01*
X202964329Y-83440173D01*
X202958133Y-83439000D01*
X202925852Y-83451174D01*
G36*
X194516744Y-83443046D02*
X194506815Y-83458979D01*
X194499429Y-83492485D01*
X194494219Y-83549251D01*
X194490819Y-83634965D01*
X194488861Y-83755314D01*
X194487979Y-83915986D01*
X194487800Y-84086700D01*
X194488078Y-84286660D01*
X194489176Y-84441981D01*
X194491494Y-84558823D01*
X194495432Y-84643345D01*
X194501390Y-84701707D01*
X194509766Y-84740068D01*
X194520960Y-84764587D01*
X194532688Y-84778850D01*
X194567385Y-84804250D01*
X194637574Y-84848954D01*
X194735805Y-84908689D01*
X194854627Y-84979187D01*
X194986592Y-85056179D01*
X195124248Y-85135394D01*
X195260147Y-85212562D01*
X195386838Y-85283415D01*
X195496871Y-85343681D01*
X195582796Y-85389093D01*
X195637163Y-85415379D01*
X195651746Y-85420200D01*
X195661461Y-85405859D01*
X195669050Y-85360290D01*
X195674684Y-85279673D01*
X195678537Y-85160187D01*
X195680782Y-84998014D01*
X195681592Y-84789332D01*
X195681600Y-84761092D01*
X195681600Y-84101985D01*
X195599050Y-84041356D01*
X195540940Y-84002394D01*
X195451993Y-83947345D01*
X195339872Y-83880525D01*
X195212237Y-83806248D01*
X195076749Y-83728829D01*
X194941068Y-83652582D01*
X194812855Y-83581823D01*
X194699772Y-83520866D01*
X194609479Y-83474027D01*
X194549637Y-83445619D01*
X194529583Y-83439000D01*
X194516744Y-83443046D01*
X194516744Y-83443046D01*
G37*
X194516744Y-83443046D02*
X194506815Y-83458979D01*
X194499429Y-83492485D01*
X194494219Y-83549251D01*
X194490819Y-83634965D01*
X194488861Y-83755314D01*
X194487979Y-83915986D01*
X194487800Y-84086700D01*
X194488078Y-84286660D01*
X194489176Y-84441981D01*
X194491494Y-84558823D01*
X194495432Y-84643345D01*
X194501390Y-84701707D01*
X194509766Y-84740068D01*
X194520960Y-84764587D01*
X194532688Y-84778850D01*
X194567385Y-84804250D01*
X194637574Y-84848954D01*
X194735805Y-84908689D01*
X194854627Y-84979187D01*
X194986592Y-85056179D01*
X195124248Y-85135394D01*
X195260147Y-85212562D01*
X195386838Y-85283415D01*
X195496871Y-85343681D01*
X195582796Y-85389093D01*
X195637163Y-85415379D01*
X195651746Y-85420200D01*
X195661461Y-85405859D01*
X195669050Y-85360290D01*
X195674684Y-85279673D01*
X195678537Y-85160187D01*
X195680782Y-84998014D01*
X195681592Y-84789332D01*
X195681600Y-84761092D01*
X195681600Y-84101985D01*
X195599050Y-84041356D01*
X195540940Y-84002394D01*
X195451993Y-83947345D01*
X195339872Y-83880525D01*
X195212237Y-83806248D01*
X195076749Y-83728829D01*
X194941068Y-83652582D01*
X194812855Y-83581823D01*
X194699772Y-83520866D01*
X194609479Y-83474027D01*
X194549637Y-83445619D01*
X194529583Y-83439000D01*
X194516744Y-83443046D01*
G36*
X198691187Y-83673558D02*
X198601403Y-83713111D01*
X198472027Y-83779629D01*
X198302133Y-83873581D01*
X198132700Y-83970980D01*
X197984079Y-84057693D01*
X197850478Y-84135991D01*
X197738036Y-84202249D01*
X197652889Y-84252841D01*
X197601175Y-84284142D01*
X197588112Y-84292673D01*
X197586334Y-84306622D01*
X197605066Y-84328960D01*
X197648344Y-84362331D01*
X197720207Y-84409381D01*
X197824690Y-84472757D01*
X197965831Y-84555104D01*
X198143919Y-84656938D01*
X198323262Y-84757898D01*
X198465924Y-84834616D01*
X198578862Y-84888858D01*
X198669030Y-84922393D01*
X198743384Y-84936988D01*
X198808880Y-84934411D01*
X198872473Y-84916429D01*
X198941119Y-84884811D01*
X198973401Y-84867744D01*
X199112744Y-84791342D01*
X199258479Y-84709258D01*
X199403889Y-84625514D01*
X199542255Y-84544132D01*
X199666857Y-84469133D01*
X199770978Y-84404541D01*
X199847897Y-84354376D01*
X199890897Y-84322660D01*
X199897657Y-84314478D01*
X199876501Y-84291644D01*
X199817548Y-84249398D01*
X199728037Y-84191837D01*
X199615205Y-84123057D01*
X199486288Y-84047154D01*
X199348523Y-83968226D01*
X199209149Y-83890368D01*
X199075402Y-83817678D01*
X198954520Y-83754252D01*
X198853739Y-83704187D01*
X198780297Y-83671578D01*
X198742300Y-83660500D01*
X198691187Y-83673558D01*
X198691187Y-83673558D01*
G37*
X198691187Y-83673558D02*
X198601403Y-83713111D01*
X198472027Y-83779629D01*
X198302133Y-83873581D01*
X198132700Y-83970980D01*
X197984079Y-84057693D01*
X197850478Y-84135991D01*
X197738036Y-84202249D01*
X197652889Y-84252841D01*
X197601175Y-84284142D01*
X197588112Y-84292673D01*
X197586334Y-84306622D01*
X197605066Y-84328960D01*
X197648344Y-84362331D01*
X197720207Y-84409381D01*
X197824690Y-84472757D01*
X197965831Y-84555104D01*
X198143919Y-84656938D01*
X198323262Y-84757898D01*
X198465924Y-84834616D01*
X198578862Y-84888858D01*
X198669030Y-84922393D01*
X198743384Y-84936988D01*
X198808880Y-84934411D01*
X198872473Y-84916429D01*
X198941119Y-84884811D01*
X198973401Y-84867744D01*
X199112744Y-84791342D01*
X199258479Y-84709258D01*
X199403889Y-84625514D01*
X199542255Y-84544132D01*
X199666857Y-84469133D01*
X199770978Y-84404541D01*
X199847897Y-84354376D01*
X199890897Y-84322660D01*
X199897657Y-84314478D01*
X199876501Y-84291644D01*
X199817548Y-84249398D01*
X199728037Y-84191837D01*
X199615205Y-84123057D01*
X199486288Y-84047154D01*
X199348523Y-83968226D01*
X199209149Y-83890368D01*
X199075402Y-83817678D01*
X198954520Y-83754252D01*
X198853739Y-83704187D01*
X198780297Y-83671578D01*
X198742300Y-83660500D01*
X198691187Y-83673558D01*
G36*
X204205842Y-82714780D02*
X204135607Y-82748954D01*
X204037478Y-82800474D01*
X203919255Y-82864888D01*
X203788740Y-82937748D01*
X203653733Y-83014603D01*
X203522036Y-83091005D01*
X203401448Y-83162504D01*
X203299772Y-83224649D01*
X203224807Y-83272992D01*
X203184355Y-83303083D01*
X203180950Y-83306698D01*
X203170445Y-83334822D01*
X203162287Y-83392164D01*
X203156279Y-83483029D01*
X203152227Y-83611716D01*
X203149933Y-83782530D01*
X203149201Y-83999771D01*
X203149200Y-84002654D01*
X203149738Y-84211355D01*
X203151498Y-84373855D01*
X203154704Y-84494743D01*
X203159579Y-84578609D01*
X203166346Y-84630042D01*
X203175227Y-84653631D01*
X203180950Y-84656409D01*
X203211149Y-84643619D01*
X203278575Y-84608720D01*
X203376652Y-84555323D01*
X203498803Y-84487043D01*
X203638449Y-84407492D01*
X203724586Y-84357776D01*
X203873385Y-84270760D01*
X204009846Y-84189586D01*
X204126965Y-84118532D01*
X204217738Y-84061872D01*
X204275161Y-84023883D01*
X204289736Y-84012730D01*
X204306584Y-83995418D01*
X204319449Y-83973552D01*
X204328865Y-83940599D01*
X204335371Y-83890029D01*
X204339500Y-83815309D01*
X204341791Y-83709907D01*
X204342779Y-83567292D01*
X204343000Y-83380931D01*
X204343000Y-83363943D01*
X204342552Y-83163310D01*
X204340617Y-83007775D01*
X204336311Y-82891639D01*
X204328751Y-82809205D01*
X204317053Y-82754774D01*
X204300332Y-82722648D01*
X204277706Y-82707128D01*
X204248289Y-82702516D01*
X204240382Y-82702400D01*
X204205842Y-82714780D01*
X204205842Y-82714780D01*
G37*
X204205842Y-82714780D02*
X204135607Y-82748954D01*
X204037478Y-82800474D01*
X203919255Y-82864888D01*
X203788740Y-82937748D01*
X203653733Y-83014603D01*
X203522036Y-83091005D01*
X203401448Y-83162504D01*
X203299772Y-83224649D01*
X203224807Y-83272992D01*
X203184355Y-83303083D01*
X203180950Y-83306698D01*
X203170445Y-83334822D01*
X203162287Y-83392164D01*
X203156279Y-83483029D01*
X203152227Y-83611716D01*
X203149933Y-83782530D01*
X203149201Y-83999771D01*
X203149200Y-84002654D01*
X203149738Y-84211355D01*
X203151498Y-84373855D01*
X203154704Y-84494743D01*
X203159579Y-84578609D01*
X203166346Y-84630042D01*
X203175227Y-84653631D01*
X203180950Y-84656409D01*
X203211149Y-84643619D01*
X203278575Y-84608720D01*
X203376652Y-84555323D01*
X203498803Y-84487043D01*
X203638449Y-84407492D01*
X203724586Y-84357776D01*
X203873385Y-84270760D01*
X204009846Y-84189586D01*
X204126965Y-84118532D01*
X204217738Y-84061872D01*
X204275161Y-84023883D01*
X204289736Y-84012730D01*
X204306584Y-83995418D01*
X204319449Y-83973552D01*
X204328865Y-83940599D01*
X204335371Y-83890029D01*
X204339500Y-83815309D01*
X204341791Y-83709907D01*
X204342779Y-83567292D01*
X204343000Y-83380931D01*
X204343000Y-83363943D01*
X204342552Y-83163310D01*
X204340617Y-83007775D01*
X204336311Y-82891639D01*
X204328751Y-82809205D01*
X204317053Y-82754774D01*
X204300332Y-82722648D01*
X204277706Y-82707128D01*
X204248289Y-82702516D01*
X204240382Y-82702400D01*
X204205842Y-82714780D01*
G36*
X200051199Y-82892404D02*
X199979118Y-82926244D01*
X199879711Y-82977560D01*
X199760191Y-83042193D01*
X199627770Y-83115984D01*
X199489662Y-83194773D01*
X199353080Y-83274401D01*
X199225236Y-83350709D01*
X199113344Y-83419537D01*
X199024615Y-83476726D01*
X198966264Y-83518117D01*
X198945500Y-83539451D01*
X198966652Y-83561014D01*
X199025303Y-83602538D01*
X199114244Y-83659860D01*
X199226269Y-83728816D01*
X199354169Y-83805244D01*
X199490738Y-83884978D01*
X199628767Y-83963857D01*
X199761049Y-84037717D01*
X199880376Y-84102394D01*
X199979540Y-84153724D01*
X200051335Y-84187546D01*
X200088500Y-84199694D01*
X200123910Y-84187427D01*
X200196515Y-84152948D01*
X200299688Y-84099738D01*
X200426804Y-84031278D01*
X200571233Y-83951049D01*
X200685400Y-83886128D01*
X200835668Y-83798615D01*
X200970118Y-83717950D01*
X201082780Y-83647913D01*
X201167680Y-83592279D01*
X201218847Y-83554827D01*
X201231500Y-83540761D01*
X201210356Y-83519287D01*
X201151724Y-83477826D01*
X201062811Y-83420543D01*
X200950822Y-83351603D01*
X200822962Y-83275170D01*
X200686436Y-83195410D01*
X200548448Y-83116487D01*
X200416205Y-83042566D01*
X200296910Y-82977812D01*
X200197770Y-82926390D01*
X200125989Y-82892464D01*
X200088772Y-82880200D01*
X200088742Y-82880200D01*
X200051199Y-82892404D01*
X200051199Y-82892404D01*
G37*
X200051199Y-82892404D02*
X199979118Y-82926244D01*
X199879711Y-82977560D01*
X199760191Y-83042193D01*
X199627770Y-83115984D01*
X199489662Y-83194773D01*
X199353080Y-83274401D01*
X199225236Y-83350709D01*
X199113344Y-83419537D01*
X199024615Y-83476726D01*
X198966264Y-83518117D01*
X198945500Y-83539451D01*
X198966652Y-83561014D01*
X199025303Y-83602538D01*
X199114244Y-83659860D01*
X199226269Y-83728816D01*
X199354169Y-83805244D01*
X199490738Y-83884978D01*
X199628767Y-83963857D01*
X199761049Y-84037717D01*
X199880376Y-84102394D01*
X199979540Y-84153724D01*
X200051335Y-84187546D01*
X200088500Y-84199694D01*
X200123910Y-84187427D01*
X200196515Y-84152948D01*
X200299688Y-84099738D01*
X200426804Y-84031278D01*
X200571233Y-83951049D01*
X200685400Y-83886128D01*
X200835668Y-83798615D01*
X200970118Y-83717950D01*
X201082780Y-83647913D01*
X201167680Y-83592279D01*
X201218847Y-83554827D01*
X201231500Y-83540761D01*
X201210356Y-83519287D01*
X201151724Y-83477826D01*
X201062811Y-83420543D01*
X200950822Y-83351603D01*
X200822962Y-83275170D01*
X200686436Y-83195410D01*
X200548448Y-83116487D01*
X200416205Y-83042566D01*
X200296910Y-82977812D01*
X200197770Y-82926390D01*
X200125989Y-82892464D01*
X200088772Y-82880200D01*
X200088742Y-82880200D01*
X200051199Y-82892404D01*
G36*
X201403772Y-82105026D02*
X201336732Y-82138953D01*
X201241395Y-82190452D01*
X201124854Y-82255395D01*
X200994202Y-82329654D01*
X200856532Y-82409099D01*
X200718936Y-82489603D01*
X200588507Y-82567037D01*
X200472339Y-82637272D01*
X200377524Y-82696181D01*
X200311155Y-82739634D01*
X200280324Y-82763503D01*
X200279000Y-82765900D01*
X200300009Y-82784349D01*
X200358306Y-82823389D01*
X200446798Y-82878891D01*
X200558392Y-82946728D01*
X200685995Y-83022774D01*
X200822514Y-83102900D01*
X200960856Y-83182980D01*
X201093927Y-83258887D01*
X201214636Y-83326492D01*
X201315888Y-83381669D01*
X201390591Y-83420291D01*
X201431652Y-83438230D01*
X201435780Y-83439000D01*
X201463695Y-83426843D01*
X201529433Y-83392622D01*
X201626841Y-83339714D01*
X201749771Y-83271494D01*
X201892073Y-83191338D01*
X202025443Y-83115325D01*
X202178354Y-83026751D01*
X202315560Y-82945417D01*
X202431197Y-82874952D01*
X202519397Y-82818985D01*
X202574294Y-82781145D01*
X202590400Y-82765796D01*
X202569412Y-82747681D01*
X202511173Y-82708906D01*
X202422771Y-82653602D01*
X202311298Y-82585900D01*
X202183841Y-82509930D01*
X202047491Y-82429823D01*
X201909335Y-82349710D01*
X201776465Y-82273722D01*
X201655968Y-82205989D01*
X201554934Y-82150643D01*
X201480452Y-82111815D01*
X201439612Y-82093635D01*
X201435422Y-82092800D01*
X201403772Y-82105026D01*
X201403772Y-82105026D01*
G37*
X201403772Y-82105026D02*
X201336732Y-82138953D01*
X201241395Y-82190452D01*
X201124854Y-82255395D01*
X200994202Y-82329654D01*
X200856532Y-82409099D01*
X200718936Y-82489603D01*
X200588507Y-82567037D01*
X200472339Y-82637272D01*
X200377524Y-82696181D01*
X200311155Y-82739634D01*
X200280324Y-82763503D01*
X200279000Y-82765900D01*
X200300009Y-82784349D01*
X200358306Y-82823389D01*
X200446798Y-82878891D01*
X200558392Y-82946728D01*
X200685995Y-83022774D01*
X200822514Y-83102900D01*
X200960856Y-83182980D01*
X201093927Y-83258887D01*
X201214636Y-83326492D01*
X201315888Y-83381669D01*
X201390591Y-83420291D01*
X201431652Y-83438230D01*
X201435780Y-83439000D01*
X201463695Y-83426843D01*
X201529433Y-83392622D01*
X201626841Y-83339714D01*
X201749771Y-83271494D01*
X201892073Y-83191338D01*
X202025443Y-83115325D01*
X202178354Y-83026751D01*
X202315560Y-82945417D01*
X202431197Y-82874952D01*
X202519397Y-82818985D01*
X202574294Y-82781145D01*
X202590400Y-82765796D01*
X202569412Y-82747681D01*
X202511173Y-82708906D01*
X202422771Y-82653602D01*
X202311298Y-82585900D01*
X202183841Y-82509930D01*
X202047491Y-82429823D01*
X201909335Y-82349710D01*
X201776465Y-82273722D01*
X201655968Y-82205989D01*
X201554934Y-82150643D01*
X201480452Y-82111815D01*
X201439612Y-82093635D01*
X201435422Y-82092800D01*
X201403772Y-82105026D01*
G36*
X202740742Y-81343935D02*
X202668920Y-81378115D01*
X202569809Y-81429812D01*
X202450609Y-81494844D01*
X202318522Y-81569032D01*
X202180747Y-81648195D01*
X202044486Y-81728152D01*
X201916938Y-81804723D01*
X201805306Y-81873726D01*
X201716789Y-81930982D01*
X201658588Y-81972310D01*
X201637900Y-81993423D01*
X201659082Y-82015181D01*
X201717813Y-82056794D01*
X201806875Y-82114111D01*
X201919051Y-82182980D01*
X202047120Y-82259247D01*
X202183864Y-82338762D01*
X202322065Y-82417371D01*
X202454504Y-82490922D01*
X202573961Y-82555262D01*
X202673220Y-82606241D01*
X202745060Y-82639704D01*
X202781948Y-82651503D01*
X202818037Y-82639210D01*
X202890976Y-82604679D01*
X202993881Y-82551522D01*
X203119871Y-82483348D01*
X203262061Y-82403769D01*
X203347098Y-82355049D01*
X203515799Y-82256801D01*
X203644698Y-82179635D01*
X203738575Y-82120279D01*
X203802208Y-82075458D01*
X203840374Y-82041898D01*
X203857854Y-82016326D01*
X203860400Y-82003386D01*
X203842033Y-81942721D01*
X203815950Y-81909289D01*
X203772825Y-81878447D01*
X203695721Y-81830075D01*
X203592540Y-81768573D01*
X203471183Y-81698341D01*
X203339553Y-81623778D01*
X203205552Y-81549284D01*
X203077080Y-81479256D01*
X202962041Y-81418096D01*
X202868335Y-81370202D01*
X202803866Y-81339974D01*
X202778074Y-81331452D01*
X202740742Y-81343935D01*
X202740742Y-81343935D01*
G37*
X202740742Y-81343935D02*
X202668920Y-81378115D01*
X202569809Y-81429812D01*
X202450609Y-81494844D01*
X202318522Y-81569032D01*
X202180747Y-81648195D01*
X202044486Y-81728152D01*
X201916938Y-81804723D01*
X201805306Y-81873726D01*
X201716789Y-81930982D01*
X201658588Y-81972310D01*
X201637900Y-81993423D01*
X201659082Y-82015181D01*
X201717813Y-82056794D01*
X201806875Y-82114111D01*
X201919051Y-82182980D01*
X202047120Y-82259247D01*
X202183864Y-82338762D01*
X202322065Y-82417371D01*
X202454504Y-82490922D01*
X202573961Y-82555262D01*
X202673220Y-82606241D01*
X202745060Y-82639704D01*
X202781948Y-82651503D01*
X202818037Y-82639210D01*
X202890976Y-82604679D01*
X202993881Y-82551522D01*
X203119871Y-82483348D01*
X203262061Y-82403769D01*
X203347098Y-82355049D01*
X203515799Y-82256801D01*
X203644698Y-82179635D01*
X203738575Y-82120279D01*
X203802208Y-82075458D01*
X203840374Y-82041898D01*
X203857854Y-82016326D01*
X203860400Y-82003386D01*
X203842033Y-81942721D01*
X203815950Y-81909289D01*
X203772825Y-81878447D01*
X203695721Y-81830075D01*
X203592540Y-81768573D01*
X203471183Y-81698341D01*
X203339553Y-81623778D01*
X203205552Y-81549284D01*
X203077080Y-81479256D01*
X202962041Y-81418096D01*
X202868335Y-81370202D01*
X202803866Y-81339974D01*
X202778074Y-81331452D01*
X202740742Y-81343935D01*
G36*
X201396286Y-80580776D02*
X201322833Y-80613991D01*
X201222006Y-80664369D01*
X201101059Y-80727839D01*
X200967244Y-80800326D01*
X200827814Y-80877758D01*
X200690020Y-80956060D01*
X200561116Y-81031159D01*
X200448354Y-81098983D01*
X200358987Y-81155457D01*
X200300266Y-81196508D01*
X200279441Y-81217892D01*
X200300312Y-81236987D01*
X200358392Y-81276613D01*
X200446513Y-81332570D01*
X200557510Y-81400663D01*
X200684216Y-81476691D01*
X200819463Y-81556459D01*
X200956086Y-81635768D01*
X201086917Y-81710419D01*
X201204790Y-81776216D01*
X201302538Y-81828961D01*
X201372995Y-81864455D01*
X201406432Y-81878016D01*
X201461197Y-81874348D01*
X201534536Y-81849458D01*
X201561700Y-81836099D01*
X201617176Y-81805237D01*
X201702880Y-81756518D01*
X201811263Y-81694330D01*
X201934776Y-81623062D01*
X202065871Y-81547103D01*
X202197000Y-81470842D01*
X202320613Y-81398667D01*
X202429162Y-81334967D01*
X202515098Y-81284131D01*
X202570874Y-81250548D01*
X202588889Y-81238888D01*
X202590780Y-81225843D01*
X202573382Y-81204767D01*
X202532632Y-81172995D01*
X202464466Y-81127867D01*
X202364820Y-81066717D01*
X202229631Y-80986884D01*
X202054834Y-80885703D01*
X202014975Y-80862793D01*
X201848634Y-80768960D01*
X201702578Y-80689925D01*
X201582288Y-80628465D01*
X201493240Y-80587356D01*
X201440913Y-80569377D01*
X201435114Y-80568799D01*
X201396286Y-80580776D01*
X201396286Y-80580776D01*
G37*
X201396286Y-80580776D02*
X201322833Y-80613991D01*
X201222006Y-80664369D01*
X201101059Y-80727839D01*
X200967244Y-80800326D01*
X200827814Y-80877758D01*
X200690020Y-80956060D01*
X200561116Y-81031159D01*
X200448354Y-81098983D01*
X200358987Y-81155457D01*
X200300266Y-81196508D01*
X200279441Y-81217892D01*
X200300312Y-81236987D01*
X200358392Y-81276613D01*
X200446513Y-81332570D01*
X200557510Y-81400663D01*
X200684216Y-81476691D01*
X200819463Y-81556459D01*
X200956086Y-81635768D01*
X201086917Y-81710419D01*
X201204790Y-81776216D01*
X201302538Y-81828961D01*
X201372995Y-81864455D01*
X201406432Y-81878016D01*
X201461197Y-81874348D01*
X201534536Y-81849458D01*
X201561700Y-81836099D01*
X201617176Y-81805237D01*
X201702880Y-81756518D01*
X201811263Y-81694330D01*
X201934776Y-81623062D01*
X202065871Y-81547103D01*
X202197000Y-81470842D01*
X202320613Y-81398667D01*
X202429162Y-81334967D01*
X202515098Y-81284131D01*
X202570874Y-81250548D01*
X202588889Y-81238888D01*
X202590780Y-81225843D01*
X202573382Y-81204767D01*
X202532632Y-81172995D01*
X202464466Y-81127867D01*
X202364820Y-81066717D01*
X202229631Y-80986884D01*
X202054834Y-80885703D01*
X202014975Y-80862793D01*
X201848634Y-80768960D01*
X201702578Y-80689925D01*
X201582288Y-80628465D01*
X201493240Y-80587356D01*
X201440913Y-80569377D01*
X201435114Y-80568799D01*
X201396286Y-80580776D01*
G36*
X200049973Y-79793601D02*
X199979907Y-79827455D01*
X199882519Y-79878836D01*
X199764863Y-79943620D01*
X199633993Y-80017682D01*
X199496963Y-80096896D01*
X199360826Y-80177139D01*
X199232637Y-80254284D01*
X199119449Y-80324207D01*
X199028316Y-80382783D01*
X198966292Y-80425888D01*
X198940431Y-80449395D01*
X198940171Y-80451257D01*
X198963946Y-80471544D01*
X199025645Y-80513238D01*
X199119113Y-80572491D01*
X199238196Y-80645454D01*
X199376741Y-80728279D01*
X199481002Y-80789478D01*
X199681800Y-80904684D01*
X199841783Y-80992447D01*
X199962401Y-81053505D01*
X200045103Y-81088594D01*
X200088500Y-81098582D01*
X200142179Y-81084164D01*
X200237774Y-81041305D01*
X200375323Y-80969987D01*
X200554860Y-80870192D01*
X200696008Y-80788932D01*
X200844473Y-80701609D01*
X200977745Y-80621445D01*
X201089666Y-80552291D01*
X201174075Y-80497998D01*
X201224814Y-80462414D01*
X201236979Y-80450765D01*
X201218510Y-80431334D01*
X201162516Y-80391637D01*
X201076047Y-80335775D01*
X200966155Y-80267846D01*
X200839889Y-80191950D01*
X200704302Y-80112186D01*
X200566442Y-80032653D01*
X200433362Y-79957451D01*
X200312112Y-79890678D01*
X200209742Y-79836434D01*
X200133303Y-79798818D01*
X200089847Y-79781929D01*
X200085663Y-79781399D01*
X200049973Y-79793601D01*
X200049973Y-79793601D01*
G37*
X200049973Y-79793601D02*
X199979907Y-79827455D01*
X199882519Y-79878836D01*
X199764863Y-79943620D01*
X199633993Y-80017682D01*
X199496963Y-80096896D01*
X199360826Y-80177139D01*
X199232637Y-80254284D01*
X199119449Y-80324207D01*
X199028316Y-80382783D01*
X198966292Y-80425888D01*
X198940431Y-80449395D01*
X198940171Y-80451257D01*
X198963946Y-80471544D01*
X199025645Y-80513238D01*
X199119113Y-80572491D01*
X199238196Y-80645454D01*
X199376741Y-80728279D01*
X199481002Y-80789478D01*
X199681800Y-80904684D01*
X199841783Y-80992447D01*
X199962401Y-81053505D01*
X200045103Y-81088594D01*
X200088500Y-81098582D01*
X200142179Y-81084164D01*
X200237774Y-81041305D01*
X200375323Y-80969987D01*
X200554860Y-80870192D01*
X200696008Y-80788932D01*
X200844473Y-80701609D01*
X200977745Y-80621445D01*
X201089666Y-80552291D01*
X201174075Y-80497998D01*
X201224814Y-80462414D01*
X201236979Y-80450765D01*
X201218510Y-80431334D01*
X201162516Y-80391637D01*
X201076047Y-80335775D01*
X200966155Y-80267846D01*
X200839889Y-80191950D01*
X200704302Y-80112186D01*
X200566442Y-80032653D01*
X200433362Y-79957451D01*
X200312112Y-79890678D01*
X200209742Y-79836434D01*
X200133303Y-79798818D01*
X200089847Y-79781929D01*
X200085663Y-79781399D01*
X200049973Y-79793601D01*
G36*
X198679808Y-79053873D02*
X198674901Y-79054754D01*
X198630407Y-79071445D01*
X198552458Y-79108827D01*
X198448640Y-79162587D01*
X198326540Y-79228411D01*
X198193745Y-79301984D01*
X198057841Y-79378993D01*
X197926415Y-79455123D01*
X197807055Y-79526061D01*
X197707346Y-79587493D01*
X197634877Y-79635104D01*
X197597232Y-79664580D01*
X197593772Y-79669506D01*
X197612312Y-79689180D01*
X197668411Y-79729056D01*
X197755015Y-79785042D01*
X197865068Y-79853044D01*
X197991517Y-79928969D01*
X198127306Y-80008723D01*
X198265380Y-80088214D01*
X198398687Y-80163349D01*
X198520169Y-80230033D01*
X198622774Y-80284175D01*
X198699447Y-80321680D01*
X198743133Y-80338456D01*
X198747568Y-80338960D01*
X198781423Y-80326288D01*
X198852504Y-80291319D01*
X198954279Y-80237561D01*
X199080215Y-80168521D01*
X199223778Y-80087703D01*
X199339200Y-80021407D01*
X199489305Y-79933258D01*
X199623636Y-79852062D01*
X199736241Y-79781608D01*
X199821168Y-79725682D01*
X199872464Y-79688072D01*
X199885300Y-79673924D01*
X199864262Y-79652343D01*
X199806150Y-79610809D01*
X199718467Y-79553735D01*
X199608715Y-79485529D01*
X199484397Y-79410604D01*
X199353017Y-79333369D01*
X199222077Y-79258236D01*
X199099079Y-79189614D01*
X198991528Y-79131915D01*
X198906925Y-79089549D01*
X198852774Y-79066926D01*
X198852701Y-79066903D01*
X198765498Y-79051742D01*
X198679808Y-79053873D01*
X198679808Y-79053873D01*
G37*
X198679808Y-79053873D02*
X198674901Y-79054754D01*
X198630407Y-79071445D01*
X198552458Y-79108827D01*
X198448640Y-79162587D01*
X198326540Y-79228411D01*
X198193745Y-79301984D01*
X198057841Y-79378993D01*
X197926415Y-79455123D01*
X197807055Y-79526061D01*
X197707346Y-79587493D01*
X197634877Y-79635104D01*
X197597232Y-79664580D01*
X197593772Y-79669506D01*
X197612312Y-79689180D01*
X197668411Y-79729056D01*
X197755015Y-79785042D01*
X197865068Y-79853044D01*
X197991517Y-79928969D01*
X198127306Y-80008723D01*
X198265380Y-80088214D01*
X198398687Y-80163349D01*
X198520169Y-80230033D01*
X198622774Y-80284175D01*
X198699447Y-80321680D01*
X198743133Y-80338456D01*
X198747568Y-80338960D01*
X198781423Y-80326288D01*
X198852504Y-80291319D01*
X198954279Y-80237561D01*
X199080215Y-80168521D01*
X199223778Y-80087703D01*
X199339200Y-80021407D01*
X199489305Y-79933258D01*
X199623636Y-79852062D01*
X199736241Y-79781608D01*
X199821168Y-79725682D01*
X199872464Y-79688072D01*
X199885300Y-79673924D01*
X199864262Y-79652343D01*
X199806150Y-79610809D01*
X199718467Y-79553735D01*
X199608715Y-79485529D01*
X199484397Y-79410604D01*
X199353017Y-79333369D01*
X199222077Y-79258236D01*
X199099079Y-79189614D01*
X198991528Y-79131915D01*
X198906925Y-79089549D01*
X198852774Y-79066926D01*
X198852701Y-79066903D01*
X198765498Y-79051742D01*
X198679808Y-79053873D01*
G36*
X198856223Y-62322459D02*
X198662171Y-62335453D01*
X198499606Y-62355770D01*
X198450200Y-62365140D01*
X198043968Y-62475504D01*
X197666123Y-62627226D01*
X197313398Y-62822091D01*
X196982524Y-63061882D01*
X196694668Y-63323646D01*
X196425036Y-63594377D01*
X195996168Y-63608832D01*
X195795622Y-63617797D01*
X195633832Y-63631420D01*
X195498791Y-63652439D01*
X195378491Y-63683592D01*
X195260926Y-63727614D01*
X195134087Y-63787244D01*
X195071201Y-63819681D01*
X194915106Y-63919045D01*
X194754999Y-64050897D01*
X194605983Y-64200858D01*
X194483158Y-64354547D01*
X194441553Y-64419224D01*
X194388527Y-64519393D01*
X194332704Y-64640598D01*
X194289153Y-64748801D01*
X194221100Y-64935100D01*
X194221100Y-66611500D01*
X194289153Y-66797798D01*
X194414594Y-67072247D01*
X194577545Y-67314682D01*
X194775237Y-67522351D01*
X195004902Y-67692498D01*
X195263771Y-67822372D01*
X195352011Y-67854870D01*
X195431710Y-67880737D01*
X195502597Y-67899986D01*
X195574881Y-67913856D01*
X195658768Y-67923583D01*
X195764470Y-67930407D01*
X195902194Y-67935565D01*
X196049900Y-67939512D01*
X196532500Y-67951360D01*
X196754293Y-68162400D01*
X197077030Y-68435106D01*
X197426275Y-68664596D01*
X197800850Y-68850245D01*
X198199579Y-68991431D01*
X198431195Y-69050446D01*
X198507095Y-69062514D01*
X198618433Y-69074186D01*
X198754722Y-69084969D01*
X198905476Y-69094367D01*
X199060207Y-69101885D01*
X199208429Y-69107027D01*
X199339654Y-69109299D01*
X199443396Y-69108206D01*
X199509168Y-69103251D01*
X199517000Y-69101716D01*
X199559568Y-69093401D01*
X199636656Y-69079911D01*
X199732601Y-69063975D01*
X199745600Y-69061873D01*
X200093525Y-68982002D01*
X200441514Y-68856575D01*
X200780825Y-68690067D01*
X201102718Y-68486956D01*
X201398451Y-68251716D01*
X201485500Y-68170994D01*
X201714100Y-67950784D01*
X202209400Y-67938689D01*
X202426751Y-67931271D01*
X202603581Y-67919338D01*
X202750116Y-67900717D01*
X202876582Y-67873234D01*
X202993204Y-67834716D01*
X203110209Y-67782990D01*
X203225400Y-67722736D01*
X203379883Y-67620675D01*
X203386774Y-67614800D01*
X199574541Y-67614800D01*
X197633407Y-67614800D01*
X197263453Y-67614674D01*
X196940851Y-67614257D01*
X196662155Y-67613485D01*
X196423918Y-67612296D01*
X196222693Y-67610628D01*
X196055033Y-67608418D01*
X195917491Y-67605603D01*
X195806620Y-67602121D01*
X195718974Y-67597910D01*
X195651106Y-67592906D01*
X195599568Y-67587049D01*
X195560914Y-67580274D01*
X195547062Y-67576977D01*
X195307876Y-67489452D01*
X195090559Y-67359953D01*
X194900619Y-67194086D01*
X194743567Y-66997457D01*
X194624912Y-66775670D01*
X194558222Y-66570966D01*
X194546602Y-66496156D01*
X194537793Y-66380955D01*
X194531703Y-66222850D01*
X194528240Y-66019326D01*
X194527309Y-65767868D01*
X194527362Y-65735200D01*
X194528054Y-65525601D01*
X194529452Y-65359864D01*
X194532007Y-65231049D01*
X194536171Y-65132217D01*
X194542394Y-65056430D01*
X194551128Y-64996749D01*
X194562825Y-64946236D01*
X194577934Y-64897952D01*
X194582692Y-64884300D01*
X194694757Y-64636634D01*
X194843208Y-64419941D01*
X195024172Y-64237901D01*
X195233782Y-64094197D01*
X195468166Y-63992512D01*
X195542956Y-63970692D01*
X195590582Y-63960478D01*
X195650799Y-63952139D01*
X195728698Y-63945502D01*
X195829373Y-63940397D01*
X195957914Y-63936653D01*
X196119414Y-63934099D01*
X196318964Y-63932564D01*
X196561657Y-63931878D01*
X196701687Y-63931800D01*
X196985087Y-63932558D01*
X197234426Y-63934784D01*
X197446579Y-63938401D01*
X197618417Y-63943333D01*
X197746814Y-63949503D01*
X197828643Y-63956836D01*
X197845700Y-63959663D01*
X197995771Y-64004426D01*
X198160026Y-64075490D01*
X198317509Y-64162473D01*
X198447261Y-64254993D01*
X198454729Y-64261378D01*
X198576629Y-64387908D01*
X198693054Y-64546333D01*
X198791384Y-64718252D01*
X198834334Y-64814817D01*
X198850467Y-64858502D01*
X198863491Y-64902966D01*
X198873902Y-64954461D01*
X198882192Y-65019243D01*
X198888859Y-65103566D01*
X198894395Y-65213683D01*
X198899297Y-65355849D01*
X198904059Y-65536318D01*
X198909159Y-65760600D01*
X198914844Y-66003837D01*
X198920878Y-66203139D01*
X198928296Y-66365364D01*
X198938133Y-66497373D01*
X198951424Y-66606026D01*
X198969205Y-66698181D01*
X198992510Y-66780699D01*
X199022374Y-66860439D01*
X199059834Y-66944262D01*
X199100390Y-67027835D01*
X199208504Y-67206417D01*
X199359929Y-67389819D01*
X199383830Y-67415185D01*
X199574541Y-67614800D01*
X203386774Y-67614800D01*
X203536410Y-67487238D01*
X203682646Y-67335212D01*
X203806257Y-67177386D01*
X203892995Y-67030600D01*
X203942751Y-66923551D01*
X203982610Y-66828720D01*
X204013663Y-66738618D01*
X204037002Y-66645758D01*
X204053717Y-66542654D01*
X204064900Y-66421819D01*
X204071642Y-66275765D01*
X204075034Y-66097007D01*
X204076167Y-65878057D01*
X204076232Y-65773300D01*
X204075650Y-65534357D01*
X204073225Y-65338789D01*
X204067862Y-65179174D01*
X204058471Y-65048094D01*
X204043956Y-64938127D01*
X204023226Y-64841854D01*
X203995187Y-64751854D01*
X203958746Y-64660707D01*
X203949103Y-64639773D01*
X203210706Y-64639773D01*
X203207863Y-64668407D01*
X203194144Y-64741207D01*
X203170701Y-64852985D01*
X203138686Y-64998552D01*
X203099252Y-65172718D01*
X203053551Y-65370295D01*
X203002735Y-65586095D01*
X202970905Y-65719513D01*
X202917341Y-65943253D01*
X202867631Y-66151438D01*
X202822991Y-66338937D01*
X202784637Y-66500616D01*
X202753784Y-66631345D01*
X202731649Y-66725990D01*
X202719448Y-66779419D01*
X202717400Y-66789540D01*
X202693717Y-66794564D01*
X202629527Y-66798619D01*
X202535122Y-66801241D01*
X202440105Y-66802000D01*
X202162810Y-66802000D01*
X202136992Y-66681350D01*
X202109801Y-66550377D01*
X202077792Y-66390106D01*
X202043731Y-66214995D01*
X202010382Y-66039505D01*
X201980511Y-65878098D01*
X201956883Y-65745232D01*
X201948777Y-65697100D01*
X201915516Y-65493900D01*
X201872169Y-65760600D01*
X201850489Y-65886473D01*
X201821569Y-66043822D01*
X201788845Y-66214455D01*
X201755751Y-66380183D01*
X201748500Y-66415445D01*
X201668178Y-66803590D01*
X201387452Y-66796445D01*
X201106727Y-66789300D01*
X201073990Y-66649600D01*
X201058166Y-66582539D01*
X201032870Y-66475898D01*
X201000440Y-66339503D01*
X200963213Y-66183181D01*
X200923525Y-66016761D01*
X200913915Y-65976500D01*
X200845182Y-65688366D01*
X200787481Y-65445653D01*
X200739992Y-65244384D01*
X200735996Y-65227200D01*
X200329800Y-65227200D01*
X200329800Y-66802000D01*
X199771000Y-66802000D01*
X199771000Y-65227200D01*
X200329800Y-65227200D01*
X200735996Y-65227200D01*
X200701892Y-65080583D01*
X200672360Y-64950275D01*
X200650575Y-64849481D01*
X200639747Y-64794651D01*
X200366684Y-64794651D01*
X200340741Y-64897761D01*
X200271603Y-64982752D01*
X200244632Y-65001966D01*
X200148921Y-65038427D01*
X200035427Y-65047530D01*
X199923012Y-65030690D01*
X199830537Y-64989325D01*
X199806078Y-64969023D01*
X199751738Y-64885829D01*
X199728142Y-64802878D01*
X199724757Y-64729969D01*
X199744486Y-64674309D01*
X199789272Y-64617296D01*
X199843356Y-64565622D01*
X199900756Y-64537674D01*
X199983070Y-64523859D01*
X200003879Y-64521992D01*
X200145898Y-64527110D01*
X200253545Y-64569207D01*
X200327733Y-64648721D01*
X200345752Y-64684965D01*
X200366684Y-64794651D01*
X200639747Y-64794651D01*
X200635713Y-64774226D01*
X200626954Y-64720533D01*
X200623475Y-64684425D01*
X200624456Y-64661927D01*
X200629073Y-64649062D01*
X200636506Y-64641853D01*
X200637914Y-64640951D01*
X200676327Y-64632698D01*
X200753178Y-64627016D01*
X200856139Y-64624554D01*
X200938993Y-64625128D01*
X201206100Y-64630300D01*
X201261883Y-64960500D01*
X201286929Y-65115107D01*
X201312066Y-65281120D01*
X201334113Y-65436951D01*
X201347979Y-65544700D01*
X201364355Y-65662830D01*
X201381308Y-65753583D01*
X201397214Y-65812270D01*
X201410448Y-65834204D01*
X201419383Y-65814698D01*
X201422400Y-65759330D01*
X201427217Y-65711730D01*
X201440264Y-65625920D01*
X201459783Y-65511058D01*
X201484016Y-65376302D01*
X201511207Y-65230809D01*
X201539596Y-65083738D01*
X201567428Y-64944246D01*
X201592943Y-64821490D01*
X201614385Y-64724630D01*
X201629995Y-64662822D01*
X201636096Y-64645919D01*
X201668673Y-64632709D01*
X201738098Y-64624008D01*
X201830626Y-64619751D01*
X201932510Y-64619871D01*
X202030005Y-64624304D01*
X202109366Y-64632982D01*
X202156847Y-64645840D01*
X202160752Y-64648431D01*
X202177291Y-64682605D01*
X202200697Y-64759642D01*
X202229389Y-64872314D01*
X202261788Y-65013391D01*
X202296312Y-65175645D01*
X202331382Y-65351846D01*
X202365416Y-65534766D01*
X202396835Y-65717175D01*
X202403895Y-65760600D01*
X202422243Y-65874900D01*
X202443607Y-65709800D01*
X202457738Y-65605618D01*
X202476224Y-65476580D01*
X202497618Y-65332035D01*
X202520469Y-65181332D01*
X202543329Y-65033820D01*
X202564747Y-64898848D01*
X202583274Y-64785764D01*
X202597462Y-64703919D01*
X202605860Y-64662662D01*
X202606037Y-64662050D01*
X202617412Y-64642626D01*
X202643710Y-64629773D01*
X202693785Y-64622186D01*
X202776494Y-64618563D01*
X202900690Y-64617601D01*
X202908113Y-64617600D01*
X203024123Y-64619438D01*
X203120431Y-64624431D01*
X203186310Y-64631792D01*
X203210706Y-64639773D01*
X203949103Y-64639773D01*
X203912810Y-64560993D01*
X203891021Y-64516000D01*
X203797734Y-64361195D01*
X203670341Y-64200457D01*
X203521714Y-64047175D01*
X203364727Y-63914742D01*
X203225400Y-63823604D01*
X203090971Y-63754718D01*
X202964947Y-63702499D01*
X202836099Y-63664444D01*
X202693197Y-63638048D01*
X202525011Y-63620809D01*
X202320310Y-63610221D01*
X202259384Y-63608239D01*
X201814068Y-63595047D01*
X201701413Y-63464973D01*
X201425449Y-63184308D01*
X201113350Y-62935617D01*
X200771014Y-62722345D01*
X200404340Y-62547939D01*
X200019228Y-62415846D01*
X199821800Y-62366787D01*
X199674738Y-62343403D01*
X199491021Y-62327262D01*
X199284277Y-62318381D01*
X199068135Y-62316774D01*
X198856223Y-62322459D01*
X198856223Y-62322459D01*
G37*
X198856223Y-62322459D02*
X198662171Y-62335453D01*
X198499606Y-62355770D01*
X198450200Y-62365140D01*
X198043968Y-62475504D01*
X197666123Y-62627226D01*
X197313398Y-62822091D01*
X196982524Y-63061882D01*
X196694668Y-63323646D01*
X196425036Y-63594377D01*
X195996168Y-63608832D01*
X195795622Y-63617797D01*
X195633832Y-63631420D01*
X195498791Y-63652439D01*
X195378491Y-63683592D01*
X195260926Y-63727614D01*
X195134087Y-63787244D01*
X195071201Y-63819681D01*
X194915106Y-63919045D01*
X194754999Y-64050897D01*
X194605983Y-64200858D01*
X194483158Y-64354547D01*
X194441553Y-64419224D01*
X194388527Y-64519393D01*
X194332704Y-64640598D01*
X194289153Y-64748801D01*
X194221100Y-64935100D01*
X194221100Y-66611500D01*
X194289153Y-66797798D01*
X194414594Y-67072247D01*
X194577545Y-67314682D01*
X194775237Y-67522351D01*
X195004902Y-67692498D01*
X195263771Y-67822372D01*
X195352011Y-67854870D01*
X195431710Y-67880737D01*
X195502597Y-67899986D01*
X195574881Y-67913856D01*
X195658768Y-67923583D01*
X195764470Y-67930407D01*
X195902194Y-67935565D01*
X196049900Y-67939512D01*
X196532500Y-67951360D01*
X196754293Y-68162400D01*
X197077030Y-68435106D01*
X197426275Y-68664596D01*
X197800850Y-68850245D01*
X198199579Y-68991431D01*
X198431195Y-69050446D01*
X198507095Y-69062514D01*
X198618433Y-69074186D01*
X198754722Y-69084969D01*
X198905476Y-69094367D01*
X199060207Y-69101885D01*
X199208429Y-69107027D01*
X199339654Y-69109299D01*
X199443396Y-69108206D01*
X199509168Y-69103251D01*
X199517000Y-69101716D01*
X199559568Y-69093401D01*
X199636656Y-69079911D01*
X199732601Y-69063975D01*
X199745600Y-69061873D01*
X200093525Y-68982002D01*
X200441514Y-68856575D01*
X200780825Y-68690067D01*
X201102718Y-68486956D01*
X201398451Y-68251716D01*
X201485500Y-68170994D01*
X201714100Y-67950784D01*
X202209400Y-67938689D01*
X202426751Y-67931271D01*
X202603581Y-67919338D01*
X202750116Y-67900717D01*
X202876582Y-67873234D01*
X202993204Y-67834716D01*
X203110209Y-67782990D01*
X203225400Y-67722736D01*
X203379883Y-67620675D01*
X203386774Y-67614800D01*
X199574541Y-67614800D01*
X197633407Y-67614800D01*
X197263453Y-67614674D01*
X196940851Y-67614257D01*
X196662155Y-67613485D01*
X196423918Y-67612296D01*
X196222693Y-67610628D01*
X196055033Y-67608418D01*
X195917491Y-67605603D01*
X195806620Y-67602121D01*
X195718974Y-67597910D01*
X195651106Y-67592906D01*
X195599568Y-67587049D01*
X195560914Y-67580274D01*
X195547062Y-67576977D01*
X195307876Y-67489452D01*
X195090559Y-67359953D01*
X194900619Y-67194086D01*
X194743567Y-66997457D01*
X194624912Y-66775670D01*
X194558222Y-66570966D01*
X194546602Y-66496156D01*
X194537793Y-66380955D01*
X194531703Y-66222850D01*
X194528240Y-66019326D01*
X194527309Y-65767868D01*
X194527362Y-65735200D01*
X194528054Y-65525601D01*
X194529452Y-65359864D01*
X194532007Y-65231049D01*
X194536171Y-65132217D01*
X194542394Y-65056430D01*
X194551128Y-64996749D01*
X194562825Y-64946236D01*
X194577934Y-64897952D01*
X194582692Y-64884300D01*
X194694757Y-64636634D01*
X194843208Y-64419941D01*
X195024172Y-64237901D01*
X195233782Y-64094197D01*
X195468166Y-63992512D01*
X195542956Y-63970692D01*
X195590582Y-63960478D01*
X195650799Y-63952139D01*
X195728698Y-63945502D01*
X195829373Y-63940397D01*
X195957914Y-63936653D01*
X196119414Y-63934099D01*
X196318964Y-63932564D01*
X196561657Y-63931878D01*
X196701687Y-63931800D01*
X196985087Y-63932558D01*
X197234426Y-63934784D01*
X197446579Y-63938401D01*
X197618417Y-63943333D01*
X197746814Y-63949503D01*
X197828643Y-63956836D01*
X197845700Y-63959663D01*
X197995771Y-64004426D01*
X198160026Y-64075490D01*
X198317509Y-64162473D01*
X198447261Y-64254993D01*
X198454729Y-64261378D01*
X198576629Y-64387908D01*
X198693054Y-64546333D01*
X198791384Y-64718252D01*
X198834334Y-64814817D01*
X198850467Y-64858502D01*
X198863491Y-64902966D01*
X198873902Y-64954461D01*
X198882192Y-65019243D01*
X198888859Y-65103566D01*
X198894395Y-65213683D01*
X198899297Y-65355849D01*
X198904059Y-65536318D01*
X198909159Y-65760600D01*
X198914844Y-66003837D01*
X198920878Y-66203139D01*
X198928296Y-66365364D01*
X198938133Y-66497373D01*
X198951424Y-66606026D01*
X198969205Y-66698181D01*
X198992510Y-66780699D01*
X199022374Y-66860439D01*
X199059834Y-66944262D01*
X199100390Y-67027835D01*
X199208504Y-67206417D01*
X199359929Y-67389819D01*
X199383830Y-67415185D01*
X199574541Y-67614800D01*
X203386774Y-67614800D01*
X203536410Y-67487238D01*
X203682646Y-67335212D01*
X203806257Y-67177386D01*
X203892995Y-67030600D01*
X203942751Y-66923551D01*
X203982610Y-66828720D01*
X204013663Y-66738618D01*
X204037002Y-66645758D01*
X204053717Y-66542654D01*
X204064900Y-66421819D01*
X204071642Y-66275765D01*
X204075034Y-66097007D01*
X204076167Y-65878057D01*
X204076232Y-65773300D01*
X204075650Y-65534357D01*
X204073225Y-65338789D01*
X204067862Y-65179174D01*
X204058471Y-65048094D01*
X204043956Y-64938127D01*
X204023226Y-64841854D01*
X203995187Y-64751854D01*
X203958746Y-64660707D01*
X203949103Y-64639773D01*
X203210706Y-64639773D01*
X203207863Y-64668407D01*
X203194144Y-64741207D01*
X203170701Y-64852985D01*
X203138686Y-64998552D01*
X203099252Y-65172718D01*
X203053551Y-65370295D01*
X203002735Y-65586095D01*
X202970905Y-65719513D01*
X202917341Y-65943253D01*
X202867631Y-66151438D01*
X202822991Y-66338937D01*
X202784637Y-66500616D01*
X202753784Y-66631345D01*
X202731649Y-66725990D01*
X202719448Y-66779419D01*
X202717400Y-66789540D01*
X202693717Y-66794564D01*
X202629527Y-66798619D01*
X202535122Y-66801241D01*
X202440105Y-66802000D01*
X202162810Y-66802000D01*
X202136992Y-66681350D01*
X202109801Y-66550377D01*
X202077792Y-66390106D01*
X202043731Y-66214995D01*
X202010382Y-66039505D01*
X201980511Y-65878098D01*
X201956883Y-65745232D01*
X201948777Y-65697100D01*
X201915516Y-65493900D01*
X201872169Y-65760600D01*
X201850489Y-65886473D01*
X201821569Y-66043822D01*
X201788845Y-66214455D01*
X201755751Y-66380183D01*
X201748500Y-66415445D01*
X201668178Y-66803590D01*
X201387452Y-66796445D01*
X201106727Y-66789300D01*
X201073990Y-66649600D01*
X201058166Y-66582539D01*
X201032870Y-66475898D01*
X201000440Y-66339503D01*
X200963213Y-66183181D01*
X200923525Y-66016761D01*
X200913915Y-65976500D01*
X200845182Y-65688366D01*
X200787481Y-65445653D01*
X200739992Y-65244384D01*
X200735996Y-65227200D01*
X200329800Y-65227200D01*
X200329800Y-66802000D01*
X199771000Y-66802000D01*
X199771000Y-65227200D01*
X200329800Y-65227200D01*
X200735996Y-65227200D01*
X200701892Y-65080583D01*
X200672360Y-64950275D01*
X200650575Y-64849481D01*
X200639747Y-64794651D01*
X200366684Y-64794651D01*
X200340741Y-64897761D01*
X200271603Y-64982752D01*
X200244632Y-65001966D01*
X200148921Y-65038427D01*
X200035427Y-65047530D01*
X199923012Y-65030690D01*
X199830537Y-64989325D01*
X199806078Y-64969023D01*
X199751738Y-64885829D01*
X199728142Y-64802878D01*
X199724757Y-64729969D01*
X199744486Y-64674309D01*
X199789272Y-64617296D01*
X199843356Y-64565622D01*
X199900756Y-64537674D01*
X199983070Y-64523859D01*
X200003879Y-64521992D01*
X200145898Y-64527110D01*
X200253545Y-64569207D01*
X200327733Y-64648721D01*
X200345752Y-64684965D01*
X200366684Y-64794651D01*
X200639747Y-64794651D01*
X200635713Y-64774226D01*
X200626954Y-64720533D01*
X200623475Y-64684425D01*
X200624456Y-64661927D01*
X200629073Y-64649062D01*
X200636506Y-64641853D01*
X200637914Y-64640951D01*
X200676327Y-64632698D01*
X200753178Y-64627016D01*
X200856139Y-64624554D01*
X200938993Y-64625128D01*
X201206100Y-64630300D01*
X201261883Y-64960500D01*
X201286929Y-65115107D01*
X201312066Y-65281120D01*
X201334113Y-65436951D01*
X201347979Y-65544700D01*
X201364355Y-65662830D01*
X201381308Y-65753583D01*
X201397214Y-65812270D01*
X201410448Y-65834204D01*
X201419383Y-65814698D01*
X201422400Y-65759330D01*
X201427217Y-65711730D01*
X201440264Y-65625920D01*
X201459783Y-65511058D01*
X201484016Y-65376302D01*
X201511207Y-65230809D01*
X201539596Y-65083738D01*
X201567428Y-64944246D01*
X201592943Y-64821490D01*
X201614385Y-64724630D01*
X201629995Y-64662822D01*
X201636096Y-64645919D01*
X201668673Y-64632709D01*
X201738098Y-64624008D01*
X201830626Y-64619751D01*
X201932510Y-64619871D01*
X202030005Y-64624304D01*
X202109366Y-64632982D01*
X202156847Y-64645840D01*
X202160752Y-64648431D01*
X202177291Y-64682605D01*
X202200697Y-64759642D01*
X202229389Y-64872314D01*
X202261788Y-65013391D01*
X202296312Y-65175645D01*
X202331382Y-65351846D01*
X202365416Y-65534766D01*
X202396835Y-65717175D01*
X202403895Y-65760600D01*
X202422243Y-65874900D01*
X202443607Y-65709800D01*
X202457738Y-65605618D01*
X202476224Y-65476580D01*
X202497618Y-65332035D01*
X202520469Y-65181332D01*
X202543329Y-65033820D01*
X202564747Y-64898848D01*
X202583274Y-64785764D01*
X202597462Y-64703919D01*
X202605860Y-64662662D01*
X202606037Y-64662050D01*
X202617412Y-64642626D01*
X202643710Y-64629773D01*
X202693785Y-64622186D01*
X202776494Y-64618563D01*
X202900690Y-64617601D01*
X202908113Y-64617600D01*
X203024123Y-64619438D01*
X203120431Y-64624431D01*
X203186310Y-64631792D01*
X203210706Y-64639773D01*
X203949103Y-64639773D01*
X203912810Y-64560993D01*
X203891021Y-64516000D01*
X203797734Y-64361195D01*
X203670341Y-64200457D01*
X203521714Y-64047175D01*
X203364727Y-63914742D01*
X203225400Y-63823604D01*
X203090971Y-63754718D01*
X202964947Y-63702499D01*
X202836099Y-63664444D01*
X202693197Y-63638048D01*
X202525011Y-63620809D01*
X202320310Y-63610221D01*
X202259384Y-63608239D01*
X201814068Y-63595047D01*
X201701413Y-63464973D01*
X201425449Y-63184308D01*
X201113350Y-62935617D01*
X200771014Y-62722345D01*
X200404340Y-62547939D01*
X200019228Y-62415846D01*
X199821800Y-62366787D01*
X199674738Y-62343403D01*
X199491021Y-62327262D01*
X199284277Y-62318381D01*
X199068135Y-62316774D01*
X198856223Y-62322459D01*
G36*
X193835561Y-63755370D02*
X193782031Y-63761551D01*
X193757548Y-63775645D01*
X193751250Y-63800756D01*
X193751200Y-63804800D01*
X193766379Y-63844885D01*
X193813588Y-63855600D01*
X193846023Y-63858589D01*
X193865343Y-63874832D01*
X193875734Y-63915244D01*
X193881383Y-63990739D01*
X193883438Y-64037718D01*
X193893754Y-64152546D01*
X193913200Y-64218030D01*
X193941662Y-64233904D01*
X193962338Y-64220195D01*
X193971125Y-64187676D01*
X193977397Y-64119177D01*
X193979800Y-64029501D01*
X193979800Y-64029166D01*
X193980789Y-63937640D01*
X193986488Y-63885709D01*
X194000995Y-63862173D01*
X194028406Y-63855831D01*
X194043300Y-63855600D01*
X194093095Y-63843693D01*
X194106800Y-63804800D01*
X194102004Y-63778103D01*
X194080372Y-63762808D01*
X194031042Y-63755813D01*
X193943153Y-63754014D01*
X193929000Y-63754000D01*
X193835561Y-63755370D01*
X193835561Y-63755370D01*
G37*
X193835561Y-63755370D02*
X193782031Y-63761551D01*
X193757548Y-63775645D01*
X193751250Y-63800756D01*
X193751200Y-63804800D01*
X193766379Y-63844885D01*
X193813588Y-63855600D01*
X193846023Y-63858589D01*
X193865343Y-63874832D01*
X193875734Y-63915244D01*
X193881383Y-63990739D01*
X193883438Y-64037718D01*
X193893754Y-64152546D01*
X193913200Y-64218030D01*
X193941662Y-64233904D01*
X193962338Y-64220195D01*
X193971125Y-64187676D01*
X193977397Y-64119177D01*
X193979800Y-64029501D01*
X193979800Y-64029166D01*
X193980789Y-63937640D01*
X193986488Y-63885709D01*
X194000995Y-63862173D01*
X194028406Y-63855831D01*
X194043300Y-63855600D01*
X194093095Y-63843693D01*
X194106800Y-63804800D01*
X194102004Y-63778103D01*
X194080372Y-63762808D01*
X194031042Y-63755813D01*
X193943153Y-63754014D01*
X193929000Y-63754000D01*
X193835561Y-63755370D01*
G36*
X193574449Y-63759644D02*
X193547857Y-63783414D01*
X193526206Y-63842350D01*
X193521182Y-63860405D01*
X193500091Y-63936435D01*
X193482996Y-63995502D01*
X193479137Y-64008000D01*
X193466237Y-64007018D01*
X193445016Y-63966161D01*
X193423986Y-63906400D01*
X193396229Y-63825915D01*
X193370678Y-63783611D01*
X193338689Y-63768040D01*
X193318499Y-63766700D01*
X193288755Y-63768647D01*
X193270337Y-63781035D01*
X193260532Y-63813685D01*
X193256625Y-63876415D01*
X193255902Y-63979046D01*
X193255900Y-63993183D01*
X193258740Y-64116171D01*
X193267640Y-64192936D01*
X193283175Y-64227756D01*
X193287650Y-64230250D01*
X193306307Y-64220651D01*
X193317020Y-64172485D01*
X193321120Y-64079966D01*
X193324733Y-63996983D01*
X193333799Y-63962123D01*
X193349087Y-63975902D01*
X193371363Y-64038833D01*
X193396083Y-64130241D01*
X193424688Y-64207528D01*
X193457468Y-64235041D01*
X193492646Y-64213454D01*
X193528447Y-64143443D01*
X193551520Y-64071160D01*
X193593228Y-63919100D01*
X193602364Y-64069493D01*
X193614292Y-64170790D01*
X193632084Y-64225216D01*
X193651448Y-64232180D01*
X193668092Y-64191089D01*
X193677723Y-64101352D01*
X193678382Y-64079966D01*
X193680406Y-63980794D01*
X193682141Y-63890869D01*
X193682989Y-63842900D01*
X193676174Y-63787093D01*
X193644318Y-63763540D01*
X193617590Y-63758805D01*
X193574449Y-63759644D01*
X193574449Y-63759644D01*
G37*
X193574449Y-63759644D02*
X193547857Y-63783414D01*
X193526206Y-63842350D01*
X193521182Y-63860405D01*
X193500091Y-63936435D01*
X193482996Y-63995502D01*
X193479137Y-64008000D01*
X193466237Y-64007018D01*
X193445016Y-63966161D01*
X193423986Y-63906400D01*
X193396229Y-63825915D01*
X193370678Y-63783611D01*
X193338689Y-63768040D01*
X193318499Y-63766700D01*
X193288755Y-63768647D01*
X193270337Y-63781035D01*
X193260532Y-63813685D01*
X193256625Y-63876415D01*
X193255902Y-63979046D01*
X193255900Y-63993183D01*
X193258740Y-64116171D01*
X193267640Y-64192936D01*
X193283175Y-64227756D01*
X193287650Y-64230250D01*
X193306307Y-64220651D01*
X193317020Y-64172485D01*
X193321120Y-64079966D01*
X193324733Y-63996983D01*
X193333799Y-63962123D01*
X193349087Y-63975902D01*
X193371363Y-64038833D01*
X193396083Y-64130241D01*
X193424688Y-64207528D01*
X193457468Y-64235041D01*
X193492646Y-64213454D01*
X193528447Y-64143443D01*
X193551520Y-64071160D01*
X193593228Y-63919100D01*
X193602364Y-64069493D01*
X193614292Y-64170790D01*
X193632084Y-64225216D01*
X193651448Y-64232180D01*
X193668092Y-64191089D01*
X193677723Y-64101352D01*
X193678382Y-64079966D01*
X193680406Y-63980794D01*
X193682141Y-63890869D01*
X193682989Y-63842900D01*
X193676174Y-63787093D01*
X193644318Y-63763540D01*
X193617590Y-63758805D01*
X193574449Y-63759644D01*
G36*
X196278500Y-64630300D02*
X196278500Y-65138300D01*
X196920798Y-65145088D01*
X197563095Y-65151876D01*
X197555798Y-65386388D01*
X197548500Y-65620900D01*
X196390972Y-65634558D01*
X196405500Y-66128900D01*
X196983350Y-66135726D01*
X197561200Y-66142553D01*
X197561200Y-66802000D01*
X198145400Y-66802000D01*
X198145400Y-64616974D01*
X196278500Y-64630300D01*
X196278500Y-64630300D01*
G37*
X196278500Y-64630300D02*
X196278500Y-65138300D01*
X196920798Y-65145088D01*
X197563095Y-65151876D01*
X197555798Y-65386388D01*
X197548500Y-65620900D01*
X196390972Y-65634558D01*
X196405500Y-66128900D01*
X196983350Y-66135726D01*
X197561200Y-66142553D01*
X197561200Y-66802000D01*
X198145400Y-66802000D01*
X198145400Y-64616974D01*
X196278500Y-64630300D01*
G36*
X195376800Y-66802000D02*
X195935600Y-66802000D01*
X195935600Y-65227200D01*
X195376800Y-65227200D01*
X195376800Y-66802000D01*
X195376800Y-66802000D01*
G37*
X195376800Y-66802000D02*
X195935600Y-66802000D01*
X195935600Y-65227200D01*
X195376800Y-65227200D01*
X195376800Y-66802000D01*
G36*
X195609679Y-64521992D02*
X195519407Y-64534357D01*
X195458591Y-64559026D01*
X195405977Y-64605242D01*
X195397934Y-64614094D01*
X195337440Y-64712331D01*
X195327425Y-64812953D01*
X195367885Y-64912690D01*
X195398425Y-64951855D01*
X195447374Y-64999403D01*
X195498406Y-65025490D01*
X195571058Y-65038006D01*
X195620675Y-65041586D01*
X195749216Y-65038746D01*
X195837790Y-65012320D01*
X195839712Y-65011253D01*
X195915506Y-64949379D01*
X195953503Y-64864937D01*
X195961000Y-64782700D01*
X195941597Y-64666661D01*
X195883958Y-64583700D01*
X195788945Y-64534454D01*
X195657418Y-64519560D01*
X195609679Y-64521992D01*
X195609679Y-64521992D01*
G37*
X195609679Y-64521992D02*
X195519407Y-64534357D01*
X195458591Y-64559026D01*
X195405977Y-64605242D01*
X195397934Y-64614094D01*
X195337440Y-64712331D01*
X195327425Y-64812953D01*
X195367885Y-64912690D01*
X195398425Y-64951855D01*
X195447374Y-64999403D01*
X195498406Y-65025490D01*
X195571058Y-65038006D01*
X195620675Y-65041586D01*
X195749216Y-65038746D01*
X195837790Y-65012320D01*
X195839712Y-65011253D01*
X195915506Y-64949379D01*
X195953503Y-64864937D01*
X195961000Y-64782700D01*
X195941597Y-64666661D01*
X195883958Y-64583700D01*
X195788945Y-64534454D01*
X195657418Y-64519560D01*
X195609679Y-64521992D01*
M02*
