%TF.GenerationSoftware,KiCad,Pcbnew,4.0.7-e2-6376~58~ubuntu16.04.1*%
%TF.CreationDate,2018-03-12T18:00:00+01:00*%
%TF.ProjectId,SLAMP-WiFi,534C414D502D576946692E6B69636164,rev?*%
%TF.FileFunction,Copper,L2,Bot,Signal*%
%FSLAX46Y46*%
G04 Gerber Fmt 4.6, Leading zero omitted, Abs format (unit mm)*
G04 Created by KiCad (PCBNEW 4.0.7-e2-6376~58~ubuntu16.04.1) date Mon Mar 12 18:00:00 2018*
%MOMM*%
%LPD*%
G01*
G04 APERTURE LIST*
%ADD10C,0.127000*%
%ADD11R,1.500000X1.500000*%
%ADD12R,1.600000X1.600000*%
%ADD13C,1.600000*%
%ADD14R,2.500000X2.500000*%
%ADD15C,2.500000*%
%ADD16R,1.700000X1.700000*%
%ADD17O,1.700000X1.700000*%
%ADD18C,1.422400*%
%ADD19R,1.750000X1.750000*%
%ADD20C,1.750000*%
%ADD21C,2.000000*%
%ADD22C,1.879600*%
%ADD23C,0.685800*%
%ADD24C,0.200000*%
%ADD25C,0.300000*%
%ADD26C,0.254000*%
%ADD27C,0.152400*%
G04 APERTURE END LIST*
D10*
X143637000Y-54991000D02*
X143637000Y-56769000D01*
X181864000Y-54991000D02*
X143637000Y-54991000D01*
X181864000Y-56769000D02*
X181864000Y-54991000D01*
X143637000Y-56769000D02*
X143637000Y-60833000D01*
X181864000Y-58166000D02*
X181864000Y-56769000D01*
X181864000Y-60833000D02*
X181864000Y-58166000D01*
X201041000Y-60833000D02*
X181864000Y-60833000D01*
X143637000Y-108077000D02*
X143637000Y-60833000D01*
X205232000Y-108077000D02*
X143637000Y-108077000D01*
X205232000Y-60833000D02*
X205232000Y-108077000D01*
X201041000Y-60833000D02*
X205232000Y-60833000D01*
D11*
X151892000Y-82677000D03*
D12*
X152146000Y-75184000D03*
D13*
X152146000Y-78684000D03*
D14*
X148844000Y-63627000D03*
D15*
X148844000Y-68627000D03*
D16*
X148844000Y-92202000D03*
D17*
X148844000Y-89662000D03*
X148844000Y-87122000D03*
X148844000Y-84582000D03*
D18*
X156464000Y-93599000D03*
X161544000Y-93599000D03*
D19*
X149479000Y-104267000D03*
D20*
X149479000Y-101767000D03*
X149479000Y-99267000D03*
D19*
X157988000Y-104267000D03*
D20*
X157988000Y-101767000D03*
X157988000Y-99267000D03*
D19*
X200152000Y-104267000D03*
D20*
X200152000Y-101767000D03*
X200152000Y-99267000D03*
D19*
X191389000Y-104267000D03*
D20*
X191389000Y-101767000D03*
X191389000Y-99267000D03*
D19*
X183007000Y-104267000D03*
D20*
X183007000Y-101767000D03*
X183007000Y-99267000D03*
D19*
X174625000Y-104267000D03*
D20*
X174625000Y-101767000D03*
X174625000Y-99267000D03*
D19*
X166497000Y-104267000D03*
D20*
X166497000Y-101767000D03*
X166497000Y-99267000D03*
D21*
X169418000Y-67746000D03*
X169418000Y-63246000D03*
X175918000Y-67746000D03*
X175918000Y-63246000D03*
X169418000Y-76763000D03*
X169418000Y-72263000D03*
X175918000Y-76763000D03*
X175918000Y-72263000D03*
D22*
X147370800Y-57404000D03*
X151180800Y-57404000D03*
D23*
X164846000Y-67716400D03*
X161442400Y-70053200D03*
X161848800Y-56083200D03*
X162407600Y-60350400D03*
X161391600Y-61925200D03*
X188722000Y-92583000D03*
X188849000Y-95758000D03*
X188214000Y-84074000D03*
X191008000Y-85725000D03*
X152019000Y-84582000D03*
X158369000Y-88646000D03*
X184023000Y-88519000D03*
X178181000Y-88519000D03*
X167386000Y-66802000D03*
X175006000Y-65532000D03*
X180492400Y-60807600D03*
X178943000Y-78613000D03*
X179197000Y-82296000D03*
X179197000Y-87630000D03*
X176276000Y-93091000D03*
X181991000Y-93091000D03*
X179197000Y-71882000D03*
X186563000Y-69342000D03*
X160274000Y-91440000D03*
X187198000Y-73406000D03*
X180340000Y-73406000D03*
X172847000Y-91186000D03*
X162941000Y-96901000D03*
X178943000Y-86614000D03*
X173736000Y-96520000D03*
X168402000Y-99060000D03*
X188976000Y-71755000D03*
X162179000Y-71755000D03*
X175895000Y-74803000D03*
X196342000Y-66548000D03*
X170688000Y-83947000D03*
X169672000Y-86487000D03*
X195072000Y-66548000D03*
X161442400Y-65582800D03*
X193243200Y-72542400D03*
X173736000Y-92710000D03*
X196215000Y-91694000D03*
X183388000Y-80010000D03*
X186817000Y-65278000D03*
X172974000Y-74930000D03*
X157734000Y-74168000D03*
X160528000Y-80772000D03*
X181864000Y-64389000D03*
X172466000Y-64770000D03*
X153517600Y-66243200D03*
D24*
X163779200Y-67716400D02*
X164846000Y-67716400D01*
X161442400Y-70053200D02*
X163779200Y-67716400D01*
X162407600Y-56642000D02*
X162407600Y-60350400D01*
X161848800Y-56083200D02*
X162407600Y-56642000D01*
X162407600Y-60909200D02*
X162407600Y-60350400D01*
X161391600Y-61925200D02*
X162407600Y-60909200D01*
D25*
X188722000Y-95631000D02*
X188722000Y-92583000D01*
X188849000Y-95758000D02*
X188722000Y-95631000D01*
D26*
X175918000Y-67746000D02*
X175918000Y-69238000D01*
X177745000Y-76763000D02*
X175918000Y-76763000D01*
X177927000Y-76581000D02*
X177745000Y-76763000D01*
X177927000Y-71247000D02*
X177927000Y-76581000D01*
X175918000Y-69238000D02*
X177927000Y-71247000D01*
D25*
X175958500Y-76771500D02*
X169458500Y-76771500D01*
X175918000Y-67746000D02*
X169418000Y-67746000D01*
D27*
X189357000Y-85217000D02*
X188214000Y-84074000D01*
X190500000Y-85217000D02*
X189357000Y-85217000D01*
X191008000Y-85725000D02*
X190500000Y-85217000D01*
D25*
X152146000Y-84582000D02*
X152019000Y-84582000D01*
X154305000Y-84582000D02*
X152146000Y-84582000D01*
X158369000Y-88646000D02*
X154305000Y-84582000D01*
X183896000Y-88392000D02*
X184023000Y-88519000D01*
X178308000Y-88392000D02*
X183896000Y-88392000D01*
X178181000Y-88519000D02*
X178308000Y-88392000D01*
X167513000Y-66675000D02*
X167386000Y-66802000D01*
X167513000Y-66421000D02*
X167513000Y-66675000D01*
X168402000Y-65532000D02*
X167513000Y-66421000D01*
X175006000Y-65532000D02*
X168402000Y-65532000D01*
D24*
X181152800Y-61468000D02*
X181254400Y-61468000D01*
X180492400Y-60807600D02*
X181152800Y-61468000D01*
X185420000Y-64262000D02*
X185978800Y-64820800D01*
X184048400Y-64262000D02*
X185420000Y-64262000D01*
X181254400Y-61468000D02*
X184048400Y-64262000D01*
X185978800Y-64820800D02*
X185978800Y-68757800D01*
X185978800Y-68757800D02*
X186563000Y-69342000D01*
D25*
X179197000Y-78359000D02*
X179197000Y-71882000D01*
X178943000Y-78613000D02*
X179197000Y-78359000D01*
X179197000Y-82423000D02*
X179197000Y-82296000D01*
X179705000Y-82931000D02*
X179197000Y-82423000D01*
X179705000Y-87122000D02*
X179705000Y-82931000D01*
X179197000Y-87630000D02*
X179705000Y-87122000D01*
X181991000Y-93091000D02*
X176276000Y-93091000D01*
X181610000Y-69469000D02*
X179197000Y-71882000D01*
X186436000Y-69469000D02*
X181610000Y-69469000D01*
X186563000Y-69342000D02*
X186436000Y-69469000D01*
X150749000Y-89027000D02*
X148844000Y-87122000D01*
X150749000Y-89027000D02*
X150749000Y-89027000D01*
X153162000Y-91440000D02*
X150749000Y-89027000D01*
X160274000Y-91440000D02*
X153162000Y-91440000D01*
X148844000Y-84582000D02*
X149479000Y-84582000D01*
X149479000Y-99267000D02*
X153082000Y-99267000D01*
X180340000Y-73406000D02*
X187198000Y-73406000D01*
X172847000Y-94996000D02*
X172847000Y-91186000D01*
X170053000Y-97790000D02*
X172847000Y-94996000D01*
X154559000Y-97790000D02*
X170053000Y-97790000D01*
X153082000Y-99267000D02*
X154559000Y-97790000D01*
X171958000Y-90170000D02*
X174625000Y-87503000D01*
X162941000Y-96901000D02*
X163449000Y-96393000D01*
X163449000Y-96393000D02*
X169926000Y-96393000D01*
X169926000Y-96393000D02*
X171831000Y-94488000D01*
X171831000Y-94488000D02*
X171831000Y-90297000D01*
X171831000Y-90297000D02*
X171958000Y-90170000D01*
X178054000Y-87503000D02*
X178943000Y-86614000D01*
X174625000Y-87503000D02*
X178054000Y-87503000D01*
D26*
X172847000Y-96520000D02*
X173736000Y-96520000D01*
X170815000Y-98552000D02*
X172847000Y-96520000D01*
X168910000Y-98552000D02*
X170815000Y-98552000D01*
X168402000Y-99060000D02*
X168910000Y-98552000D01*
X165989000Y-75565000D02*
X162179000Y-71755000D01*
X165989000Y-77470000D02*
X165989000Y-75565000D01*
X168275000Y-79756000D02*
X165989000Y-77470000D01*
X179959000Y-79756000D02*
X168275000Y-79756000D01*
X180467000Y-79248000D02*
X179959000Y-79756000D01*
X180467000Y-76962000D02*
X180467000Y-79248000D01*
X182372000Y-75057000D02*
X180467000Y-76962000D01*
X186944000Y-75057000D02*
X182372000Y-75057000D01*
X188087000Y-73914000D02*
X186944000Y-75057000D01*
X188087000Y-72644000D02*
X188087000Y-73914000D01*
X188976000Y-71755000D02*
X188087000Y-72644000D01*
D25*
X162179000Y-71755000D02*
X163576000Y-70358000D01*
X163576000Y-70358000D02*
X172593000Y-70358000D01*
X172593000Y-70358000D02*
X174117000Y-71882000D01*
X174117000Y-71882000D02*
X174117000Y-73025000D01*
X174117000Y-73025000D02*
X175895000Y-74803000D01*
X196342000Y-76073000D02*
X196342000Y-66548000D01*
X190881000Y-81534000D02*
X196342000Y-76073000D01*
X173101000Y-81534000D02*
X190881000Y-81534000D01*
X170688000Y-83947000D02*
X173101000Y-81534000D01*
X169799000Y-86487000D02*
X169672000Y-86487000D01*
X169799000Y-83058000D02*
X169799000Y-86487000D01*
X170561000Y-82296000D02*
X169799000Y-83058000D01*
X171958000Y-80899000D02*
X170561000Y-82296000D01*
X189995000Y-80899000D02*
X171958000Y-80899000D01*
X195072000Y-75822000D02*
X189995000Y-80899000D01*
X195072000Y-66548000D02*
X195072000Y-75822000D01*
D24*
X189103000Y-61645800D02*
X182092600Y-61645800D01*
X162407600Y-64617600D02*
X161442400Y-65582800D01*
X163474400Y-64617600D02*
X162407600Y-64617600D01*
X165201600Y-62890400D02*
X163474400Y-64617600D01*
X165201600Y-58369200D02*
X165201600Y-62890400D01*
X166471600Y-57099200D02*
X165201600Y-58369200D01*
X179476400Y-57099200D02*
X166471600Y-57099200D01*
X181254400Y-58877200D02*
X179476400Y-57099200D01*
X181254400Y-60807600D02*
X181254400Y-58877200D01*
X182092600Y-61645800D02*
X181254400Y-60807600D01*
X190398400Y-62941200D02*
X189103000Y-61645800D01*
X189103000Y-61645800D02*
X189077600Y-61620400D01*
X190398400Y-69697600D02*
X190398400Y-62941200D01*
X193243200Y-72542400D02*
X190398400Y-69697600D01*
D25*
X173736000Y-92710000D02*
X173863000Y-92710000D01*
X173863000Y-92710000D02*
X174879000Y-91694000D01*
X174879000Y-91694000D02*
X196215000Y-91694000D01*
X189738000Y-73660000D02*
X183388000Y-80010000D01*
X189738000Y-68199000D02*
X189738000Y-73660000D01*
X186817000Y-65278000D02*
X189738000Y-68199000D01*
D26*
X171958000Y-74803000D02*
X169418000Y-72263000D01*
X172847000Y-74803000D02*
X171958000Y-74803000D01*
X172974000Y-74930000D02*
X172847000Y-74803000D01*
X160401000Y-76835000D02*
X157734000Y-74168000D01*
X160401000Y-80645000D02*
X160401000Y-76835000D01*
X160528000Y-80772000D02*
X160401000Y-80645000D01*
X181864000Y-64643000D02*
X181864000Y-64389000D01*
X181991000Y-64770000D02*
X181864000Y-64643000D01*
X172466000Y-64770000D02*
X181991000Y-64770000D01*
D24*
X149402800Y-59436000D02*
X147370800Y-57404000D01*
X149910800Y-59436000D02*
X149402800Y-59436000D01*
X152247600Y-61772800D02*
X149910800Y-59436000D01*
X152247600Y-64973200D02*
X152247600Y-61772800D01*
X153517600Y-66243200D02*
X152247600Y-64973200D01*
D26*
G36*
X160871070Y-55887830D02*
X160870731Y-56276863D01*
X161019293Y-56636412D01*
X161294141Y-56911740D01*
X161653430Y-57060930D01*
X161672600Y-57060947D01*
X161672600Y-59702364D01*
X161579060Y-59795741D01*
X161429870Y-60155030D01*
X161429531Y-60544063D01*
X161518345Y-60759009D01*
X161330108Y-60947246D01*
X161197937Y-60947131D01*
X160838388Y-61095693D01*
X160563060Y-61370541D01*
X160413870Y-61729830D01*
X160413531Y-62118863D01*
X160562093Y-62478412D01*
X160836941Y-62753740D01*
X161196230Y-62902930D01*
X161585263Y-62903269D01*
X161944812Y-62754707D01*
X162220140Y-62479859D01*
X162369330Y-62120570D01*
X162369447Y-61986799D01*
X162927323Y-61428923D01*
X163086651Y-61190472D01*
X163087396Y-61186728D01*
X163120452Y-61020546D01*
X163236140Y-60905059D01*
X163385330Y-60545770D01*
X163385669Y-60156737D01*
X163237107Y-59797188D01*
X163142600Y-59702516D01*
X163142600Y-56642000D01*
X163086651Y-56360728D01*
X163031755Y-56278570D01*
X162927324Y-56122277D01*
X162826754Y-56021707D01*
X162826869Y-55889537D01*
X162744216Y-55689500D01*
X181165500Y-55689500D01*
X181165500Y-57748853D01*
X179996123Y-56579477D01*
X179757672Y-56420149D01*
X179476400Y-56364200D01*
X166471600Y-56364200D01*
X166190328Y-56420149D01*
X165951876Y-56579477D01*
X164681877Y-57849477D01*
X164522549Y-58087928D01*
X164466600Y-58369200D01*
X164466600Y-62585953D01*
X163169954Y-63882600D01*
X162407600Y-63882600D01*
X162126328Y-63938549D01*
X161887877Y-64097876D01*
X161380907Y-64604846D01*
X161248737Y-64604731D01*
X160889188Y-64753293D01*
X160613860Y-65028141D01*
X160464670Y-65387430D01*
X160464331Y-65776463D01*
X160612893Y-66136012D01*
X160887741Y-66411340D01*
X161247030Y-66560530D01*
X161636063Y-66560869D01*
X161995612Y-66412307D01*
X162270940Y-66137459D01*
X162420130Y-65778170D01*
X162420247Y-65644400D01*
X162712047Y-65352600D01*
X163474400Y-65352600D01*
X163755672Y-65296651D01*
X163994123Y-65137323D01*
X165721324Y-63410123D01*
X165880651Y-63171672D01*
X165936600Y-62890400D01*
X165936600Y-58673646D01*
X166776047Y-57834200D01*
X171055017Y-57834200D01*
X170995996Y-57893118D01*
X170731301Y-58530573D01*
X170730699Y-59220799D01*
X170994281Y-59858715D01*
X171481918Y-60347204D01*
X172119373Y-60611899D01*
X172809599Y-60612501D01*
X173447515Y-60348919D01*
X173936004Y-59861282D01*
X174200699Y-59223827D01*
X174201301Y-58533601D01*
X173937719Y-57895685D01*
X173876341Y-57834200D01*
X179171954Y-57834200D01*
X180519400Y-59181647D01*
X180519400Y-59829723D01*
X180298737Y-59829531D01*
X179939188Y-59978093D01*
X179663860Y-60252941D01*
X179514670Y-60612230D01*
X179514331Y-61001263D01*
X179662893Y-61360812D01*
X179937741Y-61636140D01*
X180297030Y-61785330D01*
X180430800Y-61785447D01*
X180633077Y-61987724D01*
X180871528Y-62147051D01*
X180899586Y-62152632D01*
X182228419Y-63481465D01*
X182059370Y-63411270D01*
X181670337Y-63410931D01*
X181310788Y-63559493D01*
X181035460Y-63834341D01*
X180963350Y-64008000D01*
X177371943Y-64008000D01*
X177552716Y-63572648D01*
X177553284Y-62922205D01*
X177304894Y-62321057D01*
X176845363Y-61860722D01*
X176244648Y-61611284D01*
X175594205Y-61610716D01*
X174993057Y-61859106D01*
X174532722Y-62318637D01*
X174283284Y-62919352D01*
X174282716Y-63569795D01*
X174463779Y-64008000D01*
X173087083Y-64008000D01*
X173020659Y-63941460D01*
X172661370Y-63792270D01*
X172272337Y-63791931D01*
X171912788Y-63940493D01*
X171637460Y-64215341D01*
X171488270Y-64574630D01*
X171488120Y-64747000D01*
X170066786Y-64747000D01*
X170342943Y-64632894D01*
X170803278Y-64173363D01*
X171052716Y-63572648D01*
X171053284Y-62922205D01*
X170804894Y-62321057D01*
X170345363Y-61860722D01*
X169744648Y-61611284D01*
X169094205Y-61610716D01*
X168493057Y-61859106D01*
X168032722Y-62318637D01*
X167783284Y-62919352D01*
X167782716Y-63569795D01*
X168031106Y-64170943D01*
X168490637Y-64631278D01*
X168769327Y-64747000D01*
X168402000Y-64747000D01*
X168101594Y-64806755D01*
X167846921Y-64976921D01*
X166957921Y-65865921D01*
X166907277Y-65941715D01*
X166832788Y-65972493D01*
X166557460Y-66247341D01*
X166408270Y-66606630D01*
X166407931Y-66995663D01*
X166556493Y-67355212D01*
X166831341Y-67630540D01*
X167190630Y-67779730D01*
X167579663Y-67780069D01*
X167780077Y-67697260D01*
X167796144Y-68131460D01*
X167998613Y-68620264D01*
X168265468Y-68718927D01*
X169238395Y-67746000D01*
X169597605Y-67746000D01*
X170570532Y-68718927D01*
X170837387Y-68620264D01*
X171063908Y-68010539D01*
X171044331Y-67481461D01*
X174272092Y-67481461D01*
X174296144Y-68131460D01*
X174498613Y-68620264D01*
X174765468Y-68718927D01*
X175738395Y-67746000D01*
X176097605Y-67746000D01*
X177070532Y-68718927D01*
X177337387Y-68620264D01*
X177563908Y-68010539D01*
X177539856Y-67360540D01*
X177337387Y-66871736D01*
X177070532Y-66773073D01*
X176097605Y-67746000D01*
X175738395Y-67746000D01*
X174765468Y-66773073D01*
X174498613Y-66871736D01*
X174272092Y-67481461D01*
X171044331Y-67481461D01*
X171039856Y-67360540D01*
X170837387Y-66871736D01*
X170570532Y-66773073D01*
X169597605Y-67746000D01*
X169238395Y-67746000D01*
X169224253Y-67731858D01*
X169403858Y-67552253D01*
X169418000Y-67566395D01*
X170390927Y-66593468D01*
X170292264Y-66326613D01*
X170266389Y-66317000D01*
X174407877Y-66317000D01*
X174451341Y-66360540D01*
X174810630Y-66509730D01*
X174975980Y-66509874D01*
X174945073Y-66593468D01*
X175918000Y-67566395D01*
X176890927Y-66593468D01*
X176792264Y-66326613D01*
X176182539Y-66100092D01*
X175807169Y-66113982D01*
X175834540Y-66086659D01*
X175983730Y-65727370D01*
X175983900Y-65532000D01*
X181991000Y-65532000D01*
X182282605Y-65473996D01*
X182529815Y-65308815D01*
X182694996Y-65061605D01*
X182742288Y-64823853D01*
X182841730Y-64584370D01*
X182842069Y-64195337D01*
X182771500Y-64024547D01*
X183528677Y-64781724D01*
X183757479Y-64934604D01*
X183767128Y-64941051D01*
X184048400Y-64997000D01*
X185115554Y-64997000D01*
X185243800Y-65125247D01*
X185243800Y-68684000D01*
X181610000Y-68684000D01*
X181309593Y-68743755D01*
X181054921Y-68913921D01*
X179064857Y-70903985D01*
X179003337Y-70903931D01*
X178643788Y-71052493D01*
X178368460Y-71327341D01*
X178219270Y-71686630D01*
X178218931Y-72075663D01*
X178367493Y-72435212D01*
X178412000Y-72479797D01*
X178412000Y-77774315D01*
X178389788Y-77783493D01*
X178114460Y-78058341D01*
X177965270Y-78417630D01*
X177964931Y-78806663D01*
X178042337Y-78994000D01*
X168590631Y-78994000D01*
X167512163Y-77915532D01*
X168445073Y-77915532D01*
X168543736Y-78182387D01*
X169153461Y-78408908D01*
X169803460Y-78384856D01*
X170292264Y-78182387D01*
X170390927Y-77915532D01*
X174945073Y-77915532D01*
X175043736Y-78182387D01*
X175653461Y-78408908D01*
X176303460Y-78384856D01*
X176792264Y-78182387D01*
X176890927Y-77915532D01*
X175918000Y-76942605D01*
X174945073Y-77915532D01*
X170390927Y-77915532D01*
X169418000Y-76942605D01*
X168445073Y-77915532D01*
X167512163Y-77915532D01*
X166751000Y-77154370D01*
X166751000Y-76498461D01*
X167772092Y-76498461D01*
X167796144Y-77148460D01*
X167998613Y-77637264D01*
X168265468Y-77735927D01*
X169238395Y-76763000D01*
X169597605Y-76763000D01*
X170570532Y-77735927D01*
X170837387Y-77637264D01*
X171063908Y-77027539D01*
X171044331Y-76498461D01*
X174272092Y-76498461D01*
X174296144Y-77148460D01*
X174498613Y-77637264D01*
X174765468Y-77735927D01*
X175738395Y-76763000D01*
X176097605Y-76763000D01*
X177070532Y-77735927D01*
X177337387Y-77637264D01*
X177563908Y-77027539D01*
X177539856Y-76377540D01*
X177337387Y-75888736D01*
X177070532Y-75790073D01*
X176097605Y-76763000D01*
X175738395Y-76763000D01*
X174765468Y-75790073D01*
X174498613Y-75888736D01*
X174272092Y-76498461D01*
X171044331Y-76498461D01*
X171039856Y-76377540D01*
X170837387Y-75888736D01*
X170570532Y-75790073D01*
X169597605Y-76763000D01*
X169238395Y-76763000D01*
X168265468Y-75790073D01*
X167998613Y-75888736D01*
X167772092Y-76498461D01*
X166751000Y-76498461D01*
X166751000Y-75610468D01*
X168445073Y-75610468D01*
X169418000Y-76583395D01*
X170390927Y-75610468D01*
X170292264Y-75343613D01*
X169682539Y-75117092D01*
X169032540Y-75141144D01*
X168543736Y-75343613D01*
X168445073Y-75610468D01*
X166751000Y-75610468D01*
X166751000Y-75565000D01*
X166692996Y-75273395D01*
X166607693Y-75145730D01*
X166527816Y-75026185D01*
X163272894Y-71771264D01*
X163901158Y-71143000D01*
X168225696Y-71143000D01*
X168032722Y-71335637D01*
X167783284Y-71936352D01*
X167782716Y-72586795D01*
X168031106Y-73187943D01*
X168490637Y-73648278D01*
X169091352Y-73897716D01*
X169741795Y-73898284D01*
X169907277Y-73829908D01*
X171419184Y-75341815D01*
X171609253Y-75468815D01*
X171666395Y-75506996D01*
X171958000Y-75565000D01*
X172226138Y-75565000D01*
X172419341Y-75758540D01*
X172778630Y-75907730D01*
X173167663Y-75908069D01*
X173527212Y-75759507D01*
X173802540Y-75484659D01*
X173951730Y-75125370D01*
X173952069Y-74736337D01*
X173803507Y-74376788D01*
X173528659Y-74101460D01*
X173169370Y-73952270D01*
X172780337Y-73951931D01*
X172564773Y-74041000D01*
X172273631Y-74041000D01*
X170985105Y-72752474D01*
X171052716Y-72589648D01*
X171053284Y-71939205D01*
X170804894Y-71338057D01*
X170610178Y-71143000D01*
X172267842Y-71143000D01*
X173332000Y-72207157D01*
X173332000Y-73025000D01*
X173391755Y-73325407D01*
X173561921Y-73580079D01*
X174916985Y-74935143D01*
X174916931Y-74996663D01*
X175057868Y-75337759D01*
X175043736Y-75343613D01*
X174945073Y-75610468D01*
X175918000Y-76583395D01*
X176890927Y-75610468D01*
X176792264Y-75343613D01*
X176737778Y-75323371D01*
X176872730Y-74998370D01*
X176873069Y-74609337D01*
X176724507Y-74249788D01*
X176449659Y-73974460D01*
X176254031Y-73893228D01*
X176842943Y-73649894D01*
X177303278Y-73190363D01*
X177552716Y-72589648D01*
X177553284Y-71939205D01*
X177304894Y-71338057D01*
X176845363Y-70877722D01*
X176244648Y-70628284D01*
X175594205Y-70627716D01*
X174993057Y-70876106D01*
X174606823Y-71261666D01*
X173148079Y-69802921D01*
X172893407Y-69632755D01*
X172593000Y-69573000D01*
X163576000Y-69573000D01*
X163275593Y-69632755D01*
X163020921Y-69802921D01*
X162309965Y-70513877D01*
X162420130Y-70248570D01*
X162420247Y-70114800D01*
X163636515Y-68898532D01*
X168445073Y-68898532D01*
X168543736Y-69165387D01*
X169153461Y-69391908D01*
X169803460Y-69367856D01*
X170292264Y-69165387D01*
X170390927Y-68898532D01*
X174945073Y-68898532D01*
X175043736Y-69165387D01*
X175653461Y-69391908D01*
X176303460Y-69367856D01*
X176792264Y-69165387D01*
X176890927Y-68898532D01*
X175918000Y-67925605D01*
X174945073Y-68898532D01*
X170390927Y-68898532D01*
X169418000Y-67925605D01*
X168445073Y-68898532D01*
X163636515Y-68898532D01*
X164083647Y-68451400D01*
X164197964Y-68451400D01*
X164291341Y-68544940D01*
X164650630Y-68694130D01*
X165039663Y-68694469D01*
X165399212Y-68545907D01*
X165674540Y-68271059D01*
X165823730Y-67911770D01*
X165824069Y-67522737D01*
X165675507Y-67163188D01*
X165400659Y-66887860D01*
X165041370Y-66738670D01*
X164652337Y-66738331D01*
X164292788Y-66886893D01*
X164198116Y-66981400D01*
X163779200Y-66981400D01*
X163497928Y-67037349D01*
X163259476Y-67196677D01*
X161380908Y-69075246D01*
X161248737Y-69075131D01*
X160889188Y-69223693D01*
X160613860Y-69498541D01*
X160464670Y-69857830D01*
X160464331Y-70246863D01*
X160612893Y-70606412D01*
X160887741Y-70881740D01*
X161247030Y-71030930D01*
X161519929Y-71031168D01*
X161350460Y-71200341D01*
X161201270Y-71559630D01*
X161200931Y-71948663D01*
X161349493Y-72308212D01*
X161624341Y-72583540D01*
X161983630Y-72732730D01*
X162079183Y-72732813D01*
X165227000Y-75880631D01*
X165227000Y-77470000D01*
X165285004Y-77761605D01*
X165313279Y-77803921D01*
X165450185Y-78008815D01*
X167736184Y-80294815D01*
X167823857Y-80353396D01*
X167983395Y-80459996D01*
X168275000Y-80518000D01*
X171228842Y-80518000D01*
X169243921Y-82502921D01*
X169073755Y-82757593D01*
X169039262Y-82931000D01*
X169014000Y-83058000D01*
X169014000Y-85762098D01*
X168843460Y-85932341D01*
X168694270Y-86291630D01*
X168693931Y-86680663D01*
X168842493Y-87040212D01*
X169117341Y-87315540D01*
X169476630Y-87464730D01*
X169865663Y-87465069D01*
X170225212Y-87316507D01*
X170500540Y-87041659D01*
X170649730Y-86682370D01*
X170650069Y-86293337D01*
X170584000Y-86133437D01*
X170584000Y-84924810D01*
X170731143Y-84924938D01*
X170730699Y-85433599D01*
X170994281Y-86071515D01*
X171481918Y-86560004D01*
X172119373Y-86824699D01*
X172809599Y-86825301D01*
X173447515Y-86561719D01*
X173936004Y-86074082D01*
X174200699Y-85436627D01*
X174201301Y-84746401D01*
X173937719Y-84108485D01*
X173450082Y-83619996D01*
X172812627Y-83355301D01*
X172390225Y-83354933D01*
X173426158Y-82319000D01*
X178219080Y-82319000D01*
X178218931Y-82489663D01*
X178367493Y-82849212D01*
X178642341Y-83124540D01*
X178892086Y-83228243D01*
X178920000Y-83256157D01*
X178920000Y-85636080D01*
X178749337Y-85635931D01*
X178389788Y-85784493D01*
X178114460Y-86059341D01*
X177965270Y-86418630D01*
X177965215Y-86481627D01*
X177728842Y-86718000D01*
X174625005Y-86718000D01*
X174625000Y-86717999D01*
X174324594Y-86777755D01*
X174069921Y-86947921D01*
X171275921Y-89741921D01*
X171105755Y-89996593D01*
X171105755Y-89996594D01*
X171046000Y-90297000D01*
X171046000Y-94162842D01*
X169600842Y-95608000D01*
X163449000Y-95608000D01*
X163148594Y-95667755D01*
X162893921Y-95837921D01*
X162893919Y-95837924D01*
X162808858Y-95922985D01*
X162747337Y-95922931D01*
X162387788Y-96071493D01*
X162112460Y-96346341D01*
X161963270Y-96705630D01*
X161963009Y-97005000D01*
X154559000Y-97005000D01*
X154258594Y-97064755D01*
X154211279Y-97096370D01*
X154003921Y-97234921D01*
X152756842Y-98482000D01*
X150788467Y-98482000D01*
X150759862Y-98412771D01*
X150335463Y-97987630D01*
X149780675Y-97757262D01*
X149179960Y-97756738D01*
X148624771Y-97986138D01*
X148199630Y-98410537D01*
X147969262Y-98965325D01*
X147968738Y-99566040D01*
X148198138Y-100121229D01*
X148593536Y-100517318D01*
X148199630Y-100910537D01*
X147969262Y-101465325D01*
X147968738Y-102066040D01*
X148198138Y-102621229D01*
X148375802Y-102799203D01*
X148244301Y-102853673D01*
X148065673Y-103032302D01*
X147969000Y-103265691D01*
X147969000Y-103981250D01*
X148127750Y-104140000D01*
X149352000Y-104140000D01*
X149352000Y-104120000D01*
X149606000Y-104120000D01*
X149606000Y-104140000D01*
X150830250Y-104140000D01*
X150989000Y-103981250D01*
X150989000Y-103265691D01*
X150892327Y-103032302D01*
X150713699Y-102853673D01*
X150582286Y-102799240D01*
X150758370Y-102623463D01*
X150988738Y-102068675D01*
X150989262Y-101467960D01*
X150759862Y-100912771D01*
X150364464Y-100516682D01*
X150758370Y-100123463D01*
X150788044Y-100052000D01*
X153082000Y-100052000D01*
X153382407Y-99992245D01*
X153637079Y-99822079D01*
X154884158Y-98575000D01*
X156640339Y-98575000D01*
X156478262Y-98965325D01*
X156477738Y-99566040D01*
X156707138Y-100121229D01*
X157102536Y-100517318D01*
X156708630Y-100910537D01*
X156478262Y-101465325D01*
X156477738Y-102066040D01*
X156707138Y-102621229D01*
X156884802Y-102799203D01*
X156753301Y-102853673D01*
X156574673Y-103032302D01*
X156478000Y-103265691D01*
X156478000Y-103981250D01*
X156636750Y-104140000D01*
X157861000Y-104140000D01*
X157861000Y-104120000D01*
X158115000Y-104120000D01*
X158115000Y-104140000D01*
X159339250Y-104140000D01*
X159498000Y-103981250D01*
X159498000Y-103265691D01*
X159401327Y-103032302D01*
X159222699Y-102853673D01*
X159091286Y-102799240D01*
X159267370Y-102623463D01*
X159497738Y-102068675D01*
X159498262Y-101467960D01*
X159268862Y-100912771D01*
X158873464Y-100516682D01*
X159267370Y-100123463D01*
X159497738Y-99568675D01*
X159498262Y-98967960D01*
X159335894Y-98575000D01*
X165149339Y-98575000D01*
X164987262Y-98965325D01*
X164986738Y-99566040D01*
X165216138Y-100121229D01*
X165611536Y-100517318D01*
X165217630Y-100910537D01*
X164987262Y-101465325D01*
X164986738Y-102066040D01*
X165216138Y-102621229D01*
X165393802Y-102799203D01*
X165262301Y-102853673D01*
X165083673Y-103032302D01*
X164987000Y-103265691D01*
X164987000Y-103981250D01*
X165145750Y-104140000D01*
X166370000Y-104140000D01*
X166370000Y-104120000D01*
X166624000Y-104120000D01*
X166624000Y-104140000D01*
X167848250Y-104140000D01*
X168007000Y-103981250D01*
X168007000Y-103265691D01*
X167910327Y-103032302D01*
X167731699Y-102853673D01*
X167600286Y-102799240D01*
X167776370Y-102623463D01*
X168006738Y-102068675D01*
X168007262Y-101467960D01*
X167777862Y-100912771D01*
X167382464Y-100516682D01*
X167776370Y-100123463D01*
X167870010Y-99897953D01*
X168206630Y-100037730D01*
X168595663Y-100038069D01*
X168955212Y-99889507D01*
X169230540Y-99614659D01*
X169250728Y-99566040D01*
X173114738Y-99566040D01*
X173344138Y-100121229D01*
X173739536Y-100517318D01*
X173345630Y-100910537D01*
X173115262Y-101465325D01*
X173114738Y-102066040D01*
X173344138Y-102621229D01*
X173521802Y-102799203D01*
X173390301Y-102853673D01*
X173211673Y-103032302D01*
X173115000Y-103265691D01*
X173115000Y-103981250D01*
X173273750Y-104140000D01*
X174498000Y-104140000D01*
X174498000Y-104120000D01*
X174752000Y-104120000D01*
X174752000Y-104140000D01*
X175976250Y-104140000D01*
X176135000Y-103981250D01*
X176135000Y-103265691D01*
X176038327Y-103032302D01*
X175859699Y-102853673D01*
X175728286Y-102799240D01*
X175904370Y-102623463D01*
X176134738Y-102068675D01*
X176135262Y-101467960D01*
X175905862Y-100912771D01*
X175510464Y-100516682D01*
X175904370Y-100123463D01*
X176134738Y-99568675D01*
X176134740Y-99566040D01*
X181496738Y-99566040D01*
X181726138Y-100121229D01*
X182121536Y-100517318D01*
X181727630Y-100910537D01*
X181497262Y-101465325D01*
X181496738Y-102066040D01*
X181726138Y-102621229D01*
X181903802Y-102799203D01*
X181772301Y-102853673D01*
X181593673Y-103032302D01*
X181497000Y-103265691D01*
X181497000Y-103981250D01*
X181655750Y-104140000D01*
X182880000Y-104140000D01*
X182880000Y-104120000D01*
X183134000Y-104120000D01*
X183134000Y-104140000D01*
X184358250Y-104140000D01*
X184517000Y-103981250D01*
X184517000Y-103265691D01*
X184420327Y-103032302D01*
X184241699Y-102853673D01*
X184110286Y-102799240D01*
X184286370Y-102623463D01*
X184516738Y-102068675D01*
X184517262Y-101467960D01*
X184287862Y-100912771D01*
X183892464Y-100516682D01*
X184286370Y-100123463D01*
X184516738Y-99568675D01*
X184516740Y-99566040D01*
X189878738Y-99566040D01*
X190108138Y-100121229D01*
X190503536Y-100517318D01*
X190109630Y-100910537D01*
X189879262Y-101465325D01*
X189878738Y-102066040D01*
X190108138Y-102621229D01*
X190285802Y-102799203D01*
X190154301Y-102853673D01*
X189975673Y-103032302D01*
X189879000Y-103265691D01*
X189879000Y-103981250D01*
X190037750Y-104140000D01*
X191262000Y-104140000D01*
X191262000Y-104120000D01*
X191516000Y-104120000D01*
X191516000Y-104140000D01*
X192740250Y-104140000D01*
X192899000Y-103981250D01*
X192899000Y-103265691D01*
X192802327Y-103032302D01*
X192623699Y-102853673D01*
X192492286Y-102799240D01*
X192668370Y-102623463D01*
X192898738Y-102068675D01*
X192899262Y-101467960D01*
X192669862Y-100912771D01*
X192274464Y-100516682D01*
X192668370Y-100123463D01*
X192898738Y-99568675D01*
X192898740Y-99566040D01*
X198641738Y-99566040D01*
X198871138Y-100121229D01*
X199266536Y-100517318D01*
X198872630Y-100910537D01*
X198642262Y-101465325D01*
X198641738Y-102066040D01*
X198871138Y-102621229D01*
X199048802Y-102799203D01*
X198917301Y-102853673D01*
X198738673Y-103032302D01*
X198642000Y-103265691D01*
X198642000Y-103981250D01*
X198800750Y-104140000D01*
X200025000Y-104140000D01*
X200025000Y-104120000D01*
X200279000Y-104120000D01*
X200279000Y-104140000D01*
X201503250Y-104140000D01*
X201662000Y-103981250D01*
X201662000Y-103265691D01*
X201565327Y-103032302D01*
X201386699Y-102853673D01*
X201255286Y-102799240D01*
X201431370Y-102623463D01*
X201661738Y-102068675D01*
X201662262Y-101467960D01*
X201432862Y-100912771D01*
X201037464Y-100516682D01*
X201431370Y-100123463D01*
X201661738Y-99568675D01*
X201662262Y-98967960D01*
X201432862Y-98412771D01*
X201008463Y-97987630D01*
X200453675Y-97757262D01*
X199852960Y-97756738D01*
X199297771Y-97986138D01*
X198872630Y-98410537D01*
X198642262Y-98965325D01*
X198641738Y-99566040D01*
X192898740Y-99566040D01*
X192899262Y-98967960D01*
X192669862Y-98412771D01*
X192245463Y-97987630D01*
X191690675Y-97757262D01*
X191089960Y-97756738D01*
X190534771Y-97986138D01*
X190109630Y-98410537D01*
X189879262Y-98965325D01*
X189878738Y-99566040D01*
X184516740Y-99566040D01*
X184517262Y-98967960D01*
X184287862Y-98412771D01*
X183863463Y-97987630D01*
X183308675Y-97757262D01*
X182707960Y-97756738D01*
X182152771Y-97986138D01*
X181727630Y-98410537D01*
X181497262Y-98965325D01*
X181496738Y-99566040D01*
X176134740Y-99566040D01*
X176135262Y-98967960D01*
X175905862Y-98412771D01*
X175481463Y-97987630D01*
X174926675Y-97757262D01*
X174325960Y-97756738D01*
X173770771Y-97986138D01*
X173345630Y-98410537D01*
X173115262Y-98965325D01*
X173114738Y-99566040D01*
X169250728Y-99566040D01*
X169355385Y-99314000D01*
X170815000Y-99314000D01*
X171106605Y-99255996D01*
X171353815Y-99090815D01*
X173138753Y-97305877D01*
X173181341Y-97348540D01*
X173540630Y-97497730D01*
X173929663Y-97498069D01*
X174289212Y-97349507D01*
X174564540Y-97074659D01*
X174713730Y-96715370D01*
X174714069Y-96326337D01*
X174565507Y-95966788D01*
X174290659Y-95691460D01*
X173931370Y-95542270D01*
X173542337Y-95541931D01*
X173318909Y-95634249D01*
X173402079Y-95551079D01*
X173572245Y-95296406D01*
X173632000Y-94996000D01*
X173632000Y-93687810D01*
X173929663Y-93688069D01*
X174289212Y-93539507D01*
X174564540Y-93264659D01*
X174668243Y-93014915D01*
X175204158Y-92479000D01*
X175504901Y-92479000D01*
X175447460Y-92536341D01*
X175298270Y-92895630D01*
X175297931Y-93284663D01*
X175446493Y-93644212D01*
X175721341Y-93919540D01*
X176080630Y-94068730D01*
X176469663Y-94069069D01*
X176829212Y-93920507D01*
X176873797Y-93876000D01*
X181392877Y-93876000D01*
X181436341Y-93919540D01*
X181795630Y-94068730D01*
X182184663Y-94069069D01*
X182544212Y-93920507D01*
X182819540Y-93645659D01*
X182968730Y-93286370D01*
X182969069Y-92897337D01*
X182820507Y-92537788D01*
X182761821Y-92479000D01*
X187744190Y-92479000D01*
X187743931Y-92776663D01*
X187892493Y-93136212D01*
X187937000Y-93180797D01*
X187937000Y-95404335D01*
X187871270Y-95562630D01*
X187870931Y-95951663D01*
X188019493Y-96311212D01*
X188294341Y-96586540D01*
X188653630Y-96735730D01*
X189042663Y-96736069D01*
X189402212Y-96587507D01*
X189677540Y-96312659D01*
X189826730Y-95953370D01*
X189827069Y-95564337D01*
X189678507Y-95204788D01*
X189507000Y-95032981D01*
X189507000Y-93181123D01*
X189550540Y-93137659D01*
X189699730Y-92778370D01*
X189699991Y-92479000D01*
X195616877Y-92479000D01*
X195660341Y-92522540D01*
X196019630Y-92671730D01*
X196408663Y-92672069D01*
X196768212Y-92523507D01*
X197043540Y-92248659D01*
X197192730Y-91889370D01*
X197193069Y-91500337D01*
X197044507Y-91140788D01*
X196769659Y-90865460D01*
X196410370Y-90716270D01*
X196021337Y-90715931D01*
X195661788Y-90864493D01*
X195617203Y-90909000D01*
X174879000Y-90909000D01*
X174578593Y-90968755D01*
X174323921Y-91138921D01*
X173730747Y-91732095D01*
X173679115Y-91732050D01*
X173824730Y-91381370D01*
X173825069Y-90992337D01*
X173676507Y-90632788D01*
X173401659Y-90357460D01*
X173042370Y-90208270D01*
X173029899Y-90208259D01*
X174950158Y-88288000D01*
X177218065Y-88288000D01*
X177203270Y-88323630D01*
X177202931Y-88712663D01*
X177351493Y-89072212D01*
X177626341Y-89347540D01*
X177985630Y-89496730D01*
X178374663Y-89497069D01*
X178734212Y-89348507D01*
X178906019Y-89177000D01*
X183298098Y-89177000D01*
X183468341Y-89347540D01*
X183827630Y-89496730D01*
X184216663Y-89497069D01*
X184576212Y-89348507D01*
X184851540Y-89073659D01*
X185000730Y-88714370D01*
X185001069Y-88325337D01*
X184852507Y-87965788D01*
X184577659Y-87690460D01*
X184218370Y-87541270D01*
X183829337Y-87540931D01*
X183669437Y-87607000D01*
X180306904Y-87607000D01*
X180430245Y-87422406D01*
X180490000Y-87122000D01*
X180490000Y-82931000D01*
X180430245Y-82630594D01*
X180260079Y-82375921D01*
X180260076Y-82375919D01*
X180203157Y-82319000D01*
X190881000Y-82319000D01*
X191181407Y-82259245D01*
X191436079Y-82089079D01*
X196897079Y-76628079D01*
X197067245Y-76373407D01*
X197127000Y-76073000D01*
X197127000Y-67146123D01*
X197170540Y-67102659D01*
X197319730Y-66743370D01*
X197320069Y-66354337D01*
X197171507Y-65994788D01*
X196896659Y-65719460D01*
X196537370Y-65570270D01*
X196148337Y-65569931D01*
X195788788Y-65718493D01*
X195707099Y-65800040D01*
X195626659Y-65719460D01*
X195267370Y-65570270D01*
X194878337Y-65569931D01*
X194518788Y-65718493D01*
X194243460Y-65993341D01*
X194094270Y-66352630D01*
X194093931Y-66741663D01*
X194242493Y-67101212D01*
X194287000Y-67145797D01*
X194287000Y-75496842D01*
X189669842Y-80114000D01*
X184394158Y-80114000D01*
X190293079Y-74215079D01*
X190463245Y-73960407D01*
X190523000Y-73660000D01*
X190523000Y-70861646D01*
X192265246Y-72603893D01*
X192265131Y-72736063D01*
X192413693Y-73095612D01*
X192688541Y-73370940D01*
X193047830Y-73520130D01*
X193436863Y-73520469D01*
X193796412Y-73371907D01*
X194071740Y-73097059D01*
X194220930Y-72737770D01*
X194221269Y-72348737D01*
X194072707Y-71989188D01*
X193797859Y-71713860D01*
X193438570Y-71564670D01*
X193304800Y-71564553D01*
X191133400Y-69393154D01*
X191133400Y-62941200D01*
X191077451Y-62659928D01*
X190918123Y-62421476D01*
X190028146Y-61531500D01*
X204533500Y-61531500D01*
X204533500Y-107378500D01*
X144335500Y-107378500D01*
X144335500Y-104552750D01*
X147969000Y-104552750D01*
X147969000Y-105268309D01*
X148065673Y-105501698D01*
X148244301Y-105680327D01*
X148477690Y-105777000D01*
X149193250Y-105777000D01*
X149352000Y-105618250D01*
X149352000Y-104394000D01*
X149606000Y-104394000D01*
X149606000Y-105618250D01*
X149764750Y-105777000D01*
X150480310Y-105777000D01*
X150713699Y-105680327D01*
X150892327Y-105501698D01*
X150989000Y-105268309D01*
X150989000Y-104552750D01*
X156478000Y-104552750D01*
X156478000Y-105268309D01*
X156574673Y-105501698D01*
X156753301Y-105680327D01*
X156986690Y-105777000D01*
X157702250Y-105777000D01*
X157861000Y-105618250D01*
X157861000Y-104394000D01*
X158115000Y-104394000D01*
X158115000Y-105618250D01*
X158273750Y-105777000D01*
X158989310Y-105777000D01*
X159222699Y-105680327D01*
X159401327Y-105501698D01*
X159498000Y-105268309D01*
X159498000Y-104552750D01*
X164987000Y-104552750D01*
X164987000Y-105268309D01*
X165083673Y-105501698D01*
X165262301Y-105680327D01*
X165495690Y-105777000D01*
X166211250Y-105777000D01*
X166370000Y-105618250D01*
X166370000Y-104394000D01*
X166624000Y-104394000D01*
X166624000Y-105618250D01*
X166782750Y-105777000D01*
X167498310Y-105777000D01*
X167731699Y-105680327D01*
X167910327Y-105501698D01*
X168007000Y-105268309D01*
X168007000Y-104552750D01*
X173115000Y-104552750D01*
X173115000Y-105268309D01*
X173211673Y-105501698D01*
X173390301Y-105680327D01*
X173623690Y-105777000D01*
X174339250Y-105777000D01*
X174498000Y-105618250D01*
X174498000Y-104394000D01*
X174752000Y-104394000D01*
X174752000Y-105618250D01*
X174910750Y-105777000D01*
X175626310Y-105777000D01*
X175859699Y-105680327D01*
X176038327Y-105501698D01*
X176135000Y-105268309D01*
X176135000Y-104552750D01*
X181497000Y-104552750D01*
X181497000Y-105268309D01*
X181593673Y-105501698D01*
X181772301Y-105680327D01*
X182005690Y-105777000D01*
X182721250Y-105777000D01*
X182880000Y-105618250D01*
X182880000Y-104394000D01*
X183134000Y-104394000D01*
X183134000Y-105618250D01*
X183292750Y-105777000D01*
X184008310Y-105777000D01*
X184241699Y-105680327D01*
X184420327Y-105501698D01*
X184517000Y-105268309D01*
X184517000Y-104552750D01*
X189879000Y-104552750D01*
X189879000Y-105268309D01*
X189975673Y-105501698D01*
X190154301Y-105680327D01*
X190387690Y-105777000D01*
X191103250Y-105777000D01*
X191262000Y-105618250D01*
X191262000Y-104394000D01*
X191516000Y-104394000D01*
X191516000Y-105618250D01*
X191674750Y-105777000D01*
X192390310Y-105777000D01*
X192623699Y-105680327D01*
X192802327Y-105501698D01*
X192899000Y-105268309D01*
X192899000Y-104552750D01*
X198642000Y-104552750D01*
X198642000Y-105268309D01*
X198738673Y-105501698D01*
X198917301Y-105680327D01*
X199150690Y-105777000D01*
X199866250Y-105777000D01*
X200025000Y-105618250D01*
X200025000Y-104394000D01*
X200279000Y-104394000D01*
X200279000Y-105618250D01*
X200437750Y-105777000D01*
X201153310Y-105777000D01*
X201386699Y-105680327D01*
X201565327Y-105501698D01*
X201662000Y-105268309D01*
X201662000Y-104552750D01*
X201503250Y-104394000D01*
X200279000Y-104394000D01*
X200025000Y-104394000D01*
X198800750Y-104394000D01*
X198642000Y-104552750D01*
X192899000Y-104552750D01*
X192740250Y-104394000D01*
X191516000Y-104394000D01*
X191262000Y-104394000D01*
X190037750Y-104394000D01*
X189879000Y-104552750D01*
X184517000Y-104552750D01*
X184358250Y-104394000D01*
X183134000Y-104394000D01*
X182880000Y-104394000D01*
X181655750Y-104394000D01*
X181497000Y-104552750D01*
X176135000Y-104552750D01*
X175976250Y-104394000D01*
X174752000Y-104394000D01*
X174498000Y-104394000D01*
X173273750Y-104394000D01*
X173115000Y-104552750D01*
X168007000Y-104552750D01*
X167848250Y-104394000D01*
X166624000Y-104394000D01*
X166370000Y-104394000D01*
X165145750Y-104394000D01*
X164987000Y-104552750D01*
X159498000Y-104552750D01*
X159339250Y-104394000D01*
X158115000Y-104394000D01*
X157861000Y-104394000D01*
X156636750Y-104394000D01*
X156478000Y-104552750D01*
X150989000Y-104552750D01*
X150830250Y-104394000D01*
X149606000Y-104394000D01*
X149352000Y-104394000D01*
X148127750Y-104394000D01*
X147969000Y-104552750D01*
X144335500Y-104552750D01*
X144335500Y-93865601D01*
X155117566Y-93865601D01*
X155322081Y-94360565D01*
X155700443Y-94739588D01*
X156195049Y-94944966D01*
X156730601Y-94945434D01*
X157225565Y-94740919D01*
X157604588Y-94362557D01*
X157809966Y-93867951D01*
X157809968Y-93865601D01*
X160197566Y-93865601D01*
X160402081Y-94360565D01*
X160780443Y-94739588D01*
X161275049Y-94944966D01*
X161810601Y-94945434D01*
X162305565Y-94740919D01*
X162684588Y-94362557D01*
X162889966Y-93867951D01*
X162890434Y-93332399D01*
X162685919Y-92837435D01*
X162307557Y-92458412D01*
X161812951Y-92253034D01*
X161277399Y-92252566D01*
X160782435Y-92457081D01*
X160403412Y-92835443D01*
X160198034Y-93330049D01*
X160197566Y-93865601D01*
X157809968Y-93865601D01*
X157810434Y-93332399D01*
X157605919Y-92837435D01*
X157227557Y-92458412D01*
X156732951Y-92253034D01*
X156197399Y-92252566D01*
X155702435Y-92457081D01*
X155323412Y-92835443D01*
X155118034Y-93330049D01*
X155117566Y-93865601D01*
X144335500Y-93865601D01*
X144335500Y-92487750D01*
X147359000Y-92487750D01*
X147359000Y-93178310D01*
X147455673Y-93411699D01*
X147634302Y-93590327D01*
X147867691Y-93687000D01*
X148558250Y-93687000D01*
X148717000Y-93528250D01*
X148717000Y-92329000D01*
X148971000Y-92329000D01*
X148971000Y-93528250D01*
X149129750Y-93687000D01*
X149820309Y-93687000D01*
X150053698Y-93590327D01*
X150232327Y-93411699D01*
X150329000Y-93178310D01*
X150329000Y-92487750D01*
X150170250Y-92329000D01*
X148971000Y-92329000D01*
X148717000Y-92329000D01*
X147517750Y-92329000D01*
X147359000Y-92487750D01*
X144335500Y-92487750D01*
X144335500Y-84582000D01*
X147329907Y-84582000D01*
X147442946Y-85150285D01*
X147764853Y-85632054D01*
X148094026Y-85852000D01*
X147764853Y-86071946D01*
X147442946Y-86553715D01*
X147329907Y-87122000D01*
X147442946Y-87690285D01*
X147764853Y-88172054D01*
X148094026Y-88392000D01*
X147764853Y-88611946D01*
X147442946Y-89093715D01*
X147329907Y-89662000D01*
X147442946Y-90230285D01*
X147764853Y-90712054D01*
X147808777Y-90741403D01*
X147634302Y-90813673D01*
X147455673Y-90992301D01*
X147359000Y-91225690D01*
X147359000Y-91916250D01*
X147517750Y-92075000D01*
X148717000Y-92075000D01*
X148717000Y-92055000D01*
X148971000Y-92055000D01*
X148971000Y-92075000D01*
X150170250Y-92075000D01*
X150329000Y-91916250D01*
X150329000Y-91225690D01*
X150232327Y-90992301D01*
X150053698Y-90813673D01*
X149879223Y-90741403D01*
X149923147Y-90712054D01*
X150245054Y-90230285D01*
X150344115Y-89732273D01*
X152606921Y-91995079D01*
X152861593Y-92165245D01*
X153162000Y-92225000D01*
X159675877Y-92225000D01*
X159719341Y-92268540D01*
X160078630Y-92417730D01*
X160467663Y-92418069D01*
X160827212Y-92269507D01*
X161102540Y-91994659D01*
X161251730Y-91635370D01*
X161252069Y-91246337D01*
X161103507Y-90886788D01*
X160828659Y-90611460D01*
X160469370Y-90462270D01*
X160080337Y-90461931D01*
X159720788Y-90610493D01*
X159676203Y-90655000D01*
X153487158Y-90655000D01*
X150291076Y-87458918D01*
X150358093Y-87122000D01*
X150245054Y-86553715D01*
X149923147Y-86071946D01*
X149593974Y-85852000D01*
X149923147Y-85632054D01*
X150245054Y-85150285D01*
X150358093Y-84582000D01*
X150245054Y-84013715D01*
X149923147Y-83531946D01*
X149441378Y-83210039D01*
X148873093Y-83097000D01*
X148814907Y-83097000D01*
X148246622Y-83210039D01*
X147764853Y-83531946D01*
X147442946Y-84013715D01*
X147329907Y-84582000D01*
X144335500Y-84582000D01*
X144335500Y-81927000D01*
X150494560Y-81927000D01*
X150494560Y-83427000D01*
X150538838Y-83662317D01*
X150677910Y-83878441D01*
X150890110Y-84023431D01*
X151142000Y-84074440D01*
X151170903Y-84074440D01*
X151041270Y-84386630D01*
X151040931Y-84775663D01*
X151189493Y-85135212D01*
X151464341Y-85410540D01*
X151823630Y-85559730D01*
X152212663Y-85560069D01*
X152572212Y-85411507D01*
X152616797Y-85367000D01*
X153979842Y-85367000D01*
X157390985Y-88778143D01*
X157390931Y-88839663D01*
X157539493Y-89199212D01*
X157814341Y-89474540D01*
X158173630Y-89623730D01*
X158562663Y-89624069D01*
X158922212Y-89475507D01*
X159197540Y-89200659D01*
X159346730Y-88841370D01*
X159347069Y-88452337D01*
X159198507Y-88092788D01*
X158923659Y-87817460D01*
X158564370Y-87668270D01*
X158501373Y-87668215D01*
X154860079Y-84026921D01*
X154605407Y-83856755D01*
X154305000Y-83797000D01*
X153157730Y-83797000D01*
X153238431Y-83678890D01*
X153289440Y-83427000D01*
X153289440Y-81927000D01*
X153245162Y-81691683D01*
X153106090Y-81475559D01*
X152893890Y-81330569D01*
X152642000Y-81279560D01*
X151142000Y-81279560D01*
X150906683Y-81323838D01*
X150690559Y-81462910D01*
X150545569Y-81675110D01*
X150494560Y-81927000D01*
X144335500Y-81927000D01*
X144335500Y-79691745D01*
X151317861Y-79691745D01*
X151391995Y-79937864D01*
X151929223Y-80130965D01*
X152499454Y-80103778D01*
X152900005Y-79937864D01*
X152974139Y-79691745D01*
X152146000Y-78863605D01*
X151317861Y-79691745D01*
X144335500Y-79691745D01*
X144335500Y-78467223D01*
X150699035Y-78467223D01*
X150726222Y-79037454D01*
X150892136Y-79438005D01*
X151138255Y-79512139D01*
X151966395Y-78684000D01*
X152325605Y-78684000D01*
X153153745Y-79512139D01*
X153399864Y-79438005D01*
X153592965Y-78900777D01*
X153565778Y-78330546D01*
X153399864Y-77929995D01*
X153153745Y-77855861D01*
X152325605Y-78684000D01*
X151966395Y-78684000D01*
X151138255Y-77855861D01*
X150892136Y-77929995D01*
X150699035Y-78467223D01*
X144335500Y-78467223D01*
X144335500Y-77676255D01*
X151317861Y-77676255D01*
X152146000Y-78504395D01*
X152974139Y-77676255D01*
X152900005Y-77430136D01*
X152362777Y-77237035D01*
X151792546Y-77264222D01*
X151391995Y-77430136D01*
X151317861Y-77676255D01*
X144335500Y-77676255D01*
X144335500Y-74359199D01*
X144822699Y-74359199D01*
X145086281Y-74997115D01*
X145573918Y-75485604D01*
X146211373Y-75750299D01*
X146901599Y-75750901D01*
X147539515Y-75487319D01*
X148028004Y-74999682D01*
X148283658Y-74384000D01*
X150698560Y-74384000D01*
X150698560Y-75984000D01*
X150742838Y-76219317D01*
X150881910Y-76435441D01*
X151094110Y-76580431D01*
X151346000Y-76631440D01*
X152946000Y-76631440D01*
X153181317Y-76587162D01*
X153397441Y-76448090D01*
X153542431Y-76235890D01*
X153593440Y-75984000D01*
X153593440Y-74384000D01*
X153589237Y-74361663D01*
X156755931Y-74361663D01*
X156904493Y-74721212D01*
X157179341Y-74996540D01*
X157538630Y-75145730D01*
X157634183Y-75145813D01*
X159639000Y-77150631D01*
X159639000Y-80362945D01*
X159550270Y-80576630D01*
X159549931Y-80965663D01*
X159698493Y-81325212D01*
X159973341Y-81600540D01*
X160332630Y-81749730D01*
X160721663Y-81750069D01*
X161081212Y-81601507D01*
X161356540Y-81326659D01*
X161505730Y-80967370D01*
X161506069Y-80578337D01*
X161357507Y-80218788D01*
X161163000Y-80023941D01*
X161163000Y-76835000D01*
X161148678Y-76763000D01*
X161104997Y-76543396D01*
X160939816Y-76296185D01*
X158711987Y-74068357D01*
X158712069Y-73974337D01*
X158563507Y-73614788D01*
X158288659Y-73339460D01*
X157929370Y-73190270D01*
X157540337Y-73189931D01*
X157180788Y-73338493D01*
X156905460Y-73613341D01*
X156756270Y-73972630D01*
X156755931Y-74361663D01*
X153589237Y-74361663D01*
X153549162Y-74148683D01*
X153410090Y-73932559D01*
X153197890Y-73787569D01*
X152946000Y-73736560D01*
X151346000Y-73736560D01*
X151110683Y-73780838D01*
X150894559Y-73919910D01*
X150749569Y-74132110D01*
X150698560Y-74384000D01*
X148283658Y-74384000D01*
X148292699Y-74362227D01*
X148293301Y-73672001D01*
X148029719Y-73034085D01*
X147542082Y-72545596D01*
X146904627Y-72280901D01*
X146214401Y-72280299D01*
X145576485Y-72543881D01*
X145087996Y-73031518D01*
X144823301Y-73668973D01*
X144822699Y-74359199D01*
X144335500Y-74359199D01*
X144335500Y-69000305D01*
X146958674Y-69000305D01*
X147245043Y-69693372D01*
X147774839Y-70224093D01*
X148467405Y-70511672D01*
X149217305Y-70512326D01*
X149910372Y-70225957D01*
X150441093Y-69696161D01*
X150728672Y-69003595D01*
X150729326Y-68253695D01*
X150442957Y-67560628D01*
X149913161Y-67029907D01*
X149220595Y-66742328D01*
X148470695Y-66741674D01*
X147777628Y-67028043D01*
X147246907Y-67557839D01*
X146959328Y-68250405D01*
X146958674Y-69000305D01*
X144335500Y-69000305D01*
X144335500Y-63912750D01*
X146959000Y-63912750D01*
X146959000Y-65003309D01*
X147055673Y-65236698D01*
X147234301Y-65415327D01*
X147467690Y-65512000D01*
X148558250Y-65512000D01*
X148717000Y-65353250D01*
X148717000Y-63754000D01*
X148971000Y-63754000D01*
X148971000Y-65353250D01*
X149129750Y-65512000D01*
X150220310Y-65512000D01*
X150453699Y-65415327D01*
X150632327Y-65236698D01*
X150729000Y-65003309D01*
X150729000Y-63912750D01*
X150570250Y-63754000D01*
X148971000Y-63754000D01*
X148717000Y-63754000D01*
X147117750Y-63754000D01*
X146959000Y-63912750D01*
X144335500Y-63912750D01*
X144335500Y-62250691D01*
X146959000Y-62250691D01*
X146959000Y-63341250D01*
X147117750Y-63500000D01*
X148717000Y-63500000D01*
X148717000Y-61900750D01*
X148971000Y-61900750D01*
X148971000Y-63500000D01*
X150570250Y-63500000D01*
X150729000Y-63341250D01*
X150729000Y-62250691D01*
X150632327Y-62017302D01*
X150453699Y-61838673D01*
X150220310Y-61742000D01*
X149129750Y-61742000D01*
X148971000Y-61900750D01*
X148717000Y-61900750D01*
X148558250Y-61742000D01*
X147467690Y-61742000D01*
X147234301Y-61838673D01*
X147055673Y-62017302D01*
X146959000Y-62250691D01*
X144335500Y-62250691D01*
X144335500Y-57715873D01*
X145795727Y-57715873D01*
X146034971Y-58294887D01*
X146477583Y-58738272D01*
X147056179Y-58978526D01*
X147682673Y-58979073D01*
X147841005Y-58913651D01*
X148883077Y-59955724D01*
X149052799Y-60069128D01*
X149121528Y-60115051D01*
X149402800Y-60171000D01*
X149606354Y-60171000D01*
X151512600Y-62077247D01*
X151512600Y-64973200D01*
X151568549Y-65254472D01*
X151727877Y-65492923D01*
X152539646Y-66304693D01*
X152539531Y-66436863D01*
X152688093Y-66796412D01*
X152962941Y-67071740D01*
X153322230Y-67220930D01*
X153711263Y-67221269D01*
X154070812Y-67072707D01*
X154346140Y-66797859D01*
X154495330Y-66438570D01*
X154495669Y-66049537D01*
X154347107Y-65689988D01*
X154072259Y-65414660D01*
X153712970Y-65265470D01*
X153579200Y-65265353D01*
X152982600Y-64668754D01*
X152982600Y-61772800D01*
X152926651Y-61491528D01*
X152845810Y-61370541D01*
X152767323Y-61253076D01*
X150430523Y-58916277D01*
X150192072Y-58756949D01*
X149910800Y-58701000D01*
X149707247Y-58701000D01*
X148880643Y-57874396D01*
X148945326Y-57718621D01*
X148945328Y-57715873D01*
X149605727Y-57715873D01*
X149844971Y-58294887D01*
X150287583Y-58738272D01*
X150866179Y-58978526D01*
X151492673Y-58979073D01*
X152071687Y-58739829D01*
X152515072Y-58297217D01*
X152755326Y-57718621D01*
X152755873Y-57092127D01*
X152516629Y-56513113D01*
X152074017Y-56069728D01*
X151495421Y-55829474D01*
X150868927Y-55828927D01*
X150289913Y-56068171D01*
X149846528Y-56510783D01*
X149606274Y-57089379D01*
X149605727Y-57715873D01*
X148945328Y-57715873D01*
X148945873Y-57092127D01*
X148706629Y-56513113D01*
X148264017Y-56069728D01*
X147685421Y-55829474D01*
X147058927Y-55828927D01*
X146479913Y-56068171D01*
X146036528Y-56510783D01*
X145796274Y-57089379D01*
X145795727Y-57715873D01*
X144335500Y-57715873D01*
X144335500Y-55689500D01*
X160953424Y-55689500D01*
X160871070Y-55887830D01*
X160871070Y-55887830D01*
G37*
X160871070Y-55887830D02*
X160870731Y-56276863D01*
X161019293Y-56636412D01*
X161294141Y-56911740D01*
X161653430Y-57060930D01*
X161672600Y-57060947D01*
X161672600Y-59702364D01*
X161579060Y-59795741D01*
X161429870Y-60155030D01*
X161429531Y-60544063D01*
X161518345Y-60759009D01*
X161330108Y-60947246D01*
X161197937Y-60947131D01*
X160838388Y-61095693D01*
X160563060Y-61370541D01*
X160413870Y-61729830D01*
X160413531Y-62118863D01*
X160562093Y-62478412D01*
X160836941Y-62753740D01*
X161196230Y-62902930D01*
X161585263Y-62903269D01*
X161944812Y-62754707D01*
X162220140Y-62479859D01*
X162369330Y-62120570D01*
X162369447Y-61986799D01*
X162927323Y-61428923D01*
X163086651Y-61190472D01*
X163087396Y-61186728D01*
X163120452Y-61020546D01*
X163236140Y-60905059D01*
X163385330Y-60545770D01*
X163385669Y-60156737D01*
X163237107Y-59797188D01*
X163142600Y-59702516D01*
X163142600Y-56642000D01*
X163086651Y-56360728D01*
X163031755Y-56278570D01*
X162927324Y-56122277D01*
X162826754Y-56021707D01*
X162826869Y-55889537D01*
X162744216Y-55689500D01*
X181165500Y-55689500D01*
X181165500Y-57748853D01*
X179996123Y-56579477D01*
X179757672Y-56420149D01*
X179476400Y-56364200D01*
X166471600Y-56364200D01*
X166190328Y-56420149D01*
X165951876Y-56579477D01*
X164681877Y-57849477D01*
X164522549Y-58087928D01*
X164466600Y-58369200D01*
X164466600Y-62585953D01*
X163169954Y-63882600D01*
X162407600Y-63882600D01*
X162126328Y-63938549D01*
X161887877Y-64097876D01*
X161380907Y-64604846D01*
X161248737Y-64604731D01*
X160889188Y-64753293D01*
X160613860Y-65028141D01*
X160464670Y-65387430D01*
X160464331Y-65776463D01*
X160612893Y-66136012D01*
X160887741Y-66411340D01*
X161247030Y-66560530D01*
X161636063Y-66560869D01*
X161995612Y-66412307D01*
X162270940Y-66137459D01*
X162420130Y-65778170D01*
X162420247Y-65644400D01*
X162712047Y-65352600D01*
X163474400Y-65352600D01*
X163755672Y-65296651D01*
X163994123Y-65137323D01*
X165721324Y-63410123D01*
X165880651Y-63171672D01*
X165936600Y-62890400D01*
X165936600Y-58673646D01*
X166776047Y-57834200D01*
X171055017Y-57834200D01*
X170995996Y-57893118D01*
X170731301Y-58530573D01*
X170730699Y-59220799D01*
X170994281Y-59858715D01*
X171481918Y-60347204D01*
X172119373Y-60611899D01*
X172809599Y-60612501D01*
X173447515Y-60348919D01*
X173936004Y-59861282D01*
X174200699Y-59223827D01*
X174201301Y-58533601D01*
X173937719Y-57895685D01*
X173876341Y-57834200D01*
X179171954Y-57834200D01*
X180519400Y-59181647D01*
X180519400Y-59829723D01*
X180298737Y-59829531D01*
X179939188Y-59978093D01*
X179663860Y-60252941D01*
X179514670Y-60612230D01*
X179514331Y-61001263D01*
X179662893Y-61360812D01*
X179937741Y-61636140D01*
X180297030Y-61785330D01*
X180430800Y-61785447D01*
X180633077Y-61987724D01*
X180871528Y-62147051D01*
X180899586Y-62152632D01*
X182228419Y-63481465D01*
X182059370Y-63411270D01*
X181670337Y-63410931D01*
X181310788Y-63559493D01*
X181035460Y-63834341D01*
X180963350Y-64008000D01*
X177371943Y-64008000D01*
X177552716Y-63572648D01*
X177553284Y-62922205D01*
X177304894Y-62321057D01*
X176845363Y-61860722D01*
X176244648Y-61611284D01*
X175594205Y-61610716D01*
X174993057Y-61859106D01*
X174532722Y-62318637D01*
X174283284Y-62919352D01*
X174282716Y-63569795D01*
X174463779Y-64008000D01*
X173087083Y-64008000D01*
X173020659Y-63941460D01*
X172661370Y-63792270D01*
X172272337Y-63791931D01*
X171912788Y-63940493D01*
X171637460Y-64215341D01*
X171488270Y-64574630D01*
X171488120Y-64747000D01*
X170066786Y-64747000D01*
X170342943Y-64632894D01*
X170803278Y-64173363D01*
X171052716Y-63572648D01*
X171053284Y-62922205D01*
X170804894Y-62321057D01*
X170345363Y-61860722D01*
X169744648Y-61611284D01*
X169094205Y-61610716D01*
X168493057Y-61859106D01*
X168032722Y-62318637D01*
X167783284Y-62919352D01*
X167782716Y-63569795D01*
X168031106Y-64170943D01*
X168490637Y-64631278D01*
X168769327Y-64747000D01*
X168402000Y-64747000D01*
X168101594Y-64806755D01*
X167846921Y-64976921D01*
X166957921Y-65865921D01*
X166907277Y-65941715D01*
X166832788Y-65972493D01*
X166557460Y-66247341D01*
X166408270Y-66606630D01*
X166407931Y-66995663D01*
X166556493Y-67355212D01*
X166831341Y-67630540D01*
X167190630Y-67779730D01*
X167579663Y-67780069D01*
X167780077Y-67697260D01*
X167796144Y-68131460D01*
X167998613Y-68620264D01*
X168265468Y-68718927D01*
X169238395Y-67746000D01*
X169597605Y-67746000D01*
X170570532Y-68718927D01*
X170837387Y-68620264D01*
X171063908Y-68010539D01*
X171044331Y-67481461D01*
X174272092Y-67481461D01*
X174296144Y-68131460D01*
X174498613Y-68620264D01*
X174765468Y-68718927D01*
X175738395Y-67746000D01*
X176097605Y-67746000D01*
X177070532Y-68718927D01*
X177337387Y-68620264D01*
X177563908Y-68010539D01*
X177539856Y-67360540D01*
X177337387Y-66871736D01*
X177070532Y-66773073D01*
X176097605Y-67746000D01*
X175738395Y-67746000D01*
X174765468Y-66773073D01*
X174498613Y-66871736D01*
X174272092Y-67481461D01*
X171044331Y-67481461D01*
X171039856Y-67360540D01*
X170837387Y-66871736D01*
X170570532Y-66773073D01*
X169597605Y-67746000D01*
X169238395Y-67746000D01*
X169224253Y-67731858D01*
X169403858Y-67552253D01*
X169418000Y-67566395D01*
X170390927Y-66593468D01*
X170292264Y-66326613D01*
X170266389Y-66317000D01*
X174407877Y-66317000D01*
X174451341Y-66360540D01*
X174810630Y-66509730D01*
X174975980Y-66509874D01*
X174945073Y-66593468D01*
X175918000Y-67566395D01*
X176890927Y-66593468D01*
X176792264Y-66326613D01*
X176182539Y-66100092D01*
X175807169Y-66113982D01*
X175834540Y-66086659D01*
X175983730Y-65727370D01*
X175983900Y-65532000D01*
X181991000Y-65532000D01*
X182282605Y-65473996D01*
X182529815Y-65308815D01*
X182694996Y-65061605D01*
X182742288Y-64823853D01*
X182841730Y-64584370D01*
X182842069Y-64195337D01*
X182771500Y-64024547D01*
X183528677Y-64781724D01*
X183757479Y-64934604D01*
X183767128Y-64941051D01*
X184048400Y-64997000D01*
X185115554Y-64997000D01*
X185243800Y-65125247D01*
X185243800Y-68684000D01*
X181610000Y-68684000D01*
X181309593Y-68743755D01*
X181054921Y-68913921D01*
X179064857Y-70903985D01*
X179003337Y-70903931D01*
X178643788Y-71052493D01*
X178368460Y-71327341D01*
X178219270Y-71686630D01*
X178218931Y-72075663D01*
X178367493Y-72435212D01*
X178412000Y-72479797D01*
X178412000Y-77774315D01*
X178389788Y-77783493D01*
X178114460Y-78058341D01*
X177965270Y-78417630D01*
X177964931Y-78806663D01*
X178042337Y-78994000D01*
X168590631Y-78994000D01*
X167512163Y-77915532D01*
X168445073Y-77915532D01*
X168543736Y-78182387D01*
X169153461Y-78408908D01*
X169803460Y-78384856D01*
X170292264Y-78182387D01*
X170390927Y-77915532D01*
X174945073Y-77915532D01*
X175043736Y-78182387D01*
X175653461Y-78408908D01*
X176303460Y-78384856D01*
X176792264Y-78182387D01*
X176890927Y-77915532D01*
X175918000Y-76942605D01*
X174945073Y-77915532D01*
X170390927Y-77915532D01*
X169418000Y-76942605D01*
X168445073Y-77915532D01*
X167512163Y-77915532D01*
X166751000Y-77154370D01*
X166751000Y-76498461D01*
X167772092Y-76498461D01*
X167796144Y-77148460D01*
X167998613Y-77637264D01*
X168265468Y-77735927D01*
X169238395Y-76763000D01*
X169597605Y-76763000D01*
X170570532Y-77735927D01*
X170837387Y-77637264D01*
X171063908Y-77027539D01*
X171044331Y-76498461D01*
X174272092Y-76498461D01*
X174296144Y-77148460D01*
X174498613Y-77637264D01*
X174765468Y-77735927D01*
X175738395Y-76763000D01*
X176097605Y-76763000D01*
X177070532Y-77735927D01*
X177337387Y-77637264D01*
X177563908Y-77027539D01*
X177539856Y-76377540D01*
X177337387Y-75888736D01*
X177070532Y-75790073D01*
X176097605Y-76763000D01*
X175738395Y-76763000D01*
X174765468Y-75790073D01*
X174498613Y-75888736D01*
X174272092Y-76498461D01*
X171044331Y-76498461D01*
X171039856Y-76377540D01*
X170837387Y-75888736D01*
X170570532Y-75790073D01*
X169597605Y-76763000D01*
X169238395Y-76763000D01*
X168265468Y-75790073D01*
X167998613Y-75888736D01*
X167772092Y-76498461D01*
X166751000Y-76498461D01*
X166751000Y-75610468D01*
X168445073Y-75610468D01*
X169418000Y-76583395D01*
X170390927Y-75610468D01*
X170292264Y-75343613D01*
X169682539Y-75117092D01*
X169032540Y-75141144D01*
X168543736Y-75343613D01*
X168445073Y-75610468D01*
X166751000Y-75610468D01*
X166751000Y-75565000D01*
X166692996Y-75273395D01*
X166607693Y-75145730D01*
X166527816Y-75026185D01*
X163272894Y-71771264D01*
X163901158Y-71143000D01*
X168225696Y-71143000D01*
X168032722Y-71335637D01*
X167783284Y-71936352D01*
X167782716Y-72586795D01*
X168031106Y-73187943D01*
X168490637Y-73648278D01*
X169091352Y-73897716D01*
X169741795Y-73898284D01*
X169907277Y-73829908D01*
X171419184Y-75341815D01*
X171609253Y-75468815D01*
X171666395Y-75506996D01*
X171958000Y-75565000D01*
X172226138Y-75565000D01*
X172419341Y-75758540D01*
X172778630Y-75907730D01*
X173167663Y-75908069D01*
X173527212Y-75759507D01*
X173802540Y-75484659D01*
X173951730Y-75125370D01*
X173952069Y-74736337D01*
X173803507Y-74376788D01*
X173528659Y-74101460D01*
X173169370Y-73952270D01*
X172780337Y-73951931D01*
X172564773Y-74041000D01*
X172273631Y-74041000D01*
X170985105Y-72752474D01*
X171052716Y-72589648D01*
X171053284Y-71939205D01*
X170804894Y-71338057D01*
X170610178Y-71143000D01*
X172267842Y-71143000D01*
X173332000Y-72207157D01*
X173332000Y-73025000D01*
X173391755Y-73325407D01*
X173561921Y-73580079D01*
X174916985Y-74935143D01*
X174916931Y-74996663D01*
X175057868Y-75337759D01*
X175043736Y-75343613D01*
X174945073Y-75610468D01*
X175918000Y-76583395D01*
X176890927Y-75610468D01*
X176792264Y-75343613D01*
X176737778Y-75323371D01*
X176872730Y-74998370D01*
X176873069Y-74609337D01*
X176724507Y-74249788D01*
X176449659Y-73974460D01*
X176254031Y-73893228D01*
X176842943Y-73649894D01*
X177303278Y-73190363D01*
X177552716Y-72589648D01*
X177553284Y-71939205D01*
X177304894Y-71338057D01*
X176845363Y-70877722D01*
X176244648Y-70628284D01*
X175594205Y-70627716D01*
X174993057Y-70876106D01*
X174606823Y-71261666D01*
X173148079Y-69802921D01*
X172893407Y-69632755D01*
X172593000Y-69573000D01*
X163576000Y-69573000D01*
X163275593Y-69632755D01*
X163020921Y-69802921D01*
X162309965Y-70513877D01*
X162420130Y-70248570D01*
X162420247Y-70114800D01*
X163636515Y-68898532D01*
X168445073Y-68898532D01*
X168543736Y-69165387D01*
X169153461Y-69391908D01*
X169803460Y-69367856D01*
X170292264Y-69165387D01*
X170390927Y-68898532D01*
X174945073Y-68898532D01*
X175043736Y-69165387D01*
X175653461Y-69391908D01*
X176303460Y-69367856D01*
X176792264Y-69165387D01*
X176890927Y-68898532D01*
X175918000Y-67925605D01*
X174945073Y-68898532D01*
X170390927Y-68898532D01*
X169418000Y-67925605D01*
X168445073Y-68898532D01*
X163636515Y-68898532D01*
X164083647Y-68451400D01*
X164197964Y-68451400D01*
X164291341Y-68544940D01*
X164650630Y-68694130D01*
X165039663Y-68694469D01*
X165399212Y-68545907D01*
X165674540Y-68271059D01*
X165823730Y-67911770D01*
X165824069Y-67522737D01*
X165675507Y-67163188D01*
X165400659Y-66887860D01*
X165041370Y-66738670D01*
X164652337Y-66738331D01*
X164292788Y-66886893D01*
X164198116Y-66981400D01*
X163779200Y-66981400D01*
X163497928Y-67037349D01*
X163259476Y-67196677D01*
X161380908Y-69075246D01*
X161248737Y-69075131D01*
X160889188Y-69223693D01*
X160613860Y-69498541D01*
X160464670Y-69857830D01*
X160464331Y-70246863D01*
X160612893Y-70606412D01*
X160887741Y-70881740D01*
X161247030Y-71030930D01*
X161519929Y-71031168D01*
X161350460Y-71200341D01*
X161201270Y-71559630D01*
X161200931Y-71948663D01*
X161349493Y-72308212D01*
X161624341Y-72583540D01*
X161983630Y-72732730D01*
X162079183Y-72732813D01*
X165227000Y-75880631D01*
X165227000Y-77470000D01*
X165285004Y-77761605D01*
X165313279Y-77803921D01*
X165450185Y-78008815D01*
X167736184Y-80294815D01*
X167823857Y-80353396D01*
X167983395Y-80459996D01*
X168275000Y-80518000D01*
X171228842Y-80518000D01*
X169243921Y-82502921D01*
X169073755Y-82757593D01*
X169039262Y-82931000D01*
X169014000Y-83058000D01*
X169014000Y-85762098D01*
X168843460Y-85932341D01*
X168694270Y-86291630D01*
X168693931Y-86680663D01*
X168842493Y-87040212D01*
X169117341Y-87315540D01*
X169476630Y-87464730D01*
X169865663Y-87465069D01*
X170225212Y-87316507D01*
X170500540Y-87041659D01*
X170649730Y-86682370D01*
X170650069Y-86293337D01*
X170584000Y-86133437D01*
X170584000Y-84924810D01*
X170731143Y-84924938D01*
X170730699Y-85433599D01*
X170994281Y-86071515D01*
X171481918Y-86560004D01*
X172119373Y-86824699D01*
X172809599Y-86825301D01*
X173447515Y-86561719D01*
X173936004Y-86074082D01*
X174200699Y-85436627D01*
X174201301Y-84746401D01*
X173937719Y-84108485D01*
X173450082Y-83619996D01*
X172812627Y-83355301D01*
X172390225Y-83354933D01*
X173426158Y-82319000D01*
X178219080Y-82319000D01*
X178218931Y-82489663D01*
X178367493Y-82849212D01*
X178642341Y-83124540D01*
X178892086Y-83228243D01*
X178920000Y-83256157D01*
X178920000Y-85636080D01*
X178749337Y-85635931D01*
X178389788Y-85784493D01*
X178114460Y-86059341D01*
X177965270Y-86418630D01*
X177965215Y-86481627D01*
X177728842Y-86718000D01*
X174625005Y-86718000D01*
X174625000Y-86717999D01*
X174324594Y-86777755D01*
X174069921Y-86947921D01*
X171275921Y-89741921D01*
X171105755Y-89996593D01*
X171105755Y-89996594D01*
X171046000Y-90297000D01*
X171046000Y-94162842D01*
X169600842Y-95608000D01*
X163449000Y-95608000D01*
X163148594Y-95667755D01*
X162893921Y-95837921D01*
X162893919Y-95837924D01*
X162808858Y-95922985D01*
X162747337Y-95922931D01*
X162387788Y-96071493D01*
X162112460Y-96346341D01*
X161963270Y-96705630D01*
X161963009Y-97005000D01*
X154559000Y-97005000D01*
X154258594Y-97064755D01*
X154211279Y-97096370D01*
X154003921Y-97234921D01*
X152756842Y-98482000D01*
X150788467Y-98482000D01*
X150759862Y-98412771D01*
X150335463Y-97987630D01*
X149780675Y-97757262D01*
X149179960Y-97756738D01*
X148624771Y-97986138D01*
X148199630Y-98410537D01*
X147969262Y-98965325D01*
X147968738Y-99566040D01*
X148198138Y-100121229D01*
X148593536Y-100517318D01*
X148199630Y-100910537D01*
X147969262Y-101465325D01*
X147968738Y-102066040D01*
X148198138Y-102621229D01*
X148375802Y-102799203D01*
X148244301Y-102853673D01*
X148065673Y-103032302D01*
X147969000Y-103265691D01*
X147969000Y-103981250D01*
X148127750Y-104140000D01*
X149352000Y-104140000D01*
X149352000Y-104120000D01*
X149606000Y-104120000D01*
X149606000Y-104140000D01*
X150830250Y-104140000D01*
X150989000Y-103981250D01*
X150989000Y-103265691D01*
X150892327Y-103032302D01*
X150713699Y-102853673D01*
X150582286Y-102799240D01*
X150758370Y-102623463D01*
X150988738Y-102068675D01*
X150989262Y-101467960D01*
X150759862Y-100912771D01*
X150364464Y-100516682D01*
X150758370Y-100123463D01*
X150788044Y-100052000D01*
X153082000Y-100052000D01*
X153382407Y-99992245D01*
X153637079Y-99822079D01*
X154884158Y-98575000D01*
X156640339Y-98575000D01*
X156478262Y-98965325D01*
X156477738Y-99566040D01*
X156707138Y-100121229D01*
X157102536Y-100517318D01*
X156708630Y-100910537D01*
X156478262Y-101465325D01*
X156477738Y-102066040D01*
X156707138Y-102621229D01*
X156884802Y-102799203D01*
X156753301Y-102853673D01*
X156574673Y-103032302D01*
X156478000Y-103265691D01*
X156478000Y-103981250D01*
X156636750Y-104140000D01*
X157861000Y-104140000D01*
X157861000Y-104120000D01*
X158115000Y-104120000D01*
X158115000Y-104140000D01*
X159339250Y-104140000D01*
X159498000Y-103981250D01*
X159498000Y-103265691D01*
X159401327Y-103032302D01*
X159222699Y-102853673D01*
X159091286Y-102799240D01*
X159267370Y-102623463D01*
X159497738Y-102068675D01*
X159498262Y-101467960D01*
X159268862Y-100912771D01*
X158873464Y-100516682D01*
X159267370Y-100123463D01*
X159497738Y-99568675D01*
X159498262Y-98967960D01*
X159335894Y-98575000D01*
X165149339Y-98575000D01*
X164987262Y-98965325D01*
X164986738Y-99566040D01*
X165216138Y-100121229D01*
X165611536Y-100517318D01*
X165217630Y-100910537D01*
X164987262Y-101465325D01*
X164986738Y-102066040D01*
X165216138Y-102621229D01*
X165393802Y-102799203D01*
X165262301Y-102853673D01*
X165083673Y-103032302D01*
X164987000Y-103265691D01*
X164987000Y-103981250D01*
X165145750Y-104140000D01*
X166370000Y-104140000D01*
X166370000Y-104120000D01*
X166624000Y-104120000D01*
X166624000Y-104140000D01*
X167848250Y-104140000D01*
X168007000Y-103981250D01*
X168007000Y-103265691D01*
X167910327Y-103032302D01*
X167731699Y-102853673D01*
X167600286Y-102799240D01*
X167776370Y-102623463D01*
X168006738Y-102068675D01*
X168007262Y-101467960D01*
X167777862Y-100912771D01*
X167382464Y-100516682D01*
X167776370Y-100123463D01*
X167870010Y-99897953D01*
X168206630Y-100037730D01*
X168595663Y-100038069D01*
X168955212Y-99889507D01*
X169230540Y-99614659D01*
X169250728Y-99566040D01*
X173114738Y-99566040D01*
X173344138Y-100121229D01*
X173739536Y-100517318D01*
X173345630Y-100910537D01*
X173115262Y-101465325D01*
X173114738Y-102066040D01*
X173344138Y-102621229D01*
X173521802Y-102799203D01*
X173390301Y-102853673D01*
X173211673Y-103032302D01*
X173115000Y-103265691D01*
X173115000Y-103981250D01*
X173273750Y-104140000D01*
X174498000Y-104140000D01*
X174498000Y-104120000D01*
X174752000Y-104120000D01*
X174752000Y-104140000D01*
X175976250Y-104140000D01*
X176135000Y-103981250D01*
X176135000Y-103265691D01*
X176038327Y-103032302D01*
X175859699Y-102853673D01*
X175728286Y-102799240D01*
X175904370Y-102623463D01*
X176134738Y-102068675D01*
X176135262Y-101467960D01*
X175905862Y-100912771D01*
X175510464Y-100516682D01*
X175904370Y-100123463D01*
X176134738Y-99568675D01*
X176134740Y-99566040D01*
X181496738Y-99566040D01*
X181726138Y-100121229D01*
X182121536Y-100517318D01*
X181727630Y-100910537D01*
X181497262Y-101465325D01*
X181496738Y-102066040D01*
X181726138Y-102621229D01*
X181903802Y-102799203D01*
X181772301Y-102853673D01*
X181593673Y-103032302D01*
X181497000Y-103265691D01*
X181497000Y-103981250D01*
X181655750Y-104140000D01*
X182880000Y-104140000D01*
X182880000Y-104120000D01*
X183134000Y-104120000D01*
X183134000Y-104140000D01*
X184358250Y-104140000D01*
X184517000Y-103981250D01*
X184517000Y-103265691D01*
X184420327Y-103032302D01*
X184241699Y-102853673D01*
X184110286Y-102799240D01*
X184286370Y-102623463D01*
X184516738Y-102068675D01*
X184517262Y-101467960D01*
X184287862Y-100912771D01*
X183892464Y-100516682D01*
X184286370Y-100123463D01*
X184516738Y-99568675D01*
X184516740Y-99566040D01*
X189878738Y-99566040D01*
X190108138Y-100121229D01*
X190503536Y-100517318D01*
X190109630Y-100910537D01*
X189879262Y-101465325D01*
X189878738Y-102066040D01*
X190108138Y-102621229D01*
X190285802Y-102799203D01*
X190154301Y-102853673D01*
X189975673Y-103032302D01*
X189879000Y-103265691D01*
X189879000Y-103981250D01*
X190037750Y-104140000D01*
X191262000Y-104140000D01*
X191262000Y-104120000D01*
X191516000Y-104120000D01*
X191516000Y-104140000D01*
X192740250Y-104140000D01*
X192899000Y-103981250D01*
X192899000Y-103265691D01*
X192802327Y-103032302D01*
X192623699Y-102853673D01*
X192492286Y-102799240D01*
X192668370Y-102623463D01*
X192898738Y-102068675D01*
X192899262Y-101467960D01*
X192669862Y-100912771D01*
X192274464Y-100516682D01*
X192668370Y-100123463D01*
X192898738Y-99568675D01*
X192898740Y-99566040D01*
X198641738Y-99566040D01*
X198871138Y-100121229D01*
X199266536Y-100517318D01*
X198872630Y-100910537D01*
X198642262Y-101465325D01*
X198641738Y-102066040D01*
X198871138Y-102621229D01*
X199048802Y-102799203D01*
X198917301Y-102853673D01*
X198738673Y-103032302D01*
X198642000Y-103265691D01*
X198642000Y-103981250D01*
X198800750Y-104140000D01*
X200025000Y-104140000D01*
X200025000Y-104120000D01*
X200279000Y-104120000D01*
X200279000Y-104140000D01*
X201503250Y-104140000D01*
X201662000Y-103981250D01*
X201662000Y-103265691D01*
X201565327Y-103032302D01*
X201386699Y-102853673D01*
X201255286Y-102799240D01*
X201431370Y-102623463D01*
X201661738Y-102068675D01*
X201662262Y-101467960D01*
X201432862Y-100912771D01*
X201037464Y-100516682D01*
X201431370Y-100123463D01*
X201661738Y-99568675D01*
X201662262Y-98967960D01*
X201432862Y-98412771D01*
X201008463Y-97987630D01*
X200453675Y-97757262D01*
X199852960Y-97756738D01*
X199297771Y-97986138D01*
X198872630Y-98410537D01*
X198642262Y-98965325D01*
X198641738Y-99566040D01*
X192898740Y-99566040D01*
X192899262Y-98967960D01*
X192669862Y-98412771D01*
X192245463Y-97987630D01*
X191690675Y-97757262D01*
X191089960Y-97756738D01*
X190534771Y-97986138D01*
X190109630Y-98410537D01*
X189879262Y-98965325D01*
X189878738Y-99566040D01*
X184516740Y-99566040D01*
X184517262Y-98967960D01*
X184287862Y-98412771D01*
X183863463Y-97987630D01*
X183308675Y-97757262D01*
X182707960Y-97756738D01*
X182152771Y-97986138D01*
X181727630Y-98410537D01*
X181497262Y-98965325D01*
X181496738Y-99566040D01*
X176134740Y-99566040D01*
X176135262Y-98967960D01*
X175905862Y-98412771D01*
X175481463Y-97987630D01*
X174926675Y-97757262D01*
X174325960Y-97756738D01*
X173770771Y-97986138D01*
X173345630Y-98410537D01*
X173115262Y-98965325D01*
X173114738Y-99566040D01*
X169250728Y-99566040D01*
X169355385Y-99314000D01*
X170815000Y-99314000D01*
X171106605Y-99255996D01*
X171353815Y-99090815D01*
X173138753Y-97305877D01*
X173181341Y-97348540D01*
X173540630Y-97497730D01*
X173929663Y-97498069D01*
X174289212Y-97349507D01*
X174564540Y-97074659D01*
X174713730Y-96715370D01*
X174714069Y-96326337D01*
X174565507Y-95966788D01*
X174290659Y-95691460D01*
X173931370Y-95542270D01*
X173542337Y-95541931D01*
X173318909Y-95634249D01*
X173402079Y-95551079D01*
X173572245Y-95296406D01*
X173632000Y-94996000D01*
X173632000Y-93687810D01*
X173929663Y-93688069D01*
X174289212Y-93539507D01*
X174564540Y-93264659D01*
X174668243Y-93014915D01*
X175204158Y-92479000D01*
X175504901Y-92479000D01*
X175447460Y-92536341D01*
X175298270Y-92895630D01*
X175297931Y-93284663D01*
X175446493Y-93644212D01*
X175721341Y-93919540D01*
X176080630Y-94068730D01*
X176469663Y-94069069D01*
X176829212Y-93920507D01*
X176873797Y-93876000D01*
X181392877Y-93876000D01*
X181436341Y-93919540D01*
X181795630Y-94068730D01*
X182184663Y-94069069D01*
X182544212Y-93920507D01*
X182819540Y-93645659D01*
X182968730Y-93286370D01*
X182969069Y-92897337D01*
X182820507Y-92537788D01*
X182761821Y-92479000D01*
X187744190Y-92479000D01*
X187743931Y-92776663D01*
X187892493Y-93136212D01*
X187937000Y-93180797D01*
X187937000Y-95404335D01*
X187871270Y-95562630D01*
X187870931Y-95951663D01*
X188019493Y-96311212D01*
X188294341Y-96586540D01*
X188653630Y-96735730D01*
X189042663Y-96736069D01*
X189402212Y-96587507D01*
X189677540Y-96312659D01*
X189826730Y-95953370D01*
X189827069Y-95564337D01*
X189678507Y-95204788D01*
X189507000Y-95032981D01*
X189507000Y-93181123D01*
X189550540Y-93137659D01*
X189699730Y-92778370D01*
X189699991Y-92479000D01*
X195616877Y-92479000D01*
X195660341Y-92522540D01*
X196019630Y-92671730D01*
X196408663Y-92672069D01*
X196768212Y-92523507D01*
X197043540Y-92248659D01*
X197192730Y-91889370D01*
X197193069Y-91500337D01*
X197044507Y-91140788D01*
X196769659Y-90865460D01*
X196410370Y-90716270D01*
X196021337Y-90715931D01*
X195661788Y-90864493D01*
X195617203Y-90909000D01*
X174879000Y-90909000D01*
X174578593Y-90968755D01*
X174323921Y-91138921D01*
X173730747Y-91732095D01*
X173679115Y-91732050D01*
X173824730Y-91381370D01*
X173825069Y-90992337D01*
X173676507Y-90632788D01*
X173401659Y-90357460D01*
X173042370Y-90208270D01*
X173029899Y-90208259D01*
X174950158Y-88288000D01*
X177218065Y-88288000D01*
X177203270Y-88323630D01*
X177202931Y-88712663D01*
X177351493Y-89072212D01*
X177626341Y-89347540D01*
X177985630Y-89496730D01*
X178374663Y-89497069D01*
X178734212Y-89348507D01*
X178906019Y-89177000D01*
X183298098Y-89177000D01*
X183468341Y-89347540D01*
X183827630Y-89496730D01*
X184216663Y-89497069D01*
X184576212Y-89348507D01*
X184851540Y-89073659D01*
X185000730Y-88714370D01*
X185001069Y-88325337D01*
X184852507Y-87965788D01*
X184577659Y-87690460D01*
X184218370Y-87541270D01*
X183829337Y-87540931D01*
X183669437Y-87607000D01*
X180306904Y-87607000D01*
X180430245Y-87422406D01*
X180490000Y-87122000D01*
X180490000Y-82931000D01*
X180430245Y-82630594D01*
X180260079Y-82375921D01*
X180260076Y-82375919D01*
X180203157Y-82319000D01*
X190881000Y-82319000D01*
X191181407Y-82259245D01*
X191436079Y-82089079D01*
X196897079Y-76628079D01*
X197067245Y-76373407D01*
X197127000Y-76073000D01*
X197127000Y-67146123D01*
X197170540Y-67102659D01*
X197319730Y-66743370D01*
X197320069Y-66354337D01*
X197171507Y-65994788D01*
X196896659Y-65719460D01*
X196537370Y-65570270D01*
X196148337Y-65569931D01*
X195788788Y-65718493D01*
X195707099Y-65800040D01*
X195626659Y-65719460D01*
X195267370Y-65570270D01*
X194878337Y-65569931D01*
X194518788Y-65718493D01*
X194243460Y-65993341D01*
X194094270Y-66352630D01*
X194093931Y-66741663D01*
X194242493Y-67101212D01*
X194287000Y-67145797D01*
X194287000Y-75496842D01*
X189669842Y-80114000D01*
X184394158Y-80114000D01*
X190293079Y-74215079D01*
X190463245Y-73960407D01*
X190523000Y-73660000D01*
X190523000Y-70861646D01*
X192265246Y-72603893D01*
X192265131Y-72736063D01*
X192413693Y-73095612D01*
X192688541Y-73370940D01*
X193047830Y-73520130D01*
X193436863Y-73520469D01*
X193796412Y-73371907D01*
X194071740Y-73097059D01*
X194220930Y-72737770D01*
X194221269Y-72348737D01*
X194072707Y-71989188D01*
X193797859Y-71713860D01*
X193438570Y-71564670D01*
X193304800Y-71564553D01*
X191133400Y-69393154D01*
X191133400Y-62941200D01*
X191077451Y-62659928D01*
X190918123Y-62421476D01*
X190028146Y-61531500D01*
X204533500Y-61531500D01*
X204533500Y-107378500D01*
X144335500Y-107378500D01*
X144335500Y-104552750D01*
X147969000Y-104552750D01*
X147969000Y-105268309D01*
X148065673Y-105501698D01*
X148244301Y-105680327D01*
X148477690Y-105777000D01*
X149193250Y-105777000D01*
X149352000Y-105618250D01*
X149352000Y-104394000D01*
X149606000Y-104394000D01*
X149606000Y-105618250D01*
X149764750Y-105777000D01*
X150480310Y-105777000D01*
X150713699Y-105680327D01*
X150892327Y-105501698D01*
X150989000Y-105268309D01*
X150989000Y-104552750D01*
X156478000Y-104552750D01*
X156478000Y-105268309D01*
X156574673Y-105501698D01*
X156753301Y-105680327D01*
X156986690Y-105777000D01*
X157702250Y-105777000D01*
X157861000Y-105618250D01*
X157861000Y-104394000D01*
X158115000Y-104394000D01*
X158115000Y-105618250D01*
X158273750Y-105777000D01*
X158989310Y-105777000D01*
X159222699Y-105680327D01*
X159401327Y-105501698D01*
X159498000Y-105268309D01*
X159498000Y-104552750D01*
X164987000Y-104552750D01*
X164987000Y-105268309D01*
X165083673Y-105501698D01*
X165262301Y-105680327D01*
X165495690Y-105777000D01*
X166211250Y-105777000D01*
X166370000Y-105618250D01*
X166370000Y-104394000D01*
X166624000Y-104394000D01*
X166624000Y-105618250D01*
X166782750Y-105777000D01*
X167498310Y-105777000D01*
X167731699Y-105680327D01*
X167910327Y-105501698D01*
X168007000Y-105268309D01*
X168007000Y-104552750D01*
X173115000Y-104552750D01*
X173115000Y-105268309D01*
X173211673Y-105501698D01*
X173390301Y-105680327D01*
X173623690Y-105777000D01*
X174339250Y-105777000D01*
X174498000Y-105618250D01*
X174498000Y-104394000D01*
X174752000Y-104394000D01*
X174752000Y-105618250D01*
X174910750Y-105777000D01*
X175626310Y-105777000D01*
X175859699Y-105680327D01*
X176038327Y-105501698D01*
X176135000Y-105268309D01*
X176135000Y-104552750D01*
X181497000Y-104552750D01*
X181497000Y-105268309D01*
X181593673Y-105501698D01*
X181772301Y-105680327D01*
X182005690Y-105777000D01*
X182721250Y-105777000D01*
X182880000Y-105618250D01*
X182880000Y-104394000D01*
X183134000Y-104394000D01*
X183134000Y-105618250D01*
X183292750Y-105777000D01*
X184008310Y-105777000D01*
X184241699Y-105680327D01*
X184420327Y-105501698D01*
X184517000Y-105268309D01*
X184517000Y-104552750D01*
X189879000Y-104552750D01*
X189879000Y-105268309D01*
X189975673Y-105501698D01*
X190154301Y-105680327D01*
X190387690Y-105777000D01*
X191103250Y-105777000D01*
X191262000Y-105618250D01*
X191262000Y-104394000D01*
X191516000Y-104394000D01*
X191516000Y-105618250D01*
X191674750Y-105777000D01*
X192390310Y-105777000D01*
X192623699Y-105680327D01*
X192802327Y-105501698D01*
X192899000Y-105268309D01*
X192899000Y-104552750D01*
X198642000Y-104552750D01*
X198642000Y-105268309D01*
X198738673Y-105501698D01*
X198917301Y-105680327D01*
X199150690Y-105777000D01*
X199866250Y-105777000D01*
X200025000Y-105618250D01*
X200025000Y-104394000D01*
X200279000Y-104394000D01*
X200279000Y-105618250D01*
X200437750Y-105777000D01*
X201153310Y-105777000D01*
X201386699Y-105680327D01*
X201565327Y-105501698D01*
X201662000Y-105268309D01*
X201662000Y-104552750D01*
X201503250Y-104394000D01*
X200279000Y-104394000D01*
X200025000Y-104394000D01*
X198800750Y-104394000D01*
X198642000Y-104552750D01*
X192899000Y-104552750D01*
X192740250Y-104394000D01*
X191516000Y-104394000D01*
X191262000Y-104394000D01*
X190037750Y-104394000D01*
X189879000Y-104552750D01*
X184517000Y-104552750D01*
X184358250Y-104394000D01*
X183134000Y-104394000D01*
X182880000Y-104394000D01*
X181655750Y-104394000D01*
X181497000Y-104552750D01*
X176135000Y-104552750D01*
X175976250Y-104394000D01*
X174752000Y-104394000D01*
X174498000Y-104394000D01*
X173273750Y-104394000D01*
X173115000Y-104552750D01*
X168007000Y-104552750D01*
X167848250Y-104394000D01*
X166624000Y-104394000D01*
X166370000Y-104394000D01*
X165145750Y-104394000D01*
X164987000Y-104552750D01*
X159498000Y-104552750D01*
X159339250Y-104394000D01*
X158115000Y-104394000D01*
X157861000Y-104394000D01*
X156636750Y-104394000D01*
X156478000Y-104552750D01*
X150989000Y-104552750D01*
X150830250Y-104394000D01*
X149606000Y-104394000D01*
X149352000Y-104394000D01*
X148127750Y-104394000D01*
X147969000Y-104552750D01*
X144335500Y-104552750D01*
X144335500Y-93865601D01*
X155117566Y-93865601D01*
X155322081Y-94360565D01*
X155700443Y-94739588D01*
X156195049Y-94944966D01*
X156730601Y-94945434D01*
X157225565Y-94740919D01*
X157604588Y-94362557D01*
X157809966Y-93867951D01*
X157809968Y-93865601D01*
X160197566Y-93865601D01*
X160402081Y-94360565D01*
X160780443Y-94739588D01*
X161275049Y-94944966D01*
X161810601Y-94945434D01*
X162305565Y-94740919D01*
X162684588Y-94362557D01*
X162889966Y-93867951D01*
X162890434Y-93332399D01*
X162685919Y-92837435D01*
X162307557Y-92458412D01*
X161812951Y-92253034D01*
X161277399Y-92252566D01*
X160782435Y-92457081D01*
X160403412Y-92835443D01*
X160198034Y-93330049D01*
X160197566Y-93865601D01*
X157809968Y-93865601D01*
X157810434Y-93332399D01*
X157605919Y-92837435D01*
X157227557Y-92458412D01*
X156732951Y-92253034D01*
X156197399Y-92252566D01*
X155702435Y-92457081D01*
X155323412Y-92835443D01*
X155118034Y-93330049D01*
X155117566Y-93865601D01*
X144335500Y-93865601D01*
X144335500Y-92487750D01*
X147359000Y-92487750D01*
X147359000Y-93178310D01*
X147455673Y-93411699D01*
X147634302Y-93590327D01*
X147867691Y-93687000D01*
X148558250Y-93687000D01*
X148717000Y-93528250D01*
X148717000Y-92329000D01*
X148971000Y-92329000D01*
X148971000Y-93528250D01*
X149129750Y-93687000D01*
X149820309Y-93687000D01*
X150053698Y-93590327D01*
X150232327Y-93411699D01*
X150329000Y-93178310D01*
X150329000Y-92487750D01*
X150170250Y-92329000D01*
X148971000Y-92329000D01*
X148717000Y-92329000D01*
X147517750Y-92329000D01*
X147359000Y-92487750D01*
X144335500Y-92487750D01*
X144335500Y-84582000D01*
X147329907Y-84582000D01*
X147442946Y-85150285D01*
X147764853Y-85632054D01*
X148094026Y-85852000D01*
X147764853Y-86071946D01*
X147442946Y-86553715D01*
X147329907Y-87122000D01*
X147442946Y-87690285D01*
X147764853Y-88172054D01*
X148094026Y-88392000D01*
X147764853Y-88611946D01*
X147442946Y-89093715D01*
X147329907Y-89662000D01*
X147442946Y-90230285D01*
X147764853Y-90712054D01*
X147808777Y-90741403D01*
X147634302Y-90813673D01*
X147455673Y-90992301D01*
X147359000Y-91225690D01*
X147359000Y-91916250D01*
X147517750Y-92075000D01*
X148717000Y-92075000D01*
X148717000Y-92055000D01*
X148971000Y-92055000D01*
X148971000Y-92075000D01*
X150170250Y-92075000D01*
X150329000Y-91916250D01*
X150329000Y-91225690D01*
X150232327Y-90992301D01*
X150053698Y-90813673D01*
X149879223Y-90741403D01*
X149923147Y-90712054D01*
X150245054Y-90230285D01*
X150344115Y-89732273D01*
X152606921Y-91995079D01*
X152861593Y-92165245D01*
X153162000Y-92225000D01*
X159675877Y-92225000D01*
X159719341Y-92268540D01*
X160078630Y-92417730D01*
X160467663Y-92418069D01*
X160827212Y-92269507D01*
X161102540Y-91994659D01*
X161251730Y-91635370D01*
X161252069Y-91246337D01*
X161103507Y-90886788D01*
X160828659Y-90611460D01*
X160469370Y-90462270D01*
X160080337Y-90461931D01*
X159720788Y-90610493D01*
X159676203Y-90655000D01*
X153487158Y-90655000D01*
X150291076Y-87458918D01*
X150358093Y-87122000D01*
X150245054Y-86553715D01*
X149923147Y-86071946D01*
X149593974Y-85852000D01*
X149923147Y-85632054D01*
X150245054Y-85150285D01*
X150358093Y-84582000D01*
X150245054Y-84013715D01*
X149923147Y-83531946D01*
X149441378Y-83210039D01*
X148873093Y-83097000D01*
X148814907Y-83097000D01*
X148246622Y-83210039D01*
X147764853Y-83531946D01*
X147442946Y-84013715D01*
X147329907Y-84582000D01*
X144335500Y-84582000D01*
X144335500Y-81927000D01*
X150494560Y-81927000D01*
X150494560Y-83427000D01*
X150538838Y-83662317D01*
X150677910Y-83878441D01*
X150890110Y-84023431D01*
X151142000Y-84074440D01*
X151170903Y-84074440D01*
X151041270Y-84386630D01*
X151040931Y-84775663D01*
X151189493Y-85135212D01*
X151464341Y-85410540D01*
X151823630Y-85559730D01*
X152212663Y-85560069D01*
X152572212Y-85411507D01*
X152616797Y-85367000D01*
X153979842Y-85367000D01*
X157390985Y-88778143D01*
X157390931Y-88839663D01*
X157539493Y-89199212D01*
X157814341Y-89474540D01*
X158173630Y-89623730D01*
X158562663Y-89624069D01*
X158922212Y-89475507D01*
X159197540Y-89200659D01*
X159346730Y-88841370D01*
X159347069Y-88452337D01*
X159198507Y-88092788D01*
X158923659Y-87817460D01*
X158564370Y-87668270D01*
X158501373Y-87668215D01*
X154860079Y-84026921D01*
X154605407Y-83856755D01*
X154305000Y-83797000D01*
X153157730Y-83797000D01*
X153238431Y-83678890D01*
X153289440Y-83427000D01*
X153289440Y-81927000D01*
X153245162Y-81691683D01*
X153106090Y-81475559D01*
X152893890Y-81330569D01*
X152642000Y-81279560D01*
X151142000Y-81279560D01*
X150906683Y-81323838D01*
X150690559Y-81462910D01*
X150545569Y-81675110D01*
X150494560Y-81927000D01*
X144335500Y-81927000D01*
X144335500Y-79691745D01*
X151317861Y-79691745D01*
X151391995Y-79937864D01*
X151929223Y-80130965D01*
X152499454Y-80103778D01*
X152900005Y-79937864D01*
X152974139Y-79691745D01*
X152146000Y-78863605D01*
X151317861Y-79691745D01*
X144335500Y-79691745D01*
X144335500Y-78467223D01*
X150699035Y-78467223D01*
X150726222Y-79037454D01*
X150892136Y-79438005D01*
X151138255Y-79512139D01*
X151966395Y-78684000D01*
X152325605Y-78684000D01*
X153153745Y-79512139D01*
X153399864Y-79438005D01*
X153592965Y-78900777D01*
X153565778Y-78330546D01*
X153399864Y-77929995D01*
X153153745Y-77855861D01*
X152325605Y-78684000D01*
X151966395Y-78684000D01*
X151138255Y-77855861D01*
X150892136Y-77929995D01*
X150699035Y-78467223D01*
X144335500Y-78467223D01*
X144335500Y-77676255D01*
X151317861Y-77676255D01*
X152146000Y-78504395D01*
X152974139Y-77676255D01*
X152900005Y-77430136D01*
X152362777Y-77237035D01*
X151792546Y-77264222D01*
X151391995Y-77430136D01*
X151317861Y-77676255D01*
X144335500Y-77676255D01*
X144335500Y-74359199D01*
X144822699Y-74359199D01*
X145086281Y-74997115D01*
X145573918Y-75485604D01*
X146211373Y-75750299D01*
X146901599Y-75750901D01*
X147539515Y-75487319D01*
X148028004Y-74999682D01*
X148283658Y-74384000D01*
X150698560Y-74384000D01*
X150698560Y-75984000D01*
X150742838Y-76219317D01*
X150881910Y-76435441D01*
X151094110Y-76580431D01*
X151346000Y-76631440D01*
X152946000Y-76631440D01*
X153181317Y-76587162D01*
X153397441Y-76448090D01*
X153542431Y-76235890D01*
X153593440Y-75984000D01*
X153593440Y-74384000D01*
X153589237Y-74361663D01*
X156755931Y-74361663D01*
X156904493Y-74721212D01*
X157179341Y-74996540D01*
X157538630Y-75145730D01*
X157634183Y-75145813D01*
X159639000Y-77150631D01*
X159639000Y-80362945D01*
X159550270Y-80576630D01*
X159549931Y-80965663D01*
X159698493Y-81325212D01*
X159973341Y-81600540D01*
X160332630Y-81749730D01*
X160721663Y-81750069D01*
X161081212Y-81601507D01*
X161356540Y-81326659D01*
X161505730Y-80967370D01*
X161506069Y-80578337D01*
X161357507Y-80218788D01*
X161163000Y-80023941D01*
X161163000Y-76835000D01*
X161148678Y-76763000D01*
X161104997Y-76543396D01*
X160939816Y-76296185D01*
X158711987Y-74068357D01*
X158712069Y-73974337D01*
X158563507Y-73614788D01*
X158288659Y-73339460D01*
X157929370Y-73190270D01*
X157540337Y-73189931D01*
X157180788Y-73338493D01*
X156905460Y-73613341D01*
X156756270Y-73972630D01*
X156755931Y-74361663D01*
X153589237Y-74361663D01*
X153549162Y-74148683D01*
X153410090Y-73932559D01*
X153197890Y-73787569D01*
X152946000Y-73736560D01*
X151346000Y-73736560D01*
X151110683Y-73780838D01*
X150894559Y-73919910D01*
X150749569Y-74132110D01*
X150698560Y-74384000D01*
X148283658Y-74384000D01*
X148292699Y-74362227D01*
X148293301Y-73672001D01*
X148029719Y-73034085D01*
X147542082Y-72545596D01*
X146904627Y-72280901D01*
X146214401Y-72280299D01*
X145576485Y-72543881D01*
X145087996Y-73031518D01*
X144823301Y-73668973D01*
X144822699Y-74359199D01*
X144335500Y-74359199D01*
X144335500Y-69000305D01*
X146958674Y-69000305D01*
X147245043Y-69693372D01*
X147774839Y-70224093D01*
X148467405Y-70511672D01*
X149217305Y-70512326D01*
X149910372Y-70225957D01*
X150441093Y-69696161D01*
X150728672Y-69003595D01*
X150729326Y-68253695D01*
X150442957Y-67560628D01*
X149913161Y-67029907D01*
X149220595Y-66742328D01*
X148470695Y-66741674D01*
X147777628Y-67028043D01*
X147246907Y-67557839D01*
X146959328Y-68250405D01*
X146958674Y-69000305D01*
X144335500Y-69000305D01*
X144335500Y-63912750D01*
X146959000Y-63912750D01*
X146959000Y-65003309D01*
X147055673Y-65236698D01*
X147234301Y-65415327D01*
X147467690Y-65512000D01*
X148558250Y-65512000D01*
X148717000Y-65353250D01*
X148717000Y-63754000D01*
X148971000Y-63754000D01*
X148971000Y-65353250D01*
X149129750Y-65512000D01*
X150220310Y-65512000D01*
X150453699Y-65415327D01*
X150632327Y-65236698D01*
X150729000Y-65003309D01*
X150729000Y-63912750D01*
X150570250Y-63754000D01*
X148971000Y-63754000D01*
X148717000Y-63754000D01*
X147117750Y-63754000D01*
X146959000Y-63912750D01*
X144335500Y-63912750D01*
X144335500Y-62250691D01*
X146959000Y-62250691D01*
X146959000Y-63341250D01*
X147117750Y-63500000D01*
X148717000Y-63500000D01*
X148717000Y-61900750D01*
X148971000Y-61900750D01*
X148971000Y-63500000D01*
X150570250Y-63500000D01*
X150729000Y-63341250D01*
X150729000Y-62250691D01*
X150632327Y-62017302D01*
X150453699Y-61838673D01*
X150220310Y-61742000D01*
X149129750Y-61742000D01*
X148971000Y-61900750D01*
X148717000Y-61900750D01*
X148558250Y-61742000D01*
X147467690Y-61742000D01*
X147234301Y-61838673D01*
X147055673Y-62017302D01*
X146959000Y-62250691D01*
X144335500Y-62250691D01*
X144335500Y-57715873D01*
X145795727Y-57715873D01*
X146034971Y-58294887D01*
X146477583Y-58738272D01*
X147056179Y-58978526D01*
X147682673Y-58979073D01*
X147841005Y-58913651D01*
X148883077Y-59955724D01*
X149052799Y-60069128D01*
X149121528Y-60115051D01*
X149402800Y-60171000D01*
X149606354Y-60171000D01*
X151512600Y-62077247D01*
X151512600Y-64973200D01*
X151568549Y-65254472D01*
X151727877Y-65492923D01*
X152539646Y-66304693D01*
X152539531Y-66436863D01*
X152688093Y-66796412D01*
X152962941Y-67071740D01*
X153322230Y-67220930D01*
X153711263Y-67221269D01*
X154070812Y-67072707D01*
X154346140Y-66797859D01*
X154495330Y-66438570D01*
X154495669Y-66049537D01*
X154347107Y-65689988D01*
X154072259Y-65414660D01*
X153712970Y-65265470D01*
X153579200Y-65265353D01*
X152982600Y-64668754D01*
X152982600Y-61772800D01*
X152926651Y-61491528D01*
X152845810Y-61370541D01*
X152767323Y-61253076D01*
X150430523Y-58916277D01*
X150192072Y-58756949D01*
X149910800Y-58701000D01*
X149707247Y-58701000D01*
X148880643Y-57874396D01*
X148945326Y-57718621D01*
X148945328Y-57715873D01*
X149605727Y-57715873D01*
X149844971Y-58294887D01*
X150287583Y-58738272D01*
X150866179Y-58978526D01*
X151492673Y-58979073D01*
X152071687Y-58739829D01*
X152515072Y-58297217D01*
X152755326Y-57718621D01*
X152755873Y-57092127D01*
X152516629Y-56513113D01*
X152074017Y-56069728D01*
X151495421Y-55829474D01*
X150868927Y-55828927D01*
X150289913Y-56068171D01*
X149846528Y-56510783D01*
X149606274Y-57089379D01*
X149605727Y-57715873D01*
X148945328Y-57715873D01*
X148945873Y-57092127D01*
X148706629Y-56513113D01*
X148264017Y-56069728D01*
X147685421Y-55829474D01*
X147058927Y-55828927D01*
X146479913Y-56068171D01*
X146036528Y-56510783D01*
X145796274Y-57089379D01*
X145795727Y-57715873D01*
X144335500Y-57715873D01*
X144335500Y-55689500D01*
X160953424Y-55689500D01*
X160871070Y-55887830D01*
M02*
