%TF.GenerationSoftware,KiCad,Pcbnew,4.0.7-e2-6376~58~ubuntu16.04.1*%
%TF.CreationDate,2018-03-12T18:00:00+01:00*%
%TF.ProjectId,SLAMP-WiFi,534C414D502D576946692E6B69636164,rev?*%
%TF.FileFunction,Paste,Top*%
%FSLAX46Y46*%
G04 Gerber Fmt 4.6, Leading zero omitted, Abs format (unit mm)*
G04 Created by KiCad (PCBNEW 4.0.7-e2-6376~58~ubuntu16.04.1) date Mon Mar 12 18:00:00 2018*
%MOMM*%
%LPD*%
G01*
G04 APERTURE LIST*
%ADD10C,0.127000*%
%ADD11R,0.820000X0.720000*%
%ADD12R,2.420000X1.020000*%
%ADD13O,2.420000X1.020000*%
%ADD14O,1.020000X2.420000*%
%ADD15R,0.620000X1.220000*%
%ADD16R,0.920000X1.170000*%
%ADD17R,1.170000X0.920000*%
%ADD18R,2.420000X0.920000*%
%ADD19R,1.120000X1.120000*%
%ADD20R,1.220000X0.620000*%
%ADD21R,0.980000X0.570000*%
%ADD22R,0.428000X1.063000*%
%ADD23R,0.820000X0.420000*%
G04 APERTURE END LIST*
D10*
X143637000Y-54991000D02*
X143637000Y-56769000D01*
X181864000Y-54991000D02*
X143637000Y-54991000D01*
X181864000Y-56769000D02*
X181864000Y-54991000D01*
X143637000Y-56769000D02*
X143637000Y-60833000D01*
X181864000Y-58166000D02*
X181864000Y-56769000D01*
X181864000Y-60833000D02*
X181864000Y-58166000D01*
X201041000Y-60833000D02*
X181864000Y-60833000D01*
X143637000Y-108077000D02*
X143637000Y-60833000D01*
X205232000Y-108077000D02*
X143637000Y-108077000D01*
X205232000Y-60833000D02*
X205232000Y-108077000D01*
X201041000Y-60833000D02*
X205232000Y-60833000D01*
D11*
X157877000Y-75885000D03*
X157877000Y-77785000D03*
X159877000Y-76835000D03*
D12*
X183958000Y-63373000D03*
D13*
X183958000Y-65373000D03*
X183958000Y-67373000D03*
X183958000Y-69373000D03*
X183958000Y-71373000D03*
X183958000Y-73373000D03*
X183958000Y-75373000D03*
X183958000Y-77373000D03*
X199358000Y-77373000D03*
X199258000Y-75373000D03*
X199358000Y-73373000D03*
X199358000Y-71373000D03*
X199358000Y-69373000D03*
X199358000Y-67373000D03*
X199358000Y-65373000D03*
X199358000Y-63373000D03*
D14*
X186648000Y-79073000D03*
X188648000Y-79073000D03*
X190648000Y-79073000D03*
X192648000Y-79073000D03*
X194648000Y-79073000D03*
X196648000Y-79073000D03*
D15*
X157419000Y-80010000D03*
X159319000Y-80010000D03*
D16*
X189627000Y-89281000D03*
X191627000Y-89281000D03*
X152638000Y-95123000D03*
X150638000Y-95123000D03*
D17*
X152019000Y-85995000D03*
X152019000Y-87995000D03*
D16*
X165370000Y-90932000D03*
X167370000Y-90932000D03*
X194072000Y-89916000D03*
X196072000Y-89916000D03*
X194072000Y-84836000D03*
X196072000Y-84836000D03*
X194072000Y-87376000D03*
X196072000Y-87376000D03*
D18*
X186182000Y-87019000D03*
X186182000Y-90019000D03*
D16*
X180578000Y-67818000D03*
X178578000Y-67818000D03*
D19*
X180383000Y-89535000D03*
X182583000Y-89535000D03*
D11*
X163687000Y-77785000D03*
X163687000Y-75885000D03*
X161687000Y-76835000D03*
D15*
X166690000Y-83947000D03*
X168590000Y-83947000D03*
X166690000Y-86487000D03*
X168590000Y-86487000D03*
X175575000Y-94996000D03*
X173675000Y-94996000D03*
X161737000Y-73787000D03*
X163637000Y-73787000D03*
X165547000Y-92964000D03*
X167447000Y-92964000D03*
X167193000Y-73787000D03*
X165293000Y-73787000D03*
X180655000Y-65532000D03*
X178755000Y-65532000D03*
D20*
X199009000Y-81346000D03*
X199009000Y-83246000D03*
D15*
X199202000Y-94996000D03*
X201102000Y-94996000D03*
X190439000Y-94996000D03*
X192339000Y-94996000D03*
X182057000Y-94996000D03*
X183957000Y-94996000D03*
X165547000Y-95123000D03*
X167447000Y-95123000D03*
X180533000Y-84963000D03*
X182433000Y-84963000D03*
X185232000Y-84836000D03*
X187132000Y-84836000D03*
X182433000Y-87376000D03*
X180533000Y-87376000D03*
X180528000Y-70104000D03*
X178628000Y-70104000D03*
X163637000Y-80010000D03*
X161737000Y-80010000D03*
X180655000Y-63373000D03*
X178755000Y-63373000D03*
D20*
X178816000Y-74869000D03*
X178816000Y-76769000D03*
D21*
X189527000Y-84775000D03*
X189527000Y-85725000D03*
X189527000Y-86675000D03*
X191727000Y-86675000D03*
X191727000Y-84775000D03*
D22*
X154559000Y-83439000D03*
X157099000Y-83439000D03*
X158369000Y-83439000D03*
X159639000Y-83439000D03*
X160909000Y-83439000D03*
X162179000Y-83439000D03*
X163449000Y-83439000D03*
X163449000Y-89789000D03*
X162179000Y-89789000D03*
X160909000Y-89789000D03*
X159639000Y-89789000D03*
X158369000Y-89789000D03*
X157099000Y-89789000D03*
X155829000Y-89789000D03*
X154559000Y-89789000D03*
X155829000Y-83439000D03*
D17*
X155956000Y-67802000D03*
X155956000Y-65802000D03*
D16*
X160004000Y-71120000D03*
X158004000Y-71120000D03*
X160004000Y-65151000D03*
X158004000Y-65151000D03*
D17*
X155905200Y-60486800D03*
X155905200Y-58486800D03*
D16*
X159902400Y-62433200D03*
X157902400Y-62433200D03*
X159953200Y-56642000D03*
X157953200Y-56642000D03*
D23*
X163703000Y-65417000D03*
X163703000Y-66917000D03*
X163703000Y-69330000D03*
X163703000Y-67830000D03*
X163677600Y-57568400D03*
X163677600Y-59068400D03*
X163677600Y-61811600D03*
X163677600Y-60311600D03*
D21*
X157904000Y-67249000D03*
X157904000Y-68199000D03*
X157904000Y-69149000D03*
X160104000Y-69149000D03*
X160104000Y-67249000D03*
X160104000Y-68199000D03*
X157904000Y-58638400D03*
X157904000Y-59588400D03*
X157904000Y-60538400D03*
X160104000Y-60538400D03*
X160104000Y-58638400D03*
X160104000Y-59588400D03*
M02*
