%TF.GenerationSoftware,KiCad,Pcbnew,4.0.7-e2-6376~58~ubuntu16.04.1*%
%TF.CreationDate,2018-03-12T18:00:00+01:00*%
%TF.ProjectId,SLAMP-WiFi,534C414D502D576946692E6B69636164,rev?*%
%TF.FileFunction,Legend,Top*%
%FSLAX46Y46*%
G04 Gerber Fmt 4.6, Leading zero omitted, Abs format (unit mm)*
G04 Created by KiCad (PCBNEW 4.0.7-e2-6376~58~ubuntu16.04.1) date Mon Mar 12 18:00:00 2018*
%MOMM*%
%LPD*%
G01*
G04 APERTURE LIST*
%ADD10C,0.127000*%
%ADD11C,0.120000*%
%ADD12C,0.152400*%
%ADD13C,0.150000*%
%ADD14C,0.203200*%
%ADD15C,0.010000*%
G04 APERTURE END LIST*
D10*
X145267486Y-80900629D02*
X145467486Y-81500629D01*
X145667486Y-80900629D01*
X146124629Y-81100629D02*
X146124629Y-81500629D01*
X145867486Y-81100629D02*
X145867486Y-81414914D01*
X145896058Y-81472057D01*
X145953200Y-81500629D01*
X146038915Y-81500629D01*
X146096058Y-81472057D01*
X146124629Y-81443486D01*
X146381772Y-81472057D02*
X146438915Y-81500629D01*
X146553200Y-81500629D01*
X146610343Y-81472057D01*
X146638915Y-81414914D01*
X146638915Y-81386343D01*
X146610343Y-81329200D01*
X146553200Y-81300629D01*
X146467486Y-81300629D01*
X146410343Y-81272057D01*
X146381772Y-81214914D01*
X146381772Y-81186343D01*
X146410343Y-81129200D01*
X146467486Y-81100629D01*
X146553200Y-81100629D01*
X146610343Y-81129200D01*
X146896057Y-81500629D02*
X146896057Y-80900629D01*
X146896057Y-81129200D02*
X146953200Y-81100629D01*
X147067486Y-81100629D01*
X147124629Y-81129200D01*
X147153200Y-81157771D01*
X147181771Y-81214914D01*
X147181771Y-81386343D01*
X147153200Y-81443486D01*
X147124629Y-81472057D01*
X147067486Y-81500629D01*
X146953200Y-81500629D01*
X146896057Y-81472057D01*
X145724629Y-82465829D02*
X145724629Y-81865829D01*
X145867486Y-81865829D01*
X145953201Y-81894400D01*
X146010343Y-81951543D01*
X146038915Y-82008686D01*
X146067486Y-82122971D01*
X146067486Y-82208686D01*
X146038915Y-82322971D01*
X146010343Y-82380114D01*
X145953201Y-82437257D01*
X145867486Y-82465829D01*
X145724629Y-82465829D01*
X146324629Y-82237257D02*
X146781772Y-82237257D01*
X145673829Y-94861029D02*
X145673829Y-94261029D01*
X145816686Y-94261029D01*
X145902401Y-94289600D01*
X145959543Y-94346743D01*
X145988115Y-94403886D01*
X146016686Y-94518171D01*
X146016686Y-94603886D01*
X145988115Y-94718171D01*
X145959543Y-94775314D01*
X145902401Y-94832457D01*
X145816686Y-94861029D01*
X145673829Y-94861029D01*
X146273829Y-94632457D02*
X146730972Y-94632457D01*
X146502401Y-94861029D02*
X146502401Y-94403886D01*
X145745258Y-95356400D02*
X145688115Y-95327829D01*
X145602401Y-95327829D01*
X145516686Y-95356400D01*
X145459544Y-95413543D01*
X145430972Y-95470686D01*
X145402401Y-95584971D01*
X145402401Y-95670686D01*
X145430972Y-95784971D01*
X145459544Y-95842114D01*
X145516686Y-95899257D01*
X145602401Y-95927829D01*
X145659544Y-95927829D01*
X145745258Y-95899257D01*
X145773829Y-95870686D01*
X145773829Y-95670686D01*
X145659544Y-95670686D01*
X146030972Y-95927829D02*
X146030972Y-95327829D01*
X146373829Y-95927829D01*
X146373829Y-95327829D01*
X146659543Y-95927829D02*
X146659543Y-95327829D01*
X146802400Y-95327829D01*
X146888115Y-95356400D01*
X146945257Y-95413543D01*
X146973829Y-95470686D01*
X147002400Y-95584971D01*
X147002400Y-95670686D01*
X146973829Y-95784971D01*
X146945257Y-95842114D01*
X146888115Y-95899257D01*
X146802400Y-95927829D01*
X146659543Y-95927829D01*
X143637000Y-54991000D02*
X143637000Y-56769000D01*
X181864000Y-54991000D02*
X143637000Y-54991000D01*
X181864000Y-56769000D02*
X181864000Y-54991000D01*
X143637000Y-56769000D02*
X143637000Y-60833000D01*
X181864000Y-58166000D02*
X181864000Y-56769000D01*
X181864000Y-60833000D02*
X181864000Y-58166000D01*
X201041000Y-60833000D02*
X181864000Y-60833000D01*
X148690143Y-82040429D02*
X148833000Y-82440429D01*
X148975858Y-82040429D01*
X149204429Y-81840429D02*
X149204429Y-82326143D01*
X149233001Y-82383286D01*
X149261572Y-82411857D01*
X149318715Y-82440429D01*
X149433001Y-82440429D01*
X149490143Y-82411857D01*
X149518715Y-82383286D01*
X149547286Y-82326143D01*
X149547286Y-81840429D01*
X149804429Y-82411857D02*
X149890143Y-82440429D01*
X150033000Y-82440429D01*
X150090143Y-82411857D01*
X150118714Y-82383286D01*
X150147286Y-82326143D01*
X150147286Y-82269000D01*
X150118714Y-82211857D01*
X150090143Y-82183286D01*
X150033000Y-82154714D01*
X149918714Y-82126143D01*
X149861572Y-82097571D01*
X149833000Y-82069000D01*
X149804429Y-82011857D01*
X149804429Y-81954714D01*
X149833000Y-81897571D01*
X149861572Y-81869000D01*
X149918714Y-81840429D01*
X150061572Y-81840429D01*
X150147286Y-81869000D01*
X150604429Y-82126143D02*
X150690143Y-82154714D01*
X150718715Y-82183286D01*
X150747286Y-82240429D01*
X150747286Y-82326143D01*
X150718715Y-82383286D01*
X150690143Y-82411857D01*
X150633001Y-82440429D01*
X150404429Y-82440429D01*
X150404429Y-81840429D01*
X150604429Y-81840429D01*
X150661572Y-81869000D01*
X150690143Y-81897571D01*
X150718715Y-81954714D01*
X150718715Y-82011857D01*
X150690143Y-82069000D01*
X150661572Y-82097571D01*
X150604429Y-82126143D01*
X150404429Y-82126143D01*
X154297191Y-68794381D02*
X154630524Y-69794381D01*
X154963858Y-68794381D01*
X155297191Y-69794381D02*
X155297191Y-69127714D01*
X155297191Y-68794381D02*
X155249572Y-68842000D01*
X155297191Y-68889619D01*
X155344810Y-68842000D01*
X155297191Y-68794381D01*
X155297191Y-68889619D01*
X155773381Y-69127714D02*
X155773381Y-69794381D01*
X155773381Y-69222952D02*
X155821000Y-69175333D01*
X155916238Y-69127714D01*
X156059096Y-69127714D01*
X156154334Y-69175333D01*
X156201953Y-69270571D01*
X156201953Y-69794381D01*
X154940096Y-62746000D02*
X154844858Y-62698381D01*
X154702001Y-62698381D01*
X154559143Y-62746000D01*
X154463905Y-62841238D01*
X154416286Y-62936476D01*
X154368667Y-63126952D01*
X154368667Y-63269810D01*
X154416286Y-63460286D01*
X154463905Y-63555524D01*
X154559143Y-63650762D01*
X154702001Y-63698381D01*
X154797239Y-63698381D01*
X154940096Y-63650762D01*
X154987715Y-63603143D01*
X154987715Y-63269810D01*
X154797239Y-63269810D01*
X155416286Y-63698381D02*
X155416286Y-62698381D01*
X155987715Y-63698381D01*
X155987715Y-62698381D01*
X156463905Y-63698381D02*
X156463905Y-62698381D01*
X156702000Y-62698381D01*
X156844858Y-62746000D01*
X156940096Y-62841238D01*
X156987715Y-62936476D01*
X157035334Y-63126952D01*
X157035334Y-63269810D01*
X156987715Y-63460286D01*
X156940096Y-63555524D01*
X156844858Y-63650762D01*
X156702000Y-63698381D01*
X156463905Y-63698381D01*
X143637000Y-108077000D02*
X143637000Y-60833000D01*
X205232000Y-108077000D02*
X143637000Y-108077000D01*
X205232000Y-60833000D02*
X205232000Y-108077000D01*
X201041000Y-60833000D02*
X205232000Y-60833000D01*
D11*
X159637000Y-78415000D02*
X159637000Y-77485000D01*
X159637000Y-75255000D02*
X159637000Y-76185000D01*
X159637000Y-75255000D02*
X157477000Y-75255000D01*
X159637000Y-78415000D02*
X158177000Y-78415000D01*
D12*
X183642000Y-78232000D02*
X183642000Y-78994000D01*
X183642000Y-78994000D02*
X199644000Y-78994000D01*
X199644000Y-78994000D02*
X199644000Y-78232000D01*
D13*
X158969000Y-80885000D02*
X157769000Y-80885000D01*
X157769000Y-79135000D02*
X158969000Y-79135000D01*
D11*
X191127000Y-88431000D02*
X190127000Y-88431000D01*
X190127000Y-90131000D02*
X191127000Y-90131000D01*
X151138000Y-95973000D02*
X152138000Y-95973000D01*
X152138000Y-94273000D02*
X151138000Y-94273000D01*
X152869000Y-87495000D02*
X152869000Y-86495000D01*
X151169000Y-86495000D02*
X151169000Y-87495000D01*
X166870000Y-90082000D02*
X165870000Y-90082000D01*
X165870000Y-91782000D02*
X166870000Y-91782000D01*
X195572000Y-89066000D02*
X194572000Y-89066000D01*
X194572000Y-90766000D02*
X195572000Y-90766000D01*
X156236000Y-76934000D02*
G75*
G03X156236000Y-76934000I-4090000J0D01*
G01*
X156196000Y-76934000D02*
X148096000Y-76934000D01*
X156196000Y-76974000D02*
X148096000Y-76974000D01*
X156196000Y-77014000D02*
X148096000Y-77014000D01*
X156195000Y-77054000D02*
X148097000Y-77054000D01*
X156193000Y-77094000D02*
X148099000Y-77094000D01*
X156192000Y-77134000D02*
X148100000Y-77134000D01*
X156189000Y-77174000D02*
X148103000Y-77174000D01*
X156187000Y-77214000D02*
X148105000Y-77214000D01*
X156184000Y-77254000D02*
X148108000Y-77254000D01*
X156181000Y-77294000D02*
X148111000Y-77294000D01*
X156177000Y-77334000D02*
X148115000Y-77334000D01*
X156173000Y-77374000D02*
X148119000Y-77374000D01*
X156168000Y-77414000D02*
X148124000Y-77414000D01*
X156163000Y-77454000D02*
X148129000Y-77454000D01*
X156158000Y-77494000D02*
X148134000Y-77494000D01*
X156152000Y-77534000D02*
X148140000Y-77534000D01*
X156146000Y-77574000D02*
X148146000Y-77574000D01*
X156140000Y-77614000D02*
X148152000Y-77614000D01*
X156133000Y-77655000D02*
X148159000Y-77655000D01*
X156125000Y-77695000D02*
X148167000Y-77695000D01*
X156117000Y-77735000D02*
X153126000Y-77735000D01*
X151166000Y-77735000D02*
X148175000Y-77735000D01*
X156109000Y-77775000D02*
X153126000Y-77775000D01*
X151166000Y-77775000D02*
X148183000Y-77775000D01*
X156101000Y-77815000D02*
X153126000Y-77815000D01*
X151166000Y-77815000D02*
X148191000Y-77815000D01*
X156092000Y-77855000D02*
X153126000Y-77855000D01*
X151166000Y-77855000D02*
X148200000Y-77855000D01*
X156082000Y-77895000D02*
X153126000Y-77895000D01*
X151166000Y-77895000D02*
X148210000Y-77895000D01*
X156072000Y-77935000D02*
X153126000Y-77935000D01*
X151166000Y-77935000D02*
X148220000Y-77935000D01*
X156062000Y-77975000D02*
X153126000Y-77975000D01*
X151166000Y-77975000D02*
X148230000Y-77975000D01*
X156051000Y-78015000D02*
X153126000Y-78015000D01*
X151166000Y-78015000D02*
X148241000Y-78015000D01*
X156040000Y-78055000D02*
X153126000Y-78055000D01*
X151166000Y-78055000D02*
X148252000Y-78055000D01*
X156029000Y-78095000D02*
X153126000Y-78095000D01*
X151166000Y-78095000D02*
X148263000Y-78095000D01*
X156016000Y-78135000D02*
X153126000Y-78135000D01*
X151166000Y-78135000D02*
X148276000Y-78135000D01*
X156004000Y-78175000D02*
X153126000Y-78175000D01*
X151166000Y-78175000D02*
X148288000Y-78175000D01*
X155991000Y-78215000D02*
X153126000Y-78215000D01*
X151166000Y-78215000D02*
X148301000Y-78215000D01*
X155978000Y-78255000D02*
X153126000Y-78255000D01*
X151166000Y-78255000D02*
X148314000Y-78255000D01*
X155964000Y-78295000D02*
X153126000Y-78295000D01*
X151166000Y-78295000D02*
X148328000Y-78295000D01*
X155949000Y-78335000D02*
X153126000Y-78335000D01*
X151166000Y-78335000D02*
X148343000Y-78335000D01*
X155935000Y-78375000D02*
X153126000Y-78375000D01*
X151166000Y-78375000D02*
X148357000Y-78375000D01*
X155919000Y-78415000D02*
X153126000Y-78415000D01*
X151166000Y-78415000D02*
X148373000Y-78415000D01*
X155904000Y-78455000D02*
X153126000Y-78455000D01*
X151166000Y-78455000D02*
X148388000Y-78455000D01*
X155887000Y-78495000D02*
X153126000Y-78495000D01*
X151166000Y-78495000D02*
X148405000Y-78495000D01*
X155871000Y-78535000D02*
X153126000Y-78535000D01*
X151166000Y-78535000D02*
X148421000Y-78535000D01*
X155853000Y-78575000D02*
X153126000Y-78575000D01*
X151166000Y-78575000D02*
X148439000Y-78575000D01*
X155836000Y-78615000D02*
X153126000Y-78615000D01*
X151166000Y-78615000D02*
X148456000Y-78615000D01*
X155817000Y-78655000D02*
X153126000Y-78655000D01*
X151166000Y-78655000D02*
X148475000Y-78655000D01*
X155798000Y-78695000D02*
X153126000Y-78695000D01*
X151166000Y-78695000D02*
X148494000Y-78695000D01*
X155779000Y-78735000D02*
X153126000Y-78735000D01*
X151166000Y-78735000D02*
X148513000Y-78735000D01*
X155759000Y-78775000D02*
X153126000Y-78775000D01*
X151166000Y-78775000D02*
X148533000Y-78775000D01*
X155739000Y-78815000D02*
X153126000Y-78815000D01*
X151166000Y-78815000D02*
X148553000Y-78815000D01*
X155718000Y-78855000D02*
X153126000Y-78855000D01*
X151166000Y-78855000D02*
X148574000Y-78855000D01*
X155696000Y-78895000D02*
X153126000Y-78895000D01*
X151166000Y-78895000D02*
X148596000Y-78895000D01*
X155674000Y-78935000D02*
X153126000Y-78935000D01*
X151166000Y-78935000D02*
X148618000Y-78935000D01*
X155651000Y-78975000D02*
X153126000Y-78975000D01*
X151166000Y-78975000D02*
X148641000Y-78975000D01*
X155628000Y-79015000D02*
X153126000Y-79015000D01*
X151166000Y-79015000D02*
X148664000Y-79015000D01*
X155604000Y-79055000D02*
X153126000Y-79055000D01*
X151166000Y-79055000D02*
X148688000Y-79055000D01*
X155580000Y-79095000D02*
X153126000Y-79095000D01*
X151166000Y-79095000D02*
X148712000Y-79095000D01*
X155554000Y-79135000D02*
X153126000Y-79135000D01*
X151166000Y-79135000D02*
X148738000Y-79135000D01*
X155529000Y-79175000D02*
X153126000Y-79175000D01*
X151166000Y-79175000D02*
X148763000Y-79175000D01*
X155502000Y-79215000D02*
X153126000Y-79215000D01*
X151166000Y-79215000D02*
X148790000Y-79215000D01*
X155475000Y-79255000D02*
X153126000Y-79255000D01*
X151166000Y-79255000D02*
X148817000Y-79255000D01*
X155447000Y-79295000D02*
X153126000Y-79295000D01*
X151166000Y-79295000D02*
X148845000Y-79295000D01*
X155418000Y-79335000D02*
X153126000Y-79335000D01*
X151166000Y-79335000D02*
X148874000Y-79335000D01*
X155389000Y-79375000D02*
X153126000Y-79375000D01*
X151166000Y-79375000D02*
X148903000Y-79375000D01*
X155359000Y-79415000D02*
X153126000Y-79415000D01*
X151166000Y-79415000D02*
X148933000Y-79415000D01*
X155328000Y-79455000D02*
X153126000Y-79455000D01*
X151166000Y-79455000D02*
X148964000Y-79455000D01*
X155296000Y-79495000D02*
X153126000Y-79495000D01*
X151166000Y-79495000D02*
X148996000Y-79495000D01*
X155264000Y-79535000D02*
X153126000Y-79535000D01*
X151166000Y-79535000D02*
X149028000Y-79535000D01*
X155230000Y-79575000D02*
X153126000Y-79575000D01*
X151166000Y-79575000D02*
X149062000Y-79575000D01*
X155196000Y-79615000D02*
X153126000Y-79615000D01*
X151166000Y-79615000D02*
X149096000Y-79615000D01*
X155161000Y-79655000D02*
X153126000Y-79655000D01*
X151166000Y-79655000D02*
X149131000Y-79655000D01*
X155125000Y-79695000D02*
X149167000Y-79695000D01*
X155088000Y-79735000D02*
X149204000Y-79735000D01*
X155050000Y-79775000D02*
X149242000Y-79775000D01*
X155011000Y-79815000D02*
X149281000Y-79815000D01*
X154970000Y-79855000D02*
X149322000Y-79855000D01*
X154929000Y-79895000D02*
X149363000Y-79895000D01*
X154886000Y-79935000D02*
X149406000Y-79935000D01*
X154843000Y-79975000D02*
X149449000Y-79975000D01*
X154798000Y-80015000D02*
X149494000Y-80015000D01*
X154751000Y-80055000D02*
X149541000Y-80055000D01*
X154703000Y-80095000D02*
X149589000Y-80095000D01*
X154654000Y-80135000D02*
X149638000Y-80135000D01*
X154603000Y-80175000D02*
X149689000Y-80175000D01*
X154550000Y-80215000D02*
X149742000Y-80215000D01*
X154495000Y-80255000D02*
X149797000Y-80255000D01*
X154439000Y-80295000D02*
X149853000Y-80295000D01*
X154380000Y-80335000D02*
X149912000Y-80335000D01*
X154319000Y-80375000D02*
X149973000Y-80375000D01*
X154255000Y-80415000D02*
X150037000Y-80415000D01*
X154189000Y-80455000D02*
X150103000Y-80455000D01*
X154120000Y-80495000D02*
X150172000Y-80495000D01*
X154048000Y-80535000D02*
X150244000Y-80535000D01*
X153972000Y-80575000D02*
X150320000Y-80575000D01*
X153891000Y-80615000D02*
X150401000Y-80615000D01*
X153806000Y-80655000D02*
X150486000Y-80655000D01*
X153716000Y-80695000D02*
X150576000Y-80695000D01*
X153619000Y-80735000D02*
X150673000Y-80735000D01*
X153515000Y-80775000D02*
X150777000Y-80775000D01*
X153400000Y-80815000D02*
X150892000Y-80815000D01*
X153273000Y-80855000D02*
X151019000Y-80855000D01*
X153129000Y-80895000D02*
X151163000Y-80895000D01*
X152960000Y-80935000D02*
X151332000Y-80935000D01*
X152744000Y-80975000D02*
X151548000Y-80975000D01*
X152392000Y-81015000D02*
X151900000Y-81015000D01*
X152146000Y-72984000D02*
X152146000Y-74184000D01*
X152796000Y-73584000D02*
X151496000Y-73584000D01*
X195572000Y-83986000D02*
X194572000Y-83986000D01*
X194572000Y-85686000D02*
X195572000Y-85686000D01*
X195572000Y-86526000D02*
X194572000Y-86526000D01*
X194572000Y-88226000D02*
X195572000Y-88226000D01*
X187657000Y-89519000D02*
X187657000Y-87519000D01*
X184707000Y-87519000D02*
X184707000Y-89519000D01*
X179078000Y-68668000D02*
X180078000Y-68668000D01*
X180078000Y-66968000D02*
X179078000Y-66968000D01*
X183283000Y-90235000D02*
X183283000Y-88835000D01*
X183283000Y-88835000D02*
X180483000Y-88835000D01*
X183283000Y-90235000D02*
X180483000Y-90235000D01*
D13*
X144744000Y-66127000D02*
X144244000Y-66127000D01*
X150744000Y-68627000D02*
G75*
G03X150744000Y-68627000I-2000000J0D01*
G01*
X150744000Y-63627000D02*
G75*
G03X150744000Y-63627000I-2000000J0D01*
G01*
X146244000Y-61127000D02*
X146244000Y-71127000D01*
X151144000Y-61127000D02*
X151144000Y-71127000D01*
X144744000Y-61127000D02*
X144744000Y-71127000D01*
X144244000Y-61127000D02*
X144244000Y-71127000D01*
X144244000Y-71127000D02*
X154044000Y-71127000D01*
X154044000Y-71127000D02*
X154044000Y-61127000D01*
X154044000Y-61127000D02*
X144244000Y-61127000D01*
D11*
X147564000Y-93592000D02*
X147564000Y-90932000D01*
X147564000Y-90932000D02*
X144824000Y-90932000D01*
X144824000Y-90932000D02*
X144824000Y-93592000D01*
X144824000Y-93592000D02*
X147564000Y-93592000D01*
X144824000Y-92642000D02*
X144824000Y-91762000D01*
X144824000Y-91762000D02*
X138824000Y-91762000D01*
X138824000Y-91762000D02*
X138824000Y-92642000D01*
X138824000Y-92642000D02*
X144824000Y-92642000D01*
X147874000Y-92642000D02*
X147564000Y-92642000D01*
X147874000Y-91762000D02*
X147564000Y-91762000D01*
X144824000Y-92522000D02*
X138824000Y-92522000D01*
X144824000Y-92402000D02*
X138824000Y-92402000D01*
X144824000Y-92282000D02*
X138824000Y-92282000D01*
X144824000Y-92162000D02*
X138824000Y-92162000D01*
X144824000Y-92042000D02*
X138824000Y-92042000D01*
X144824000Y-91922000D02*
X138824000Y-91922000D01*
X144824000Y-91802000D02*
X138824000Y-91802000D01*
X147564000Y-90932000D02*
X147564000Y-88392000D01*
X147564000Y-88392000D02*
X144824000Y-88392000D01*
X144824000Y-88392000D02*
X144824000Y-90932000D01*
X144824000Y-90932000D02*
X147564000Y-90932000D01*
X144824000Y-90102000D02*
X144824000Y-89222000D01*
X144824000Y-89222000D02*
X138824000Y-89222000D01*
X138824000Y-89222000D02*
X138824000Y-90102000D01*
X138824000Y-90102000D02*
X144824000Y-90102000D01*
X147874000Y-90102000D02*
X147564000Y-90102000D01*
X147874000Y-89222000D02*
X147564000Y-89222000D01*
X147564000Y-88392000D02*
X147564000Y-85852000D01*
X147564000Y-85852000D02*
X144824000Y-85852000D01*
X144824000Y-85852000D02*
X144824000Y-88392000D01*
X144824000Y-88392000D02*
X147564000Y-88392000D01*
X144824000Y-87562000D02*
X144824000Y-86682000D01*
X144824000Y-86682000D02*
X138824000Y-86682000D01*
X138824000Y-86682000D02*
X138824000Y-87562000D01*
X138824000Y-87562000D02*
X144824000Y-87562000D01*
X147874000Y-87562000D02*
X147564000Y-87562000D01*
X147874000Y-86682000D02*
X147564000Y-86682000D01*
X147564000Y-85852000D02*
X147564000Y-83192000D01*
X147564000Y-83192000D02*
X144824000Y-83192000D01*
X144824000Y-83192000D02*
X144824000Y-85852000D01*
X144824000Y-85852000D02*
X147564000Y-85852000D01*
X144824000Y-85022000D02*
X144824000Y-84142000D01*
X144824000Y-84142000D02*
X138824000Y-84142000D01*
X138824000Y-84142000D02*
X138824000Y-85022000D01*
X138824000Y-85022000D02*
X144824000Y-85022000D01*
X147874000Y-85022000D02*
X147564000Y-85022000D01*
X147874000Y-84142000D02*
X147564000Y-84142000D01*
X150114000Y-92202000D02*
X150114000Y-93472000D01*
X150114000Y-93472000D02*
X148844000Y-93472000D01*
X161927000Y-75255000D02*
X161927000Y-76185000D01*
X161927000Y-78415000D02*
X161927000Y-77485000D01*
X161927000Y-78415000D02*
X164087000Y-78415000D01*
X161927000Y-75255000D02*
X163387000Y-75255000D01*
D13*
X168240000Y-84822000D02*
X167040000Y-84822000D01*
X167040000Y-83072000D02*
X168240000Y-83072000D01*
X168240000Y-87362000D02*
X167040000Y-87362000D01*
X167040000Y-85612000D02*
X168240000Y-85612000D01*
X174025000Y-94121000D02*
X175225000Y-94121000D01*
X175225000Y-95871000D02*
X174025000Y-95871000D01*
X163287000Y-74662000D02*
X162087000Y-74662000D01*
X162087000Y-72912000D02*
X163287000Y-72912000D01*
X167097000Y-93839000D02*
X165897000Y-93839000D01*
X165897000Y-92089000D02*
X167097000Y-92089000D01*
X165643000Y-72912000D02*
X166843000Y-72912000D01*
X166843000Y-74662000D02*
X165643000Y-74662000D01*
X179105000Y-64657000D02*
X180305000Y-64657000D01*
X180305000Y-66407000D02*
X179105000Y-66407000D01*
X198134000Y-82896000D02*
X198134000Y-81696000D01*
X199884000Y-81696000D02*
X199884000Y-82896000D01*
X200752000Y-95871000D02*
X199552000Y-95871000D01*
X199552000Y-94121000D02*
X200752000Y-94121000D01*
X191989000Y-95871000D02*
X190789000Y-95871000D01*
X190789000Y-94121000D02*
X191989000Y-94121000D01*
X183607000Y-95871000D02*
X182407000Y-95871000D01*
X182407000Y-94121000D02*
X183607000Y-94121000D01*
X167097000Y-95998000D02*
X165897000Y-95998000D01*
X165897000Y-94248000D02*
X167097000Y-94248000D01*
X182083000Y-85838000D02*
X180883000Y-85838000D01*
X180883000Y-84088000D02*
X182083000Y-84088000D01*
X186782000Y-85711000D02*
X185582000Y-85711000D01*
X185582000Y-83961000D02*
X186782000Y-83961000D01*
X180883000Y-86501000D02*
X182083000Y-86501000D01*
X182083000Y-88251000D02*
X180883000Y-88251000D01*
X178978000Y-69229000D02*
X180178000Y-69229000D01*
X180178000Y-70979000D02*
X178978000Y-70979000D01*
X162087000Y-79135000D02*
X163287000Y-79135000D01*
X163287000Y-80885000D02*
X162087000Y-80885000D01*
X179105000Y-62498000D02*
X180305000Y-62498000D01*
X180305000Y-64248000D02*
X179105000Y-64248000D01*
X177941000Y-76419000D02*
X177941000Y-75219000D01*
X179691000Y-75219000D02*
X179691000Y-76419000D01*
D11*
X189727000Y-87335000D02*
X191527000Y-87335000D01*
X191527000Y-84115000D02*
X189077000Y-84115000D01*
D13*
X153416000Y-85852000D02*
X154178000Y-85852000D01*
X154178000Y-85852000D02*
X154178000Y-87376000D01*
X154178000Y-87376000D02*
X153416000Y-87376000D01*
X164592000Y-84328000D02*
X164592000Y-88900000D01*
X164592000Y-88900000D02*
X153416000Y-88900000D01*
X153416000Y-88900000D02*
X153416000Y-84328000D01*
X153416000Y-84328000D02*
X164592000Y-84328000D01*
X161798000Y-95885000D02*
G75*
G03X161798000Y-91313000I0J2286000D01*
G01*
X156210000Y-91313000D02*
G75*
G03X156210000Y-95885000I0J-2286000D01*
G01*
X156210000Y-95885000D02*
X161798000Y-95885000D01*
X156210000Y-91313000D02*
X161798000Y-91313000D01*
D11*
X147029000Y-106817000D02*
X152979000Y-106817000D01*
X152979000Y-106817000D02*
X152979000Y-96717000D01*
X152979000Y-96717000D02*
X147029000Y-96717000D01*
X147029000Y-96717000D02*
X147029000Y-106817000D01*
X147029000Y-103517000D02*
X147779000Y-103517000D01*
X147779000Y-103517000D02*
X147779000Y-100017000D01*
X147779000Y-100017000D02*
X147029000Y-100017000D01*
X147029000Y-100017000D02*
X147029000Y-103517000D01*
X147029000Y-106817000D02*
X147779000Y-106817000D01*
X147779000Y-106817000D02*
X147779000Y-105017000D01*
X147779000Y-105017000D02*
X147029000Y-105017000D01*
X147029000Y-105017000D02*
X147029000Y-106817000D01*
X147029000Y-98517000D02*
X147779000Y-98517000D01*
X147779000Y-98517000D02*
X147779000Y-96717000D01*
X147779000Y-96717000D02*
X147029000Y-96717000D01*
X147029000Y-96717000D02*
X147029000Y-98517000D01*
X149279000Y-106817000D02*
X149279000Y-106067000D01*
X149279000Y-106067000D02*
X152229000Y-106067000D01*
X152229000Y-106067000D02*
X152229000Y-101767000D01*
X149279000Y-96717000D02*
X149279000Y-97467000D01*
X149279000Y-97467000D02*
X152229000Y-97467000D01*
X152229000Y-97467000D02*
X152229000Y-101767000D01*
X146729000Y-104617000D02*
X146729000Y-107117000D01*
X146729000Y-107117000D02*
X149229000Y-107117000D01*
X155538000Y-106817000D02*
X161488000Y-106817000D01*
X161488000Y-106817000D02*
X161488000Y-96717000D01*
X161488000Y-96717000D02*
X155538000Y-96717000D01*
X155538000Y-96717000D02*
X155538000Y-106817000D01*
X155538000Y-103517000D02*
X156288000Y-103517000D01*
X156288000Y-103517000D02*
X156288000Y-100017000D01*
X156288000Y-100017000D02*
X155538000Y-100017000D01*
X155538000Y-100017000D02*
X155538000Y-103517000D01*
X155538000Y-106817000D02*
X156288000Y-106817000D01*
X156288000Y-106817000D02*
X156288000Y-105017000D01*
X156288000Y-105017000D02*
X155538000Y-105017000D01*
X155538000Y-105017000D02*
X155538000Y-106817000D01*
X155538000Y-98517000D02*
X156288000Y-98517000D01*
X156288000Y-98517000D02*
X156288000Y-96717000D01*
X156288000Y-96717000D02*
X155538000Y-96717000D01*
X155538000Y-96717000D02*
X155538000Y-98517000D01*
X157788000Y-106817000D02*
X157788000Y-106067000D01*
X157788000Y-106067000D02*
X160738000Y-106067000D01*
X160738000Y-106067000D02*
X160738000Y-101767000D01*
X157788000Y-96717000D02*
X157788000Y-97467000D01*
X157788000Y-97467000D02*
X160738000Y-97467000D01*
X160738000Y-97467000D02*
X160738000Y-101767000D01*
X155238000Y-104617000D02*
X155238000Y-107117000D01*
X155238000Y-107117000D02*
X157738000Y-107117000D01*
X197702000Y-106817000D02*
X203652000Y-106817000D01*
X203652000Y-106817000D02*
X203652000Y-96717000D01*
X203652000Y-96717000D02*
X197702000Y-96717000D01*
X197702000Y-96717000D02*
X197702000Y-106817000D01*
X197702000Y-103517000D02*
X198452000Y-103517000D01*
X198452000Y-103517000D02*
X198452000Y-100017000D01*
X198452000Y-100017000D02*
X197702000Y-100017000D01*
X197702000Y-100017000D02*
X197702000Y-103517000D01*
X197702000Y-106817000D02*
X198452000Y-106817000D01*
X198452000Y-106817000D02*
X198452000Y-105017000D01*
X198452000Y-105017000D02*
X197702000Y-105017000D01*
X197702000Y-105017000D02*
X197702000Y-106817000D01*
X197702000Y-98517000D02*
X198452000Y-98517000D01*
X198452000Y-98517000D02*
X198452000Y-96717000D01*
X198452000Y-96717000D02*
X197702000Y-96717000D01*
X197702000Y-96717000D02*
X197702000Y-98517000D01*
X199952000Y-106817000D02*
X199952000Y-106067000D01*
X199952000Y-106067000D02*
X202902000Y-106067000D01*
X202902000Y-106067000D02*
X202902000Y-101767000D01*
X199952000Y-96717000D02*
X199952000Y-97467000D01*
X199952000Y-97467000D02*
X202902000Y-97467000D01*
X202902000Y-97467000D02*
X202902000Y-101767000D01*
X197402000Y-104617000D02*
X197402000Y-107117000D01*
X197402000Y-107117000D02*
X199902000Y-107117000D01*
X188939000Y-106817000D02*
X194889000Y-106817000D01*
X194889000Y-106817000D02*
X194889000Y-96717000D01*
X194889000Y-96717000D02*
X188939000Y-96717000D01*
X188939000Y-96717000D02*
X188939000Y-106817000D01*
X188939000Y-103517000D02*
X189689000Y-103517000D01*
X189689000Y-103517000D02*
X189689000Y-100017000D01*
X189689000Y-100017000D02*
X188939000Y-100017000D01*
X188939000Y-100017000D02*
X188939000Y-103517000D01*
X188939000Y-106817000D02*
X189689000Y-106817000D01*
X189689000Y-106817000D02*
X189689000Y-105017000D01*
X189689000Y-105017000D02*
X188939000Y-105017000D01*
X188939000Y-105017000D02*
X188939000Y-106817000D01*
X188939000Y-98517000D02*
X189689000Y-98517000D01*
X189689000Y-98517000D02*
X189689000Y-96717000D01*
X189689000Y-96717000D02*
X188939000Y-96717000D01*
X188939000Y-96717000D02*
X188939000Y-98517000D01*
X191189000Y-106817000D02*
X191189000Y-106067000D01*
X191189000Y-106067000D02*
X194139000Y-106067000D01*
X194139000Y-106067000D02*
X194139000Y-101767000D01*
X191189000Y-96717000D02*
X191189000Y-97467000D01*
X191189000Y-97467000D02*
X194139000Y-97467000D01*
X194139000Y-97467000D02*
X194139000Y-101767000D01*
X188639000Y-104617000D02*
X188639000Y-107117000D01*
X188639000Y-107117000D02*
X191139000Y-107117000D01*
X180557000Y-106817000D02*
X186507000Y-106817000D01*
X186507000Y-106817000D02*
X186507000Y-96717000D01*
X186507000Y-96717000D02*
X180557000Y-96717000D01*
X180557000Y-96717000D02*
X180557000Y-106817000D01*
X180557000Y-103517000D02*
X181307000Y-103517000D01*
X181307000Y-103517000D02*
X181307000Y-100017000D01*
X181307000Y-100017000D02*
X180557000Y-100017000D01*
X180557000Y-100017000D02*
X180557000Y-103517000D01*
X180557000Y-106817000D02*
X181307000Y-106817000D01*
X181307000Y-106817000D02*
X181307000Y-105017000D01*
X181307000Y-105017000D02*
X180557000Y-105017000D01*
X180557000Y-105017000D02*
X180557000Y-106817000D01*
X180557000Y-98517000D02*
X181307000Y-98517000D01*
X181307000Y-98517000D02*
X181307000Y-96717000D01*
X181307000Y-96717000D02*
X180557000Y-96717000D01*
X180557000Y-96717000D02*
X180557000Y-98517000D01*
X182807000Y-106817000D02*
X182807000Y-106067000D01*
X182807000Y-106067000D02*
X185757000Y-106067000D01*
X185757000Y-106067000D02*
X185757000Y-101767000D01*
X182807000Y-96717000D02*
X182807000Y-97467000D01*
X182807000Y-97467000D02*
X185757000Y-97467000D01*
X185757000Y-97467000D02*
X185757000Y-101767000D01*
X180257000Y-104617000D02*
X180257000Y-107117000D01*
X180257000Y-107117000D02*
X182757000Y-107117000D01*
X172175000Y-106817000D02*
X178125000Y-106817000D01*
X178125000Y-106817000D02*
X178125000Y-96717000D01*
X178125000Y-96717000D02*
X172175000Y-96717000D01*
X172175000Y-96717000D02*
X172175000Y-106817000D01*
X172175000Y-103517000D02*
X172925000Y-103517000D01*
X172925000Y-103517000D02*
X172925000Y-100017000D01*
X172925000Y-100017000D02*
X172175000Y-100017000D01*
X172175000Y-100017000D02*
X172175000Y-103517000D01*
X172175000Y-106817000D02*
X172925000Y-106817000D01*
X172925000Y-106817000D02*
X172925000Y-105017000D01*
X172925000Y-105017000D02*
X172175000Y-105017000D01*
X172175000Y-105017000D02*
X172175000Y-106817000D01*
X172175000Y-98517000D02*
X172925000Y-98517000D01*
X172925000Y-98517000D02*
X172925000Y-96717000D01*
X172925000Y-96717000D02*
X172175000Y-96717000D01*
X172175000Y-96717000D02*
X172175000Y-98517000D01*
X174425000Y-106817000D02*
X174425000Y-106067000D01*
X174425000Y-106067000D02*
X177375000Y-106067000D01*
X177375000Y-106067000D02*
X177375000Y-101767000D01*
X174425000Y-96717000D02*
X174425000Y-97467000D01*
X174425000Y-97467000D02*
X177375000Y-97467000D01*
X177375000Y-97467000D02*
X177375000Y-101767000D01*
X171875000Y-104617000D02*
X171875000Y-107117000D01*
X171875000Y-107117000D02*
X174375000Y-107117000D01*
X164047000Y-106817000D02*
X169997000Y-106817000D01*
X169997000Y-106817000D02*
X169997000Y-96717000D01*
X169997000Y-96717000D02*
X164047000Y-96717000D01*
X164047000Y-96717000D02*
X164047000Y-106817000D01*
X164047000Y-103517000D02*
X164797000Y-103517000D01*
X164797000Y-103517000D02*
X164797000Y-100017000D01*
X164797000Y-100017000D02*
X164047000Y-100017000D01*
X164047000Y-100017000D02*
X164047000Y-103517000D01*
X164047000Y-106817000D02*
X164797000Y-106817000D01*
X164797000Y-106817000D02*
X164797000Y-105017000D01*
X164797000Y-105017000D02*
X164047000Y-105017000D01*
X164047000Y-105017000D02*
X164047000Y-106817000D01*
X164047000Y-98517000D02*
X164797000Y-98517000D01*
X164797000Y-98517000D02*
X164797000Y-96717000D01*
X164797000Y-96717000D02*
X164047000Y-96717000D01*
X164047000Y-96717000D02*
X164047000Y-98517000D01*
X166297000Y-106817000D02*
X166297000Y-106067000D01*
X166297000Y-106067000D02*
X169247000Y-106067000D01*
X169247000Y-106067000D02*
X169247000Y-101767000D01*
X166297000Y-96717000D02*
X166297000Y-97467000D01*
X166297000Y-97467000D02*
X169247000Y-97467000D01*
X169247000Y-97467000D02*
X169247000Y-101767000D01*
X163747000Y-104617000D02*
X163747000Y-107117000D01*
X163747000Y-107117000D02*
X166247000Y-107117000D01*
X170418000Y-68746000D02*
X174918000Y-68746000D01*
X169168000Y-64746000D02*
X169168000Y-66246000D01*
X174918000Y-62246000D02*
X170418000Y-62246000D01*
X176168000Y-66246000D02*
X176168000Y-64746000D01*
X170418000Y-77763000D02*
X174918000Y-77763000D01*
X169168000Y-73763000D02*
X169168000Y-75263000D01*
X174918000Y-71263000D02*
X170418000Y-71263000D01*
X176168000Y-75263000D02*
X176168000Y-73763000D01*
X155106000Y-66302000D02*
X155106000Y-67302000D01*
X156806000Y-67302000D02*
X156806000Y-66302000D01*
X158504000Y-71970000D02*
X159504000Y-71970000D01*
X159504000Y-70270000D02*
X158504000Y-70270000D01*
X158504000Y-66001000D02*
X159504000Y-66001000D01*
X159504000Y-64301000D02*
X158504000Y-64301000D01*
X155055200Y-58986800D02*
X155055200Y-59986800D01*
X156755200Y-59986800D02*
X156755200Y-58986800D01*
X158402400Y-63283200D02*
X159402400Y-63283200D01*
X159402400Y-61583200D02*
X158402400Y-61583200D01*
X158453200Y-57492000D02*
X159453200Y-57492000D01*
X159453200Y-55792000D02*
X158453200Y-55792000D01*
X163023000Y-66667000D02*
X163023000Y-65667000D01*
X164383000Y-65667000D02*
X164383000Y-66667000D01*
X164383000Y-68080000D02*
X164383000Y-69080000D01*
X163023000Y-69080000D02*
X163023000Y-68080000D01*
X162997600Y-58818400D02*
X162997600Y-57818400D01*
X164357600Y-57818400D02*
X164357600Y-58818400D01*
X164357600Y-60561600D02*
X164357600Y-61561600D01*
X162997600Y-61561600D02*
X162997600Y-60561600D01*
D14*
X148640800Y-56769000D02*
X148005800Y-56134000D01*
X148005800Y-56134000D02*
X146735800Y-56134000D01*
X146735800Y-56134000D02*
X146100800Y-56769000D01*
X146100800Y-56769000D02*
X146100800Y-58039000D01*
X146100800Y-58039000D02*
X146735800Y-58674000D01*
X146735800Y-58674000D02*
X148005800Y-58674000D01*
X148005800Y-58674000D02*
X148640800Y-58039000D01*
X148640800Y-58039000D02*
X148640800Y-56769000D01*
X152450800Y-56769000D02*
X151815800Y-56134000D01*
X151815800Y-56134000D02*
X150545800Y-56134000D01*
X150545800Y-56134000D02*
X149910800Y-56769000D01*
X149910800Y-56769000D02*
X149910800Y-58039000D01*
X149910800Y-58039000D02*
X150545800Y-58674000D01*
X150545800Y-58674000D02*
X151815800Y-58674000D01*
X151815800Y-58674000D02*
X152450800Y-58039000D01*
X152450800Y-58039000D02*
X152450800Y-56769000D01*
D11*
X158104000Y-69809000D02*
X159904000Y-69809000D01*
X159904000Y-66589000D02*
X157454000Y-66589000D01*
X158104000Y-61198400D02*
X159904000Y-61198400D01*
X159904000Y-57978400D02*
X157454000Y-57978400D01*
D15*
G36*
X202323651Y-65990798D02*
X202326118Y-65923141D01*
X202332572Y-65873705D01*
X202348546Y-65842943D01*
X202379576Y-65831304D01*
X202431198Y-65839240D01*
X202508948Y-65867201D01*
X202618360Y-65915638D01*
X202764969Y-65985002D01*
X202869800Y-66035273D01*
X202945460Y-66070915D01*
X203001091Y-66095918D01*
X203022200Y-66104109D01*
X203049994Y-66115044D01*
X203110399Y-66141875D01*
X203187300Y-66177381D01*
X203311561Y-66234081D01*
X203406588Y-66274232D01*
X203465884Y-66295160D01*
X203479400Y-66297596D01*
X203505906Y-66312658D01*
X203536550Y-66337847D01*
X203570088Y-66361090D01*
X203581000Y-66357500D01*
X203596613Y-66356826D01*
X203631800Y-66382900D01*
X203668355Y-66409660D01*
X203682600Y-66408300D01*
X203697957Y-66406676D01*
X203727050Y-66427954D01*
X203766395Y-66459273D01*
X203784200Y-66468205D01*
X203826263Y-66479661D01*
X203906131Y-66511968D01*
X204016739Y-66562159D01*
X204082650Y-66593656D01*
X204160894Y-66629709D01*
X204217593Y-66652229D01*
X204241274Y-66656699D01*
X204241400Y-66656183D01*
X204257207Y-66660033D01*
X204292200Y-66687700D01*
X204328755Y-66714460D01*
X204343000Y-66713100D01*
X204358613Y-66712426D01*
X204393800Y-66738500D01*
X204430355Y-66765260D01*
X204444600Y-66763900D01*
X204460213Y-66763226D01*
X204495400Y-66789300D01*
X204532091Y-66817506D01*
X204546200Y-66819153D01*
X204565457Y-66819561D01*
X204613225Y-66840748D01*
X204628203Y-66848845D01*
X204675179Y-66879015D01*
X204699890Y-66912995D01*
X204709726Y-66967501D01*
X204711862Y-67038122D01*
X204707681Y-67133415D01*
X204691629Y-67184381D01*
X204678366Y-67195077D01*
X204628087Y-67196070D01*
X204613757Y-67189822D01*
X204578406Y-67171367D01*
X204571600Y-67169411D01*
X204548398Y-67160902D01*
X204492821Y-67136466D01*
X204401416Y-67094520D01*
X204270730Y-67033483D01*
X204121198Y-66963054D01*
X204034390Y-66923484D01*
X203966835Y-66895355D01*
X203930147Y-66883419D01*
X203927014Y-66883606D01*
X203903004Y-66873961D01*
X203863066Y-66842514D01*
X203825172Y-66813020D01*
X203809600Y-66810330D01*
X203790295Y-66809691D01*
X203742144Y-66788266D01*
X203723675Y-66778271D01*
X203658054Y-66748773D01*
X203618179Y-66751490D01*
X203609375Y-66758385D01*
X203585120Y-66772159D01*
X203581000Y-66765044D01*
X203565422Y-66763529D01*
X203530200Y-66789300D01*
X203493644Y-66816060D01*
X203479400Y-66814700D01*
X203463786Y-66814026D01*
X203428600Y-66840100D01*
X203392044Y-66866860D01*
X203377800Y-66865500D01*
X203362186Y-66864826D01*
X203327000Y-66890900D01*
X203290444Y-66917660D01*
X203276200Y-66916300D01*
X203260586Y-66915626D01*
X203225400Y-66941700D01*
X203188844Y-66968460D01*
X203174600Y-66967100D01*
X203158986Y-66966426D01*
X203123800Y-66992500D01*
X203087244Y-67019260D01*
X203073000Y-67017900D01*
X203057386Y-67017226D01*
X203022200Y-67043300D01*
X202985619Y-67070326D01*
X202971400Y-67069527D01*
X202955663Y-67067013D01*
X202930737Y-67083527D01*
X202883739Y-67113739D01*
X202860887Y-67121919D01*
X202826584Y-67134489D01*
X202758316Y-67164464D01*
X202667626Y-67206669D01*
X202609866Y-67234437D01*
X202498745Y-67286096D01*
X202423739Y-67314530D01*
X202377103Y-67322148D01*
X202353927Y-67314007D01*
X202333289Y-67270447D01*
X202324283Y-67196337D01*
X202326765Y-67110539D01*
X202340587Y-67031919D01*
X202356419Y-66992130D01*
X202378801Y-66961978D01*
X202386427Y-66964687D01*
X202402629Y-66966731D01*
X202440518Y-66939421D01*
X202440666Y-66939287D01*
X202482308Y-66906479D01*
X202504287Y-66897541D01*
X202525282Y-66895350D01*
X202575585Y-66877140D01*
X202659884Y-66840959D01*
X202782866Y-66784855D01*
X202850354Y-66753395D01*
X202934009Y-66715723D01*
X202998073Y-66689694D01*
X203030430Y-66680175D01*
X203031837Y-66680496D01*
X203055811Y-66670785D01*
X203095733Y-66639314D01*
X203133519Y-66610928D01*
X203149200Y-66610674D01*
X203164811Y-66613583D01*
X203187613Y-66598541D01*
X203211723Y-66562582D01*
X203197877Y-66532743D01*
X203165427Y-66505621D01*
X203153113Y-66503069D01*
X203123294Y-66495226D01*
X203061412Y-66470579D01*
X202984100Y-66435949D01*
X202866172Y-66381739D01*
X202786363Y-66347747D01*
X202737524Y-66331139D01*
X202713716Y-66328793D01*
X202685019Y-66315991D01*
X202643866Y-66283714D01*
X202606080Y-66255328D01*
X202590400Y-66255074D01*
X202574663Y-66257588D01*
X202549737Y-66241074D01*
X202498545Y-66210194D01*
X202472212Y-66201917D01*
X202423780Y-66184441D01*
X202377533Y-66158624D01*
X202342389Y-66127085D01*
X202326120Y-66081920D01*
X202323256Y-66006087D01*
X202323651Y-65990798D01*
X202323651Y-65990798D01*
G37*
X202323651Y-65990798D02*
X202326118Y-65923141D01*
X202332572Y-65873705D01*
X202348546Y-65842943D01*
X202379576Y-65831304D01*
X202431198Y-65839240D01*
X202508948Y-65867201D01*
X202618360Y-65915638D01*
X202764969Y-65985002D01*
X202869800Y-66035273D01*
X202945460Y-66070915D01*
X203001091Y-66095918D01*
X203022200Y-66104109D01*
X203049994Y-66115044D01*
X203110399Y-66141875D01*
X203187300Y-66177381D01*
X203311561Y-66234081D01*
X203406588Y-66274232D01*
X203465884Y-66295160D01*
X203479400Y-66297596D01*
X203505906Y-66312658D01*
X203536550Y-66337847D01*
X203570088Y-66361090D01*
X203581000Y-66357500D01*
X203596613Y-66356826D01*
X203631800Y-66382900D01*
X203668355Y-66409660D01*
X203682600Y-66408300D01*
X203697957Y-66406676D01*
X203727050Y-66427954D01*
X203766395Y-66459273D01*
X203784200Y-66468205D01*
X203826263Y-66479661D01*
X203906131Y-66511968D01*
X204016739Y-66562159D01*
X204082650Y-66593656D01*
X204160894Y-66629709D01*
X204217593Y-66652229D01*
X204241274Y-66656699D01*
X204241400Y-66656183D01*
X204257207Y-66660033D01*
X204292200Y-66687700D01*
X204328755Y-66714460D01*
X204343000Y-66713100D01*
X204358613Y-66712426D01*
X204393800Y-66738500D01*
X204430355Y-66765260D01*
X204444600Y-66763900D01*
X204460213Y-66763226D01*
X204495400Y-66789300D01*
X204532091Y-66817506D01*
X204546200Y-66819153D01*
X204565457Y-66819561D01*
X204613225Y-66840748D01*
X204628203Y-66848845D01*
X204675179Y-66879015D01*
X204699890Y-66912995D01*
X204709726Y-66967501D01*
X204711862Y-67038122D01*
X204707681Y-67133415D01*
X204691629Y-67184381D01*
X204678366Y-67195077D01*
X204628087Y-67196070D01*
X204613757Y-67189822D01*
X204578406Y-67171367D01*
X204571600Y-67169411D01*
X204548398Y-67160902D01*
X204492821Y-67136466D01*
X204401416Y-67094520D01*
X204270730Y-67033483D01*
X204121198Y-66963054D01*
X204034390Y-66923484D01*
X203966835Y-66895355D01*
X203930147Y-66883419D01*
X203927014Y-66883606D01*
X203903004Y-66873961D01*
X203863066Y-66842514D01*
X203825172Y-66813020D01*
X203809600Y-66810330D01*
X203790295Y-66809691D01*
X203742144Y-66788266D01*
X203723675Y-66778271D01*
X203658054Y-66748773D01*
X203618179Y-66751490D01*
X203609375Y-66758385D01*
X203585120Y-66772159D01*
X203581000Y-66765044D01*
X203565422Y-66763529D01*
X203530200Y-66789300D01*
X203493644Y-66816060D01*
X203479400Y-66814700D01*
X203463786Y-66814026D01*
X203428600Y-66840100D01*
X203392044Y-66866860D01*
X203377800Y-66865500D01*
X203362186Y-66864826D01*
X203327000Y-66890900D01*
X203290444Y-66917660D01*
X203276200Y-66916300D01*
X203260586Y-66915626D01*
X203225400Y-66941700D01*
X203188844Y-66968460D01*
X203174600Y-66967100D01*
X203158986Y-66966426D01*
X203123800Y-66992500D01*
X203087244Y-67019260D01*
X203073000Y-67017900D01*
X203057386Y-67017226D01*
X203022200Y-67043300D01*
X202985619Y-67070326D01*
X202971400Y-67069527D01*
X202955663Y-67067013D01*
X202930737Y-67083527D01*
X202883739Y-67113739D01*
X202860887Y-67121919D01*
X202826584Y-67134489D01*
X202758316Y-67164464D01*
X202667626Y-67206669D01*
X202609866Y-67234437D01*
X202498745Y-67286096D01*
X202423739Y-67314530D01*
X202377103Y-67322148D01*
X202353927Y-67314007D01*
X202333289Y-67270447D01*
X202324283Y-67196337D01*
X202326765Y-67110539D01*
X202340587Y-67031919D01*
X202356419Y-66992130D01*
X202378801Y-66961978D01*
X202386427Y-66964687D01*
X202402629Y-66966731D01*
X202440518Y-66939421D01*
X202440666Y-66939287D01*
X202482308Y-66906479D01*
X202504287Y-66897541D01*
X202525282Y-66895350D01*
X202575585Y-66877140D01*
X202659884Y-66840959D01*
X202782866Y-66784855D01*
X202850354Y-66753395D01*
X202934009Y-66715723D01*
X202998073Y-66689694D01*
X203030430Y-66680175D01*
X203031837Y-66680496D01*
X203055811Y-66670785D01*
X203095733Y-66639314D01*
X203133519Y-66610928D01*
X203149200Y-66610674D01*
X203164811Y-66613583D01*
X203187613Y-66598541D01*
X203211723Y-66562582D01*
X203197877Y-66532743D01*
X203165427Y-66505621D01*
X203153113Y-66503069D01*
X203123294Y-66495226D01*
X203061412Y-66470579D01*
X202984100Y-66435949D01*
X202866172Y-66381739D01*
X202786363Y-66347747D01*
X202737524Y-66331139D01*
X202713716Y-66328793D01*
X202685019Y-66315991D01*
X202643866Y-66283714D01*
X202606080Y-66255328D01*
X202590400Y-66255074D01*
X202574663Y-66257588D01*
X202549737Y-66241074D01*
X202498545Y-66210194D01*
X202472212Y-66201917D01*
X202423780Y-66184441D01*
X202377533Y-66158624D01*
X202342389Y-66127085D01*
X202326120Y-66081920D01*
X202323256Y-66006087D01*
X202323651Y-65990798D01*
G36*
X202312772Y-78812019D02*
X202343382Y-78771234D01*
X202372828Y-78750102D01*
X202382408Y-78752142D01*
X202409029Y-78748345D01*
X202435938Y-78729166D01*
X202473584Y-78699816D01*
X202488800Y-78692796D01*
X202529416Y-78681640D01*
X202608762Y-78650027D01*
X202720341Y-78600631D01*
X202780900Y-78572581D01*
X202860234Y-78535759D01*
X202919772Y-78508805D01*
X202946000Y-78497795D01*
X203014937Y-78472616D01*
X203066305Y-78441616D01*
X203086288Y-78413725D01*
X203084684Y-78408158D01*
X203061483Y-78390787D01*
X203055460Y-78393474D01*
X203026079Y-78393576D01*
X202967540Y-78378822D01*
X202943703Y-78370890D01*
X202882662Y-78352476D01*
X202847653Y-78347963D01*
X202844400Y-78350537D01*
X202828922Y-78350147D01*
X202811611Y-78338009D01*
X202764794Y-78314901D01*
X202696461Y-78296303D01*
X202693099Y-78295694D01*
X202626481Y-78280543D01*
X202581426Y-78264319D01*
X202579837Y-78263381D01*
X202532090Y-78244791D01*
X202504095Y-78238672D01*
X202444824Y-78222046D01*
X202389795Y-78199495D01*
X202347463Y-78171195D01*
X202327701Y-78128343D01*
X202322141Y-78053858D01*
X202328429Y-77957153D01*
X202349325Y-77902295D01*
X202383099Y-77892470D01*
X202403270Y-77904597D01*
X202432094Y-77920121D01*
X202438000Y-77914500D01*
X202453627Y-77912216D01*
X202476100Y-77927200D01*
X202506960Y-77946915D01*
X202514200Y-77944621D01*
X202536398Y-77945969D01*
X202595976Y-77961323D01*
X202682404Y-77987793D01*
X202736450Y-78005662D01*
X202844396Y-78040923D01*
X202942326Y-78070652D01*
X203014475Y-78090146D01*
X203032762Y-78094055D01*
X203095763Y-78109188D01*
X203134362Y-78124420D01*
X203181997Y-78142944D01*
X203210706Y-78149221D01*
X203270238Y-78170019D01*
X203293256Y-78184816D01*
X203321645Y-78201784D01*
X203327000Y-78198524D01*
X203348956Y-78199131D01*
X203406999Y-78213810D01*
X203489387Y-78239512D01*
X203504800Y-78244700D01*
X203590374Y-78271564D01*
X203653922Y-78287252D01*
X203683572Y-78288924D01*
X203684385Y-78287637D01*
X203693168Y-78292891D01*
X203705852Y-78320495D01*
X203715976Y-78373609D01*
X203711327Y-78424696D01*
X203694876Y-78453483D01*
X203686225Y-78454379D01*
X203657500Y-78462707D01*
X203594574Y-78488715D01*
X203508796Y-78527589D01*
X203467239Y-78547287D01*
X203372939Y-78591504D01*
X203294534Y-78626309D01*
X203244361Y-78646305D01*
X203234851Y-78648964D01*
X203191791Y-78667770D01*
X203164462Y-78687074D01*
X203132392Y-78706048D01*
X203123800Y-78701074D01*
X203108160Y-78701008D01*
X203073000Y-78727300D01*
X203036444Y-78754060D01*
X203022200Y-78752700D01*
X203006842Y-78751076D01*
X202977750Y-78772354D01*
X202938392Y-78803776D01*
X202920600Y-78812860D01*
X202889629Y-78820947D01*
X202847915Y-78835329D01*
X202820038Y-78848793D01*
X202820102Y-78863584D01*
X202854120Y-78885518D01*
X202928103Y-78920408D01*
X202942633Y-78926945D01*
X203024079Y-78962353D01*
X203086962Y-78987582D01*
X203116917Y-78996996D01*
X203149209Y-79012815D01*
X203180950Y-79037847D01*
X203214488Y-79061090D01*
X203225400Y-79057500D01*
X203240757Y-79055876D01*
X203269850Y-79077154D01*
X203314848Y-79110005D01*
X203339700Y-79120124D01*
X203384092Y-79133479D01*
X203454191Y-79163093D01*
X203536094Y-79202012D01*
X203615901Y-79243282D01*
X203679710Y-79279947D01*
X203713619Y-79305054D01*
X203715636Y-79308197D01*
X203715814Y-79353509D01*
X203706270Y-79387700D01*
X203689981Y-79420714D01*
X203684385Y-79421131D01*
X203661307Y-79421553D01*
X203600261Y-79436215D01*
X203511188Y-79462466D01*
X203428600Y-79489300D01*
X203324741Y-79523034D01*
X203241406Y-79547737D01*
X203188458Y-79560636D01*
X203174600Y-79560710D01*
X203159032Y-79561740D01*
X203140856Y-79574585D01*
X203086779Y-79602775D01*
X203058306Y-79610180D01*
X203003049Y-79625028D01*
X202982320Y-79634760D01*
X202938014Y-79651943D01*
X202887489Y-79664017D01*
X202827085Y-79678969D01*
X202793599Y-79692501D01*
X202750234Y-79708993D01*
X202698719Y-79721164D01*
X202635047Y-79740149D01*
X202597538Y-79760616D01*
X202569875Y-79776598D01*
X202565000Y-79772937D01*
X202543875Y-79771388D01*
X202490804Y-79784928D01*
X202465082Y-79793507D01*
X202398601Y-79812556D01*
X202355686Y-79809214D01*
X202332555Y-79776924D01*
X202325427Y-79709128D01*
X202330519Y-79599268D01*
X202333225Y-79564872D01*
X202361111Y-79525002D01*
X202434433Y-79490010D01*
X202546217Y-79462735D01*
X202613280Y-79444473D01*
X202659211Y-79421392D01*
X202687035Y-79405057D01*
X202692000Y-79408477D01*
X202713916Y-79407996D01*
X202771697Y-79393433D01*
X202853389Y-79367858D01*
X202863450Y-79364460D01*
X202950677Y-79335161D01*
X203018547Y-79313048D01*
X203053173Y-79302639D01*
X203053950Y-79302473D01*
X203072998Y-79286241D01*
X203073000Y-79286100D01*
X203054166Y-79271612D01*
X203053950Y-79271591D01*
X203021277Y-79254818D01*
X202996800Y-79235300D01*
X202956597Y-79206339D01*
X202939201Y-79199955D01*
X202908756Y-79189323D01*
X202844480Y-79161728D01*
X202758261Y-79122350D01*
X202723841Y-79106145D01*
X202630981Y-79063164D01*
X202554119Y-79029580D01*
X202505921Y-79010856D01*
X202498251Y-79008837D01*
X202455191Y-78990031D01*
X202427862Y-78970727D01*
X202395792Y-78951753D01*
X202387200Y-78956727D01*
X202371653Y-78957137D01*
X202338894Y-78932758D01*
X202303812Y-78887389D01*
X202295557Y-78855183D01*
X202312772Y-78812019D01*
X202312772Y-78812019D01*
G37*
X202312772Y-78812019D02*
X202343382Y-78771234D01*
X202372828Y-78750102D01*
X202382408Y-78752142D01*
X202409029Y-78748345D01*
X202435938Y-78729166D01*
X202473584Y-78699816D01*
X202488800Y-78692796D01*
X202529416Y-78681640D01*
X202608762Y-78650027D01*
X202720341Y-78600631D01*
X202780900Y-78572581D01*
X202860234Y-78535759D01*
X202919772Y-78508805D01*
X202946000Y-78497795D01*
X203014937Y-78472616D01*
X203066305Y-78441616D01*
X203086288Y-78413725D01*
X203084684Y-78408158D01*
X203061483Y-78390787D01*
X203055460Y-78393474D01*
X203026079Y-78393576D01*
X202967540Y-78378822D01*
X202943703Y-78370890D01*
X202882662Y-78352476D01*
X202847653Y-78347963D01*
X202844400Y-78350537D01*
X202828922Y-78350147D01*
X202811611Y-78338009D01*
X202764794Y-78314901D01*
X202696461Y-78296303D01*
X202693099Y-78295694D01*
X202626481Y-78280543D01*
X202581426Y-78264319D01*
X202579837Y-78263381D01*
X202532090Y-78244791D01*
X202504095Y-78238672D01*
X202444824Y-78222046D01*
X202389795Y-78199495D01*
X202347463Y-78171195D01*
X202327701Y-78128343D01*
X202322141Y-78053858D01*
X202328429Y-77957153D01*
X202349325Y-77902295D01*
X202383099Y-77892470D01*
X202403270Y-77904597D01*
X202432094Y-77920121D01*
X202438000Y-77914500D01*
X202453627Y-77912216D01*
X202476100Y-77927200D01*
X202506960Y-77946915D01*
X202514200Y-77944621D01*
X202536398Y-77945969D01*
X202595976Y-77961323D01*
X202682404Y-77987793D01*
X202736450Y-78005662D01*
X202844396Y-78040923D01*
X202942326Y-78070652D01*
X203014475Y-78090146D01*
X203032762Y-78094055D01*
X203095763Y-78109188D01*
X203134362Y-78124420D01*
X203181997Y-78142944D01*
X203210706Y-78149221D01*
X203270238Y-78170019D01*
X203293256Y-78184816D01*
X203321645Y-78201784D01*
X203327000Y-78198524D01*
X203348956Y-78199131D01*
X203406999Y-78213810D01*
X203489387Y-78239512D01*
X203504800Y-78244700D01*
X203590374Y-78271564D01*
X203653922Y-78287252D01*
X203683572Y-78288924D01*
X203684385Y-78287637D01*
X203693168Y-78292891D01*
X203705852Y-78320495D01*
X203715976Y-78373609D01*
X203711327Y-78424696D01*
X203694876Y-78453483D01*
X203686225Y-78454379D01*
X203657500Y-78462707D01*
X203594574Y-78488715D01*
X203508796Y-78527589D01*
X203467239Y-78547287D01*
X203372939Y-78591504D01*
X203294534Y-78626309D01*
X203244361Y-78646305D01*
X203234851Y-78648964D01*
X203191791Y-78667770D01*
X203164462Y-78687074D01*
X203132392Y-78706048D01*
X203123800Y-78701074D01*
X203108160Y-78701008D01*
X203073000Y-78727300D01*
X203036444Y-78754060D01*
X203022200Y-78752700D01*
X203006842Y-78751076D01*
X202977750Y-78772354D01*
X202938392Y-78803776D01*
X202920600Y-78812860D01*
X202889629Y-78820947D01*
X202847915Y-78835329D01*
X202820038Y-78848793D01*
X202820102Y-78863584D01*
X202854120Y-78885518D01*
X202928103Y-78920408D01*
X202942633Y-78926945D01*
X203024079Y-78962353D01*
X203086962Y-78987582D01*
X203116917Y-78996996D01*
X203149209Y-79012815D01*
X203180950Y-79037847D01*
X203214488Y-79061090D01*
X203225400Y-79057500D01*
X203240757Y-79055876D01*
X203269850Y-79077154D01*
X203314848Y-79110005D01*
X203339700Y-79120124D01*
X203384092Y-79133479D01*
X203454191Y-79163093D01*
X203536094Y-79202012D01*
X203615901Y-79243282D01*
X203679710Y-79279947D01*
X203713619Y-79305054D01*
X203715636Y-79308197D01*
X203715814Y-79353509D01*
X203706270Y-79387700D01*
X203689981Y-79420714D01*
X203684385Y-79421131D01*
X203661307Y-79421553D01*
X203600261Y-79436215D01*
X203511188Y-79462466D01*
X203428600Y-79489300D01*
X203324741Y-79523034D01*
X203241406Y-79547737D01*
X203188458Y-79560636D01*
X203174600Y-79560710D01*
X203159032Y-79561740D01*
X203140856Y-79574585D01*
X203086779Y-79602775D01*
X203058306Y-79610180D01*
X203003049Y-79625028D01*
X202982320Y-79634760D01*
X202938014Y-79651943D01*
X202887489Y-79664017D01*
X202827085Y-79678969D01*
X202793599Y-79692501D01*
X202750234Y-79708993D01*
X202698719Y-79721164D01*
X202635047Y-79740149D01*
X202597538Y-79760616D01*
X202569875Y-79776598D01*
X202565000Y-79772937D01*
X202543875Y-79771388D01*
X202490804Y-79784928D01*
X202465082Y-79793507D01*
X202398601Y-79812556D01*
X202355686Y-79809214D01*
X202332555Y-79776924D01*
X202325427Y-79709128D01*
X202330519Y-79599268D01*
X202333225Y-79564872D01*
X202361111Y-79525002D01*
X202434433Y-79490010D01*
X202546217Y-79462735D01*
X202613280Y-79444473D01*
X202659211Y-79421392D01*
X202687035Y-79405057D01*
X202692000Y-79408477D01*
X202713916Y-79407996D01*
X202771697Y-79393433D01*
X202853389Y-79367858D01*
X202863450Y-79364460D01*
X202950677Y-79335161D01*
X203018547Y-79313048D01*
X203053173Y-79302639D01*
X203053950Y-79302473D01*
X203072998Y-79286241D01*
X203073000Y-79286100D01*
X203054166Y-79271612D01*
X203053950Y-79271591D01*
X203021277Y-79254818D01*
X202996800Y-79235300D01*
X202956597Y-79206339D01*
X202939201Y-79199955D01*
X202908756Y-79189323D01*
X202844480Y-79161728D01*
X202758261Y-79122350D01*
X202723841Y-79106145D01*
X202630981Y-79063164D01*
X202554119Y-79029580D01*
X202505921Y-79010856D01*
X202498251Y-79008837D01*
X202455191Y-78990031D01*
X202427862Y-78970727D01*
X202395792Y-78951753D01*
X202387200Y-78956727D01*
X202371653Y-78957137D01*
X202338894Y-78932758D01*
X202303812Y-78887389D01*
X202295557Y-78855183D01*
X202312772Y-78812019D01*
G36*
X202316867Y-76714835D02*
X202384313Y-76663012D01*
X202488800Y-76619100D01*
X202539499Y-76598899D01*
X202625125Y-76561351D01*
X202734877Y-76511237D01*
X202780900Y-76489781D01*
X202860234Y-76452959D01*
X202919772Y-76426005D01*
X202946000Y-76414995D01*
X202976141Y-76403867D01*
X203031084Y-76381720D01*
X203032072Y-76381311D01*
X203081520Y-76352449D01*
X203080574Y-76328552D01*
X203029511Y-76310971D01*
X203017188Y-76308907D01*
X202956453Y-76289323D01*
X202928943Y-76272585D01*
X202900566Y-76255797D01*
X202895200Y-76259264D01*
X202874050Y-76260743D01*
X202820821Y-76247166D01*
X202793600Y-76238100D01*
X202731731Y-76219328D01*
X202695726Y-76214318D01*
X202692000Y-76216937D01*
X202676522Y-76216547D01*
X202659211Y-76204409D01*
X202612524Y-76181405D01*
X202543988Y-76162700D01*
X202539599Y-76161900D01*
X202470644Y-76143807D01*
X202421738Y-76120774D01*
X202419988Y-76119392D01*
X202392300Y-76105230D01*
X202387200Y-76111100D01*
X202371895Y-76114328D01*
X202354073Y-76102528D01*
X202334305Y-76060667D01*
X202324501Y-75990089D01*
X202324994Y-75911956D01*
X202336115Y-75847430D01*
X202349676Y-75822348D01*
X202393203Y-75813041D01*
X202438000Y-75825430D01*
X202494692Y-75847532D01*
X202526900Y-75857999D01*
X202563782Y-75868042D01*
X202632262Y-75887601D01*
X202692000Y-75904980D01*
X202771251Y-75927205D01*
X202830099Y-75941874D01*
X202851016Y-75945442D01*
X202884885Y-75955803D01*
X202941188Y-75981635D01*
X202946266Y-75984238D01*
X202996995Y-76007423D01*
X203021728Y-76012741D01*
X203022200Y-76011666D01*
X203044177Y-76013457D01*
X203102269Y-76029022D01*
X203184719Y-76055147D01*
X203200000Y-76060300D01*
X203285328Y-76087557D01*
X203348286Y-76104303D01*
X203377133Y-76107490D01*
X203377800Y-76106477D01*
X203393359Y-76107363D01*
X203411543Y-76120185D01*
X203465543Y-76149290D01*
X203494093Y-76157640D01*
X203555819Y-76174781D01*
X203606400Y-76193263D01*
X203658805Y-76209545D01*
X203686062Y-76210004D01*
X203704764Y-76219560D01*
X203715668Y-76260055D01*
X203715112Y-76311797D01*
X203709425Y-76335636D01*
X203684913Y-76374545D01*
X203668908Y-76382723D01*
X203634662Y-76389490D01*
X203579895Y-76409341D01*
X203497133Y-76445383D01*
X203378907Y-76500727D01*
X203336378Y-76521091D01*
X203245259Y-76564490D01*
X203172741Y-76598302D01*
X203130068Y-76617316D01*
X203123800Y-76619626D01*
X203095987Y-76630687D01*
X203035102Y-76657350D01*
X202954186Y-76693902D01*
X202952127Y-76694844D01*
X202793154Y-76767577D01*
X202952127Y-76844904D01*
X203032932Y-76883659D01*
X203094320Y-76912074D01*
X203123475Y-76924223D01*
X203123800Y-76924288D01*
X203151597Y-76935336D01*
X203212008Y-76962250D01*
X203288900Y-76997781D01*
X203422705Y-77058796D01*
X203514740Y-77096877D01*
X203563832Y-77111561D01*
X203571983Y-77109836D01*
X203590793Y-77118393D01*
X203624844Y-77146206D01*
X203665839Y-77174643D01*
X203687785Y-77176948D01*
X203703668Y-77181984D01*
X203714837Y-77216961D01*
X203717228Y-77261022D01*
X203709701Y-77289448D01*
X203681934Y-77306916D01*
X203620120Y-77334210D01*
X203535697Y-77367302D01*
X203440106Y-77402162D01*
X203344785Y-77434762D01*
X203261175Y-77461072D01*
X203200715Y-77477064D01*
X203174844Y-77478709D01*
X203174600Y-77477910D01*
X203159032Y-77478940D01*
X203140856Y-77491785D01*
X203089588Y-77518572D01*
X203045606Y-77531108D01*
X202996345Y-77541561D01*
X202977750Y-77547488D01*
X202952350Y-77556114D01*
X202915509Y-77571660D01*
X202901550Y-77579838D01*
X202873521Y-77590891D01*
X202869800Y-77587313D01*
X202847829Y-77588695D01*
X202789754Y-77603956D01*
X202707326Y-77629935D01*
X202692000Y-77635100D01*
X202606602Y-77662948D01*
X202543626Y-77681203D01*
X202514845Y-77686500D01*
X202514200Y-77685894D01*
X202494758Y-77689271D01*
X202447696Y-77710723D01*
X202444952Y-77712139D01*
X202379413Y-77733189D01*
X202350278Y-77722639D01*
X202333030Y-77680593D01*
X202324489Y-77611220D01*
X202324848Y-77535051D01*
X202334296Y-77472616D01*
X202347723Y-77446944D01*
X202389394Y-77425948D01*
X202463501Y-77397861D01*
X202553282Y-77368247D01*
X202641974Y-77342671D01*
X202706887Y-77327725D01*
X202768595Y-77312475D01*
X202804520Y-77297939D01*
X202854916Y-77277929D01*
X202865433Y-77275821D01*
X202917908Y-77261450D01*
X202941633Y-77252241D01*
X203004468Y-77231132D01*
X203033357Y-77224310D01*
X203078997Y-77211799D01*
X203092979Y-77204487D01*
X203078163Y-77190003D01*
X203032048Y-77163733D01*
X202970277Y-77133306D01*
X202908496Y-77106353D01*
X202862348Y-77090503D01*
X202857100Y-77089448D01*
X202820086Y-77070592D01*
X202784583Y-77042741D01*
X202745531Y-77012665D01*
X202727504Y-77006273D01*
X202697686Y-77001312D01*
X202633903Y-76978390D01*
X202547674Y-76942173D01*
X202450517Y-76897326D01*
X202412600Y-76878728D01*
X202330551Y-76824258D01*
X202298793Y-76769105D01*
X202316867Y-76714835D01*
X202316867Y-76714835D01*
G37*
X202316867Y-76714835D02*
X202384313Y-76663012D01*
X202488800Y-76619100D01*
X202539499Y-76598899D01*
X202625125Y-76561351D01*
X202734877Y-76511237D01*
X202780900Y-76489781D01*
X202860234Y-76452959D01*
X202919772Y-76426005D01*
X202946000Y-76414995D01*
X202976141Y-76403867D01*
X203031084Y-76381720D01*
X203032072Y-76381311D01*
X203081520Y-76352449D01*
X203080574Y-76328552D01*
X203029511Y-76310971D01*
X203017188Y-76308907D01*
X202956453Y-76289323D01*
X202928943Y-76272585D01*
X202900566Y-76255797D01*
X202895200Y-76259264D01*
X202874050Y-76260743D01*
X202820821Y-76247166D01*
X202793600Y-76238100D01*
X202731731Y-76219328D01*
X202695726Y-76214318D01*
X202692000Y-76216937D01*
X202676522Y-76216547D01*
X202659211Y-76204409D01*
X202612524Y-76181405D01*
X202543988Y-76162700D01*
X202539599Y-76161900D01*
X202470644Y-76143807D01*
X202421738Y-76120774D01*
X202419988Y-76119392D01*
X202392300Y-76105230D01*
X202387200Y-76111100D01*
X202371895Y-76114328D01*
X202354073Y-76102528D01*
X202334305Y-76060667D01*
X202324501Y-75990089D01*
X202324994Y-75911956D01*
X202336115Y-75847430D01*
X202349676Y-75822348D01*
X202393203Y-75813041D01*
X202438000Y-75825430D01*
X202494692Y-75847532D01*
X202526900Y-75857999D01*
X202563782Y-75868042D01*
X202632262Y-75887601D01*
X202692000Y-75904980D01*
X202771251Y-75927205D01*
X202830099Y-75941874D01*
X202851016Y-75945442D01*
X202884885Y-75955803D01*
X202941188Y-75981635D01*
X202946266Y-75984238D01*
X202996995Y-76007423D01*
X203021728Y-76012741D01*
X203022200Y-76011666D01*
X203044177Y-76013457D01*
X203102269Y-76029022D01*
X203184719Y-76055147D01*
X203200000Y-76060300D01*
X203285328Y-76087557D01*
X203348286Y-76104303D01*
X203377133Y-76107490D01*
X203377800Y-76106477D01*
X203393359Y-76107363D01*
X203411543Y-76120185D01*
X203465543Y-76149290D01*
X203494093Y-76157640D01*
X203555819Y-76174781D01*
X203606400Y-76193263D01*
X203658805Y-76209545D01*
X203686062Y-76210004D01*
X203704764Y-76219560D01*
X203715668Y-76260055D01*
X203715112Y-76311797D01*
X203709425Y-76335636D01*
X203684913Y-76374545D01*
X203668908Y-76382723D01*
X203634662Y-76389490D01*
X203579895Y-76409341D01*
X203497133Y-76445383D01*
X203378907Y-76500727D01*
X203336378Y-76521091D01*
X203245259Y-76564490D01*
X203172741Y-76598302D01*
X203130068Y-76617316D01*
X203123800Y-76619626D01*
X203095987Y-76630687D01*
X203035102Y-76657350D01*
X202954186Y-76693902D01*
X202952127Y-76694844D01*
X202793154Y-76767577D01*
X202952127Y-76844904D01*
X203032932Y-76883659D01*
X203094320Y-76912074D01*
X203123475Y-76924223D01*
X203123800Y-76924288D01*
X203151597Y-76935336D01*
X203212008Y-76962250D01*
X203288900Y-76997781D01*
X203422705Y-77058796D01*
X203514740Y-77096877D01*
X203563832Y-77111561D01*
X203571983Y-77109836D01*
X203590793Y-77118393D01*
X203624844Y-77146206D01*
X203665839Y-77174643D01*
X203687785Y-77176948D01*
X203703668Y-77181984D01*
X203714837Y-77216961D01*
X203717228Y-77261022D01*
X203709701Y-77289448D01*
X203681934Y-77306916D01*
X203620120Y-77334210D01*
X203535697Y-77367302D01*
X203440106Y-77402162D01*
X203344785Y-77434762D01*
X203261175Y-77461072D01*
X203200715Y-77477064D01*
X203174844Y-77478709D01*
X203174600Y-77477910D01*
X203159032Y-77478940D01*
X203140856Y-77491785D01*
X203089588Y-77518572D01*
X203045606Y-77531108D01*
X202996345Y-77541561D01*
X202977750Y-77547488D01*
X202952350Y-77556114D01*
X202915509Y-77571660D01*
X202901550Y-77579838D01*
X202873521Y-77590891D01*
X202869800Y-77587313D01*
X202847829Y-77588695D01*
X202789754Y-77603956D01*
X202707326Y-77629935D01*
X202692000Y-77635100D01*
X202606602Y-77662948D01*
X202543626Y-77681203D01*
X202514845Y-77686500D01*
X202514200Y-77685894D01*
X202494758Y-77689271D01*
X202447696Y-77710723D01*
X202444952Y-77712139D01*
X202379413Y-77733189D01*
X202350278Y-77722639D01*
X202333030Y-77680593D01*
X202324489Y-77611220D01*
X202324848Y-77535051D01*
X202334296Y-77472616D01*
X202347723Y-77446944D01*
X202389394Y-77425948D01*
X202463501Y-77397861D01*
X202553282Y-77368247D01*
X202641974Y-77342671D01*
X202706887Y-77327725D01*
X202768595Y-77312475D01*
X202804520Y-77297939D01*
X202854916Y-77277929D01*
X202865433Y-77275821D01*
X202917908Y-77261450D01*
X202941633Y-77252241D01*
X203004468Y-77231132D01*
X203033357Y-77224310D01*
X203078997Y-77211799D01*
X203092979Y-77204487D01*
X203078163Y-77190003D01*
X203032048Y-77163733D01*
X202970277Y-77133306D01*
X202908496Y-77106353D01*
X202862348Y-77090503D01*
X202857100Y-77089448D01*
X202820086Y-77070592D01*
X202784583Y-77042741D01*
X202745531Y-77012665D01*
X202727504Y-77006273D01*
X202697686Y-77001312D01*
X202633903Y-76978390D01*
X202547674Y-76942173D01*
X202450517Y-76897326D01*
X202412600Y-76878728D01*
X202330551Y-76824258D01*
X202298793Y-76769105D01*
X202316867Y-76714835D01*
G36*
X202295003Y-74693359D02*
X202312210Y-74648350D01*
X202342551Y-74606371D01*
X202372089Y-74584455D01*
X202382408Y-74586542D01*
X202408696Y-74582017D01*
X202442288Y-74557819D01*
X202476830Y-74533392D01*
X202488800Y-74536300D01*
X202504413Y-74536975D01*
X202539600Y-74510900D01*
X202576155Y-74484141D01*
X202590400Y-74485500D01*
X202605757Y-74487125D01*
X202634850Y-74465847D01*
X202677030Y-74433714D01*
X202698471Y-74424101D01*
X202718348Y-74419084D01*
X202759016Y-74403847D01*
X202828291Y-74375235D01*
X202933994Y-74330093D01*
X202971400Y-74313968D01*
X203025164Y-74292806D01*
X203053950Y-74284429D01*
X203078796Y-74267697D01*
X203069148Y-74240723D01*
X203034900Y-74224011D01*
X202976274Y-74212000D01*
X202952083Y-74205308D01*
X202914173Y-74194338D01*
X202907986Y-74193093D01*
X202878666Y-74184331D01*
X202819572Y-74164384D01*
X202793953Y-74155425D01*
X202731958Y-74136599D01*
X202695801Y-74131513D01*
X202692000Y-74134137D01*
X202676522Y-74133747D01*
X202659211Y-74121609D01*
X202612524Y-74098605D01*
X202543988Y-74079900D01*
X202539599Y-74079100D01*
X202470644Y-74061007D01*
X202421738Y-74037974D01*
X202419988Y-74036592D01*
X202392300Y-74022430D01*
X202387200Y-74028300D01*
X202371895Y-74031528D01*
X202354073Y-74019728D01*
X202334761Y-73978523D01*
X202324699Y-73908193D01*
X202324647Y-73829697D01*
X202335364Y-73763996D01*
X202344076Y-73743910D01*
X202369285Y-73727928D01*
X202419345Y-73734761D01*
X202464058Y-73749133D01*
X202525691Y-73767803D01*
X202561411Y-73772672D01*
X202565000Y-73770064D01*
X202580460Y-73770411D01*
X202597538Y-73782385D01*
X202647441Y-73808306D01*
X202692788Y-73821363D01*
X202745142Y-73834409D01*
X202830358Y-73858810D01*
X202933025Y-73890094D01*
X202971400Y-73902215D01*
X203070678Y-73933634D01*
X203152164Y-73958953D01*
X203203258Y-73974275D01*
X203212700Y-73976811D01*
X203256740Y-73991321D01*
X203280566Y-74001020D01*
X203344384Y-74022465D01*
X203369466Y-74028313D01*
X203411549Y-74038104D01*
X203422250Y-74042232D01*
X203448787Y-74052326D01*
X203454000Y-74053700D01*
X203483964Y-74064016D01*
X203485750Y-74065169D01*
X203512629Y-74073563D01*
X203538533Y-74079088D01*
X203603706Y-74097422D01*
X203627433Y-74106700D01*
X203675851Y-74124125D01*
X203692878Y-74127707D01*
X203715758Y-74150878D01*
X203722771Y-74197268D01*
X203711602Y-74237465D01*
X203683238Y-74261125D01*
X203628676Y-74294276D01*
X203561922Y-74329845D01*
X203496987Y-74360757D01*
X203447877Y-74379938D01*
X203428600Y-74380392D01*
X203412875Y-74382307D01*
X203377800Y-74409300D01*
X203341244Y-74436060D01*
X203327000Y-74434700D01*
X203311386Y-74434026D01*
X203276200Y-74460100D01*
X203239644Y-74486860D01*
X203225400Y-74485500D01*
X203210042Y-74483876D01*
X203180950Y-74505154D01*
X203138769Y-74537287D01*
X203117328Y-74546900D01*
X203083638Y-74557067D01*
X203023272Y-74580527D01*
X203003028Y-74589021D01*
X202923805Y-74622505D01*
X202853003Y-74651916D01*
X202844400Y-74655427D01*
X202780900Y-74681232D01*
X202844400Y-74705547D01*
X202892226Y-74720858D01*
X202911583Y-74721981D01*
X202930435Y-74731016D01*
X202968733Y-74762487D01*
X203006495Y-74790617D01*
X203022200Y-74790300D01*
X203037813Y-74789626D01*
X203073000Y-74815700D01*
X203109741Y-74844453D01*
X203123800Y-74847218D01*
X203144559Y-74850160D01*
X203199191Y-74871490D01*
X203276225Y-74906690D01*
X203282550Y-74909745D01*
X203373396Y-74953206D01*
X203454520Y-74990995D01*
X203504800Y-75013387D01*
X203556207Y-75035039D01*
X203581000Y-75045589D01*
X203612698Y-75057084D01*
X203648501Y-75069116D01*
X203699430Y-75106380D01*
X203720498Y-75162731D01*
X203709844Y-75206416D01*
X203681667Y-75225410D01*
X203622475Y-75252562D01*
X203545592Y-75283067D01*
X203464342Y-75312119D01*
X203392050Y-75334914D01*
X203342041Y-75346646D01*
X203327000Y-75344477D01*
X203311181Y-75346027D01*
X203288900Y-75361800D01*
X203258182Y-75379533D01*
X203250800Y-75374500D01*
X203235172Y-75372216D01*
X203212700Y-75387200D01*
X203181837Y-75406945D01*
X203174600Y-75404691D01*
X203152263Y-75406436D01*
X203091831Y-75422152D01*
X203003167Y-75449066D01*
X202920600Y-75476100D01*
X202816741Y-75509834D01*
X202733406Y-75534537D01*
X202680458Y-75547436D01*
X202666600Y-75547510D01*
X202651032Y-75548540D01*
X202632856Y-75561385D01*
X202578856Y-75590490D01*
X202550306Y-75598840D01*
X202488594Y-75615997D01*
X202438000Y-75634520D01*
X202377318Y-75647934D01*
X202340728Y-75624118D01*
X202324504Y-75558651D01*
X202322989Y-75497979D01*
X202328177Y-75421580D01*
X202347000Y-75376276D01*
X202389375Y-75342495D01*
X202406915Y-75332378D01*
X202459647Y-75305533D01*
X202487499Y-75296454D01*
X202488800Y-75297690D01*
X202510002Y-75296950D01*
X202563348Y-75282044D01*
X202590400Y-75272900D01*
X202652268Y-75254128D01*
X202688273Y-75249118D01*
X202692000Y-75251737D01*
X202707460Y-75251390D01*
X202724538Y-75239416D01*
X202773480Y-75214491D01*
X202825719Y-75199964D01*
X202886437Y-75185013D01*
X202920600Y-75171300D01*
X202963939Y-75154823D01*
X203015696Y-75142598D01*
X203069996Y-75129856D01*
X203095403Y-75119264D01*
X203080720Y-75104784D01*
X203034517Y-75078894D01*
X202972445Y-75049033D01*
X202910157Y-75022640D01*
X202863306Y-75007154D01*
X202857100Y-75006011D01*
X202820125Y-74987674D01*
X202784583Y-74959941D01*
X202742957Y-74929280D01*
X202721083Y-74922346D01*
X202692334Y-74914403D01*
X202629146Y-74888891D01*
X202542755Y-74850484D01*
X202497089Y-74829193D01*
X202385226Y-74771763D01*
X202317045Y-74726272D01*
X202294902Y-74694303D01*
X202295003Y-74693359D01*
X202295003Y-74693359D01*
G37*
X202295003Y-74693359D02*
X202312210Y-74648350D01*
X202342551Y-74606371D01*
X202372089Y-74584455D01*
X202382408Y-74586542D01*
X202408696Y-74582017D01*
X202442288Y-74557819D01*
X202476830Y-74533392D01*
X202488800Y-74536300D01*
X202504413Y-74536975D01*
X202539600Y-74510900D01*
X202576155Y-74484141D01*
X202590400Y-74485500D01*
X202605757Y-74487125D01*
X202634850Y-74465847D01*
X202677030Y-74433714D01*
X202698471Y-74424101D01*
X202718348Y-74419084D01*
X202759016Y-74403847D01*
X202828291Y-74375235D01*
X202933994Y-74330093D01*
X202971400Y-74313968D01*
X203025164Y-74292806D01*
X203053950Y-74284429D01*
X203078796Y-74267697D01*
X203069148Y-74240723D01*
X203034900Y-74224011D01*
X202976274Y-74212000D01*
X202952083Y-74205308D01*
X202914173Y-74194338D01*
X202907986Y-74193093D01*
X202878666Y-74184331D01*
X202819572Y-74164384D01*
X202793953Y-74155425D01*
X202731958Y-74136599D01*
X202695801Y-74131513D01*
X202692000Y-74134137D01*
X202676522Y-74133747D01*
X202659211Y-74121609D01*
X202612524Y-74098605D01*
X202543988Y-74079900D01*
X202539599Y-74079100D01*
X202470644Y-74061007D01*
X202421738Y-74037974D01*
X202419988Y-74036592D01*
X202392300Y-74022430D01*
X202387200Y-74028300D01*
X202371895Y-74031528D01*
X202354073Y-74019728D01*
X202334761Y-73978523D01*
X202324699Y-73908193D01*
X202324647Y-73829697D01*
X202335364Y-73763996D01*
X202344076Y-73743910D01*
X202369285Y-73727928D01*
X202419345Y-73734761D01*
X202464058Y-73749133D01*
X202525691Y-73767803D01*
X202561411Y-73772672D01*
X202565000Y-73770064D01*
X202580460Y-73770411D01*
X202597538Y-73782385D01*
X202647441Y-73808306D01*
X202692788Y-73821363D01*
X202745142Y-73834409D01*
X202830358Y-73858810D01*
X202933025Y-73890094D01*
X202971400Y-73902215D01*
X203070678Y-73933634D01*
X203152164Y-73958953D01*
X203203258Y-73974275D01*
X203212700Y-73976811D01*
X203256740Y-73991321D01*
X203280566Y-74001020D01*
X203344384Y-74022465D01*
X203369466Y-74028313D01*
X203411549Y-74038104D01*
X203422250Y-74042232D01*
X203448787Y-74052326D01*
X203454000Y-74053700D01*
X203483964Y-74064016D01*
X203485750Y-74065169D01*
X203512629Y-74073563D01*
X203538533Y-74079088D01*
X203603706Y-74097422D01*
X203627433Y-74106700D01*
X203675851Y-74124125D01*
X203692878Y-74127707D01*
X203715758Y-74150878D01*
X203722771Y-74197268D01*
X203711602Y-74237465D01*
X203683238Y-74261125D01*
X203628676Y-74294276D01*
X203561922Y-74329845D01*
X203496987Y-74360757D01*
X203447877Y-74379938D01*
X203428600Y-74380392D01*
X203412875Y-74382307D01*
X203377800Y-74409300D01*
X203341244Y-74436060D01*
X203327000Y-74434700D01*
X203311386Y-74434026D01*
X203276200Y-74460100D01*
X203239644Y-74486860D01*
X203225400Y-74485500D01*
X203210042Y-74483876D01*
X203180950Y-74505154D01*
X203138769Y-74537287D01*
X203117328Y-74546900D01*
X203083638Y-74557067D01*
X203023272Y-74580527D01*
X203003028Y-74589021D01*
X202923805Y-74622505D01*
X202853003Y-74651916D01*
X202844400Y-74655427D01*
X202780900Y-74681232D01*
X202844400Y-74705547D01*
X202892226Y-74720858D01*
X202911583Y-74721981D01*
X202930435Y-74731016D01*
X202968733Y-74762487D01*
X203006495Y-74790617D01*
X203022200Y-74790300D01*
X203037813Y-74789626D01*
X203073000Y-74815700D01*
X203109741Y-74844453D01*
X203123800Y-74847218D01*
X203144559Y-74850160D01*
X203199191Y-74871490D01*
X203276225Y-74906690D01*
X203282550Y-74909745D01*
X203373396Y-74953206D01*
X203454520Y-74990995D01*
X203504800Y-75013387D01*
X203556207Y-75035039D01*
X203581000Y-75045589D01*
X203612698Y-75057084D01*
X203648501Y-75069116D01*
X203699430Y-75106380D01*
X203720498Y-75162731D01*
X203709844Y-75206416D01*
X203681667Y-75225410D01*
X203622475Y-75252562D01*
X203545592Y-75283067D01*
X203464342Y-75312119D01*
X203392050Y-75334914D01*
X203342041Y-75346646D01*
X203327000Y-75344477D01*
X203311181Y-75346027D01*
X203288900Y-75361800D01*
X203258182Y-75379533D01*
X203250800Y-75374500D01*
X203235172Y-75372216D01*
X203212700Y-75387200D01*
X203181837Y-75406945D01*
X203174600Y-75404691D01*
X203152263Y-75406436D01*
X203091831Y-75422152D01*
X203003167Y-75449066D01*
X202920600Y-75476100D01*
X202816741Y-75509834D01*
X202733406Y-75534537D01*
X202680458Y-75547436D01*
X202666600Y-75547510D01*
X202651032Y-75548540D01*
X202632856Y-75561385D01*
X202578856Y-75590490D01*
X202550306Y-75598840D01*
X202488594Y-75615997D01*
X202438000Y-75634520D01*
X202377318Y-75647934D01*
X202340728Y-75624118D01*
X202324504Y-75558651D01*
X202322989Y-75497979D01*
X202328177Y-75421580D01*
X202347000Y-75376276D01*
X202389375Y-75342495D01*
X202406915Y-75332378D01*
X202459647Y-75305533D01*
X202487499Y-75296454D01*
X202488800Y-75297690D01*
X202510002Y-75296950D01*
X202563348Y-75282044D01*
X202590400Y-75272900D01*
X202652268Y-75254128D01*
X202688273Y-75249118D01*
X202692000Y-75251737D01*
X202707460Y-75251390D01*
X202724538Y-75239416D01*
X202773480Y-75214491D01*
X202825719Y-75199964D01*
X202886437Y-75185013D01*
X202920600Y-75171300D01*
X202963939Y-75154823D01*
X203015696Y-75142598D01*
X203069996Y-75129856D01*
X203095403Y-75119264D01*
X203080720Y-75104784D01*
X203034517Y-75078894D01*
X202972445Y-75049033D01*
X202910157Y-75022640D01*
X202863306Y-75007154D01*
X202857100Y-75006011D01*
X202820125Y-74987674D01*
X202784583Y-74959941D01*
X202742957Y-74929280D01*
X202721083Y-74922346D01*
X202692334Y-74914403D01*
X202629146Y-74888891D01*
X202542755Y-74850484D01*
X202497089Y-74829193D01*
X202385226Y-74771763D01*
X202317045Y-74726272D01*
X202294902Y-74694303D01*
X202295003Y-74693359D01*
G36*
X203275167Y-73182078D02*
X203323077Y-73118075D01*
X203398118Y-73070828D01*
X203492329Y-73054528D01*
X203585877Y-73069429D01*
X203657140Y-73113838D01*
X203701584Y-73192403D01*
X203719712Y-73291222D01*
X203707963Y-73385128D01*
X203698680Y-73407418D01*
X203669889Y-73448616D01*
X203649942Y-73459394D01*
X203617682Y-73471527D01*
X203593985Y-73490987D01*
X203530376Y-73522573D01*
X203451487Y-73519117D01*
X203371698Y-73486814D01*
X203305393Y-73431861D01*
X203266954Y-73360455D01*
X203264536Y-73349043D01*
X203256504Y-73253035D01*
X203275167Y-73182078D01*
X203275167Y-73182078D01*
G37*
X203275167Y-73182078D02*
X203323077Y-73118075D01*
X203398118Y-73070828D01*
X203492329Y-73054528D01*
X203585877Y-73069429D01*
X203657140Y-73113838D01*
X203701584Y-73192403D01*
X203719712Y-73291222D01*
X203707963Y-73385128D01*
X203698680Y-73407418D01*
X203669889Y-73448616D01*
X203649942Y-73459394D01*
X203617682Y-73471527D01*
X203593985Y-73490987D01*
X203530376Y-73522573D01*
X203451487Y-73519117D01*
X203371698Y-73486814D01*
X203305393Y-73431861D01*
X203266954Y-73360455D01*
X203264536Y-73349043D01*
X203256504Y-73253035D01*
X203275167Y-73182078D01*
G36*
X203245340Y-65419221D02*
X203246524Y-65417743D01*
X203261101Y-65396096D01*
X203269085Y-65356780D01*
X203273025Y-65314601D01*
X203288138Y-65288286D01*
X203301600Y-65290700D01*
X203325054Y-65289809D01*
X203327000Y-65281469D01*
X203348612Y-65257793D01*
X203401687Y-65232083D01*
X203412241Y-65228408D01*
X203519409Y-65215911D01*
X203614611Y-65252750D01*
X203664553Y-65297244D01*
X203694625Y-65350095D01*
X203714760Y-65420438D01*
X203721892Y-65489290D01*
X203712954Y-65537668D01*
X203704837Y-65546655D01*
X203693947Y-65577323D01*
X203698957Y-65590906D01*
X203703889Y-65608084D01*
X203696668Y-65603380D01*
X203666292Y-65605578D01*
X203626858Y-65632753D01*
X203545615Y-65685345D01*
X203464145Y-65688730D01*
X203419325Y-65671334D01*
X203370041Y-65650927D01*
X203345115Y-65649352D01*
X203322558Y-65643142D01*
X203292173Y-65599118D01*
X203261048Y-65528024D01*
X203256559Y-65515110D01*
X203242735Y-65455772D01*
X203245340Y-65419221D01*
X203245340Y-65419221D01*
G37*
X203245340Y-65419221D02*
X203246524Y-65417743D01*
X203261101Y-65396096D01*
X203269085Y-65356780D01*
X203273025Y-65314601D01*
X203288138Y-65288286D01*
X203301600Y-65290700D01*
X203325054Y-65289809D01*
X203327000Y-65281469D01*
X203348612Y-65257793D01*
X203401687Y-65232083D01*
X203412241Y-65228408D01*
X203519409Y-65215911D01*
X203614611Y-65252750D01*
X203664553Y-65297244D01*
X203694625Y-65350095D01*
X203714760Y-65420438D01*
X203721892Y-65489290D01*
X203712954Y-65537668D01*
X203704837Y-65546655D01*
X203693947Y-65577323D01*
X203698957Y-65590906D01*
X203703889Y-65608084D01*
X203696668Y-65603380D01*
X203666292Y-65605578D01*
X203626858Y-65632753D01*
X203545615Y-65685345D01*
X203464145Y-65688730D01*
X203419325Y-65671334D01*
X203370041Y-65650927D01*
X203345115Y-65649352D01*
X203322558Y-65643142D01*
X203292173Y-65599118D01*
X203261048Y-65528024D01*
X203256559Y-65515110D01*
X203242735Y-65455772D01*
X203245340Y-65419221D01*
G36*
X202328373Y-64042338D02*
X202331202Y-64033400D01*
X202359339Y-63972720D01*
X202404585Y-63900867D01*
X202458354Y-63828507D01*
X202512063Y-63766307D01*
X202557127Y-63724932D01*
X202584963Y-63715049D01*
X202586478Y-63716213D01*
X202612850Y-63712532D01*
X202635075Y-63697743D01*
X202666895Y-63675987D01*
X202708243Y-63660706D01*
X202772200Y-63648667D01*
X202871847Y-63636635D01*
X202890028Y-63634700D01*
X202954656Y-63629201D01*
X203003312Y-63632221D01*
X203038244Y-63649824D01*
X203061698Y-63688077D01*
X203075922Y-63753044D01*
X203083162Y-63850792D01*
X203085666Y-63987385D01*
X203085694Y-64162880D01*
X203084634Y-64620187D01*
X203145634Y-64604877D01*
X203258042Y-64552038D01*
X203348536Y-64461687D01*
X203407182Y-64345679D01*
X203422323Y-64274698D01*
X203420896Y-64166354D01*
X203397872Y-64054377D01*
X203358675Y-63960804D01*
X203337773Y-63931220D01*
X203318877Y-63902116D01*
X203322576Y-63872900D01*
X203354381Y-63832798D01*
X203419631Y-63771194D01*
X203498755Y-63699488D01*
X203575947Y-63782083D01*
X203633792Y-63862648D01*
X203678105Y-63956151D01*
X203683738Y-63973967D01*
X203703920Y-64074670D01*
X203716799Y-64195058D01*
X203720731Y-64312042D01*
X203714218Y-64401700D01*
X203697050Y-64456722D01*
X203664892Y-64527691D01*
X203623549Y-64605204D01*
X203578821Y-64679858D01*
X203536513Y-64742249D01*
X203502426Y-64782975D01*
X203482363Y-64792632D01*
X203479400Y-64782224D01*
X203463600Y-64782030D01*
X203425268Y-64810237D01*
X203422250Y-64812943D01*
X203326473Y-64872315D01*
X203196536Y-64913993D01*
X203047221Y-64933903D01*
X202980239Y-64934745D01*
X202857608Y-64917904D01*
X202857608Y-64594648D01*
X202857608Y-64275871D01*
X202857190Y-64143988D01*
X202855058Y-64054843D01*
X202849892Y-64000376D01*
X202840373Y-63972527D01*
X202825181Y-63963235D01*
X202806554Y-63963944D01*
X202745618Y-63983902D01*
X202701300Y-64008771D01*
X202656450Y-64053424D01*
X202609226Y-64119275D01*
X202570928Y-64188032D01*
X202552855Y-64241403D01*
X202552719Y-64249300D01*
X202584020Y-64375785D01*
X202646859Y-64481208D01*
X202733209Y-64554598D01*
X202793854Y-64578912D01*
X202857608Y-64594648D01*
X202857608Y-64917904D01*
X202843208Y-64915926D01*
X202702282Y-64870874D01*
X202575031Y-64806903D01*
X202479030Y-64731328D01*
X202471435Y-64722968D01*
X202372779Y-64572905D01*
X202314373Y-64401200D01*
X202298733Y-64220221D01*
X202328373Y-64042338D01*
X202328373Y-64042338D01*
G37*
X202328373Y-64042338D02*
X202331202Y-64033400D01*
X202359339Y-63972720D01*
X202404585Y-63900867D01*
X202458354Y-63828507D01*
X202512063Y-63766307D01*
X202557127Y-63724932D01*
X202584963Y-63715049D01*
X202586478Y-63716213D01*
X202612850Y-63712532D01*
X202635075Y-63697743D01*
X202666895Y-63675987D01*
X202708243Y-63660706D01*
X202772200Y-63648667D01*
X202871847Y-63636635D01*
X202890028Y-63634700D01*
X202954656Y-63629201D01*
X203003312Y-63632221D01*
X203038244Y-63649824D01*
X203061698Y-63688077D01*
X203075922Y-63753044D01*
X203083162Y-63850792D01*
X203085666Y-63987385D01*
X203085694Y-64162880D01*
X203084634Y-64620187D01*
X203145634Y-64604877D01*
X203258042Y-64552038D01*
X203348536Y-64461687D01*
X203407182Y-64345679D01*
X203422323Y-64274698D01*
X203420896Y-64166354D01*
X203397872Y-64054377D01*
X203358675Y-63960804D01*
X203337773Y-63931220D01*
X203318877Y-63902116D01*
X203322576Y-63872900D01*
X203354381Y-63832798D01*
X203419631Y-63771194D01*
X203498755Y-63699488D01*
X203575947Y-63782083D01*
X203633792Y-63862648D01*
X203678105Y-63956151D01*
X203683738Y-63973967D01*
X203703920Y-64074670D01*
X203716799Y-64195058D01*
X203720731Y-64312042D01*
X203714218Y-64401700D01*
X203697050Y-64456722D01*
X203664892Y-64527691D01*
X203623549Y-64605204D01*
X203578821Y-64679858D01*
X203536513Y-64742249D01*
X203502426Y-64782975D01*
X203482363Y-64792632D01*
X203479400Y-64782224D01*
X203463600Y-64782030D01*
X203425268Y-64810237D01*
X203422250Y-64812943D01*
X203326473Y-64872315D01*
X203196536Y-64913993D01*
X203047221Y-64933903D01*
X202980239Y-64934745D01*
X202857608Y-64917904D01*
X202857608Y-64594648D01*
X202857608Y-64275871D01*
X202857190Y-64143988D01*
X202855058Y-64054843D01*
X202849892Y-64000376D01*
X202840373Y-63972527D01*
X202825181Y-63963235D01*
X202806554Y-63963944D01*
X202745618Y-63983902D01*
X202701300Y-64008771D01*
X202656450Y-64053424D01*
X202609226Y-64119275D01*
X202570928Y-64188032D01*
X202552855Y-64241403D01*
X202552719Y-64249300D01*
X202584020Y-64375785D01*
X202646859Y-64481208D01*
X202733209Y-64554598D01*
X202793854Y-64578912D01*
X202857608Y-64594648D01*
X202857608Y-64917904D01*
X202843208Y-64915926D01*
X202702282Y-64870874D01*
X202575031Y-64806903D01*
X202479030Y-64731328D01*
X202471435Y-64722968D01*
X202372779Y-64572905D01*
X202314373Y-64401200D01*
X202298733Y-64220221D01*
X202328373Y-64042338D01*
G36*
X202305175Y-62890400D02*
X202315081Y-62758767D01*
X202339318Y-62641960D01*
X202374457Y-62551970D01*
X202416444Y-62501179D01*
X202470787Y-62494576D01*
X202547750Y-62521644D01*
X202611721Y-62560287D01*
X202638182Y-62603685D01*
X202641200Y-62634215D01*
X202632410Y-62694560D01*
X202615856Y-62727784D01*
X202600373Y-62767404D01*
X202589195Y-62840819D01*
X202583992Y-62931089D01*
X202586437Y-63021278D01*
X202586642Y-63023750D01*
X202610057Y-63057652D01*
X202660025Y-63068069D01*
X202717636Y-63054183D01*
X202751106Y-63030866D01*
X202778994Y-62991529D01*
X202820603Y-62919442D01*
X202868359Y-62827979D01*
X202884133Y-62795916D01*
X202943409Y-62684492D01*
X203005656Y-62585786D01*
X203064737Y-62507806D01*
X203114509Y-62458559D01*
X203148832Y-62446051D01*
X203151469Y-62447303D01*
X203180398Y-62441708D01*
X203187043Y-62433615D01*
X203220157Y-62417837D01*
X203284542Y-62408707D01*
X203314300Y-62407800D01*
X203385675Y-62413219D01*
X203433460Y-62426843D01*
X203441556Y-62433615D01*
X203469453Y-62449886D01*
X203477130Y-62447303D01*
X203505106Y-62456723D01*
X203550928Y-62496098D01*
X203603543Y-62553602D01*
X203651896Y-62617411D01*
X203679417Y-62663697D01*
X203699300Y-62731158D01*
X203712999Y-62829421D01*
X203719168Y-62938719D01*
X203716465Y-63039285D01*
X203708643Y-63093600D01*
X203684033Y-63172061D01*
X203648103Y-63255650D01*
X203608693Y-63328850D01*
X203573644Y-63376144D01*
X203561521Y-63384787D01*
X203509477Y-63380980D01*
X203434914Y-63344653D01*
X203373203Y-63300801D01*
X203347609Y-63274734D01*
X203346956Y-63244778D01*
X203372074Y-63192765D01*
X203378684Y-63180926D01*
X203416389Y-63085987D01*
X203436382Y-62977872D01*
X203436433Y-62876910D01*
X203419161Y-62811961D01*
X203373957Y-62756925D01*
X203319267Y-62751600D01*
X203255299Y-62795831D01*
X203182262Y-62889463D01*
X203100365Y-63032342D01*
X203086762Y-63059143D01*
X202991238Y-63215938D01*
X202885932Y-63323175D01*
X202770020Y-63381298D01*
X202642677Y-63390753D01*
X202526665Y-63361561D01*
X202460072Y-63331771D01*
X202418979Y-63304996D01*
X202412600Y-63294990D01*
X202397573Y-63259954D01*
X202369897Y-63222109D01*
X202336884Y-63173026D01*
X202316682Y-63111486D01*
X202306878Y-63025114D01*
X202305056Y-62901533D01*
X202305175Y-62890400D01*
X202305175Y-62890400D01*
G37*
X202305175Y-62890400D02*
X202315081Y-62758767D01*
X202339318Y-62641960D01*
X202374457Y-62551970D01*
X202416444Y-62501179D01*
X202470787Y-62494576D01*
X202547750Y-62521644D01*
X202611721Y-62560287D01*
X202638182Y-62603685D01*
X202641200Y-62634215D01*
X202632410Y-62694560D01*
X202615856Y-62727784D01*
X202600373Y-62767404D01*
X202589195Y-62840819D01*
X202583992Y-62931089D01*
X202586437Y-63021278D01*
X202586642Y-63023750D01*
X202610057Y-63057652D01*
X202660025Y-63068069D01*
X202717636Y-63054183D01*
X202751106Y-63030866D01*
X202778994Y-62991529D01*
X202820603Y-62919442D01*
X202868359Y-62827979D01*
X202884133Y-62795916D01*
X202943409Y-62684492D01*
X203005656Y-62585786D01*
X203064737Y-62507806D01*
X203114509Y-62458559D01*
X203148832Y-62446051D01*
X203151469Y-62447303D01*
X203180398Y-62441708D01*
X203187043Y-62433615D01*
X203220157Y-62417837D01*
X203284542Y-62408707D01*
X203314300Y-62407800D01*
X203385675Y-62413219D01*
X203433460Y-62426843D01*
X203441556Y-62433615D01*
X203469453Y-62449886D01*
X203477130Y-62447303D01*
X203505106Y-62456723D01*
X203550928Y-62496098D01*
X203603543Y-62553602D01*
X203651896Y-62617411D01*
X203679417Y-62663697D01*
X203699300Y-62731158D01*
X203712999Y-62829421D01*
X203719168Y-62938719D01*
X203716465Y-63039285D01*
X203708643Y-63093600D01*
X203684033Y-63172061D01*
X203648103Y-63255650D01*
X203608693Y-63328850D01*
X203573644Y-63376144D01*
X203561521Y-63384787D01*
X203509477Y-63380980D01*
X203434914Y-63344653D01*
X203373203Y-63300801D01*
X203347609Y-63274734D01*
X203346956Y-63244778D01*
X203372074Y-63192765D01*
X203378684Y-63180926D01*
X203416389Y-63085987D01*
X203436382Y-62977872D01*
X203436433Y-62876910D01*
X203419161Y-62811961D01*
X203373957Y-62756925D01*
X203319267Y-62751600D01*
X203255299Y-62795831D01*
X203182262Y-62889463D01*
X203100365Y-63032342D01*
X203086762Y-63059143D01*
X202991238Y-63215938D01*
X202885932Y-63323175D01*
X202770020Y-63381298D01*
X202642677Y-63390753D01*
X202526665Y-63361561D01*
X202460072Y-63331771D01*
X202418979Y-63304996D01*
X202412600Y-63294990D01*
X202397573Y-63259954D01*
X202369897Y-63222109D01*
X202336884Y-63173026D01*
X202316682Y-63111486D01*
X202306878Y-63025114D01*
X202305056Y-62901533D01*
X202305175Y-62890400D01*
G36*
X201288176Y-71893477D02*
X201308846Y-71778986D01*
X201328242Y-71716900D01*
X201352191Y-71661288D01*
X201367369Y-71637759D01*
X201369799Y-71640700D01*
X201381727Y-71646678D01*
X201392505Y-71633755D01*
X201438704Y-71599068D01*
X201499560Y-71592012D01*
X201549032Y-71615388D01*
X201550240Y-71616795D01*
X201584304Y-71641476D01*
X201599799Y-71640700D01*
X201629625Y-71647371D01*
X201651807Y-71667555D01*
X201667994Y-71700598D01*
X201660242Y-71744575D01*
X201629285Y-71809376D01*
X201583413Y-71931721D01*
X201582013Y-72038893D01*
X201623911Y-72126085D01*
X201707934Y-72188487D01*
X201723407Y-72195138D01*
X201785049Y-72211083D01*
X201873920Y-72223544D01*
X201978044Y-72232151D01*
X202085441Y-72236531D01*
X202184136Y-72236314D01*
X202262150Y-72231128D01*
X202307507Y-72220603D01*
X202314175Y-72213446D01*
X202316289Y-72175885D01*
X202318738Y-72103469D01*
X202320913Y-72015350D01*
X202325218Y-71924152D01*
X202333017Y-71852181D01*
X202342231Y-71816044D01*
X202379252Y-71797814D01*
X202443961Y-71793044D01*
X202515493Y-71800258D01*
X202572980Y-71817981D01*
X202592502Y-71833732D01*
X202603696Y-71875615D01*
X202611883Y-71952194D01*
X202615386Y-72047385D01*
X202615411Y-72053450D01*
X202615800Y-72237600D01*
X203135000Y-72237600D01*
X203323869Y-72238459D01*
X203466776Y-72241223D01*
X203568531Y-72246177D01*
X203633946Y-72253603D01*
X203667833Y-72263785D01*
X203674083Y-72269350D01*
X203689134Y-72319559D01*
X203695221Y-72393507D01*
X203692465Y-72469946D01*
X203680987Y-72527633D01*
X203672527Y-72542313D01*
X203638530Y-72551106D01*
X203559154Y-72558303D01*
X203439802Y-72563649D01*
X203285877Y-72566891D01*
X203131420Y-72567800D01*
X202615800Y-72567800D01*
X202615800Y-72641923D01*
X202609483Y-72727547D01*
X202583139Y-72774411D01*
X202525671Y-72793564D01*
X202460682Y-72796400D01*
X202389723Y-72794844D01*
X202350650Y-72782359D01*
X202333709Y-72747225D01*
X202329149Y-72677718D01*
X202328607Y-72637650D01*
X202327749Y-72567800D01*
X202071724Y-72565597D01*
X201909719Y-72563100D01*
X201790987Y-72558304D01*
X201708024Y-72550445D01*
X201653329Y-72538759D01*
X201619397Y-72522482D01*
X201615014Y-72519087D01*
X201580421Y-72502157D01*
X201569500Y-72504966D01*
X201546566Y-72495109D01*
X201498967Y-72456807D01*
X201438042Y-72399358D01*
X201379556Y-72337910D01*
X201340807Y-72291401D01*
X201330216Y-72270117D01*
X201327574Y-72242635D01*
X201306835Y-72193703D01*
X201286377Y-72118508D01*
X201280422Y-72012542D01*
X201288176Y-71893477D01*
X201288176Y-71893477D01*
G37*
X201288176Y-71893477D02*
X201308846Y-71778986D01*
X201328242Y-71716900D01*
X201352191Y-71661288D01*
X201367369Y-71637759D01*
X201369799Y-71640700D01*
X201381727Y-71646678D01*
X201392505Y-71633755D01*
X201438704Y-71599068D01*
X201499560Y-71592012D01*
X201549032Y-71615388D01*
X201550240Y-71616795D01*
X201584304Y-71641476D01*
X201599799Y-71640700D01*
X201629625Y-71647371D01*
X201651807Y-71667555D01*
X201667994Y-71700598D01*
X201660242Y-71744575D01*
X201629285Y-71809376D01*
X201583413Y-71931721D01*
X201582013Y-72038893D01*
X201623911Y-72126085D01*
X201707934Y-72188487D01*
X201723407Y-72195138D01*
X201785049Y-72211083D01*
X201873920Y-72223544D01*
X201978044Y-72232151D01*
X202085441Y-72236531D01*
X202184136Y-72236314D01*
X202262150Y-72231128D01*
X202307507Y-72220603D01*
X202314175Y-72213446D01*
X202316289Y-72175885D01*
X202318738Y-72103469D01*
X202320913Y-72015350D01*
X202325218Y-71924152D01*
X202333017Y-71852181D01*
X202342231Y-71816044D01*
X202379252Y-71797814D01*
X202443961Y-71793044D01*
X202515493Y-71800258D01*
X202572980Y-71817981D01*
X202592502Y-71833732D01*
X202603696Y-71875615D01*
X202611883Y-71952194D01*
X202615386Y-72047385D01*
X202615411Y-72053450D01*
X202615800Y-72237600D01*
X203135000Y-72237600D01*
X203323869Y-72238459D01*
X203466776Y-72241223D01*
X203568531Y-72246177D01*
X203633946Y-72253603D01*
X203667833Y-72263785D01*
X203674083Y-72269350D01*
X203689134Y-72319559D01*
X203695221Y-72393507D01*
X203692465Y-72469946D01*
X203680987Y-72527633D01*
X203672527Y-72542313D01*
X203638530Y-72551106D01*
X203559154Y-72558303D01*
X203439802Y-72563649D01*
X203285877Y-72566891D01*
X203131420Y-72567800D01*
X202615800Y-72567800D01*
X202615800Y-72641923D01*
X202609483Y-72727547D01*
X202583139Y-72774411D01*
X202525671Y-72793564D01*
X202460682Y-72796400D01*
X202389723Y-72794844D01*
X202350650Y-72782359D01*
X202333709Y-72747225D01*
X202329149Y-72677718D01*
X202328607Y-72637650D01*
X202327749Y-72567800D01*
X202071724Y-72565597D01*
X201909719Y-72563100D01*
X201790987Y-72558304D01*
X201708024Y-72550445D01*
X201653329Y-72538759D01*
X201619397Y-72522482D01*
X201615014Y-72519087D01*
X201580421Y-72502157D01*
X201569500Y-72504966D01*
X201546566Y-72495109D01*
X201498967Y-72456807D01*
X201438042Y-72399358D01*
X201379556Y-72337910D01*
X201340807Y-72291401D01*
X201330216Y-72270117D01*
X201327574Y-72242635D01*
X201306835Y-72193703D01*
X201286377Y-72118508D01*
X201280422Y-72012542D01*
X201288176Y-71893477D01*
G36*
X202313535Y-70726587D02*
X202337799Y-70651206D01*
X202377816Y-70622245D01*
X202394659Y-70623208D01*
X202461841Y-70644388D01*
X202528281Y-70675708D01*
X202572328Y-70706573D01*
X202576987Y-70712448D01*
X202606038Y-70729549D01*
X202615325Y-70726594D01*
X202630535Y-70732015D01*
X202627713Y-70766182D01*
X202612527Y-70802500D01*
X202599639Y-70866944D01*
X202610731Y-70954754D01*
X202639973Y-71048184D01*
X202681531Y-71129485D01*
X202729575Y-71180912D01*
X202738411Y-71185604D01*
X202776977Y-71191933D01*
X202857040Y-71197665D01*
X202969296Y-71202385D01*
X203104443Y-71205679D01*
X203217289Y-71206975D01*
X203361487Y-71208891D01*
X203487823Y-71212547D01*
X203587613Y-71217535D01*
X203652172Y-71223442D01*
X203672572Y-71228507D01*
X203686600Y-71266768D01*
X203693774Y-71333921D01*
X203694141Y-71410932D01*
X203687747Y-71478765D01*
X203674639Y-71518386D01*
X203671859Y-71520876D01*
X203638111Y-71526652D01*
X203562247Y-71531386D01*
X203452715Y-71535076D01*
X203317964Y-71537722D01*
X203166442Y-71539322D01*
X203006598Y-71539873D01*
X202846879Y-71539375D01*
X202695735Y-71537826D01*
X202561614Y-71535225D01*
X202452964Y-71531570D01*
X202378234Y-71526860D01*
X202345900Y-71521113D01*
X202323126Y-71479951D01*
X202324698Y-71420792D01*
X202344592Y-71358320D01*
X202376786Y-71307221D01*
X202415258Y-71282181D01*
X202441741Y-71287413D01*
X202462740Y-71291518D01*
X202453549Y-71261862D01*
X202416404Y-71203786D01*
X202394189Y-71173756D01*
X202350840Y-71113795D01*
X202324711Y-71063148D01*
X202311391Y-71005524D01*
X202306470Y-70924635D01*
X202305665Y-70846780D01*
X202313535Y-70726587D01*
X202313535Y-70726587D01*
G37*
X202313535Y-70726587D02*
X202337799Y-70651206D01*
X202377816Y-70622245D01*
X202394659Y-70623208D01*
X202461841Y-70644388D01*
X202528281Y-70675708D01*
X202572328Y-70706573D01*
X202576987Y-70712448D01*
X202606038Y-70729549D01*
X202615325Y-70726594D01*
X202630535Y-70732015D01*
X202627713Y-70766182D01*
X202612527Y-70802500D01*
X202599639Y-70866944D01*
X202610731Y-70954754D01*
X202639973Y-71048184D01*
X202681531Y-71129485D01*
X202729575Y-71180912D01*
X202738411Y-71185604D01*
X202776977Y-71191933D01*
X202857040Y-71197665D01*
X202969296Y-71202385D01*
X203104443Y-71205679D01*
X203217289Y-71206975D01*
X203361487Y-71208891D01*
X203487823Y-71212547D01*
X203587613Y-71217535D01*
X203652172Y-71223442D01*
X203672572Y-71228507D01*
X203686600Y-71266768D01*
X203693774Y-71333921D01*
X203694141Y-71410932D01*
X203687747Y-71478765D01*
X203674639Y-71518386D01*
X203671859Y-71520876D01*
X203638111Y-71526652D01*
X203562247Y-71531386D01*
X203452715Y-71535076D01*
X203317964Y-71537722D01*
X203166442Y-71539322D01*
X203006598Y-71539873D01*
X202846879Y-71539375D01*
X202695735Y-71537826D01*
X202561614Y-71535225D01*
X202452964Y-71531570D01*
X202378234Y-71526860D01*
X202345900Y-71521113D01*
X202323126Y-71479951D01*
X202324698Y-71420792D01*
X202344592Y-71358320D01*
X202376786Y-71307221D01*
X202415258Y-71282181D01*
X202441741Y-71287413D01*
X202462740Y-71291518D01*
X202453549Y-71261862D01*
X202416404Y-71203786D01*
X202394189Y-71173756D01*
X202350840Y-71113795D01*
X202324711Y-71063148D01*
X202311391Y-71005524D01*
X202306470Y-70924635D01*
X202305665Y-70846780D01*
X202313535Y-70726587D01*
G36*
X202326034Y-70158200D02*
X202336511Y-70101826D01*
X202347713Y-70083838D01*
X202382226Y-70077533D01*
X202458175Y-70072618D01*
X202567287Y-70069047D01*
X202701290Y-70066775D01*
X202851911Y-70065759D01*
X203010877Y-70065952D01*
X203169916Y-70067311D01*
X203320753Y-70069790D01*
X203455117Y-70073344D01*
X203564734Y-70077928D01*
X203641332Y-70083498D01*
X203676638Y-70090009D01*
X203677854Y-70091052D01*
X203690944Y-70138384D01*
X203695522Y-70210410D01*
X203692017Y-70285705D01*
X203680856Y-70342840D01*
X203672527Y-70357913D01*
X203638909Y-70366899D01*
X203563465Y-70374040D01*
X203454547Y-70379373D01*
X203320505Y-70382938D01*
X203169687Y-70384775D01*
X203010446Y-70384923D01*
X202851130Y-70383421D01*
X202700090Y-70380309D01*
X202565676Y-70375627D01*
X202456237Y-70369413D01*
X202380125Y-70361707D01*
X202345688Y-70352548D01*
X202344916Y-70351650D01*
X202330029Y-70302994D01*
X202323804Y-70231884D01*
X202326034Y-70158200D01*
X202326034Y-70158200D01*
G37*
X202326034Y-70158200D02*
X202336511Y-70101826D01*
X202347713Y-70083838D01*
X202382226Y-70077533D01*
X202458175Y-70072618D01*
X202567287Y-70069047D01*
X202701290Y-70066775D01*
X202851911Y-70065759D01*
X203010877Y-70065952D01*
X203169916Y-70067311D01*
X203320753Y-70069790D01*
X203455117Y-70073344D01*
X203564734Y-70077928D01*
X203641332Y-70083498D01*
X203676638Y-70090009D01*
X203677854Y-70091052D01*
X203690944Y-70138384D01*
X203695522Y-70210410D01*
X203692017Y-70285705D01*
X203680856Y-70342840D01*
X203672527Y-70357913D01*
X203638909Y-70366899D01*
X203563465Y-70374040D01*
X203454547Y-70379373D01*
X203320505Y-70382938D01*
X203169687Y-70384775D01*
X203010446Y-70384923D01*
X202851130Y-70383421D01*
X202700090Y-70380309D01*
X202565676Y-70375627D01*
X202456237Y-70369413D01*
X202380125Y-70361707D01*
X202345688Y-70352548D01*
X202344916Y-70351650D01*
X202330029Y-70302994D01*
X202323804Y-70231884D01*
X202326034Y-70158200D01*
G36*
X202325406Y-68966794D02*
X202328766Y-68854592D01*
X202333963Y-68769464D01*
X202341051Y-68721142D01*
X202343330Y-68715613D01*
X202361134Y-68697196D01*
X202388032Y-68693351D01*
X202431280Y-68706924D01*
X202498131Y-68740759D01*
X202595842Y-68797702D01*
X202674503Y-68845493D01*
X202730357Y-68878300D01*
X202765196Y-68896197D01*
X202768200Y-68897136D01*
X202794870Y-68911048D01*
X202849797Y-68944594D01*
X202895200Y-68973700D01*
X202961149Y-69015564D01*
X203008228Y-69043355D01*
X203022200Y-69049900D01*
X203049111Y-69063469D01*
X203103788Y-69096245D01*
X203142345Y-69120594D01*
X203208617Y-69160450D01*
X203258174Y-69185377D01*
X203272585Y-69189600D01*
X203306137Y-69207000D01*
X203327000Y-69227700D01*
X203360577Y-69259193D01*
X203383116Y-69255169D01*
X203396448Y-69211407D01*
X203402404Y-69123684D01*
X203403200Y-69051978D01*
X203404960Y-68948457D01*
X203409642Y-68861595D01*
X203416345Y-68806231D01*
X203418617Y-68797978D01*
X203449674Y-68774256D01*
X203509272Y-68760025D01*
X203579612Y-68755846D01*
X203642892Y-68762282D01*
X203681310Y-68779893D01*
X203685679Y-68789550D01*
X203686908Y-68824487D01*
X203688361Y-68901120D01*
X203689906Y-69010346D01*
X203691408Y-69143062D01*
X203692415Y-69250901D01*
X203692682Y-69425354D01*
X203689898Y-69554045D01*
X203683760Y-69641941D01*
X203673966Y-69694004D01*
X203664381Y-69712190D01*
X203612828Y-69732235D01*
X203549598Y-69718324D01*
X203502521Y-69682156D01*
X203462034Y-69651568D01*
X203442979Y-69646800D01*
X203404009Y-69630790D01*
X203357189Y-69595011D01*
X203318602Y-69564030D01*
X203301636Y-69560242D01*
X203301600Y-69560848D01*
X203285893Y-69559348D01*
X203250800Y-69532500D01*
X203214130Y-69504524D01*
X203200000Y-69503347D01*
X203181344Y-69498982D01*
X203132723Y-69470891D01*
X203073000Y-69430900D01*
X203006853Y-69386332D01*
X202960916Y-69359060D01*
X202946000Y-69354700D01*
X202927288Y-69348354D01*
X202878536Y-69318813D01*
X202819000Y-69278500D01*
X202752924Y-69234408D01*
X202706994Y-69208251D01*
X202692000Y-69205227D01*
X202676606Y-69206038D01*
X202659528Y-69194272D01*
X202643709Y-69190551D01*
X202634124Y-69216132D01*
X202629672Y-69278072D01*
X202629253Y-69383426D01*
X202629298Y-69388012D01*
X202628429Y-69522402D01*
X202620191Y-69613991D01*
X202600967Y-69670639D01*
X202567140Y-69700205D01*
X202515091Y-69710550D01*
X202480660Y-69710962D01*
X202408051Y-69706076D01*
X202356807Y-69696329D01*
X202348758Y-69692797D01*
X202340778Y-69663570D01*
X202334256Y-69593294D01*
X202329245Y-69491701D01*
X202325801Y-69368523D01*
X202323977Y-69233491D01*
X202323827Y-69096337D01*
X202325406Y-68966794D01*
X202325406Y-68966794D01*
G37*
X202325406Y-68966794D02*
X202328766Y-68854592D01*
X202333963Y-68769464D01*
X202341051Y-68721142D01*
X202343330Y-68715613D01*
X202361134Y-68697196D01*
X202388032Y-68693351D01*
X202431280Y-68706924D01*
X202498131Y-68740759D01*
X202595842Y-68797702D01*
X202674503Y-68845493D01*
X202730357Y-68878300D01*
X202765196Y-68896197D01*
X202768200Y-68897136D01*
X202794870Y-68911048D01*
X202849797Y-68944594D01*
X202895200Y-68973700D01*
X202961149Y-69015564D01*
X203008228Y-69043355D01*
X203022200Y-69049900D01*
X203049111Y-69063469D01*
X203103788Y-69096245D01*
X203142345Y-69120594D01*
X203208617Y-69160450D01*
X203258174Y-69185377D01*
X203272585Y-69189600D01*
X203306137Y-69207000D01*
X203327000Y-69227700D01*
X203360577Y-69259193D01*
X203383116Y-69255169D01*
X203396448Y-69211407D01*
X203402404Y-69123684D01*
X203403200Y-69051978D01*
X203404960Y-68948457D01*
X203409642Y-68861595D01*
X203416345Y-68806231D01*
X203418617Y-68797978D01*
X203449674Y-68774256D01*
X203509272Y-68760025D01*
X203579612Y-68755846D01*
X203642892Y-68762282D01*
X203681310Y-68779893D01*
X203685679Y-68789550D01*
X203686908Y-68824487D01*
X203688361Y-68901120D01*
X203689906Y-69010346D01*
X203691408Y-69143062D01*
X203692415Y-69250901D01*
X203692682Y-69425354D01*
X203689898Y-69554045D01*
X203683760Y-69641941D01*
X203673966Y-69694004D01*
X203664381Y-69712190D01*
X203612828Y-69732235D01*
X203549598Y-69718324D01*
X203502521Y-69682156D01*
X203462034Y-69651568D01*
X203442979Y-69646800D01*
X203404009Y-69630790D01*
X203357189Y-69595011D01*
X203318602Y-69564030D01*
X203301636Y-69560242D01*
X203301600Y-69560848D01*
X203285893Y-69559348D01*
X203250800Y-69532500D01*
X203214130Y-69504524D01*
X203200000Y-69503347D01*
X203181344Y-69498982D01*
X203132723Y-69470891D01*
X203073000Y-69430900D01*
X203006853Y-69386332D01*
X202960916Y-69359060D01*
X202946000Y-69354700D01*
X202927288Y-69348354D01*
X202878536Y-69318813D01*
X202819000Y-69278500D01*
X202752924Y-69234408D01*
X202706994Y-69208251D01*
X202692000Y-69205227D01*
X202676606Y-69206038D01*
X202659528Y-69194272D01*
X202643709Y-69190551D01*
X202634124Y-69216132D01*
X202629672Y-69278072D01*
X202629253Y-69383426D01*
X202629298Y-69388012D01*
X202628429Y-69522402D01*
X202620191Y-69613991D01*
X202600967Y-69670639D01*
X202567140Y-69700205D01*
X202515091Y-69710550D01*
X202480660Y-69710962D01*
X202408051Y-69706076D01*
X202356807Y-69696329D01*
X202348758Y-69692797D01*
X202340778Y-69663570D01*
X202334256Y-69593294D01*
X202329245Y-69491701D01*
X202325801Y-69368523D01*
X202323977Y-69233491D01*
X202323827Y-69096337D01*
X202325406Y-68966794D01*
G36*
X202324113Y-67783062D02*
X202327590Y-67644751D01*
X202335998Y-67547869D01*
X202351210Y-67487739D01*
X202375100Y-67459683D01*
X202409541Y-67459023D01*
X202456407Y-67481080D01*
X202505697Y-67513023D01*
X202567991Y-67552153D01*
X202611458Y-67573152D01*
X202622728Y-67574006D01*
X202645416Y-67581173D01*
X202666090Y-67601487D01*
X202703134Y-67633769D01*
X202721014Y-67640200D01*
X202754047Y-67652960D01*
X202812934Y-67685492D01*
X202851254Y-67709207D01*
X202915280Y-67749146D01*
X202960056Y-67774888D01*
X202971400Y-67779900D01*
X202998524Y-67793366D01*
X203052928Y-67825619D01*
X203085700Y-67846100D01*
X203154845Y-67888778D01*
X203210631Y-67921107D01*
X203225400Y-67928802D01*
X203275742Y-67954906D01*
X203327000Y-67983357D01*
X203390500Y-68019722D01*
X203415900Y-67527136D01*
X203538118Y-67525132D01*
X203613154Y-67529095D01*
X203665392Y-67541428D01*
X203677334Y-67549914D01*
X203684785Y-67586345D01*
X203690207Y-67662160D01*
X203693679Y-67767281D01*
X203695276Y-67891633D01*
X203695077Y-68025138D01*
X203693156Y-68157720D01*
X203689592Y-68279303D01*
X203684462Y-68379809D01*
X203677842Y-68449161D01*
X203670260Y-68476999D01*
X203618021Y-68490972D01*
X203558574Y-68475744D01*
X203526781Y-68448339D01*
X203508506Y-68430843D01*
X203505188Y-68437887D01*
X203489269Y-68439936D01*
X203451516Y-68412652D01*
X203451333Y-68412487D01*
X203407332Y-68378169D01*
X203381483Y-68366761D01*
X203352244Y-68355729D01*
X203296619Y-68324710D01*
X203263500Y-68304104D01*
X203201282Y-68265354D01*
X203158551Y-68241050D01*
X203149200Y-68237100D01*
X203122536Y-68223397D01*
X203067623Y-68189992D01*
X203022200Y-68160900D01*
X202956250Y-68119037D01*
X202909171Y-68091246D01*
X202895200Y-68084700D01*
X202868156Y-68071126D01*
X202813905Y-68038577D01*
X202780900Y-68017697D01*
X202715571Y-67978185D01*
X202666511Y-67952942D01*
X202653900Y-67948690D01*
X202641448Y-67970780D01*
X202632765Y-68036226D01*
X202628697Y-68137668D01*
X202628500Y-68169697D01*
X202624595Y-68297632D01*
X202613408Y-68387851D01*
X202596900Y-68432467D01*
X202553340Y-68454314D01*
X202482867Y-68465054D01*
X202408336Y-68463774D01*
X202352604Y-68449558D01*
X202342964Y-68442631D01*
X202337063Y-68412515D01*
X202331841Y-68340049D01*
X202327639Y-68233681D01*
X202324801Y-68101861D01*
X202323693Y-67967482D01*
X202324113Y-67783062D01*
X202324113Y-67783062D01*
G37*
X202324113Y-67783062D02*
X202327590Y-67644751D01*
X202335998Y-67547869D01*
X202351210Y-67487739D01*
X202375100Y-67459683D01*
X202409541Y-67459023D01*
X202456407Y-67481080D01*
X202505697Y-67513023D01*
X202567991Y-67552153D01*
X202611458Y-67573152D01*
X202622728Y-67574006D01*
X202645416Y-67581173D01*
X202666090Y-67601487D01*
X202703134Y-67633769D01*
X202721014Y-67640200D01*
X202754047Y-67652960D01*
X202812934Y-67685492D01*
X202851254Y-67709207D01*
X202915280Y-67749146D01*
X202960056Y-67774888D01*
X202971400Y-67779900D01*
X202998524Y-67793366D01*
X203052928Y-67825619D01*
X203085700Y-67846100D01*
X203154845Y-67888778D01*
X203210631Y-67921107D01*
X203225400Y-67928802D01*
X203275742Y-67954906D01*
X203327000Y-67983357D01*
X203390500Y-68019722D01*
X203415900Y-67527136D01*
X203538118Y-67525132D01*
X203613154Y-67529095D01*
X203665392Y-67541428D01*
X203677334Y-67549914D01*
X203684785Y-67586345D01*
X203690207Y-67662160D01*
X203693679Y-67767281D01*
X203695276Y-67891633D01*
X203695077Y-68025138D01*
X203693156Y-68157720D01*
X203689592Y-68279303D01*
X203684462Y-68379809D01*
X203677842Y-68449161D01*
X203670260Y-68476999D01*
X203618021Y-68490972D01*
X203558574Y-68475744D01*
X203526781Y-68448339D01*
X203508506Y-68430843D01*
X203505188Y-68437887D01*
X203489269Y-68439936D01*
X203451516Y-68412652D01*
X203451333Y-68412487D01*
X203407332Y-68378169D01*
X203381483Y-68366761D01*
X203352244Y-68355729D01*
X203296619Y-68324710D01*
X203263500Y-68304104D01*
X203201282Y-68265354D01*
X203158551Y-68241050D01*
X203149200Y-68237100D01*
X203122536Y-68223397D01*
X203067623Y-68189992D01*
X203022200Y-68160900D01*
X202956250Y-68119037D01*
X202909171Y-68091246D01*
X202895200Y-68084700D01*
X202868156Y-68071126D01*
X202813905Y-68038577D01*
X202780900Y-68017697D01*
X202715571Y-67978185D01*
X202666511Y-67952942D01*
X202653900Y-67948690D01*
X202641448Y-67970780D01*
X202632765Y-68036226D01*
X202628697Y-68137668D01*
X202628500Y-68169697D01*
X202624595Y-68297632D01*
X202613408Y-68387851D01*
X202596900Y-68432467D01*
X202553340Y-68454314D01*
X202482867Y-68465054D01*
X202408336Y-68463774D01*
X202352604Y-68449558D01*
X202342964Y-68442631D01*
X202337063Y-68412515D01*
X202331841Y-68340049D01*
X202327639Y-68233681D01*
X202324801Y-68101861D01*
X202323693Y-67967482D01*
X202324113Y-67783062D01*
G36*
X201381430Y-70197133D02*
X201409542Y-70112931D01*
X201462513Y-70063366D01*
X201552565Y-70037063D01*
X201553594Y-70036896D01*
X201636995Y-70044939D01*
X201706096Y-70089456D01*
X201754533Y-70157973D01*
X201775946Y-70238019D01*
X201763971Y-70317121D01*
X201724795Y-70372515D01*
X201670919Y-70401224D01*
X201597508Y-70418986D01*
X201592263Y-70419550D01*
X201519632Y-70416640D01*
X201461577Y-70383768D01*
X201433480Y-70356727D01*
X201387979Y-70299007D01*
X201375681Y-70243934D01*
X201381430Y-70197133D01*
X201381430Y-70197133D01*
G37*
X201381430Y-70197133D02*
X201409542Y-70112931D01*
X201462513Y-70063366D01*
X201552565Y-70037063D01*
X201553594Y-70036896D01*
X201636995Y-70044939D01*
X201706096Y-70089456D01*
X201754533Y-70157973D01*
X201775946Y-70238019D01*
X201763971Y-70317121D01*
X201724795Y-70372515D01*
X201670919Y-70401224D01*
X201597508Y-70418986D01*
X201592263Y-70419550D01*
X201519632Y-70416640D01*
X201461577Y-70383768D01*
X201433480Y-70356727D01*
X201387979Y-70299007D01*
X201375681Y-70243934D01*
X201381430Y-70197133D01*
D13*
X158781762Y-74882619D02*
X158686524Y-74835000D01*
X158591286Y-74739762D01*
X158448429Y-74596905D01*
X158353190Y-74549286D01*
X158257952Y-74549286D01*
X158305571Y-74787381D02*
X158210333Y-74739762D01*
X158115095Y-74644524D01*
X158067476Y-74454048D01*
X158067476Y-74120714D01*
X158115095Y-73930238D01*
X158210333Y-73835000D01*
X158305571Y-73787381D01*
X158496048Y-73787381D01*
X158591286Y-73835000D01*
X158686524Y-73930238D01*
X158734143Y-74120714D01*
X158734143Y-74454048D01*
X158686524Y-74644524D01*
X158591286Y-74739762D01*
X158496048Y-74787381D01*
X158305571Y-74787381D01*
X159686524Y-74787381D02*
X159115095Y-74787381D01*
X159400809Y-74787381D02*
X159400809Y-73787381D01*
X159305571Y-73930238D01*
X159210333Y-74025476D01*
X159115095Y-74073095D01*
X151153905Y-78029381D02*
X151153905Y-77029381D01*
X151534858Y-77029381D01*
X151630096Y-77077000D01*
X151677715Y-77124619D01*
X151725334Y-77219857D01*
X151725334Y-77362714D01*
X151677715Y-77457952D01*
X151630096Y-77505571D01*
X151534858Y-77553190D01*
X151153905Y-77553190D01*
X152058667Y-77029381D02*
X152677715Y-77029381D01*
X152344381Y-77410333D01*
X152487239Y-77410333D01*
X152582477Y-77457952D01*
X152630096Y-77505571D01*
X152677715Y-77600810D01*
X152677715Y-77838905D01*
X152630096Y-77934143D01*
X152582477Y-77981762D01*
X152487239Y-78029381D01*
X152201524Y-78029381D01*
X152106286Y-77981762D01*
X152058667Y-77934143D01*
X188412762Y-65841571D02*
X188746096Y-65841571D01*
X188888953Y-66365381D02*
X188412762Y-66365381D01*
X188412762Y-65365381D01*
X188888953Y-65365381D01*
X189269905Y-66317762D02*
X189412762Y-66365381D01*
X189650858Y-66365381D01*
X189746096Y-66317762D01*
X189793715Y-66270143D01*
X189841334Y-66174905D01*
X189841334Y-66079667D01*
X189793715Y-65984429D01*
X189746096Y-65936810D01*
X189650858Y-65889190D01*
X189460381Y-65841571D01*
X189365143Y-65793952D01*
X189317524Y-65746333D01*
X189269905Y-65651095D01*
X189269905Y-65555857D01*
X189317524Y-65460619D01*
X189365143Y-65413000D01*
X189460381Y-65365381D01*
X189698477Y-65365381D01*
X189841334Y-65413000D01*
X190269905Y-66365381D02*
X190269905Y-65365381D01*
X190650858Y-65365381D01*
X190746096Y-65413000D01*
X190793715Y-65460619D01*
X190841334Y-65555857D01*
X190841334Y-65698714D01*
X190793715Y-65793952D01*
X190746096Y-65841571D01*
X190650858Y-65889190D01*
X190269905Y-65889190D01*
X191793715Y-66365381D02*
X191222286Y-66365381D01*
X191508000Y-66365381D02*
X191508000Y-65365381D01*
X191412762Y-65508238D01*
X191317524Y-65603476D01*
X191222286Y-65651095D01*
X192174667Y-65460619D02*
X192222286Y-65413000D01*
X192317524Y-65365381D01*
X192555620Y-65365381D01*
X192650858Y-65413000D01*
X192698477Y-65460619D01*
X192746096Y-65555857D01*
X192746096Y-65651095D01*
X192698477Y-65793952D01*
X192127048Y-66365381D01*
X192746096Y-66365381D01*
X193174667Y-65841571D02*
X193508001Y-65841571D01*
X193650858Y-66365381D02*
X193174667Y-66365381D01*
X193174667Y-65365381D01*
X193650858Y-65365381D01*
X157853143Y-82240381D02*
X157519809Y-81764190D01*
X157281714Y-82240381D02*
X157281714Y-81240381D01*
X157662667Y-81240381D01*
X157757905Y-81288000D01*
X157805524Y-81335619D01*
X157853143Y-81430857D01*
X157853143Y-81573714D01*
X157805524Y-81668952D01*
X157757905Y-81716571D01*
X157662667Y-81764190D01*
X157281714Y-81764190D01*
X158805524Y-82240381D02*
X158234095Y-82240381D01*
X158519809Y-82240381D02*
X158519809Y-81240381D01*
X158424571Y-81383238D01*
X158329333Y-81478476D01*
X158234095Y-81526095D01*
X159376952Y-81668952D02*
X159281714Y-81621333D01*
X159234095Y-81573714D01*
X159186476Y-81478476D01*
X159186476Y-81430857D01*
X159234095Y-81335619D01*
X159281714Y-81288000D01*
X159376952Y-81240381D01*
X159567429Y-81240381D01*
X159662667Y-81288000D01*
X159710286Y-81335619D01*
X159757905Y-81430857D01*
X159757905Y-81478476D01*
X159710286Y-81573714D01*
X159662667Y-81621333D01*
X159567429Y-81668952D01*
X159376952Y-81668952D01*
X159281714Y-81716571D01*
X159234095Y-81764190D01*
X159186476Y-81859429D01*
X159186476Y-82049905D01*
X159234095Y-82145143D01*
X159281714Y-82192762D01*
X159376952Y-82240381D01*
X159567429Y-82240381D01*
X159662667Y-82192762D01*
X159710286Y-82145143D01*
X159757905Y-82049905D01*
X159757905Y-81859429D01*
X159710286Y-81764190D01*
X159662667Y-81716571D01*
X159567429Y-81668952D01*
X190460334Y-91416143D02*
X190412715Y-91463762D01*
X190269858Y-91511381D01*
X190174620Y-91511381D01*
X190031762Y-91463762D01*
X189936524Y-91368524D01*
X189888905Y-91273286D01*
X189841286Y-91082810D01*
X189841286Y-90939952D01*
X189888905Y-90749476D01*
X189936524Y-90654238D01*
X190031762Y-90559000D01*
X190174620Y-90511381D01*
X190269858Y-90511381D01*
X190412715Y-90559000D01*
X190460334Y-90606619D01*
X191412715Y-91511381D02*
X190841286Y-91511381D01*
X191127000Y-91511381D02*
X191127000Y-90511381D01*
X191031762Y-90654238D01*
X190936524Y-90749476D01*
X190841286Y-90797095D01*
X151598334Y-93702143D02*
X151550715Y-93749762D01*
X151407858Y-93797381D01*
X151312620Y-93797381D01*
X151169762Y-93749762D01*
X151074524Y-93654524D01*
X151026905Y-93559286D01*
X150979286Y-93368810D01*
X150979286Y-93225952D01*
X151026905Y-93035476D01*
X151074524Y-92940238D01*
X151169762Y-92845000D01*
X151312620Y-92797381D01*
X151407858Y-92797381D01*
X151550715Y-92845000D01*
X151598334Y-92892619D01*
X151979286Y-92892619D02*
X152026905Y-92845000D01*
X152122143Y-92797381D01*
X152360239Y-92797381D01*
X152455477Y-92845000D01*
X152503096Y-92892619D01*
X152550715Y-92987857D01*
X152550715Y-93083095D01*
X152503096Y-93225952D01*
X151931667Y-93797381D01*
X152550715Y-93797381D01*
X151852334Y-90019143D02*
X151804715Y-90066762D01*
X151661858Y-90114381D01*
X151566620Y-90114381D01*
X151423762Y-90066762D01*
X151328524Y-89971524D01*
X151280905Y-89876286D01*
X151233286Y-89685810D01*
X151233286Y-89542952D01*
X151280905Y-89352476D01*
X151328524Y-89257238D01*
X151423762Y-89162000D01*
X151566620Y-89114381D01*
X151661858Y-89114381D01*
X151804715Y-89162000D01*
X151852334Y-89209619D01*
X152185667Y-89114381D02*
X152804715Y-89114381D01*
X152471381Y-89495333D01*
X152614239Y-89495333D01*
X152709477Y-89542952D01*
X152757096Y-89590571D01*
X152804715Y-89685810D01*
X152804715Y-89923905D01*
X152757096Y-90019143D01*
X152709477Y-90066762D01*
X152614239Y-90114381D01*
X152328524Y-90114381D01*
X152233286Y-90066762D01*
X152185667Y-90019143D01*
X168997334Y-91289143D02*
X168949715Y-91336762D01*
X168806858Y-91384381D01*
X168711620Y-91384381D01*
X168568762Y-91336762D01*
X168473524Y-91241524D01*
X168425905Y-91146286D01*
X168378286Y-90955810D01*
X168378286Y-90812952D01*
X168425905Y-90622476D01*
X168473524Y-90527238D01*
X168568762Y-90432000D01*
X168711620Y-90384381D01*
X168806858Y-90384381D01*
X168949715Y-90432000D01*
X168997334Y-90479619D01*
X169854477Y-90717714D02*
X169854477Y-91384381D01*
X169616381Y-90336762D02*
X169378286Y-91051048D01*
X169997334Y-91051048D01*
X194778334Y-92305143D02*
X194730715Y-92352762D01*
X194587858Y-92400381D01*
X194492620Y-92400381D01*
X194349762Y-92352762D01*
X194254524Y-92257524D01*
X194206905Y-92162286D01*
X194159286Y-91971810D01*
X194159286Y-91828952D01*
X194206905Y-91638476D01*
X194254524Y-91543238D01*
X194349762Y-91448000D01*
X194492620Y-91400381D01*
X194587858Y-91400381D01*
X194730715Y-91448000D01*
X194778334Y-91495619D01*
X195683096Y-91400381D02*
X195206905Y-91400381D01*
X195159286Y-91876571D01*
X195206905Y-91828952D01*
X195302143Y-91781333D01*
X195540239Y-91781333D01*
X195635477Y-91828952D01*
X195683096Y-91876571D01*
X195730715Y-91971810D01*
X195730715Y-92209905D01*
X195683096Y-92305143D01*
X195635477Y-92352762D01*
X195540239Y-92400381D01*
X195302143Y-92400381D01*
X195206905Y-92352762D01*
X195159286Y-92305143D01*
X147423143Y-77128666D02*
X147470762Y-77176285D01*
X147518381Y-77319142D01*
X147518381Y-77414380D01*
X147470762Y-77557238D01*
X147375524Y-77652476D01*
X147280286Y-77700095D01*
X147089810Y-77747714D01*
X146946952Y-77747714D01*
X146756476Y-77700095D01*
X146661238Y-77652476D01*
X146566000Y-77557238D01*
X146518381Y-77414380D01*
X146518381Y-77319142D01*
X146566000Y-77176285D01*
X146613619Y-77128666D01*
X146518381Y-76271523D02*
X146518381Y-76462000D01*
X146566000Y-76557238D01*
X146613619Y-76604857D01*
X146756476Y-76700095D01*
X146946952Y-76747714D01*
X147327905Y-76747714D01*
X147423143Y-76700095D01*
X147470762Y-76652476D01*
X147518381Y-76557238D01*
X147518381Y-76366761D01*
X147470762Y-76271523D01*
X147423143Y-76223904D01*
X147327905Y-76176285D01*
X147089810Y-76176285D01*
X146994571Y-76223904D01*
X146946952Y-76271523D01*
X146899333Y-76366761D01*
X146899333Y-76557238D01*
X146946952Y-76652476D01*
X146994571Y-76700095D01*
X147089810Y-76747714D01*
X194778334Y-81764143D02*
X194730715Y-81811762D01*
X194587858Y-81859381D01*
X194492620Y-81859381D01*
X194349762Y-81811762D01*
X194254524Y-81716524D01*
X194206905Y-81621286D01*
X194159286Y-81430810D01*
X194159286Y-81287952D01*
X194206905Y-81097476D01*
X194254524Y-81002238D01*
X194349762Y-80907000D01*
X194492620Y-80859381D01*
X194587858Y-80859381D01*
X194730715Y-80907000D01*
X194778334Y-80954619D01*
X195111667Y-80859381D02*
X195778334Y-80859381D01*
X195349762Y-81859381D01*
X194778334Y-83288143D02*
X194730715Y-83335762D01*
X194587858Y-83383381D01*
X194492620Y-83383381D01*
X194349762Y-83335762D01*
X194254524Y-83240524D01*
X194206905Y-83145286D01*
X194159286Y-82954810D01*
X194159286Y-82811952D01*
X194206905Y-82621476D01*
X194254524Y-82526238D01*
X194349762Y-82431000D01*
X194492620Y-82383381D01*
X194587858Y-82383381D01*
X194730715Y-82431000D01*
X194778334Y-82478619D01*
X195349762Y-82811952D02*
X195254524Y-82764333D01*
X195206905Y-82716714D01*
X195159286Y-82621476D01*
X195159286Y-82573857D01*
X195206905Y-82478619D01*
X195254524Y-82431000D01*
X195349762Y-82383381D01*
X195540239Y-82383381D01*
X195635477Y-82431000D01*
X195683096Y-82478619D01*
X195730715Y-82573857D01*
X195730715Y-82621476D01*
X195683096Y-82716714D01*
X195635477Y-82764333D01*
X195540239Y-82811952D01*
X195349762Y-82811952D01*
X195254524Y-82859571D01*
X195206905Y-82907190D01*
X195159286Y-83002429D01*
X195159286Y-83192905D01*
X195206905Y-83288143D01*
X195254524Y-83335762D01*
X195349762Y-83383381D01*
X195540239Y-83383381D01*
X195635477Y-83335762D01*
X195683096Y-83288143D01*
X195730715Y-83192905D01*
X195730715Y-83002429D01*
X195683096Y-82907190D01*
X195635477Y-82859571D01*
X195540239Y-82811952D01*
X186015334Y-91924143D02*
X185967715Y-91971762D01*
X185824858Y-92019381D01*
X185729620Y-92019381D01*
X185586762Y-91971762D01*
X185491524Y-91876524D01*
X185443905Y-91781286D01*
X185396286Y-91590810D01*
X185396286Y-91447952D01*
X185443905Y-91257476D01*
X185491524Y-91162238D01*
X185586762Y-91067000D01*
X185729620Y-91019381D01*
X185824858Y-91019381D01*
X185967715Y-91067000D01*
X186015334Y-91114619D01*
X186491524Y-92019381D02*
X186682000Y-92019381D01*
X186777239Y-91971762D01*
X186824858Y-91924143D01*
X186920096Y-91781286D01*
X186967715Y-91590810D01*
X186967715Y-91209857D01*
X186920096Y-91114619D01*
X186872477Y-91067000D01*
X186777239Y-91019381D01*
X186586762Y-91019381D01*
X186491524Y-91067000D01*
X186443905Y-91114619D01*
X186396286Y-91209857D01*
X186396286Y-91447952D01*
X186443905Y-91543190D01*
X186491524Y-91590810D01*
X186586762Y-91638429D01*
X186777239Y-91638429D01*
X186872477Y-91590810D01*
X186920096Y-91543190D01*
X186967715Y-91447952D01*
X178935143Y-72366143D02*
X178887524Y-72413762D01*
X178744667Y-72461381D01*
X178649429Y-72461381D01*
X178506571Y-72413762D01*
X178411333Y-72318524D01*
X178363714Y-72223286D01*
X178316095Y-72032810D01*
X178316095Y-71889952D01*
X178363714Y-71699476D01*
X178411333Y-71604238D01*
X178506571Y-71509000D01*
X178649429Y-71461381D01*
X178744667Y-71461381D01*
X178887524Y-71509000D01*
X178935143Y-71556619D01*
X179887524Y-72461381D02*
X179316095Y-72461381D01*
X179601809Y-72461381D02*
X179601809Y-71461381D01*
X179506571Y-71604238D01*
X179411333Y-71699476D01*
X179316095Y-71747095D01*
X180506571Y-71461381D02*
X180601810Y-71461381D01*
X180697048Y-71509000D01*
X180744667Y-71556619D01*
X180792286Y-71651857D01*
X180839905Y-71842333D01*
X180839905Y-72080429D01*
X180792286Y-72270905D01*
X180744667Y-72366143D01*
X180697048Y-72413762D01*
X180601810Y-72461381D01*
X180506571Y-72461381D01*
X180411333Y-72413762D01*
X180363714Y-72366143D01*
X180316095Y-72270905D01*
X180268476Y-72080429D01*
X180268476Y-71842333D01*
X180316095Y-71651857D01*
X180363714Y-71556619D01*
X180411333Y-71509000D01*
X180506571Y-71461381D01*
X180744905Y-91638381D02*
X180744905Y-90638381D01*
X180983000Y-90638381D01*
X181125858Y-90686000D01*
X181221096Y-90781238D01*
X181268715Y-90876476D01*
X181316334Y-91066952D01*
X181316334Y-91209810D01*
X181268715Y-91400286D01*
X181221096Y-91495524D01*
X181125858Y-91590762D01*
X180983000Y-91638381D01*
X180744905Y-91638381D01*
X182268715Y-91638381D02*
X181697286Y-91638381D01*
X181983000Y-91638381D02*
X181983000Y-90638381D01*
X181887762Y-90781238D01*
X181792524Y-90876476D01*
X181697286Y-90924095D01*
X165512762Y-77255619D02*
X165417524Y-77208000D01*
X165322286Y-77112762D01*
X165179429Y-76969905D01*
X165084190Y-76922286D01*
X164988952Y-76922286D01*
X165036571Y-77160381D02*
X164941333Y-77112762D01*
X164846095Y-77017524D01*
X164798476Y-76827048D01*
X164798476Y-76493714D01*
X164846095Y-76303238D01*
X164941333Y-76208000D01*
X165036571Y-76160381D01*
X165227048Y-76160381D01*
X165322286Y-76208000D01*
X165417524Y-76303238D01*
X165465143Y-76493714D01*
X165465143Y-76827048D01*
X165417524Y-77017524D01*
X165322286Y-77112762D01*
X165227048Y-77160381D01*
X165036571Y-77160381D01*
X165846095Y-76255619D02*
X165893714Y-76208000D01*
X165988952Y-76160381D01*
X166227048Y-76160381D01*
X166322286Y-76208000D01*
X166369905Y-76255619D01*
X166417524Y-76350857D01*
X166417524Y-76446095D01*
X166369905Y-76588952D01*
X165798476Y-77160381D01*
X166417524Y-77160381D01*
X167600334Y-80843381D02*
X167267000Y-80367190D01*
X167028905Y-80843381D02*
X167028905Y-79843381D01*
X167409858Y-79843381D01*
X167505096Y-79891000D01*
X167552715Y-79938619D01*
X167600334Y-80033857D01*
X167600334Y-80176714D01*
X167552715Y-80271952D01*
X167505096Y-80319571D01*
X167409858Y-80367190D01*
X167028905Y-80367190D01*
X168552715Y-80843381D02*
X167981286Y-80843381D01*
X168267000Y-80843381D02*
X168267000Y-79843381D01*
X168171762Y-79986238D01*
X168076524Y-80081476D01*
X167981286Y-80129095D01*
X167473334Y-82494381D02*
X167140000Y-82018190D01*
X166901905Y-82494381D02*
X166901905Y-81494381D01*
X167282858Y-81494381D01*
X167378096Y-81542000D01*
X167425715Y-81589619D01*
X167473334Y-81684857D01*
X167473334Y-81827714D01*
X167425715Y-81922952D01*
X167378096Y-81970571D01*
X167282858Y-82018190D01*
X166901905Y-82018190D01*
X167854286Y-81589619D02*
X167901905Y-81542000D01*
X167997143Y-81494381D01*
X168235239Y-81494381D01*
X168330477Y-81542000D01*
X168378096Y-81589619D01*
X168425715Y-81684857D01*
X168425715Y-81780095D01*
X168378096Y-81922952D01*
X167806667Y-82494381D01*
X168425715Y-82494381D01*
X174458334Y-93543381D02*
X174125000Y-93067190D01*
X173886905Y-93543381D02*
X173886905Y-92543381D01*
X174267858Y-92543381D01*
X174363096Y-92591000D01*
X174410715Y-92638619D01*
X174458334Y-92733857D01*
X174458334Y-92876714D01*
X174410715Y-92971952D01*
X174363096Y-93019571D01*
X174267858Y-93067190D01*
X173886905Y-93067190D01*
X174791667Y-92543381D02*
X175410715Y-92543381D01*
X175077381Y-92924333D01*
X175220239Y-92924333D01*
X175315477Y-92971952D01*
X175363096Y-93019571D01*
X175410715Y-93114810D01*
X175410715Y-93352905D01*
X175363096Y-93448143D01*
X175315477Y-93495762D01*
X175220239Y-93543381D01*
X174934524Y-93543381D01*
X174839286Y-93495762D01*
X174791667Y-93448143D01*
X162520334Y-72139381D02*
X162187000Y-71663190D01*
X161948905Y-72139381D02*
X161948905Y-71139381D01*
X162329858Y-71139381D01*
X162425096Y-71187000D01*
X162472715Y-71234619D01*
X162520334Y-71329857D01*
X162520334Y-71472714D01*
X162472715Y-71567952D01*
X162425096Y-71615571D01*
X162329858Y-71663190D01*
X161948905Y-71663190D01*
X163377477Y-71472714D02*
X163377477Y-72139381D01*
X163139381Y-71091762D02*
X162901286Y-71806048D01*
X163520334Y-71806048D01*
X168997334Y-93416381D02*
X168664000Y-92940190D01*
X168425905Y-93416381D02*
X168425905Y-92416381D01*
X168806858Y-92416381D01*
X168902096Y-92464000D01*
X168949715Y-92511619D01*
X168997334Y-92606857D01*
X168997334Y-92749714D01*
X168949715Y-92844952D01*
X168902096Y-92892571D01*
X168806858Y-92940190D01*
X168425905Y-92940190D01*
X169902096Y-92416381D02*
X169425905Y-92416381D01*
X169378286Y-92892571D01*
X169425905Y-92844952D01*
X169521143Y-92797333D01*
X169759239Y-92797333D01*
X169854477Y-92844952D01*
X169902096Y-92892571D01*
X169949715Y-92987810D01*
X169949715Y-93225905D01*
X169902096Y-93321143D01*
X169854477Y-93368762D01*
X169759239Y-93416381D01*
X169521143Y-93416381D01*
X169425905Y-93368762D01*
X169378286Y-93321143D01*
X165949334Y-72080381D02*
X165616000Y-71604190D01*
X165377905Y-72080381D02*
X165377905Y-71080381D01*
X165758858Y-71080381D01*
X165854096Y-71128000D01*
X165901715Y-71175619D01*
X165949334Y-71270857D01*
X165949334Y-71413714D01*
X165901715Y-71508952D01*
X165854096Y-71556571D01*
X165758858Y-71604190D01*
X165377905Y-71604190D01*
X166806477Y-71080381D02*
X166616000Y-71080381D01*
X166520762Y-71128000D01*
X166473143Y-71175619D01*
X166377905Y-71318476D01*
X166330286Y-71508952D01*
X166330286Y-71889905D01*
X166377905Y-71985143D01*
X166425524Y-72032762D01*
X166520762Y-72080381D01*
X166711239Y-72080381D01*
X166806477Y-72032762D01*
X166854096Y-71985143D01*
X166901715Y-71889905D01*
X166901715Y-71651810D01*
X166854096Y-71556571D01*
X166806477Y-71508952D01*
X166711239Y-71461333D01*
X166520762Y-71461333D01*
X166425524Y-71508952D01*
X166377905Y-71556571D01*
X166330286Y-71651810D01*
X177744381Y-65698666D02*
X177268190Y-66032000D01*
X177744381Y-66270095D02*
X176744381Y-66270095D01*
X176744381Y-65889142D01*
X176792000Y-65793904D01*
X176839619Y-65746285D01*
X176934857Y-65698666D01*
X177077714Y-65698666D01*
X177172952Y-65746285D01*
X177220571Y-65793904D01*
X177268190Y-65889142D01*
X177268190Y-66270095D01*
X176744381Y-65365333D02*
X176744381Y-64698666D01*
X177744381Y-65127238D01*
X201561381Y-82462666D02*
X201085190Y-82796000D01*
X201561381Y-83034095D02*
X200561381Y-83034095D01*
X200561381Y-82653142D01*
X200609000Y-82557904D01*
X200656619Y-82510285D01*
X200751857Y-82462666D01*
X200894714Y-82462666D01*
X200989952Y-82510285D01*
X201037571Y-82557904D01*
X201085190Y-82653142D01*
X201085190Y-83034095D01*
X200989952Y-81891238D02*
X200942333Y-81986476D01*
X200894714Y-82034095D01*
X200799476Y-82081714D01*
X200751857Y-82081714D01*
X200656619Y-82034095D01*
X200609000Y-81986476D01*
X200561381Y-81891238D01*
X200561381Y-81700761D01*
X200609000Y-81605523D01*
X200656619Y-81557904D01*
X200751857Y-81510285D01*
X200799476Y-81510285D01*
X200894714Y-81557904D01*
X200942333Y-81605523D01*
X200989952Y-81700761D01*
X200989952Y-81891238D01*
X201037571Y-81986476D01*
X201085190Y-82034095D01*
X201180429Y-82081714D01*
X201370905Y-82081714D01*
X201466143Y-82034095D01*
X201513762Y-81986476D01*
X201561381Y-81891238D01*
X201561381Y-81700761D01*
X201513762Y-81605523D01*
X201466143Y-81557904D01*
X201370905Y-81510285D01*
X201180429Y-81510285D01*
X201085190Y-81557904D01*
X201037571Y-81605523D01*
X200989952Y-81700761D01*
X199985334Y-93348381D02*
X199652000Y-92872190D01*
X199413905Y-93348381D02*
X199413905Y-92348381D01*
X199794858Y-92348381D01*
X199890096Y-92396000D01*
X199937715Y-92443619D01*
X199985334Y-92538857D01*
X199985334Y-92681714D01*
X199937715Y-92776952D01*
X199890096Y-92824571D01*
X199794858Y-92872190D01*
X199413905Y-92872190D01*
X200461524Y-93348381D02*
X200652000Y-93348381D01*
X200747239Y-93300762D01*
X200794858Y-93253143D01*
X200890096Y-93110286D01*
X200937715Y-92919810D01*
X200937715Y-92538857D01*
X200890096Y-92443619D01*
X200842477Y-92396000D01*
X200747239Y-92348381D01*
X200556762Y-92348381D01*
X200461524Y-92396000D01*
X200413905Y-92443619D01*
X200366286Y-92538857D01*
X200366286Y-92776952D01*
X200413905Y-92872190D01*
X200461524Y-92919810D01*
X200556762Y-92967429D01*
X200747239Y-92967429D01*
X200842477Y-92919810D01*
X200890096Y-92872190D01*
X200937715Y-92776952D01*
X190746143Y-93348381D02*
X190412809Y-92872190D01*
X190174714Y-93348381D02*
X190174714Y-92348381D01*
X190555667Y-92348381D01*
X190650905Y-92396000D01*
X190698524Y-92443619D01*
X190746143Y-92538857D01*
X190746143Y-92681714D01*
X190698524Y-92776952D01*
X190650905Y-92824571D01*
X190555667Y-92872190D01*
X190174714Y-92872190D01*
X191698524Y-93348381D02*
X191127095Y-93348381D01*
X191412809Y-93348381D02*
X191412809Y-92348381D01*
X191317571Y-92491238D01*
X191222333Y-92586476D01*
X191127095Y-92634095D01*
X192317571Y-92348381D02*
X192412810Y-92348381D01*
X192508048Y-92396000D01*
X192555667Y-92443619D01*
X192603286Y-92538857D01*
X192650905Y-92729333D01*
X192650905Y-92967429D01*
X192603286Y-93157905D01*
X192555667Y-93253143D01*
X192508048Y-93300762D01*
X192412810Y-93348381D01*
X192317571Y-93348381D01*
X192222333Y-93300762D01*
X192174714Y-93253143D01*
X192127095Y-93157905D01*
X192079476Y-92967429D01*
X192079476Y-92729333D01*
X192127095Y-92538857D01*
X192174714Y-92443619D01*
X192222333Y-92396000D01*
X192317571Y-92348381D01*
X182364143Y-93348381D02*
X182030809Y-92872190D01*
X181792714Y-93348381D02*
X181792714Y-92348381D01*
X182173667Y-92348381D01*
X182268905Y-92396000D01*
X182316524Y-92443619D01*
X182364143Y-92538857D01*
X182364143Y-92681714D01*
X182316524Y-92776952D01*
X182268905Y-92824571D01*
X182173667Y-92872190D01*
X181792714Y-92872190D01*
X183316524Y-93348381D02*
X182745095Y-93348381D01*
X183030809Y-93348381D02*
X183030809Y-92348381D01*
X182935571Y-92491238D01*
X182840333Y-92586476D01*
X182745095Y-92634095D01*
X184268905Y-93348381D02*
X183697476Y-93348381D01*
X183983190Y-93348381D02*
X183983190Y-92348381D01*
X183887952Y-92491238D01*
X183792714Y-92586476D01*
X183697476Y-92634095D01*
X169029143Y-95448381D02*
X168695809Y-94972190D01*
X168457714Y-95448381D02*
X168457714Y-94448381D01*
X168838667Y-94448381D01*
X168933905Y-94496000D01*
X168981524Y-94543619D01*
X169029143Y-94638857D01*
X169029143Y-94781714D01*
X168981524Y-94876952D01*
X168933905Y-94924571D01*
X168838667Y-94972190D01*
X168457714Y-94972190D01*
X169981524Y-95448381D02*
X169410095Y-95448381D01*
X169695809Y-95448381D02*
X169695809Y-94448381D01*
X169600571Y-94591238D01*
X169505333Y-94686476D01*
X169410095Y-94734095D01*
X170362476Y-94543619D02*
X170410095Y-94496000D01*
X170505333Y-94448381D01*
X170743429Y-94448381D01*
X170838667Y-94496000D01*
X170886286Y-94543619D01*
X170933905Y-94638857D01*
X170933905Y-94734095D01*
X170886286Y-94876952D01*
X170314857Y-95448381D01*
X170933905Y-95448381D01*
X180713143Y-81732381D02*
X180379809Y-81256190D01*
X180141714Y-81732381D02*
X180141714Y-80732381D01*
X180522667Y-80732381D01*
X180617905Y-80780000D01*
X180665524Y-80827619D01*
X180713143Y-80922857D01*
X180713143Y-81065714D01*
X180665524Y-81160952D01*
X180617905Y-81208571D01*
X180522667Y-81256190D01*
X180141714Y-81256190D01*
X181665524Y-81732381D02*
X181094095Y-81732381D01*
X181379809Y-81732381D02*
X181379809Y-80732381D01*
X181284571Y-80875238D01*
X181189333Y-80970476D01*
X181094095Y-81018095D01*
X181998857Y-80732381D02*
X182617905Y-80732381D01*
X182284571Y-81113333D01*
X182427429Y-81113333D01*
X182522667Y-81160952D01*
X182570286Y-81208571D01*
X182617905Y-81303810D01*
X182617905Y-81541905D01*
X182570286Y-81637143D01*
X182522667Y-81684762D01*
X182427429Y-81732381D01*
X182141714Y-81732381D01*
X182046476Y-81684762D01*
X181998857Y-81637143D01*
X185539143Y-83188381D02*
X185205809Y-82712190D01*
X184967714Y-83188381D02*
X184967714Y-82188381D01*
X185348667Y-82188381D01*
X185443905Y-82236000D01*
X185491524Y-82283619D01*
X185539143Y-82378857D01*
X185539143Y-82521714D01*
X185491524Y-82616952D01*
X185443905Y-82664571D01*
X185348667Y-82712190D01*
X184967714Y-82712190D01*
X186491524Y-83188381D02*
X185920095Y-83188381D01*
X186205809Y-83188381D02*
X186205809Y-82188381D01*
X186110571Y-82331238D01*
X186015333Y-82426476D01*
X185920095Y-82474095D01*
X187348667Y-82521714D02*
X187348667Y-83188381D01*
X187110571Y-82140762D02*
X186872476Y-82855048D01*
X187491524Y-82855048D01*
X180713143Y-83383381D02*
X180379809Y-82907190D01*
X180141714Y-83383381D02*
X180141714Y-82383381D01*
X180522667Y-82383381D01*
X180617905Y-82431000D01*
X180665524Y-82478619D01*
X180713143Y-82573857D01*
X180713143Y-82716714D01*
X180665524Y-82811952D01*
X180617905Y-82859571D01*
X180522667Y-82907190D01*
X180141714Y-82907190D01*
X181665524Y-83383381D02*
X181094095Y-83383381D01*
X181379809Y-83383381D02*
X181379809Y-82383381D01*
X181284571Y-82526238D01*
X181189333Y-82621476D01*
X181094095Y-82669095D01*
X182570286Y-82383381D02*
X182094095Y-82383381D01*
X182046476Y-82859571D01*
X182094095Y-82811952D01*
X182189333Y-82764333D01*
X182427429Y-82764333D01*
X182522667Y-82811952D01*
X182570286Y-82859571D01*
X182617905Y-82954810D01*
X182617905Y-83192905D01*
X182570286Y-83288143D01*
X182522667Y-83335762D01*
X182427429Y-83383381D01*
X182189333Y-83383381D01*
X182094095Y-83335762D01*
X182046476Y-83288143D01*
X178935143Y-73985381D02*
X178601809Y-73509190D01*
X178363714Y-73985381D02*
X178363714Y-72985381D01*
X178744667Y-72985381D01*
X178839905Y-73033000D01*
X178887524Y-73080619D01*
X178935143Y-73175857D01*
X178935143Y-73318714D01*
X178887524Y-73413952D01*
X178839905Y-73461571D01*
X178744667Y-73509190D01*
X178363714Y-73509190D01*
X179887524Y-73985381D02*
X179316095Y-73985381D01*
X179601809Y-73985381D02*
X179601809Y-72985381D01*
X179506571Y-73128238D01*
X179411333Y-73223476D01*
X179316095Y-73271095D01*
X180744667Y-72985381D02*
X180554190Y-72985381D01*
X180458952Y-73033000D01*
X180411333Y-73080619D01*
X180316095Y-73223476D01*
X180268476Y-73413952D01*
X180268476Y-73794905D01*
X180316095Y-73890143D01*
X180363714Y-73937762D01*
X180458952Y-73985381D01*
X180649429Y-73985381D01*
X180744667Y-73937762D01*
X180792286Y-73890143D01*
X180839905Y-73794905D01*
X180839905Y-73556810D01*
X180792286Y-73461571D01*
X180744667Y-73413952D01*
X180649429Y-73366333D01*
X180458952Y-73366333D01*
X180363714Y-73413952D01*
X180316095Y-73461571D01*
X180268476Y-73556810D01*
X162044143Y-82240381D02*
X161710809Y-81764190D01*
X161472714Y-82240381D02*
X161472714Y-81240381D01*
X161853667Y-81240381D01*
X161948905Y-81288000D01*
X161996524Y-81335619D01*
X162044143Y-81430857D01*
X162044143Y-81573714D01*
X161996524Y-81668952D01*
X161948905Y-81716571D01*
X161853667Y-81764190D01*
X161472714Y-81764190D01*
X162996524Y-82240381D02*
X162425095Y-82240381D01*
X162710809Y-82240381D02*
X162710809Y-81240381D01*
X162615571Y-81383238D01*
X162520333Y-81478476D01*
X162425095Y-81526095D01*
X163329857Y-81240381D02*
X163996524Y-81240381D01*
X163567952Y-82240381D01*
X179062143Y-62047381D02*
X178728809Y-61571190D01*
X178490714Y-62047381D02*
X178490714Y-61047381D01*
X178871667Y-61047381D01*
X178966905Y-61095000D01*
X179014524Y-61142619D01*
X179062143Y-61237857D01*
X179062143Y-61380714D01*
X179014524Y-61475952D01*
X178966905Y-61523571D01*
X178871667Y-61571190D01*
X178490714Y-61571190D01*
X180014524Y-62047381D02*
X179443095Y-62047381D01*
X179728809Y-62047381D02*
X179728809Y-61047381D01*
X179633571Y-61190238D01*
X179538333Y-61285476D01*
X179443095Y-61333095D01*
X180490714Y-62047381D02*
X180681190Y-62047381D01*
X180776429Y-61999762D01*
X180824048Y-61952143D01*
X180919286Y-61809286D01*
X180966905Y-61618810D01*
X180966905Y-61237857D01*
X180919286Y-61142619D01*
X180871667Y-61095000D01*
X180776429Y-61047381D01*
X180585952Y-61047381D01*
X180490714Y-61095000D01*
X180443095Y-61142619D01*
X180395476Y-61237857D01*
X180395476Y-61475952D01*
X180443095Y-61571190D01*
X180490714Y-61618810D01*
X180585952Y-61666429D01*
X180776429Y-61666429D01*
X180871667Y-61618810D01*
X180919286Y-61571190D01*
X180966905Y-61475952D01*
X181368381Y-76461857D02*
X180892190Y-76795191D01*
X181368381Y-77033286D02*
X180368381Y-77033286D01*
X180368381Y-76652333D01*
X180416000Y-76557095D01*
X180463619Y-76509476D01*
X180558857Y-76461857D01*
X180701714Y-76461857D01*
X180796952Y-76509476D01*
X180844571Y-76557095D01*
X180892190Y-76652333D01*
X180892190Y-77033286D01*
X180463619Y-76080905D02*
X180416000Y-76033286D01*
X180368381Y-75938048D01*
X180368381Y-75699952D01*
X180416000Y-75604714D01*
X180463619Y-75557095D01*
X180558857Y-75509476D01*
X180654095Y-75509476D01*
X180796952Y-75557095D01*
X181368381Y-76128524D01*
X181368381Y-75509476D01*
X180368381Y-74890429D02*
X180368381Y-74795190D01*
X180416000Y-74699952D01*
X180463619Y-74652333D01*
X180558857Y-74604714D01*
X180749333Y-74557095D01*
X180987429Y-74557095D01*
X181177905Y-74604714D01*
X181273143Y-74652333D01*
X181320762Y-74699952D01*
X181368381Y-74795190D01*
X181368381Y-74890429D01*
X181320762Y-74985667D01*
X181273143Y-75033286D01*
X181177905Y-75080905D01*
X180987429Y-75128524D01*
X180749333Y-75128524D01*
X180558857Y-75080905D01*
X180463619Y-75033286D01*
X180416000Y-74985667D01*
X180368381Y-74890429D01*
X189865095Y-82277381D02*
X189865095Y-83086905D01*
X189912714Y-83182143D01*
X189960333Y-83229762D01*
X190055571Y-83277381D01*
X190246048Y-83277381D01*
X190341286Y-83229762D01*
X190388905Y-83182143D01*
X190436524Y-83086905D01*
X190436524Y-82277381D01*
X191436524Y-83277381D02*
X190865095Y-83277381D01*
X191150809Y-83277381D02*
X191150809Y-82277381D01*
X191055571Y-82420238D01*
X190960333Y-82515476D01*
X190865095Y-82563095D01*
X158456381Y-87375905D02*
X159265905Y-87375905D01*
X159361143Y-87328286D01*
X159408762Y-87280667D01*
X159456381Y-87185429D01*
X159456381Y-86994952D01*
X159408762Y-86899714D01*
X159361143Y-86852095D01*
X159265905Y-86804476D01*
X158456381Y-86804476D01*
X158551619Y-86375905D02*
X158504000Y-86328286D01*
X158456381Y-86233048D01*
X158456381Y-85994952D01*
X158504000Y-85899714D01*
X158551619Y-85852095D01*
X158646857Y-85804476D01*
X158742095Y-85804476D01*
X158884952Y-85852095D01*
X159456381Y-86423524D01*
X159456381Y-85804476D01*
X158654809Y-93448190D02*
X158654809Y-93924381D01*
X158321476Y-92924381D02*
X158654809Y-93448190D01*
X158988143Y-92924381D01*
X159845286Y-93924381D02*
X159273857Y-93924381D01*
X159559571Y-93924381D02*
X159559571Y-92924381D01*
X159464333Y-93067238D01*
X159369095Y-93162476D01*
X159273857Y-93210095D01*
X145907571Y-103767000D02*
X145907571Y-103433666D01*
X146431381Y-103290809D02*
X146431381Y-103767000D01*
X145431381Y-103767000D01*
X145431381Y-103290809D01*
X145431381Y-102957476D02*
X146431381Y-102290809D01*
X145431381Y-102290809D02*
X146431381Y-102957476D01*
X145431381Y-102052714D02*
X145431381Y-101481285D01*
X146431381Y-101767000D02*
X145431381Y-101767000D01*
X146431381Y-100576523D02*
X145955190Y-100909857D01*
X146431381Y-101147952D02*
X145431381Y-101147952D01*
X145431381Y-100766999D01*
X145479000Y-100671761D01*
X145526619Y-100624142D01*
X145621857Y-100576523D01*
X145764714Y-100576523D01*
X145859952Y-100624142D01*
X145907571Y-100671761D01*
X145955190Y-100766999D01*
X145955190Y-101147952D01*
X146145667Y-100195571D02*
X146145667Y-99719380D01*
X146431381Y-100290809D02*
X145431381Y-99957476D01*
X146431381Y-99624142D01*
X154654667Y-104386048D02*
X154654667Y-103909857D01*
X154940381Y-104481286D02*
X153940381Y-104147953D01*
X154940381Y-103814619D01*
X154940381Y-103481286D02*
X153940381Y-103481286D01*
X154940381Y-102909857D01*
X153940381Y-102909857D01*
X154654667Y-102481286D02*
X154654667Y-102005095D01*
X154940381Y-102576524D02*
X153940381Y-102243191D01*
X154940381Y-101909857D01*
X154940381Y-101100333D02*
X154940381Y-101576524D01*
X153940381Y-101576524D01*
X153940381Y-100576524D02*
X153940381Y-100386047D01*
X153988000Y-100290809D01*
X154083238Y-100195571D01*
X154273714Y-100147952D01*
X154607048Y-100147952D01*
X154797524Y-100195571D01*
X154892762Y-100290809D01*
X154940381Y-100386047D01*
X154940381Y-100576524D01*
X154892762Y-100671762D01*
X154797524Y-100767000D01*
X154607048Y-100814619D01*
X154273714Y-100814619D01*
X154083238Y-100767000D01*
X153988000Y-100671762D01*
X153940381Y-100576524D01*
X153988000Y-99195571D02*
X153940381Y-99290809D01*
X153940381Y-99433666D01*
X153988000Y-99576524D01*
X154083238Y-99671762D01*
X154178476Y-99719381D01*
X154368952Y-99767000D01*
X154511810Y-99767000D01*
X154702286Y-99719381D01*
X154797524Y-99671762D01*
X154892762Y-99576524D01*
X154940381Y-99433666D01*
X154940381Y-99338428D01*
X154892762Y-99195571D01*
X154845143Y-99147952D01*
X154511810Y-99147952D01*
X154511810Y-99338428D01*
X196580571Y-103481285D02*
X196580571Y-103814619D01*
X197104381Y-103814619D02*
X196104381Y-103814619D01*
X196104381Y-103338428D01*
X196818667Y-103005095D02*
X196818667Y-102528904D01*
X197104381Y-103100333D02*
X196104381Y-102767000D01*
X197104381Y-102433666D01*
X197009143Y-101528904D02*
X197056762Y-101576523D01*
X197104381Y-101719380D01*
X197104381Y-101814618D01*
X197056762Y-101957476D01*
X196961524Y-102052714D01*
X196866286Y-102100333D01*
X196675810Y-102147952D01*
X196532952Y-102147952D01*
X196342476Y-102100333D01*
X196247238Y-102052714D01*
X196152000Y-101957476D01*
X196104381Y-101814618D01*
X196104381Y-101719380D01*
X196152000Y-101576523D01*
X196199619Y-101528904D01*
X196580571Y-101100333D02*
X196580571Y-100766999D01*
X197104381Y-100624142D02*
X197104381Y-101100333D01*
X196104381Y-101100333D01*
X196104381Y-100624142D01*
X197104381Y-99671761D02*
X197104381Y-100243190D01*
X197104381Y-99957476D02*
X196104381Y-99957476D01*
X196247238Y-100052714D01*
X196342476Y-100147952D01*
X196390095Y-100243190D01*
X187817571Y-103481285D02*
X187817571Y-103814619D01*
X188341381Y-103814619D02*
X187341381Y-103814619D01*
X187341381Y-103338428D01*
X188055667Y-103005095D02*
X188055667Y-102528904D01*
X188341381Y-103100333D02*
X187341381Y-102767000D01*
X188341381Y-102433666D01*
X188246143Y-101528904D02*
X188293762Y-101576523D01*
X188341381Y-101719380D01*
X188341381Y-101814618D01*
X188293762Y-101957476D01*
X188198524Y-102052714D01*
X188103286Y-102100333D01*
X187912810Y-102147952D01*
X187769952Y-102147952D01*
X187579476Y-102100333D01*
X187484238Y-102052714D01*
X187389000Y-101957476D01*
X187341381Y-101814618D01*
X187341381Y-101719380D01*
X187389000Y-101576523D01*
X187436619Y-101528904D01*
X187817571Y-101100333D02*
X187817571Y-100766999D01*
X188341381Y-100624142D02*
X188341381Y-101100333D01*
X187341381Y-101100333D01*
X187341381Y-100624142D01*
X187436619Y-100243190D02*
X187389000Y-100195571D01*
X187341381Y-100100333D01*
X187341381Y-99862237D01*
X187389000Y-99766999D01*
X187436619Y-99719380D01*
X187531857Y-99671761D01*
X187627095Y-99671761D01*
X187769952Y-99719380D01*
X188341381Y-100290809D01*
X188341381Y-99671761D01*
X179435571Y-103481285D02*
X179435571Y-103814619D01*
X179959381Y-103814619D02*
X178959381Y-103814619D01*
X178959381Y-103338428D01*
X179673667Y-103005095D02*
X179673667Y-102528904D01*
X179959381Y-103100333D02*
X178959381Y-102767000D01*
X179959381Y-102433666D01*
X179864143Y-101528904D02*
X179911762Y-101576523D01*
X179959381Y-101719380D01*
X179959381Y-101814618D01*
X179911762Y-101957476D01*
X179816524Y-102052714D01*
X179721286Y-102100333D01*
X179530810Y-102147952D01*
X179387952Y-102147952D01*
X179197476Y-102100333D01*
X179102238Y-102052714D01*
X179007000Y-101957476D01*
X178959381Y-101814618D01*
X178959381Y-101719380D01*
X179007000Y-101576523D01*
X179054619Y-101528904D01*
X179435571Y-101100333D02*
X179435571Y-100766999D01*
X179959381Y-100624142D02*
X179959381Y-101100333D01*
X178959381Y-101100333D01*
X178959381Y-100624142D01*
X178959381Y-100290809D02*
X178959381Y-99671761D01*
X179340333Y-100005095D01*
X179340333Y-99862237D01*
X179387952Y-99766999D01*
X179435571Y-99719380D01*
X179530810Y-99671761D01*
X179768905Y-99671761D01*
X179864143Y-99719380D01*
X179911762Y-99766999D01*
X179959381Y-99862237D01*
X179959381Y-100147952D01*
X179911762Y-100243190D01*
X179864143Y-100290809D01*
X171053571Y-103481285D02*
X171053571Y-103814619D01*
X171577381Y-103814619D02*
X170577381Y-103814619D01*
X170577381Y-103338428D01*
X171291667Y-103005095D02*
X171291667Y-102528904D01*
X171577381Y-103100333D02*
X170577381Y-102767000D01*
X171577381Y-102433666D01*
X171482143Y-101528904D02*
X171529762Y-101576523D01*
X171577381Y-101719380D01*
X171577381Y-101814618D01*
X171529762Y-101957476D01*
X171434524Y-102052714D01*
X171339286Y-102100333D01*
X171148810Y-102147952D01*
X171005952Y-102147952D01*
X170815476Y-102100333D01*
X170720238Y-102052714D01*
X170625000Y-101957476D01*
X170577381Y-101814618D01*
X170577381Y-101719380D01*
X170625000Y-101576523D01*
X170672619Y-101528904D01*
X171053571Y-101100333D02*
X171053571Y-100766999D01*
X171577381Y-100624142D02*
X171577381Y-101100333D01*
X170577381Y-101100333D01*
X170577381Y-100624142D01*
X170910714Y-99766999D02*
X171577381Y-99766999D01*
X170529762Y-100005095D02*
X171244048Y-100243190D01*
X171244048Y-99624142D01*
X162925571Y-103481285D02*
X162925571Y-103814619D01*
X163449381Y-103814619D02*
X162449381Y-103814619D01*
X162449381Y-103338428D01*
X163163667Y-103005095D02*
X163163667Y-102528904D01*
X163449381Y-103100333D02*
X162449381Y-102767000D01*
X163449381Y-102433666D01*
X163354143Y-101528904D02*
X163401762Y-101576523D01*
X163449381Y-101719380D01*
X163449381Y-101814618D01*
X163401762Y-101957476D01*
X163306524Y-102052714D01*
X163211286Y-102100333D01*
X163020810Y-102147952D01*
X162877952Y-102147952D01*
X162687476Y-102100333D01*
X162592238Y-102052714D01*
X162497000Y-101957476D01*
X162449381Y-101814618D01*
X162449381Y-101719380D01*
X162497000Y-101576523D01*
X162544619Y-101528904D01*
X162925571Y-101100333D02*
X162925571Y-100766999D01*
X163449381Y-100624142D02*
X163449381Y-101100333D01*
X162449381Y-101100333D01*
X162449381Y-100624142D01*
X162449381Y-99719380D02*
X162449381Y-100195571D01*
X162925571Y-100243190D01*
X162877952Y-100195571D01*
X162830333Y-100100333D01*
X162830333Y-99862237D01*
X162877952Y-99766999D01*
X162925571Y-99719380D01*
X163020810Y-99671761D01*
X163258905Y-99671761D01*
X163354143Y-99719380D01*
X163401762Y-99766999D01*
X163449381Y-99862237D01*
X163449381Y-100100333D01*
X163401762Y-100195571D01*
X163354143Y-100243190D01*
X171215619Y-61698381D02*
X170882285Y-61222190D01*
X170644190Y-61698381D02*
X170644190Y-60698381D01*
X171025143Y-60698381D01*
X171120381Y-60746000D01*
X171168000Y-60793619D01*
X171215619Y-60888857D01*
X171215619Y-61031714D01*
X171168000Y-61126952D01*
X171120381Y-61174571D01*
X171025143Y-61222190D01*
X170644190Y-61222190D01*
X171644190Y-61174571D02*
X171977524Y-61174571D01*
X172120381Y-61698381D02*
X171644190Y-61698381D01*
X171644190Y-60698381D01*
X172120381Y-60698381D01*
X172501333Y-61650762D02*
X172644190Y-61698381D01*
X172882286Y-61698381D01*
X172977524Y-61650762D01*
X173025143Y-61603143D01*
X173072762Y-61507905D01*
X173072762Y-61412667D01*
X173025143Y-61317429D01*
X172977524Y-61269810D01*
X172882286Y-61222190D01*
X172691809Y-61174571D01*
X172596571Y-61126952D01*
X172548952Y-61079333D01*
X172501333Y-60984095D01*
X172501333Y-60888857D01*
X172548952Y-60793619D01*
X172596571Y-60746000D01*
X172691809Y-60698381D01*
X172929905Y-60698381D01*
X173072762Y-60746000D01*
X173501333Y-61174571D02*
X173834667Y-61174571D01*
X173977524Y-61698381D02*
X173501333Y-61698381D01*
X173501333Y-60698381D01*
X173977524Y-60698381D01*
X174263238Y-60698381D02*
X174834667Y-60698381D01*
X174548952Y-61698381D02*
X174548952Y-60698381D01*
X170977524Y-70191571D02*
X170644190Y-70191571D01*
X170644190Y-70715381D02*
X170644190Y-69715381D01*
X171120381Y-69715381D01*
X171977524Y-70715381D02*
X171501333Y-70715381D01*
X171501333Y-69715381D01*
X172263238Y-70429667D02*
X172739429Y-70429667D01*
X172168000Y-70715381D02*
X172501333Y-69715381D01*
X172834667Y-70715381D01*
X173120381Y-70667762D02*
X173263238Y-70715381D01*
X173501334Y-70715381D01*
X173596572Y-70667762D01*
X173644191Y-70620143D01*
X173691810Y-70524905D01*
X173691810Y-70429667D01*
X173644191Y-70334429D01*
X173596572Y-70286810D01*
X173501334Y-70239190D01*
X173310857Y-70191571D01*
X173215619Y-70143952D01*
X173168000Y-70096333D01*
X173120381Y-70001095D01*
X173120381Y-69905857D01*
X173168000Y-69810619D01*
X173215619Y-69763000D01*
X173310857Y-69715381D01*
X173548953Y-69715381D01*
X173691810Y-69763000D01*
X174120381Y-70715381D02*
X174120381Y-69715381D01*
X174120381Y-70191571D02*
X174691810Y-70191571D01*
X174691810Y-70715381D02*
X174691810Y-69715381D01*
X156262343Y-71966057D02*
X156309962Y-72013676D01*
X156357581Y-72156533D01*
X156357581Y-72251771D01*
X156309962Y-72394629D01*
X156214724Y-72489867D01*
X156119486Y-72537486D01*
X155929010Y-72585105D01*
X155786152Y-72585105D01*
X155595676Y-72537486D01*
X155500438Y-72489867D01*
X155405200Y-72394629D01*
X155357581Y-72251771D01*
X155357581Y-72156533D01*
X155405200Y-72013676D01*
X155452819Y-71966057D01*
X156357581Y-71013676D02*
X156357581Y-71585105D01*
X156357581Y-71299391D02*
X155357581Y-71299391D01*
X155500438Y-71394629D01*
X155595676Y-71489867D01*
X155643295Y-71585105D01*
X156357581Y-70061295D02*
X156357581Y-70632724D01*
X156357581Y-70347010D02*
X155357581Y-70347010D01*
X155500438Y-70442248D01*
X155595676Y-70537486D01*
X155643295Y-70632724D01*
X158361143Y-72977143D02*
X158313524Y-73024762D01*
X158170667Y-73072381D01*
X158075429Y-73072381D01*
X157932571Y-73024762D01*
X157837333Y-72929524D01*
X157789714Y-72834286D01*
X157742095Y-72643810D01*
X157742095Y-72500952D01*
X157789714Y-72310476D01*
X157837333Y-72215238D01*
X157932571Y-72120000D01*
X158075429Y-72072381D01*
X158170667Y-72072381D01*
X158313524Y-72120000D01*
X158361143Y-72167619D01*
X159313524Y-73072381D02*
X158742095Y-73072381D01*
X159027809Y-73072381D02*
X159027809Y-72072381D01*
X158932571Y-72215238D01*
X158837333Y-72310476D01*
X158742095Y-72358095D01*
X159694476Y-72167619D02*
X159742095Y-72120000D01*
X159837333Y-72072381D01*
X160075429Y-72072381D01*
X160170667Y-72120000D01*
X160218286Y-72167619D01*
X160265905Y-72262857D01*
X160265905Y-72358095D01*
X160218286Y-72500952D01*
X159646857Y-73072381D01*
X160265905Y-73072381D01*
X162256743Y-65768457D02*
X162304362Y-65816076D01*
X162351981Y-65958933D01*
X162351981Y-66054171D01*
X162304362Y-66197029D01*
X162209124Y-66292267D01*
X162113886Y-66339886D01*
X161923410Y-66387505D01*
X161780552Y-66387505D01*
X161590076Y-66339886D01*
X161494838Y-66292267D01*
X161399600Y-66197029D01*
X161351981Y-66054171D01*
X161351981Y-65958933D01*
X161399600Y-65816076D01*
X161447219Y-65768457D01*
X162351981Y-64816076D02*
X162351981Y-65387505D01*
X162351981Y-65101791D02*
X161351981Y-65101791D01*
X161494838Y-65197029D01*
X161590076Y-65292267D01*
X161637695Y-65387505D01*
X161351981Y-64482743D02*
X161351981Y-63863695D01*
X161732933Y-64197029D01*
X161732933Y-64054171D01*
X161780552Y-63958933D01*
X161828171Y-63911314D01*
X161923410Y-63863695D01*
X162161505Y-63863695D01*
X162256743Y-63911314D01*
X162304362Y-63958933D01*
X162351981Y-64054171D01*
X162351981Y-64339886D01*
X162304362Y-64435124D01*
X162256743Y-64482743D01*
X154762343Y-60129657D02*
X154809962Y-60177276D01*
X154857581Y-60320133D01*
X154857581Y-60415371D01*
X154809962Y-60558229D01*
X154714724Y-60653467D01*
X154619486Y-60701086D01*
X154429010Y-60748705D01*
X154286152Y-60748705D01*
X154095676Y-60701086D01*
X154000438Y-60653467D01*
X153905200Y-60558229D01*
X153857581Y-60415371D01*
X153857581Y-60320133D01*
X153905200Y-60177276D01*
X153952819Y-60129657D01*
X154857581Y-59177276D02*
X154857581Y-59748705D01*
X154857581Y-59462991D02*
X153857581Y-59462991D01*
X154000438Y-59558229D01*
X154095676Y-59653467D01*
X154143295Y-59748705D01*
X154190914Y-58320133D02*
X154857581Y-58320133D01*
X153809962Y-58558229D02*
X154524248Y-58796324D01*
X154524248Y-58177276D01*
X162205943Y-63076057D02*
X162253562Y-63123676D01*
X162301181Y-63266533D01*
X162301181Y-63361771D01*
X162253562Y-63504629D01*
X162158324Y-63599867D01*
X162063086Y-63647486D01*
X161872610Y-63695105D01*
X161729752Y-63695105D01*
X161539276Y-63647486D01*
X161444038Y-63599867D01*
X161348800Y-63504629D01*
X161301181Y-63361771D01*
X161301181Y-63266533D01*
X161348800Y-63123676D01*
X161396419Y-63076057D01*
X162301181Y-62123676D02*
X162301181Y-62695105D01*
X162301181Y-62409391D02*
X161301181Y-62409391D01*
X161444038Y-62504629D01*
X161539276Y-62599867D01*
X161586895Y-62695105D01*
X161301181Y-61218914D02*
X161301181Y-61695105D01*
X161777371Y-61742724D01*
X161729752Y-61695105D01*
X161682133Y-61599867D01*
X161682133Y-61361771D01*
X161729752Y-61266533D01*
X161777371Y-61218914D01*
X161872610Y-61171295D01*
X162110705Y-61171295D01*
X162205943Y-61218914D01*
X162253562Y-61266533D01*
X162301181Y-61361771D01*
X162301181Y-61599867D01*
X162253562Y-61695105D01*
X162205943Y-61742724D01*
X161510743Y-57049943D02*
X161463124Y-57097562D01*
X161320267Y-57145181D01*
X161225029Y-57145181D01*
X161082171Y-57097562D01*
X160986933Y-57002324D01*
X160939314Y-56907086D01*
X160891695Y-56716610D01*
X160891695Y-56573752D01*
X160939314Y-56383276D01*
X160986933Y-56288038D01*
X161082171Y-56192800D01*
X161225029Y-56145181D01*
X161320267Y-56145181D01*
X161463124Y-56192800D01*
X161510743Y-56240419D01*
X162463124Y-57145181D02*
X161891695Y-57145181D01*
X162177409Y-57145181D02*
X162177409Y-56145181D01*
X162082171Y-56288038D01*
X161986933Y-56383276D01*
X161891695Y-56430895D01*
X163320267Y-56145181D02*
X163129790Y-56145181D01*
X163034552Y-56192800D01*
X162986933Y-56240419D01*
X162891695Y-56383276D01*
X162844076Y-56573752D01*
X162844076Y-56954705D01*
X162891695Y-57049943D01*
X162939314Y-57097562D01*
X163034552Y-57145181D01*
X163225029Y-57145181D01*
X163320267Y-57097562D01*
X163367886Y-57049943D01*
X163415505Y-56954705D01*
X163415505Y-56716610D01*
X163367886Y-56621371D01*
X163320267Y-56573752D01*
X163225029Y-56526133D01*
X163034552Y-56526133D01*
X162939314Y-56573752D01*
X162891695Y-56621371D01*
X162844076Y-56716610D01*
X164806381Y-66720933D02*
X165520667Y-66720933D01*
X165663524Y-66768553D01*
X165758762Y-66863791D01*
X165806381Y-67006648D01*
X165806381Y-67101886D01*
X165806381Y-66244743D02*
X164806381Y-66244743D01*
X164806381Y-65863790D01*
X164854000Y-65768552D01*
X164901619Y-65720933D01*
X164996857Y-65673314D01*
X165139714Y-65673314D01*
X165234952Y-65720933D01*
X165282571Y-65768552D01*
X165330190Y-65863790D01*
X165330190Y-66244743D01*
X165806381Y-64720933D02*
X165806381Y-65292362D01*
X165806381Y-65006648D02*
X164806381Y-65006648D01*
X164949238Y-65101886D01*
X165044476Y-65197124D01*
X165092095Y-65292362D01*
X164755581Y-69413333D02*
X165469867Y-69413333D01*
X165612724Y-69460953D01*
X165707962Y-69556191D01*
X165755581Y-69699048D01*
X165755581Y-69794286D01*
X165755581Y-68937143D02*
X164755581Y-68937143D01*
X164755581Y-68556190D01*
X164803200Y-68460952D01*
X164850819Y-68413333D01*
X164946057Y-68365714D01*
X165088914Y-68365714D01*
X165184152Y-68413333D01*
X165231771Y-68460952D01*
X165279390Y-68556190D01*
X165279390Y-68937143D01*
X164850819Y-67984762D02*
X164803200Y-67937143D01*
X164755581Y-67841905D01*
X164755581Y-67603809D01*
X164803200Y-67508571D01*
X164850819Y-67460952D01*
X164946057Y-67413333D01*
X165041295Y-67413333D01*
X165184152Y-67460952D01*
X165755581Y-68032381D01*
X165755581Y-67413333D01*
X164579981Y-59151733D02*
X165294267Y-59151733D01*
X165437124Y-59199353D01*
X165532362Y-59294591D01*
X165579981Y-59437448D01*
X165579981Y-59532686D01*
X165579981Y-58675543D02*
X164579981Y-58675543D01*
X164579981Y-58294590D01*
X164627600Y-58199352D01*
X164675219Y-58151733D01*
X164770457Y-58104114D01*
X164913314Y-58104114D01*
X165008552Y-58151733D01*
X165056171Y-58199352D01*
X165103790Y-58294590D01*
X165103790Y-58675543D01*
X164579981Y-57770781D02*
X164579981Y-57151733D01*
X164960933Y-57485067D01*
X164960933Y-57342209D01*
X165008552Y-57246971D01*
X165056171Y-57199352D01*
X165151410Y-57151733D01*
X165389505Y-57151733D01*
X165484743Y-57199352D01*
X165532362Y-57246971D01*
X165579981Y-57342209D01*
X165579981Y-57627924D01*
X165532362Y-57723162D01*
X165484743Y-57770781D01*
X164603181Y-62047333D02*
X165317467Y-62047333D01*
X165460324Y-62094953D01*
X165555562Y-62190191D01*
X165603181Y-62333048D01*
X165603181Y-62428286D01*
X165603181Y-61571143D02*
X164603181Y-61571143D01*
X164603181Y-61190190D01*
X164650800Y-61094952D01*
X164698419Y-61047333D01*
X164793657Y-60999714D01*
X164936514Y-60999714D01*
X165031752Y-61047333D01*
X165079371Y-61094952D01*
X165126990Y-61190190D01*
X165126990Y-61571143D01*
X164936514Y-60142571D02*
X165603181Y-60142571D01*
X164555562Y-60380667D02*
X165269848Y-60618762D01*
X165269848Y-59999714D01*
D10*
X146180629Y-59004200D02*
X146122572Y-58975171D01*
X146035486Y-58975171D01*
X145948401Y-59004200D01*
X145890343Y-59062257D01*
X145861315Y-59120314D01*
X145832286Y-59236429D01*
X145832286Y-59323514D01*
X145861315Y-59439629D01*
X145890343Y-59497686D01*
X145948401Y-59555743D01*
X146035486Y-59584771D01*
X146093543Y-59584771D01*
X146180629Y-59555743D01*
X146209658Y-59526714D01*
X146209658Y-59323514D01*
X146093543Y-59323514D01*
X146470915Y-59584771D02*
X146470915Y-58975171D01*
X146703143Y-58975171D01*
X146761201Y-59004200D01*
X146790229Y-59033229D01*
X146819258Y-59091286D01*
X146819258Y-59178371D01*
X146790229Y-59236429D01*
X146761201Y-59265457D01*
X146703143Y-59294486D01*
X146470915Y-59294486D01*
X147080515Y-59584771D02*
X147080515Y-58975171D01*
X147486915Y-58975171D02*
X147603029Y-58975171D01*
X147661087Y-59004200D01*
X147719144Y-59062257D01*
X147748172Y-59178371D01*
X147748172Y-59381571D01*
X147719144Y-59497686D01*
X147661087Y-59555743D01*
X147603029Y-59584771D01*
X147486915Y-59584771D01*
X147428858Y-59555743D01*
X147370801Y-59497686D01*
X147341772Y-59381571D01*
X147341772Y-59178371D01*
X147370801Y-59062257D01*
X147428858Y-59004200D01*
X147486915Y-58975171D01*
X148328744Y-59584771D02*
X147980401Y-59584771D01*
X148154573Y-59584771D02*
X148154573Y-58975171D01*
X148096516Y-59062257D01*
X148038458Y-59120314D01*
X147980401Y-59149343D01*
X148880287Y-58975171D02*
X148590001Y-58975171D01*
X148560972Y-59265457D01*
X148590001Y-59236429D01*
X148648058Y-59207400D01*
X148793201Y-59207400D01*
X148851258Y-59236429D01*
X148880287Y-59265457D01*
X148909315Y-59323514D01*
X148909315Y-59468657D01*
X148880287Y-59526714D01*
X148851258Y-59555743D01*
X148793201Y-59584771D01*
X148648058Y-59584771D01*
X148590001Y-59555743D01*
X148560972Y-59526714D01*
X149990629Y-59004200D02*
X149932572Y-58975171D01*
X149845486Y-58975171D01*
X149758401Y-59004200D01*
X149700343Y-59062257D01*
X149671315Y-59120314D01*
X149642286Y-59236429D01*
X149642286Y-59323514D01*
X149671315Y-59439629D01*
X149700343Y-59497686D01*
X149758401Y-59555743D01*
X149845486Y-59584771D01*
X149903543Y-59584771D01*
X149990629Y-59555743D01*
X150019658Y-59526714D01*
X150019658Y-59323514D01*
X149903543Y-59323514D01*
X150280915Y-59584771D02*
X150280915Y-58975171D01*
X150513143Y-58975171D01*
X150571201Y-59004200D01*
X150600229Y-59033229D01*
X150629258Y-59091286D01*
X150629258Y-59178371D01*
X150600229Y-59236429D01*
X150571201Y-59265457D01*
X150513143Y-59294486D01*
X150280915Y-59294486D01*
X150890515Y-59584771D02*
X150890515Y-58975171D01*
X151296915Y-58975171D02*
X151413029Y-58975171D01*
X151471087Y-59004200D01*
X151529144Y-59062257D01*
X151558172Y-59178371D01*
X151558172Y-59381571D01*
X151529144Y-59497686D01*
X151471087Y-59555743D01*
X151413029Y-59584771D01*
X151296915Y-59584771D01*
X151238858Y-59555743D01*
X151180801Y-59497686D01*
X151151772Y-59381571D01*
X151151772Y-59178371D01*
X151180801Y-59062257D01*
X151238858Y-59004200D01*
X151296915Y-58975171D01*
X152138744Y-59584771D02*
X151790401Y-59584771D01*
X151964573Y-59584771D02*
X151964573Y-58975171D01*
X151906516Y-59062257D01*
X151848458Y-59120314D01*
X151790401Y-59149343D01*
X152661258Y-58975171D02*
X152545144Y-58975171D01*
X152487087Y-59004200D01*
X152458058Y-59033229D01*
X152400001Y-59120314D01*
X152370972Y-59236429D01*
X152370972Y-59468657D01*
X152400001Y-59526714D01*
X152429029Y-59555743D01*
X152487087Y-59584771D01*
X152603201Y-59584771D01*
X152661258Y-59555743D01*
X152690287Y-59526714D01*
X152719315Y-59468657D01*
X152719315Y-59323514D01*
X152690287Y-59265457D01*
X152661258Y-59236429D01*
X152603201Y-59207400D01*
X152487087Y-59207400D01*
X152429029Y-59236429D01*
X152400001Y-59265457D01*
X152370972Y-59323514D01*
M02*
