%TF.GenerationSoftware,KiCad,Pcbnew,4.0.7-e2-6376~58~ubuntu16.04.1*%
%TF.CreationDate,2018-03-12T18:00:00+01:00*%
%TF.ProjectId,SLAMP-WiFi,534C414D502D576946692E6B69636164,rev?*%
%TF.FileFunction,Soldermask,Bot*%
%FSLAX46Y46*%
G04 Gerber Fmt 4.6, Leading zero omitted, Abs format (unit mm)*
G04 Created by KiCad (PCBNEW 4.0.7-e2-6376~58~ubuntu16.04.1) date Mon Mar 12 18:00:00 2018*
%MOMM*%
%LPD*%
G01*
G04 APERTURE LIST*
%ADD10C,0.127000*%
%ADD11C,0.010000*%
%ADD12C,2.300000*%
%ADD13R,1.600000X1.600000*%
%ADD14R,1.700000X1.700000*%
%ADD15C,1.700000*%
%ADD16R,2.600000X2.600000*%
%ADD17C,2.600000*%
%ADD18R,1.800000X1.800000*%
%ADD19O,1.800000X1.800000*%
%ADD20C,1.522400*%
%ADD21R,1.850000X1.850000*%
%ADD22C,1.850000*%
%ADD23C,2.100000*%
%ADD24C,2.082800*%
G04 APERTURE END LIST*
D10*
X143637000Y-54991000D02*
X143637000Y-56769000D01*
X181864000Y-54991000D02*
X143637000Y-54991000D01*
X181864000Y-56769000D02*
X181864000Y-54991000D01*
X143637000Y-56769000D02*
X143637000Y-60833000D01*
X181864000Y-58166000D02*
X181864000Y-56769000D01*
X181864000Y-60833000D02*
X181864000Y-58166000D01*
X201041000Y-60833000D02*
X181864000Y-60833000D01*
X143637000Y-108077000D02*
X143637000Y-60833000D01*
X205232000Y-108077000D02*
X143637000Y-108077000D01*
X205232000Y-60833000D02*
X205232000Y-108077000D01*
X201041000Y-60833000D02*
X205232000Y-60833000D01*
D11*
G36*
X195936873Y-88803835D02*
X195927599Y-88823863D01*
X195920708Y-88864064D01*
X195915866Y-88930021D01*
X195912736Y-89027316D01*
X195910983Y-89161528D01*
X195910271Y-89338241D01*
X195910200Y-89441245D01*
X195910935Y-89656950D01*
X195913272Y-89826197D01*
X195917413Y-89953309D01*
X195923558Y-90042610D01*
X195931910Y-90098423D01*
X195941950Y-90124216D01*
X195972048Y-90147555D01*
X196038521Y-90190851D01*
X196133969Y-90249820D01*
X196250991Y-90320178D01*
X196382185Y-90397642D01*
X196520150Y-90477928D01*
X196657486Y-90556752D01*
X196786790Y-90629830D01*
X196900661Y-90692879D01*
X196991699Y-90741616D01*
X197052502Y-90771755D01*
X197074293Y-90779600D01*
X197083982Y-90764960D01*
X197091552Y-90718550D01*
X197097169Y-90636628D01*
X197101003Y-90515455D01*
X197103223Y-90351291D01*
X197103996Y-90140396D01*
X197104000Y-90120492D01*
X197104000Y-89461385D01*
X197021450Y-89400500D01*
X196966014Y-89363434D01*
X196879176Y-89309952D01*
X196768591Y-89244350D01*
X196641912Y-89170924D01*
X196506793Y-89093972D01*
X196370890Y-89017790D01*
X196241855Y-88946675D01*
X196127343Y-88884923D01*
X196035009Y-88836831D01*
X195972506Y-88806697D01*
X195948868Y-88798400D01*
X195936873Y-88803835D01*
X195936873Y-88803835D01*
G37*
X195936873Y-88803835D02*
X195927599Y-88823863D01*
X195920708Y-88864064D01*
X195915866Y-88930021D01*
X195912736Y-89027316D01*
X195910983Y-89161528D01*
X195910271Y-89338241D01*
X195910200Y-89441245D01*
X195910935Y-89656950D01*
X195913272Y-89826197D01*
X195917413Y-89953309D01*
X195923558Y-90042610D01*
X195931910Y-90098423D01*
X195941950Y-90124216D01*
X195972048Y-90147555D01*
X196038521Y-90190851D01*
X196133969Y-90249820D01*
X196250991Y-90320178D01*
X196382185Y-90397642D01*
X196520150Y-90477928D01*
X196657486Y-90556752D01*
X196786790Y-90629830D01*
X196900661Y-90692879D01*
X196991699Y-90741616D01*
X197052502Y-90771755D01*
X197074293Y-90779600D01*
X197083982Y-90764960D01*
X197091552Y-90718550D01*
X197097169Y-90636628D01*
X197101003Y-90515455D01*
X197103223Y-90351291D01*
X197103996Y-90140396D01*
X197104000Y-90120492D01*
X197104000Y-89461385D01*
X197021450Y-89400500D01*
X196966014Y-89363434D01*
X196879176Y-89309952D01*
X196768591Y-89244350D01*
X196641912Y-89170924D01*
X196506793Y-89093972D01*
X196370890Y-89017790D01*
X196241855Y-88946675D01*
X196127343Y-88884923D01*
X196035009Y-88836831D01*
X195972506Y-88806697D01*
X195948868Y-88798400D01*
X195936873Y-88803835D01*
G36*
X194585090Y-88075350D02*
X194576467Y-88151118D01*
X194569879Y-88260432D01*
X194565323Y-88394686D01*
X194562798Y-88545275D01*
X194562300Y-88703592D01*
X194563827Y-88861030D01*
X194567377Y-89008984D01*
X194572947Y-89138848D01*
X194580535Y-89242015D01*
X194590137Y-89309879D01*
X194596125Y-89328750D01*
X194630250Y-89363114D01*
X194707104Y-89419123D01*
X194824241Y-89495187D01*
X194979213Y-89589721D01*
X195169573Y-89701135D01*
X195173508Y-89703400D01*
X195324321Y-89789819D01*
X195460488Y-89867148D01*
X195575868Y-89931955D01*
X195664318Y-89980809D01*
X195719694Y-90010278D01*
X195735940Y-90017600D01*
X195757890Y-89997460D01*
X195767783Y-89977422D01*
X195774994Y-89932391D01*
X195780147Y-89846417D01*
X195783359Y-89728450D01*
X195784748Y-89587439D01*
X195784429Y-89432335D01*
X195782522Y-89272088D01*
X195779142Y-89115647D01*
X195774406Y-88971963D01*
X195768433Y-88849986D01*
X195761340Y-88758666D01*
X195753242Y-88706952D01*
X195751076Y-88701264D01*
X195719456Y-88669551D01*
X195652134Y-88619950D01*
X195556292Y-88556562D01*
X195439112Y-88483487D01*
X195307775Y-88404824D01*
X195169465Y-88324673D01*
X195031363Y-88247134D01*
X194900651Y-88176308D01*
X194784512Y-88116294D01*
X194690126Y-88071192D01*
X194624677Y-88045102D01*
X194595750Y-88041736D01*
X194585090Y-88075350D01*
X194585090Y-88075350D01*
G37*
X194585090Y-88075350D02*
X194576467Y-88151118D01*
X194569879Y-88260432D01*
X194565323Y-88394686D01*
X194562798Y-88545275D01*
X194562300Y-88703592D01*
X194563827Y-88861030D01*
X194567377Y-89008984D01*
X194572947Y-89138848D01*
X194580535Y-89242015D01*
X194590137Y-89309879D01*
X194596125Y-89328750D01*
X194630250Y-89363114D01*
X194707104Y-89419123D01*
X194824241Y-89495187D01*
X194979213Y-89589721D01*
X195169573Y-89701135D01*
X195173508Y-89703400D01*
X195324321Y-89789819D01*
X195460488Y-89867148D01*
X195575868Y-89931955D01*
X195664318Y-89980809D01*
X195719694Y-90010278D01*
X195735940Y-90017600D01*
X195757890Y-89997460D01*
X195767783Y-89977422D01*
X195774994Y-89932391D01*
X195780147Y-89846417D01*
X195783359Y-89728450D01*
X195784748Y-89587439D01*
X195784429Y-89432335D01*
X195782522Y-89272088D01*
X195779142Y-89115647D01*
X195774406Y-88971963D01*
X195768433Y-88849986D01*
X195761340Y-88758666D01*
X195753242Y-88706952D01*
X195751076Y-88701264D01*
X195719456Y-88669551D01*
X195652134Y-88619950D01*
X195556292Y-88556562D01*
X195439112Y-88483487D01*
X195307775Y-88404824D01*
X195169465Y-88324673D01*
X195031363Y-88247134D01*
X194900651Y-88176308D01*
X194784512Y-88116294D01*
X194690126Y-88071192D01*
X194624677Y-88045102D01*
X194595750Y-88041736D01*
X194585090Y-88075350D01*
G36*
X201618788Y-87291211D02*
X201549520Y-87323650D01*
X201449252Y-87374909D01*
X201324437Y-87441623D01*
X201181529Y-87520428D01*
X201066400Y-87585419D01*
X200520300Y-87896700D01*
X200513512Y-88555391D01*
X200512410Y-88733595D01*
X200512814Y-88895013D01*
X200514593Y-89032702D01*
X200517617Y-89139719D01*
X200521753Y-89209119D01*
X200526308Y-89233667D01*
X200552763Y-89226909D01*
X200616848Y-89197592D01*
X200712409Y-89148923D01*
X200833295Y-89084110D01*
X200973354Y-89006358D01*
X201091896Y-88938826D01*
X201270344Y-88834376D01*
X201420948Y-88742774D01*
X201539696Y-88666615D01*
X201622576Y-88608491D01*
X201665576Y-88570997D01*
X201669519Y-88565351D01*
X201680325Y-88529035D01*
X201688208Y-88463100D01*
X201693341Y-88363005D01*
X201695896Y-88224212D01*
X201696045Y-88042182D01*
X201694919Y-87897035D01*
X201692535Y-87702359D01*
X201689582Y-87552770D01*
X201685649Y-87442559D01*
X201680326Y-87366011D01*
X201673201Y-87317416D01*
X201663863Y-87291063D01*
X201651903Y-87281238D01*
X201650600Y-87280954D01*
X201618788Y-87291211D01*
X201618788Y-87291211D01*
G37*
X201618788Y-87291211D02*
X201549520Y-87323650D01*
X201449252Y-87374909D01*
X201324437Y-87441623D01*
X201181529Y-87520428D01*
X201066400Y-87585419D01*
X200520300Y-87896700D01*
X200513512Y-88555391D01*
X200512410Y-88733595D01*
X200512814Y-88895013D01*
X200514593Y-89032702D01*
X200517617Y-89139719D01*
X200521753Y-89209119D01*
X200526308Y-89233667D01*
X200552763Y-89226909D01*
X200616848Y-89197592D01*
X200712409Y-89148923D01*
X200833295Y-89084110D01*
X200973354Y-89006358D01*
X201091896Y-88938826D01*
X201270344Y-88834376D01*
X201420948Y-88742774D01*
X201539696Y-88666615D01*
X201622576Y-88608491D01*
X201665576Y-88570997D01*
X201669519Y-88565351D01*
X201680325Y-88529035D01*
X201688208Y-88463100D01*
X201693341Y-88363005D01*
X201695896Y-88224212D01*
X201696045Y-88042182D01*
X201694919Y-87897035D01*
X201692535Y-87702359D01*
X201689582Y-87552770D01*
X201685649Y-87442559D01*
X201680326Y-87366011D01*
X201673201Y-87317416D01*
X201663863Y-87291063D01*
X201651903Y-87281238D01*
X201650600Y-87280954D01*
X201618788Y-87291211D01*
G36*
X202969982Y-86508192D02*
X202905869Y-86538055D01*
X202812633Y-86585766D01*
X202697525Y-86647234D01*
X202567796Y-86718368D01*
X202430697Y-86795077D01*
X202293477Y-86873269D01*
X202163388Y-86948854D01*
X202047680Y-87017739D01*
X201953603Y-87075833D01*
X201888409Y-87119046D01*
X201860150Y-87142168D01*
X201849540Y-87170542D01*
X201841325Y-87228366D01*
X201835305Y-87319961D01*
X201831278Y-87449648D01*
X201829045Y-87621746D01*
X201828400Y-87825354D01*
X201828618Y-88022926D01*
X201829538Y-88175460D01*
X201831557Y-88288715D01*
X201835076Y-88368453D01*
X201840492Y-88420434D01*
X201848205Y-88450418D01*
X201858613Y-88464166D01*
X201872116Y-88467439D01*
X201872850Y-88467431D01*
X201906960Y-88454993D01*
X201978049Y-88420561D01*
X202079235Y-88367768D01*
X202203634Y-88300248D01*
X202344365Y-88221635D01*
X202419271Y-88178978D01*
X202566646Y-88093797D01*
X202701445Y-88014528D01*
X202816596Y-87945438D01*
X202905027Y-87890797D01*
X202959665Y-87854871D01*
X202971721Y-87845609D01*
X202987243Y-87829097D01*
X202999215Y-87806976D01*
X203008095Y-87772990D01*
X203014344Y-87720883D01*
X203018419Y-87644401D01*
X203020779Y-87537287D01*
X203021885Y-87393286D01*
X203022194Y-87206142D01*
X203022200Y-87157662D01*
X203021251Y-86960130D01*
X203018525Y-86791591D01*
X203014202Y-86656905D01*
X203008463Y-86560933D01*
X203001490Y-86508537D01*
X202997722Y-86500269D01*
X202969982Y-86508192D01*
X202969982Y-86508192D01*
G37*
X202969982Y-86508192D02*
X202905869Y-86538055D01*
X202812633Y-86585766D01*
X202697525Y-86647234D01*
X202567796Y-86718368D01*
X202430697Y-86795077D01*
X202293477Y-86873269D01*
X202163388Y-86948854D01*
X202047680Y-87017739D01*
X201953603Y-87075833D01*
X201888409Y-87119046D01*
X201860150Y-87142168D01*
X201849540Y-87170542D01*
X201841325Y-87228366D01*
X201835305Y-87319961D01*
X201831278Y-87449648D01*
X201829045Y-87621746D01*
X201828400Y-87825354D01*
X201828618Y-88022926D01*
X201829538Y-88175460D01*
X201831557Y-88288715D01*
X201835076Y-88368453D01*
X201840492Y-88420434D01*
X201848205Y-88450418D01*
X201858613Y-88464166D01*
X201872116Y-88467439D01*
X201872850Y-88467431D01*
X201906960Y-88454993D01*
X201978049Y-88420561D01*
X202079235Y-88367768D01*
X202203634Y-88300248D01*
X202344365Y-88221635D01*
X202419271Y-88178978D01*
X202566646Y-88093797D01*
X202701445Y-88014528D01*
X202816596Y-87945438D01*
X202905027Y-87890797D01*
X202959665Y-87854871D01*
X202971721Y-87845609D01*
X202987243Y-87829097D01*
X202999215Y-87806976D01*
X203008095Y-87772990D01*
X203014344Y-87720883D01*
X203018419Y-87644401D01*
X203020779Y-87537287D01*
X203021885Y-87393286D01*
X203022194Y-87206142D01*
X203022200Y-87157662D01*
X203021251Y-86960130D01*
X203018525Y-86791591D01*
X203014202Y-86656905D01*
X203008463Y-86560933D01*
X203001490Y-86508537D01*
X202997722Y-86500269D01*
X202969982Y-86508192D01*
G36*
X201617836Y-85737248D02*
X201553050Y-85771140D01*
X201459464Y-85822392D01*
X201344523Y-85886721D01*
X201215670Y-85959844D01*
X201080348Y-86037480D01*
X200946001Y-86115345D01*
X200820072Y-86189157D01*
X200710006Y-86254632D01*
X200623246Y-86307489D01*
X200567236Y-86343444D01*
X200552050Y-86354622D01*
X200538435Y-86370447D01*
X200527896Y-86395377D01*
X200520047Y-86435465D01*
X200514500Y-86496763D01*
X200510870Y-86585323D01*
X200508768Y-86707196D01*
X200507808Y-86868435D01*
X200507600Y-87049736D01*
X200508140Y-87258776D01*
X200509908Y-87421609D01*
X200513126Y-87542819D01*
X200518016Y-87626991D01*
X200524799Y-87678707D01*
X200533699Y-87702552D01*
X200539350Y-87705457D01*
X200569421Y-87693070D01*
X200637002Y-87658660D01*
X200735671Y-87605713D01*
X200859006Y-87537714D01*
X201000586Y-87458146D01*
X201108644Y-87396551D01*
X201309709Y-87279442D01*
X201466038Y-87184252D01*
X201578462Y-87110439D01*
X201647810Y-87057460D01*
X201673794Y-87027798D01*
X201681196Y-86986661D01*
X201687627Y-86903768D01*
X201693000Y-86788158D01*
X201697227Y-86648868D01*
X201700221Y-86494935D01*
X201701895Y-86335397D01*
X201702162Y-86179291D01*
X201700934Y-86035654D01*
X201698124Y-85913524D01*
X201693645Y-85821938D01*
X201687410Y-85769934D01*
X201685983Y-85765177D01*
X201660349Y-85730276D01*
X201646380Y-85725000D01*
X201617836Y-85737248D01*
X201617836Y-85737248D01*
G37*
X201617836Y-85737248D02*
X201553050Y-85771140D01*
X201459464Y-85822392D01*
X201344523Y-85886721D01*
X201215670Y-85959844D01*
X201080348Y-86037480D01*
X200946001Y-86115345D01*
X200820072Y-86189157D01*
X200710006Y-86254632D01*
X200623246Y-86307489D01*
X200567236Y-86343444D01*
X200552050Y-86354622D01*
X200538435Y-86370447D01*
X200527896Y-86395377D01*
X200520047Y-86435465D01*
X200514500Y-86496763D01*
X200510870Y-86585323D01*
X200508768Y-86707196D01*
X200507808Y-86868435D01*
X200507600Y-87049736D01*
X200508140Y-87258776D01*
X200509908Y-87421609D01*
X200513126Y-87542819D01*
X200518016Y-87626991D01*
X200524799Y-87678707D01*
X200533699Y-87702552D01*
X200539350Y-87705457D01*
X200569421Y-87693070D01*
X200637002Y-87658660D01*
X200735671Y-87605713D01*
X200859006Y-87537714D01*
X201000586Y-87458146D01*
X201108644Y-87396551D01*
X201309709Y-87279442D01*
X201466038Y-87184252D01*
X201578462Y-87110439D01*
X201647810Y-87057460D01*
X201673794Y-87027798D01*
X201681196Y-86986661D01*
X201687627Y-86903768D01*
X201693000Y-86788158D01*
X201697227Y-86648868D01*
X201700221Y-86494935D01*
X201701895Y-86335397D01*
X201702162Y-86179291D01*
X201700934Y-86035654D01*
X201698124Y-85913524D01*
X201693645Y-85821938D01*
X201687410Y-85769934D01*
X201685983Y-85765177D01*
X201660349Y-85730276D01*
X201646380Y-85725000D01*
X201617836Y-85737248D01*
G36*
X195932570Y-85764585D02*
X195923690Y-85835550D01*
X195916731Y-85940672D01*
X195911701Y-86071647D01*
X195908608Y-86220171D01*
X195907463Y-86377941D01*
X195908272Y-86536653D01*
X195911047Y-86688002D01*
X195915794Y-86823686D01*
X195922524Y-86935401D01*
X195931245Y-87014842D01*
X195941950Y-87053685D01*
X195972122Y-87077814D01*
X196038815Y-87121802D01*
X196134566Y-87181336D01*
X196251915Y-87252104D01*
X196383398Y-87329793D01*
X196521553Y-87410089D01*
X196658919Y-87488680D01*
X196788033Y-87561254D01*
X196901434Y-87623496D01*
X196991659Y-87671094D01*
X197051247Y-87699736D01*
X197070920Y-87706200D01*
X197081442Y-87696558D01*
X197089605Y-87664332D01*
X197095664Y-87604569D01*
X197099875Y-87512315D01*
X197102491Y-87382616D01*
X197103767Y-87210521D01*
X197104000Y-87063354D01*
X197103252Y-86846898D01*
X197100873Y-86676934D01*
X197096666Y-86549176D01*
X197090432Y-86459336D01*
X197081973Y-86403127D01*
X197072250Y-86377693D01*
X197039920Y-86350746D01*
X196971843Y-86305072D01*
X196875371Y-86244852D01*
X196757855Y-86174262D01*
X196626646Y-86097480D01*
X196489095Y-86018685D01*
X196352553Y-85942055D01*
X196224371Y-85871766D01*
X196111900Y-85811999D01*
X196022490Y-85766929D01*
X195963493Y-85740736D01*
X195943360Y-85736081D01*
X195932570Y-85764585D01*
X195932570Y-85764585D01*
G37*
X195932570Y-85764585D02*
X195923690Y-85835550D01*
X195916731Y-85940672D01*
X195911701Y-86071647D01*
X195908608Y-86220171D01*
X195907463Y-86377941D01*
X195908272Y-86536653D01*
X195911047Y-86688002D01*
X195915794Y-86823686D01*
X195922524Y-86935401D01*
X195931245Y-87014842D01*
X195941950Y-87053685D01*
X195972122Y-87077814D01*
X196038815Y-87121802D01*
X196134566Y-87181336D01*
X196251915Y-87252104D01*
X196383398Y-87329793D01*
X196521553Y-87410089D01*
X196658919Y-87488680D01*
X196788033Y-87561254D01*
X196901434Y-87623496D01*
X196991659Y-87671094D01*
X197051247Y-87699736D01*
X197070920Y-87706200D01*
X197081442Y-87696558D01*
X197089605Y-87664332D01*
X197095664Y-87604569D01*
X197099875Y-87512315D01*
X197102491Y-87382616D01*
X197103767Y-87210521D01*
X197104000Y-87063354D01*
X197103252Y-86846898D01*
X197100873Y-86676934D01*
X197096666Y-86549176D01*
X197090432Y-86459336D01*
X197081973Y-86403127D01*
X197072250Y-86377693D01*
X197039920Y-86350746D01*
X196971843Y-86305072D01*
X196875371Y-86244852D01*
X196757855Y-86174262D01*
X196626646Y-86097480D01*
X196489095Y-86018685D01*
X196352553Y-85942055D01*
X196224371Y-85871766D01*
X196111900Y-85811999D01*
X196022490Y-85766929D01*
X195963493Y-85740736D01*
X195943360Y-85736081D01*
X195932570Y-85764585D01*
G36*
X202951881Y-84975464D02*
X202882012Y-85009957D01*
X202783822Y-85062130D01*
X202664860Y-85127633D01*
X202532673Y-85202116D01*
X202394808Y-85281231D01*
X202258812Y-85360628D01*
X202132233Y-85435957D01*
X202022618Y-85502869D01*
X201937514Y-85557015D01*
X201884469Y-85594045D01*
X201872421Y-85604675D01*
X201858518Y-85624309D01*
X201847943Y-85651897D01*
X201840348Y-85693741D01*
X201835382Y-85756142D01*
X201832695Y-85845401D01*
X201831939Y-85967821D01*
X201832764Y-86129702D01*
X201834321Y-86291389D01*
X201837527Y-86498615D01*
X201842252Y-86669641D01*
X201848325Y-86801073D01*
X201855577Y-86889519D01*
X201863839Y-86931586D01*
X201866500Y-86934658D01*
X201894790Y-86924639D01*
X201960693Y-86892560D01*
X202057847Y-86841793D01*
X202179890Y-86775710D01*
X202320461Y-86697685D01*
X202425300Y-86638437D01*
X202576031Y-86551643D01*
X202712906Y-86470917D01*
X202829383Y-86400272D01*
X202918918Y-86343722D01*
X202974970Y-86305281D01*
X202990450Y-86291770D01*
X203001095Y-86262138D01*
X203009333Y-86202716D01*
X203015364Y-86109219D01*
X203019385Y-85977364D01*
X203021596Y-85802868D01*
X203022200Y-85605845D01*
X203021814Y-85404944D01*
X203020452Y-85249427D01*
X203017807Y-85133884D01*
X203013574Y-85052904D01*
X203007448Y-85001075D01*
X202999123Y-84972987D01*
X202988293Y-84963228D01*
X202985883Y-84963000D01*
X202951881Y-84975464D01*
X202951881Y-84975464D01*
G37*
X202951881Y-84975464D02*
X202882012Y-85009957D01*
X202783822Y-85062130D01*
X202664860Y-85127633D01*
X202532673Y-85202116D01*
X202394808Y-85281231D01*
X202258812Y-85360628D01*
X202132233Y-85435957D01*
X202022618Y-85502869D01*
X201937514Y-85557015D01*
X201884469Y-85594045D01*
X201872421Y-85604675D01*
X201858518Y-85624309D01*
X201847943Y-85651897D01*
X201840348Y-85693741D01*
X201835382Y-85756142D01*
X201832695Y-85845401D01*
X201831939Y-85967821D01*
X201832764Y-86129702D01*
X201834321Y-86291389D01*
X201837527Y-86498615D01*
X201842252Y-86669641D01*
X201848325Y-86801073D01*
X201855577Y-86889519D01*
X201863839Y-86931586D01*
X201866500Y-86934658D01*
X201894790Y-86924639D01*
X201960693Y-86892560D01*
X202057847Y-86841793D01*
X202179890Y-86775710D01*
X202320461Y-86697685D01*
X202425300Y-86638437D01*
X202576031Y-86551643D01*
X202712906Y-86470917D01*
X202829383Y-86400272D01*
X202918918Y-86343722D01*
X202974970Y-86305281D01*
X202990450Y-86291770D01*
X203001095Y-86262138D01*
X203009333Y-86202716D01*
X203015364Y-86109219D01*
X203019385Y-85977364D01*
X203021596Y-85802868D01*
X203022200Y-85605845D01*
X203021814Y-85404944D01*
X203020452Y-85249427D01*
X203017807Y-85133884D01*
X203013574Y-85052904D01*
X203007448Y-85001075D01*
X202999123Y-84972987D01*
X202988293Y-84963228D01*
X202985883Y-84963000D01*
X202951881Y-84975464D01*
G36*
X197280026Y-84972724D02*
X197271087Y-84990850D01*
X197264744Y-85027808D01*
X197260554Y-85089233D01*
X197258070Y-85180758D01*
X197256847Y-85308017D01*
X197256439Y-85476643D01*
X197256400Y-85616500D01*
X197256669Y-85818328D01*
X197257730Y-85975396D01*
X197259969Y-86093746D01*
X197263770Y-86179417D01*
X197269517Y-86238449D01*
X197277595Y-86276881D01*
X197288388Y-86300755D01*
X197300850Y-86314880D01*
X197334332Y-86337790D01*
X197403070Y-86380233D01*
X197499646Y-86437951D01*
X197616643Y-86506690D01*
X197746641Y-86582192D01*
X197882222Y-86660203D01*
X198015969Y-86736466D01*
X198140462Y-86806725D01*
X198248283Y-86866724D01*
X198332014Y-86912208D01*
X198384237Y-86938919D01*
X198397782Y-86944200D01*
X198431562Y-86928887D01*
X198433267Y-86927266D01*
X198438236Y-86897953D01*
X198442629Y-86825445D01*
X198446219Y-86717348D01*
X198448779Y-86581266D01*
X198450082Y-86424804D01*
X198450200Y-86359556D01*
X198449261Y-86153285D01*
X198445797Y-85990928D01*
X198438838Y-85865627D01*
X198427415Y-85770520D01*
X198410559Y-85698747D01*
X198387300Y-85643447D01*
X198356670Y-85597760D01*
X198339772Y-85578010D01*
X198303245Y-85549184D01*
X198230501Y-85500566D01*
X198129751Y-85436989D01*
X198009210Y-85363289D01*
X197877090Y-85284298D01*
X197741605Y-85204852D01*
X197610969Y-85129784D01*
X197493394Y-85063928D01*
X197397095Y-85012120D01*
X197330284Y-84979192D01*
X197307479Y-84970432D01*
X197292008Y-84967796D01*
X197280026Y-84972724D01*
X197280026Y-84972724D01*
G37*
X197280026Y-84972724D02*
X197271087Y-84990850D01*
X197264744Y-85027808D01*
X197260554Y-85089233D01*
X197258070Y-85180758D01*
X197256847Y-85308017D01*
X197256439Y-85476643D01*
X197256400Y-85616500D01*
X197256669Y-85818328D01*
X197257730Y-85975396D01*
X197259969Y-86093746D01*
X197263770Y-86179417D01*
X197269517Y-86238449D01*
X197277595Y-86276881D01*
X197288388Y-86300755D01*
X197300850Y-86314880D01*
X197334332Y-86337790D01*
X197403070Y-86380233D01*
X197499646Y-86437951D01*
X197616643Y-86506690D01*
X197746641Y-86582192D01*
X197882222Y-86660203D01*
X198015969Y-86736466D01*
X198140462Y-86806725D01*
X198248283Y-86866724D01*
X198332014Y-86912208D01*
X198384237Y-86938919D01*
X198397782Y-86944200D01*
X198431562Y-86928887D01*
X198433267Y-86927266D01*
X198438236Y-86897953D01*
X198442629Y-86825445D01*
X198446219Y-86717348D01*
X198448779Y-86581266D01*
X198450082Y-86424804D01*
X198450200Y-86359556D01*
X198449261Y-86153285D01*
X198445797Y-85990928D01*
X198438838Y-85865627D01*
X198427415Y-85770520D01*
X198410559Y-85698747D01*
X198387300Y-85643447D01*
X198356670Y-85597760D01*
X198339772Y-85578010D01*
X198303245Y-85549184D01*
X198230501Y-85500566D01*
X198129751Y-85436989D01*
X198009210Y-85363289D01*
X197877090Y-85284298D01*
X197741605Y-85204852D01*
X197610969Y-85129784D01*
X197493394Y-85063928D01*
X197397095Y-85012120D01*
X197330284Y-84979192D01*
X197307479Y-84970432D01*
X197292008Y-84967796D01*
X197280026Y-84972724D01*
G36*
X194602825Y-84968811D02*
X194588769Y-84989767D01*
X194578477Y-85031150D01*
X194571557Y-85098242D01*
X194567621Y-85196325D01*
X194566279Y-85330681D01*
X194567139Y-85506591D01*
X194568984Y-85668019D01*
X194571709Y-85856803D01*
X194574708Y-86001398D01*
X194578584Y-86108415D01*
X194583944Y-86184463D01*
X194591394Y-86236152D01*
X194601540Y-86270093D01*
X194614986Y-86292895D01*
X194627500Y-86306564D01*
X194663154Y-86332923D01*
X194733850Y-86378635D01*
X194832104Y-86439338D01*
X194950428Y-86510669D01*
X195081337Y-86588268D01*
X195217345Y-86667771D01*
X195350967Y-86744819D01*
X195474715Y-86815048D01*
X195581104Y-86874096D01*
X195662648Y-86917603D01*
X195711861Y-86941206D01*
X195721817Y-86944184D01*
X195762634Y-86930417D01*
X195766267Y-86927266D01*
X195772914Y-86895816D01*
X195777926Y-86822126D01*
X195781375Y-86714728D01*
X195783330Y-86582153D01*
X195783860Y-86432934D01*
X195783035Y-86275602D01*
X195780925Y-86118688D01*
X195777600Y-85970724D01*
X195773128Y-85840242D01*
X195767581Y-85735773D01*
X195761027Y-85665850D01*
X195755768Y-85641783D01*
X195722452Y-85605988D01*
X195645203Y-85548875D01*
X195523585Y-85470160D01*
X195357163Y-85369556D01*
X195190018Y-85272288D01*
X195039392Y-85186441D01*
X194902510Y-85109749D01*
X194785767Y-85045686D01*
X194695556Y-84997729D01*
X194638273Y-84969353D01*
X194621034Y-84963000D01*
X194602825Y-84968811D01*
X194602825Y-84968811D01*
G37*
X194602825Y-84968811D02*
X194588769Y-84989767D01*
X194578477Y-85031150D01*
X194571557Y-85098242D01*
X194567621Y-85196325D01*
X194566279Y-85330681D01*
X194567139Y-85506591D01*
X194568984Y-85668019D01*
X194571709Y-85856803D01*
X194574708Y-86001398D01*
X194578584Y-86108415D01*
X194583944Y-86184463D01*
X194591394Y-86236152D01*
X194601540Y-86270093D01*
X194614986Y-86292895D01*
X194627500Y-86306564D01*
X194663154Y-86332923D01*
X194733850Y-86378635D01*
X194832104Y-86439338D01*
X194950428Y-86510669D01*
X195081337Y-86588268D01*
X195217345Y-86667771D01*
X195350967Y-86744819D01*
X195474715Y-86815048D01*
X195581104Y-86874096D01*
X195662648Y-86917603D01*
X195711861Y-86941206D01*
X195721817Y-86944184D01*
X195762634Y-86930417D01*
X195766267Y-86927266D01*
X195772914Y-86895816D01*
X195777926Y-86822126D01*
X195781375Y-86714728D01*
X195783330Y-86582153D01*
X195783860Y-86432934D01*
X195783035Y-86275602D01*
X195780925Y-86118688D01*
X195777600Y-85970724D01*
X195773128Y-85840242D01*
X195767581Y-85735773D01*
X195761027Y-85665850D01*
X195755768Y-85641783D01*
X195722452Y-85605988D01*
X195645203Y-85548875D01*
X195523585Y-85470160D01*
X195357163Y-85369556D01*
X195190018Y-85272288D01*
X195039392Y-85186441D01*
X194902510Y-85109749D01*
X194785767Y-85045686D01*
X194695556Y-84997729D01*
X194638273Y-84969353D01*
X194621034Y-84963000D01*
X194602825Y-84968811D01*
G36*
X193312578Y-82705474D02*
X193289193Y-82718484D01*
X193271717Y-82747107D01*
X193259301Y-82797019D01*
X193251094Y-82873899D01*
X193246244Y-82983424D01*
X193243901Y-83131271D01*
X193243214Y-83323119D01*
X193243200Y-83366587D01*
X193243200Y-83969814D01*
X193325750Y-84031533D01*
X193367414Y-84058889D01*
X193445024Y-84106445D01*
X193550313Y-84169392D01*
X193675012Y-84242917D01*
X193810853Y-84322210D01*
X193949567Y-84402459D01*
X194082886Y-84478853D01*
X194202541Y-84546581D01*
X194300264Y-84600831D01*
X194351111Y-84628168D01*
X194398445Y-84644089D01*
X194420961Y-84640372D01*
X194425678Y-84611235D01*
X194429561Y-84539657D01*
X194432606Y-84433987D01*
X194434810Y-84302579D01*
X194436167Y-84153783D01*
X194436674Y-83995951D01*
X194436326Y-83837434D01*
X194435119Y-83686584D01*
X194433050Y-83551751D01*
X194430113Y-83441288D01*
X194426305Y-83363546D01*
X194421621Y-83326876D01*
X194396073Y-83303770D01*
X194333481Y-83260807D01*
X194241435Y-83202380D01*
X194127529Y-83132884D01*
X193999354Y-83056714D01*
X193864502Y-82978263D01*
X193730566Y-82901927D01*
X193605137Y-82832099D01*
X193495808Y-82773174D01*
X193410170Y-82729546D01*
X193355817Y-82705610D01*
X193342724Y-82702400D01*
X193312578Y-82705474D01*
X193312578Y-82705474D01*
G37*
X193312578Y-82705474D02*
X193289193Y-82718484D01*
X193271717Y-82747107D01*
X193259301Y-82797019D01*
X193251094Y-82873899D01*
X193246244Y-82983424D01*
X193243901Y-83131271D01*
X193243214Y-83323119D01*
X193243200Y-83366587D01*
X193243200Y-83969814D01*
X193325750Y-84031533D01*
X193367414Y-84058889D01*
X193445024Y-84106445D01*
X193550313Y-84169392D01*
X193675012Y-84242917D01*
X193810853Y-84322210D01*
X193949567Y-84402459D01*
X194082886Y-84478853D01*
X194202541Y-84546581D01*
X194300264Y-84600831D01*
X194351111Y-84628168D01*
X194398445Y-84644089D01*
X194420961Y-84640372D01*
X194425678Y-84611235D01*
X194429561Y-84539657D01*
X194432606Y-84433987D01*
X194434810Y-84302579D01*
X194436167Y-84153783D01*
X194436674Y-83995951D01*
X194436326Y-83837434D01*
X194435119Y-83686584D01*
X194433050Y-83551751D01*
X194430113Y-83441288D01*
X194426305Y-83363546D01*
X194421621Y-83326876D01*
X194396073Y-83303770D01*
X194333481Y-83260807D01*
X194241435Y-83202380D01*
X194127529Y-83132884D01*
X193999354Y-83056714D01*
X193864502Y-82978263D01*
X193730566Y-82901927D01*
X193605137Y-82832099D01*
X193495808Y-82773174D01*
X193410170Y-82729546D01*
X193355817Y-82705610D01*
X193342724Y-82702400D01*
X193312578Y-82705474D01*
G36*
X197429554Y-82892558D02*
X197358234Y-82926486D01*
X197259525Y-82977903D01*
X197140643Y-83042632D01*
X197008805Y-83116498D01*
X196871227Y-83195323D01*
X196735124Y-83274930D01*
X196607713Y-83351144D01*
X196496210Y-83419787D01*
X196407830Y-83476683D01*
X196349790Y-83517655D01*
X196329300Y-83538376D01*
X196350469Y-83560326D01*
X196409163Y-83602168D01*
X196498166Y-83659736D01*
X196610261Y-83728864D01*
X196738233Y-83805388D01*
X196874864Y-83885140D01*
X197012938Y-83963955D01*
X197145238Y-84037668D01*
X197264548Y-84102112D01*
X197363651Y-84153122D01*
X197435331Y-84186532D01*
X197472300Y-84198179D01*
X197507811Y-84185403D01*
X197580345Y-84150333D01*
X197683197Y-84096531D01*
X197809664Y-84027564D01*
X197953044Y-83946994D01*
X198056291Y-83887682D01*
X198205037Y-83800127D01*
X198338359Y-83719055D01*
X198450125Y-83648408D01*
X198534204Y-83592126D01*
X198584465Y-83554151D01*
X198596238Y-83540600D01*
X198576963Y-83518658D01*
X198520169Y-83476740D01*
X198433025Y-83419035D01*
X198322697Y-83349731D01*
X198196354Y-83273016D01*
X198061162Y-83193079D01*
X197924288Y-83114106D01*
X197792899Y-83040288D01*
X197674164Y-82975812D01*
X197575249Y-82924865D01*
X197503321Y-82891637D01*
X197466270Y-82880296D01*
X197429554Y-82892558D01*
X197429554Y-82892558D01*
G37*
X197429554Y-82892558D02*
X197358234Y-82926486D01*
X197259525Y-82977903D01*
X197140643Y-83042632D01*
X197008805Y-83116498D01*
X196871227Y-83195323D01*
X196735124Y-83274930D01*
X196607713Y-83351144D01*
X196496210Y-83419787D01*
X196407830Y-83476683D01*
X196349790Y-83517655D01*
X196329300Y-83538376D01*
X196350469Y-83560326D01*
X196409163Y-83602168D01*
X196498166Y-83659736D01*
X196610261Y-83728864D01*
X196738233Y-83805388D01*
X196874864Y-83885140D01*
X197012938Y-83963955D01*
X197145238Y-84037668D01*
X197264548Y-84102112D01*
X197363651Y-84153122D01*
X197435331Y-84186532D01*
X197472300Y-84198179D01*
X197507811Y-84185403D01*
X197580345Y-84150333D01*
X197683197Y-84096531D01*
X197809664Y-84027564D01*
X197953044Y-83946994D01*
X198056291Y-83887682D01*
X198205037Y-83800127D01*
X198338359Y-83719055D01*
X198450125Y-83648408D01*
X198534204Y-83592126D01*
X198584465Y-83554151D01*
X198596238Y-83540600D01*
X198576963Y-83518658D01*
X198520169Y-83476740D01*
X198433025Y-83419035D01*
X198322697Y-83349731D01*
X198196354Y-83273016D01*
X198061162Y-83193079D01*
X197924288Y-83114106D01*
X197792899Y-83040288D01*
X197674164Y-82975812D01*
X197575249Y-82924865D01*
X197503321Y-82891637D01*
X197466270Y-82880296D01*
X197429554Y-82892558D01*
G36*
X198761361Y-82130412D02*
X198688964Y-82164272D01*
X198589680Y-82215607D01*
X198470678Y-82280250D01*
X198339124Y-82354029D01*
X198202189Y-82432776D01*
X198067040Y-82512321D01*
X197940846Y-82588494D01*
X197830775Y-82657125D01*
X197743996Y-82714045D01*
X197687677Y-82755084D01*
X197668954Y-82775925D01*
X197691904Y-82797653D01*
X197752132Y-82839567D01*
X197842367Y-82897434D01*
X197955342Y-82967020D01*
X198083787Y-83044092D01*
X198220434Y-83124415D01*
X198358014Y-83203755D01*
X198489258Y-83277880D01*
X198606897Y-83342556D01*
X198703663Y-83393548D01*
X198772287Y-83426624D01*
X198804957Y-83437590D01*
X198836978Y-83424945D01*
X198906399Y-83390145D01*
X199006763Y-83336674D01*
X199131618Y-83268020D01*
X199274507Y-83187668D01*
X199390000Y-83121609D01*
X199540230Y-83033784D01*
X199674652Y-82952731D01*
X199787300Y-82882250D01*
X199872207Y-82826142D01*
X199923404Y-82788208D01*
X199936100Y-82773769D01*
X199914961Y-82752669D01*
X199856358Y-82711579D01*
X199767517Y-82654668D01*
X199655663Y-82586102D01*
X199528022Y-82510051D01*
X199391819Y-82430681D01*
X199254278Y-82352163D01*
X199122624Y-82278662D01*
X199004084Y-82214348D01*
X198905882Y-82163388D01*
X198835242Y-82129951D01*
X198799702Y-82118200D01*
X198761361Y-82130412D01*
X198761361Y-82130412D01*
G37*
X198761361Y-82130412D02*
X198688964Y-82164272D01*
X198589680Y-82215607D01*
X198470678Y-82280250D01*
X198339124Y-82354029D01*
X198202189Y-82432776D01*
X198067040Y-82512321D01*
X197940846Y-82588494D01*
X197830775Y-82657125D01*
X197743996Y-82714045D01*
X197687677Y-82755084D01*
X197668954Y-82775925D01*
X197691904Y-82797653D01*
X197752132Y-82839567D01*
X197842367Y-82897434D01*
X197955342Y-82967020D01*
X198083787Y-83044092D01*
X198220434Y-83124415D01*
X198358014Y-83203755D01*
X198489258Y-83277880D01*
X198606897Y-83342556D01*
X198703663Y-83393548D01*
X198772287Y-83426624D01*
X198804957Y-83437590D01*
X198836978Y-83424945D01*
X198906399Y-83390145D01*
X199006763Y-83336674D01*
X199131618Y-83268020D01*
X199274507Y-83187668D01*
X199390000Y-83121609D01*
X199540230Y-83033784D01*
X199674652Y-82952731D01*
X199787300Y-82882250D01*
X199872207Y-82826142D01*
X199923404Y-82788208D01*
X199936100Y-82773769D01*
X199914961Y-82752669D01*
X199856358Y-82711579D01*
X199767517Y-82654668D01*
X199655663Y-82586102D01*
X199528022Y-82510051D01*
X199391819Y-82430681D01*
X199254278Y-82352163D01*
X199122624Y-82278662D01*
X199004084Y-82214348D01*
X198905882Y-82163388D01*
X198835242Y-82129951D01*
X198799702Y-82118200D01*
X198761361Y-82130412D01*
G36*
X196100159Y-82130233D02*
X196029966Y-82163565D01*
X195930912Y-82214042D01*
X195810524Y-82277511D01*
X195676330Y-82349821D01*
X195535857Y-82426818D01*
X195396635Y-82504349D01*
X195266190Y-82578261D01*
X195152051Y-82644402D01*
X195061746Y-82698618D01*
X195002802Y-82736758D01*
X194983214Y-82753016D01*
X194990698Y-82781935D01*
X195015449Y-82809506D01*
X195055335Y-82837300D01*
X195129913Y-82883428D01*
X195231709Y-82943716D01*
X195353246Y-83013985D01*
X195487050Y-83090059D01*
X195625643Y-83167762D01*
X195761552Y-83242917D01*
X195887301Y-83311347D01*
X195995413Y-83368876D01*
X196078413Y-83411326D01*
X196128827Y-83434521D01*
X196139607Y-83437590D01*
X196171163Y-83424956D01*
X196240152Y-83390183D01*
X196340142Y-83336755D01*
X196464701Y-83268153D01*
X196607396Y-83187861D01*
X196723000Y-83121746D01*
X196873638Y-83033862D01*
X197008889Y-82952754D01*
X197122694Y-82882236D01*
X197208995Y-82826122D01*
X197261732Y-82788223D01*
X197275647Y-82773906D01*
X197256437Y-82752349D01*
X197199538Y-82711058D01*
X197112117Y-82654149D01*
X197001338Y-82585738D01*
X196874368Y-82509939D01*
X196738371Y-82430869D01*
X196600514Y-82352642D01*
X196467962Y-82279374D01*
X196347881Y-82215180D01*
X196247435Y-82164177D01*
X196173792Y-82130478D01*
X196134116Y-82118200D01*
X196133961Y-82118200D01*
X196100159Y-82130233D01*
X196100159Y-82130233D01*
G37*
X196100159Y-82130233D02*
X196029966Y-82163565D01*
X195930912Y-82214042D01*
X195810524Y-82277511D01*
X195676330Y-82349821D01*
X195535857Y-82426818D01*
X195396635Y-82504349D01*
X195266190Y-82578261D01*
X195152051Y-82644402D01*
X195061746Y-82698618D01*
X195002802Y-82736758D01*
X194983214Y-82753016D01*
X194990698Y-82781935D01*
X195015449Y-82809506D01*
X195055335Y-82837300D01*
X195129913Y-82883428D01*
X195231709Y-82943716D01*
X195353246Y-83013985D01*
X195487050Y-83090059D01*
X195625643Y-83167762D01*
X195761552Y-83242917D01*
X195887301Y-83311347D01*
X195995413Y-83368876D01*
X196078413Y-83411326D01*
X196128827Y-83434521D01*
X196139607Y-83437590D01*
X196171163Y-83424956D01*
X196240152Y-83390183D01*
X196340142Y-83336755D01*
X196464701Y-83268153D01*
X196607396Y-83187861D01*
X196723000Y-83121746D01*
X196873638Y-83033862D01*
X197008889Y-82952754D01*
X197122694Y-82882236D01*
X197208995Y-82826122D01*
X197261732Y-82788223D01*
X197275647Y-82773906D01*
X197256437Y-82752349D01*
X197199538Y-82711058D01*
X197112117Y-82654149D01*
X197001338Y-82585738D01*
X196874368Y-82509939D01*
X196738371Y-82430869D01*
X196600514Y-82352642D01*
X196467962Y-82279374D01*
X196347881Y-82215180D01*
X196247435Y-82164177D01*
X196173792Y-82130478D01*
X196134116Y-82118200D01*
X196133961Y-82118200D01*
X196100159Y-82130233D01*
G36*
X200098721Y-81362476D02*
X200027664Y-81396537D01*
X199929560Y-81448315D01*
X199811449Y-81513652D01*
X199680367Y-81588387D01*
X199543354Y-81668361D01*
X199407448Y-81749414D01*
X199279688Y-81827384D01*
X199167111Y-81898114D01*
X199076756Y-81957442D01*
X199015662Y-82001209D01*
X198990866Y-82025254D01*
X198990741Y-82027006D01*
X199013745Y-82044874D01*
X199073972Y-82083123D01*
X199164158Y-82137610D01*
X199277037Y-82204189D01*
X199405346Y-82278718D01*
X199541819Y-82357051D01*
X199679193Y-82435045D01*
X199810201Y-82508555D01*
X199927581Y-82573438D01*
X200024067Y-82625550D01*
X200092394Y-82660746D01*
X200125299Y-82674882D01*
X200126600Y-82674956D01*
X200158757Y-82665304D01*
X200177400Y-82658548D01*
X200212445Y-82641085D01*
X200283407Y-82602665D01*
X200382276Y-82547844D01*
X200501040Y-82481180D01*
X200631690Y-82407230D01*
X200766215Y-82330551D01*
X200896604Y-82255701D01*
X201014848Y-82187237D01*
X201112935Y-82129716D01*
X201182855Y-82087695D01*
X201202809Y-82075177D01*
X201261148Y-82033785D01*
X201280947Y-82005807D01*
X201268772Y-81981287D01*
X201266309Y-81978888D01*
X201227034Y-81950247D01*
X201152472Y-81903292D01*
X201050212Y-81842243D01*
X200927840Y-81771317D01*
X200792944Y-81694734D01*
X200653111Y-81616711D01*
X200515927Y-81541466D01*
X200388981Y-81473218D01*
X200279859Y-81416186D01*
X200196149Y-81374586D01*
X200145437Y-81352639D01*
X200135693Y-81350294D01*
X200098721Y-81362476D01*
X200098721Y-81362476D01*
G37*
X200098721Y-81362476D02*
X200027664Y-81396537D01*
X199929560Y-81448315D01*
X199811449Y-81513652D01*
X199680367Y-81588387D01*
X199543354Y-81668361D01*
X199407448Y-81749414D01*
X199279688Y-81827384D01*
X199167111Y-81898114D01*
X199076756Y-81957442D01*
X199015662Y-82001209D01*
X198990866Y-82025254D01*
X198990741Y-82027006D01*
X199013745Y-82044874D01*
X199073972Y-82083123D01*
X199164158Y-82137610D01*
X199277037Y-82204189D01*
X199405346Y-82278718D01*
X199541819Y-82357051D01*
X199679193Y-82435045D01*
X199810201Y-82508555D01*
X199927581Y-82573438D01*
X200024067Y-82625550D01*
X200092394Y-82660746D01*
X200125299Y-82674882D01*
X200126600Y-82674956D01*
X200158757Y-82665304D01*
X200177400Y-82658548D01*
X200212445Y-82641085D01*
X200283407Y-82602665D01*
X200382276Y-82547844D01*
X200501040Y-82481180D01*
X200631690Y-82407230D01*
X200766215Y-82330551D01*
X200896604Y-82255701D01*
X201014848Y-82187237D01*
X201112935Y-82129716D01*
X201182855Y-82087695D01*
X201202809Y-82075177D01*
X201261148Y-82033785D01*
X201280947Y-82005807D01*
X201268772Y-81981287D01*
X201266309Y-81978888D01*
X201227034Y-81950247D01*
X201152472Y-81903292D01*
X201050212Y-81842243D01*
X200927840Y-81771317D01*
X200792944Y-81694734D01*
X200653111Y-81616711D01*
X200515927Y-81541466D01*
X200388981Y-81473218D01*
X200279859Y-81416186D01*
X200196149Y-81374586D01*
X200145437Y-81352639D01*
X200135693Y-81350294D01*
X200098721Y-81362476D01*
G36*
X197431965Y-81362208D02*
X197360671Y-81395488D01*
X197261709Y-81446043D01*
X197142295Y-81509780D01*
X197009645Y-81582605D01*
X196870975Y-81660426D01*
X196733502Y-81739150D01*
X196604441Y-81814683D01*
X196491010Y-81882934D01*
X196400425Y-81939808D01*
X196339901Y-81981214D01*
X196316655Y-82003057D01*
X196316600Y-82003556D01*
X196337501Y-82021377D01*
X196395441Y-82060049D01*
X196483273Y-82115351D01*
X196593854Y-82183064D01*
X196720037Y-82258969D01*
X196854678Y-82338847D01*
X196990632Y-82418478D01*
X197120753Y-82493644D01*
X197237897Y-82560124D01*
X197334917Y-82613700D01*
X197404669Y-82650153D01*
X197434200Y-82663503D01*
X197478497Y-82660862D01*
X197545153Y-82637754D01*
X197573900Y-82623835D01*
X197653230Y-82580931D01*
X197759799Y-82521869D01*
X197885045Y-82451542D01*
X198020405Y-82374846D01*
X198157318Y-82296676D01*
X198287220Y-82221928D01*
X198401550Y-82155496D01*
X198491746Y-82102277D01*
X198549245Y-82067164D01*
X198560319Y-82059880D01*
X198606086Y-82022622D01*
X198612445Y-81995731D01*
X198598419Y-81977999D01*
X198559187Y-81949433D01*
X198484660Y-81902562D01*
X198382428Y-81841601D01*
X198260083Y-81770767D01*
X198125214Y-81694275D01*
X197985412Y-81616342D01*
X197848266Y-81541184D01*
X197721367Y-81473017D01*
X197612305Y-81416057D01*
X197528670Y-81374520D01*
X197478053Y-81352622D01*
X197468374Y-81350294D01*
X197431965Y-81362208D01*
X197431965Y-81362208D01*
G37*
X197431965Y-81362208D02*
X197360671Y-81395488D01*
X197261709Y-81446043D01*
X197142295Y-81509780D01*
X197009645Y-81582605D01*
X196870975Y-81660426D01*
X196733502Y-81739150D01*
X196604441Y-81814683D01*
X196491010Y-81882934D01*
X196400425Y-81939808D01*
X196339901Y-81981214D01*
X196316655Y-82003057D01*
X196316600Y-82003556D01*
X196337501Y-82021377D01*
X196395441Y-82060049D01*
X196483273Y-82115351D01*
X196593854Y-82183064D01*
X196720037Y-82258969D01*
X196854678Y-82338847D01*
X196990632Y-82418478D01*
X197120753Y-82493644D01*
X197237897Y-82560124D01*
X197334917Y-82613700D01*
X197404669Y-82650153D01*
X197434200Y-82663503D01*
X197478497Y-82660862D01*
X197545153Y-82637754D01*
X197573900Y-82623835D01*
X197653230Y-82580931D01*
X197759799Y-82521869D01*
X197885045Y-82451542D01*
X198020405Y-82374846D01*
X198157318Y-82296676D01*
X198287220Y-82221928D01*
X198401550Y-82155496D01*
X198491746Y-82102277D01*
X198549245Y-82067164D01*
X198560319Y-82059880D01*
X198606086Y-82022622D01*
X198612445Y-81995731D01*
X198598419Y-81977999D01*
X198559187Y-81949433D01*
X198484660Y-81902562D01*
X198382428Y-81841601D01*
X198260083Y-81770767D01*
X198125214Y-81694275D01*
X197985412Y-81616342D01*
X197848266Y-81541184D01*
X197721367Y-81473017D01*
X197612305Y-81416057D01*
X197528670Y-81374520D01*
X197478053Y-81352622D01*
X197468374Y-81350294D01*
X197431965Y-81362208D01*
G36*
X194756633Y-81362977D02*
X194680005Y-81397808D01*
X194576303Y-81450425D01*
X194453522Y-81516250D01*
X194319658Y-81590702D01*
X194182705Y-81669203D01*
X194050660Y-81747173D01*
X193931517Y-81820032D01*
X193833272Y-81883202D01*
X193763920Y-81932103D01*
X193732133Y-81961095D01*
X193706938Y-82007352D01*
X193715963Y-82040779D01*
X193740851Y-82067863D01*
X193772927Y-82090907D01*
X193840344Y-82133587D01*
X193935509Y-82191501D01*
X194050829Y-82260246D01*
X194178711Y-82335420D01*
X194311562Y-82412619D01*
X194441789Y-82487442D01*
X194561799Y-82555484D01*
X194663999Y-82612345D01*
X194740796Y-82653621D01*
X194784597Y-82674909D01*
X194791119Y-82676843D01*
X194821165Y-82666100D01*
X194875414Y-82640125D01*
X194881500Y-82636976D01*
X195012865Y-82566748D01*
X195155702Y-82487375D01*
X195303451Y-82402830D01*
X195449554Y-82317085D01*
X195587454Y-82234115D01*
X195710591Y-82157892D01*
X195812408Y-82092389D01*
X195886345Y-82041579D01*
X195925844Y-82009436D01*
X195930601Y-82001437D01*
X195906801Y-81978117D01*
X195845573Y-81935070D01*
X195754282Y-81876529D01*
X195640296Y-81806728D01*
X195510979Y-81729901D01*
X195373697Y-81650281D01*
X195235816Y-81572103D01*
X195104703Y-81499602D01*
X194987722Y-81437009D01*
X194892239Y-81388561D01*
X194825620Y-81358490D01*
X194798191Y-81350511D01*
X194756633Y-81362977D01*
X194756633Y-81362977D01*
G37*
X194756633Y-81362977D02*
X194680005Y-81397808D01*
X194576303Y-81450425D01*
X194453522Y-81516250D01*
X194319658Y-81590702D01*
X194182705Y-81669203D01*
X194050660Y-81747173D01*
X193931517Y-81820032D01*
X193833272Y-81883202D01*
X193763920Y-81932103D01*
X193732133Y-81961095D01*
X193706938Y-82007352D01*
X193715963Y-82040779D01*
X193740851Y-82067863D01*
X193772927Y-82090907D01*
X193840344Y-82133587D01*
X193935509Y-82191501D01*
X194050829Y-82260246D01*
X194178711Y-82335420D01*
X194311562Y-82412619D01*
X194441789Y-82487442D01*
X194561799Y-82555484D01*
X194663999Y-82612345D01*
X194740796Y-82653621D01*
X194784597Y-82674909D01*
X194791119Y-82676843D01*
X194821165Y-82666100D01*
X194875414Y-82640125D01*
X194881500Y-82636976D01*
X195012865Y-82566748D01*
X195155702Y-82487375D01*
X195303451Y-82402830D01*
X195449554Y-82317085D01*
X195587454Y-82234115D01*
X195710591Y-82157892D01*
X195812408Y-82092389D01*
X195886345Y-82041579D01*
X195925844Y-82009436D01*
X195930601Y-82001437D01*
X195906801Y-81978117D01*
X195845573Y-81935070D01*
X195754282Y-81876529D01*
X195640296Y-81806728D01*
X195510979Y-81729901D01*
X195373697Y-81650281D01*
X195235816Y-81572103D01*
X195104703Y-81499602D01*
X194987722Y-81437009D01*
X194892239Y-81388561D01*
X194825620Y-81358490D01*
X194798191Y-81350511D01*
X194756633Y-81362977D01*
G36*
X198783735Y-80589643D02*
X198710877Y-80620389D01*
X198610569Y-80669323D01*
X198490100Y-80732265D01*
X198356763Y-80805039D01*
X198217849Y-80883466D01*
X198080649Y-80963369D01*
X197952455Y-81040571D01*
X197840557Y-81110892D01*
X197752247Y-81170157D01*
X197694817Y-81214185D01*
X197675500Y-81238099D01*
X197697829Y-81265564D01*
X197763772Y-81315225D01*
X197871762Y-81386054D01*
X198020234Y-81477019D01*
X198196466Y-81580638D01*
X198346046Y-81666699D01*
X198483274Y-81744603D01*
X198601304Y-81810547D01*
X198693291Y-81860730D01*
X198752389Y-81891349D01*
X198769226Y-81898753D01*
X198804371Y-81896675D01*
X198866201Y-81874427D01*
X198958842Y-81830059D01*
X199086421Y-81761617D01*
X199226161Y-81682628D01*
X199425350Y-81567981D01*
X199584495Y-81475551D01*
X199707836Y-81402667D01*
X199799613Y-81346658D01*
X199864067Y-81304850D01*
X199905438Y-81274573D01*
X199927967Y-81253155D01*
X199935894Y-81237923D01*
X199936100Y-81235316D01*
X199915095Y-81215339D01*
X199856891Y-81174948D01*
X199768708Y-81118383D01*
X199657768Y-81049881D01*
X199531289Y-80973681D01*
X199396492Y-80894020D01*
X199260597Y-80815137D01*
X199130824Y-80741269D01*
X199014392Y-80676656D01*
X198918522Y-80625534D01*
X198850434Y-80592142D01*
X198821850Y-80581262D01*
X198783735Y-80589643D01*
X198783735Y-80589643D01*
G37*
X198783735Y-80589643D02*
X198710877Y-80620389D01*
X198610569Y-80669323D01*
X198490100Y-80732265D01*
X198356763Y-80805039D01*
X198217849Y-80883466D01*
X198080649Y-80963369D01*
X197952455Y-81040571D01*
X197840557Y-81110892D01*
X197752247Y-81170157D01*
X197694817Y-81214185D01*
X197675500Y-81238099D01*
X197697829Y-81265564D01*
X197763772Y-81315225D01*
X197871762Y-81386054D01*
X198020234Y-81477019D01*
X198196466Y-81580638D01*
X198346046Y-81666699D01*
X198483274Y-81744603D01*
X198601304Y-81810547D01*
X198693291Y-81860730D01*
X198752389Y-81891349D01*
X198769226Y-81898753D01*
X198804371Y-81896675D01*
X198866201Y-81874427D01*
X198958842Y-81830059D01*
X199086421Y-81761617D01*
X199226161Y-81682628D01*
X199425350Y-81567981D01*
X199584495Y-81475551D01*
X199707836Y-81402667D01*
X199799613Y-81346658D01*
X199864067Y-81304850D01*
X199905438Y-81274573D01*
X199927967Y-81253155D01*
X199935894Y-81237923D01*
X199936100Y-81235316D01*
X199915095Y-81215339D01*
X199856891Y-81174948D01*
X199768708Y-81118383D01*
X199657768Y-81049881D01*
X199531289Y-80973681D01*
X199396492Y-80894020D01*
X199260597Y-80815137D01*
X199130824Y-80741269D01*
X199014392Y-80676656D01*
X198918522Y-80625534D01*
X198850434Y-80592142D01*
X198821850Y-80581262D01*
X198783735Y-80589643D01*
G36*
X196105392Y-80581402D02*
X196037288Y-80614815D01*
X195940362Y-80665484D01*
X195822122Y-80729205D01*
X195690076Y-80801774D01*
X195551733Y-80878984D01*
X195414601Y-80956633D01*
X195286188Y-81030513D01*
X195174002Y-81096422D01*
X195085552Y-81150153D01*
X195028347Y-81187502D01*
X195014250Y-81198322D01*
X194986827Y-81235720D01*
X194988850Y-81257592D01*
X195026964Y-81285645D01*
X195100783Y-81331949D01*
X195202747Y-81392354D01*
X195325297Y-81462708D01*
X195460874Y-81538861D01*
X195601916Y-81616662D01*
X195740866Y-81691962D01*
X195870162Y-81760608D01*
X195982246Y-81818451D01*
X196069557Y-81861340D01*
X196124536Y-81885124D01*
X196138071Y-81888563D01*
X196177427Y-81875839D01*
X196253512Y-81840662D01*
X196359435Y-81786620D01*
X196488308Y-81717300D01*
X196633240Y-81636289D01*
X196735700Y-81577374D01*
X196883959Y-81489783D01*
X197016375Y-81408900D01*
X197126928Y-81338620D01*
X197209597Y-81282839D01*
X197258362Y-81245454D01*
X197269100Y-81232228D01*
X197248046Y-81211267D01*
X197189680Y-81170031D01*
X197101197Y-81112733D01*
X196989794Y-81043585D01*
X196862667Y-80966803D01*
X196727012Y-80886598D01*
X196590024Y-80807184D01*
X196458899Y-80732775D01*
X196340833Y-80667584D01*
X196243022Y-80615824D01*
X196172662Y-80581708D01*
X196137165Y-80569452D01*
X196105392Y-80581402D01*
X196105392Y-80581402D01*
G37*
X196105392Y-80581402D02*
X196037288Y-80614815D01*
X195940362Y-80665484D01*
X195822122Y-80729205D01*
X195690076Y-80801774D01*
X195551733Y-80878984D01*
X195414601Y-80956633D01*
X195286188Y-81030513D01*
X195174002Y-81096422D01*
X195085552Y-81150153D01*
X195028347Y-81187502D01*
X195014250Y-81198322D01*
X194986827Y-81235720D01*
X194988850Y-81257592D01*
X195026964Y-81285645D01*
X195100783Y-81331949D01*
X195202747Y-81392354D01*
X195325297Y-81462708D01*
X195460874Y-81538861D01*
X195601916Y-81616662D01*
X195740866Y-81691962D01*
X195870162Y-81760608D01*
X195982246Y-81818451D01*
X196069557Y-81861340D01*
X196124536Y-81885124D01*
X196138071Y-81888563D01*
X196177427Y-81875839D01*
X196253512Y-81840662D01*
X196359435Y-81786620D01*
X196488308Y-81717300D01*
X196633240Y-81636289D01*
X196735700Y-81577374D01*
X196883959Y-81489783D01*
X197016375Y-81408900D01*
X197126928Y-81338620D01*
X197209597Y-81282839D01*
X197258362Y-81245454D01*
X197269100Y-81232228D01*
X197248046Y-81211267D01*
X197189680Y-81170031D01*
X197101197Y-81112733D01*
X196989794Y-81043585D01*
X196862667Y-80966803D01*
X196727012Y-80886598D01*
X196590024Y-80807184D01*
X196458899Y-80732775D01*
X196340833Y-80667584D01*
X196243022Y-80615824D01*
X196172662Y-80581708D01*
X196137165Y-80569452D01*
X196105392Y-80581402D01*
G36*
X197434873Y-79819547D02*
X197362855Y-79853161D01*
X197263470Y-79904240D01*
X197143941Y-79968630D01*
X197011490Y-80042180D01*
X196873342Y-80120737D01*
X196736719Y-80200150D01*
X196608846Y-80276266D01*
X196496944Y-80344933D01*
X196408238Y-80401998D01*
X196349950Y-80443311D01*
X196329300Y-80464584D01*
X196350442Y-80486381D01*
X196409063Y-80528170D01*
X196497964Y-80585776D01*
X196609940Y-80655024D01*
X196737791Y-80731740D01*
X196874313Y-80811747D01*
X197012304Y-80890872D01*
X197144563Y-80964938D01*
X197263886Y-81029771D01*
X197363072Y-81081196D01*
X197434918Y-81115037D01*
X197472208Y-81127120D01*
X197507593Y-81114651D01*
X197580111Y-81079855D01*
X197683151Y-81026235D01*
X197810103Y-80957295D01*
X197954356Y-80876537D01*
X198069200Y-80810739D01*
X198219312Y-80722753D01*
X198353647Y-80641805D01*
X198466254Y-80571664D01*
X198551179Y-80516098D01*
X198602471Y-80478875D01*
X198615300Y-80465037D01*
X198594150Y-80444134D01*
X198535503Y-80403248D01*
X198446569Y-80346526D01*
X198334554Y-80278115D01*
X198206668Y-80202160D01*
X198070119Y-80122808D01*
X197932114Y-80044206D01*
X197799861Y-79970499D01*
X197680569Y-79905834D01*
X197581446Y-79854357D01*
X197509699Y-79820215D01*
X197472537Y-79807554D01*
X197472300Y-79807549D01*
X197434873Y-79819547D01*
X197434873Y-79819547D01*
G37*
X197434873Y-79819547D02*
X197362855Y-79853161D01*
X197263470Y-79904240D01*
X197143941Y-79968630D01*
X197011490Y-80042180D01*
X196873342Y-80120737D01*
X196736719Y-80200150D01*
X196608846Y-80276266D01*
X196496944Y-80344933D01*
X196408238Y-80401998D01*
X196349950Y-80443311D01*
X196329300Y-80464584D01*
X196350442Y-80486381D01*
X196409063Y-80528170D01*
X196497964Y-80585776D01*
X196609940Y-80655024D01*
X196737791Y-80731740D01*
X196874313Y-80811747D01*
X197012304Y-80890872D01*
X197144563Y-80964938D01*
X197263886Y-81029771D01*
X197363072Y-81081196D01*
X197434918Y-81115037D01*
X197472208Y-81127120D01*
X197507593Y-81114651D01*
X197580111Y-81079855D01*
X197683151Y-81026235D01*
X197810103Y-80957295D01*
X197954356Y-80876537D01*
X198069200Y-80810739D01*
X198219312Y-80722753D01*
X198353647Y-80641805D01*
X198466254Y-80571664D01*
X198551179Y-80516098D01*
X198602471Y-80478875D01*
X198615300Y-80465037D01*
X198594150Y-80444134D01*
X198535503Y-80403248D01*
X198446569Y-80346526D01*
X198334554Y-80278115D01*
X198206668Y-80202160D01*
X198070119Y-80122808D01*
X197932114Y-80044206D01*
X197799861Y-79970499D01*
X197680569Y-79905834D01*
X197581446Y-79854357D01*
X197509699Y-79820215D01*
X197472537Y-79807554D01*
X197472300Y-79807549D01*
X197434873Y-79819547D01*
D12*
X146558000Y-74015600D03*
D13*
X151892000Y-82677000D03*
D14*
X152146000Y-75184000D03*
D15*
X152146000Y-78684000D03*
D16*
X148844000Y-63627000D03*
D17*
X148844000Y-68627000D03*
D18*
X148844000Y-92202000D03*
D19*
X148844000Y-89662000D03*
X148844000Y-87122000D03*
X148844000Y-84582000D03*
D20*
X156464000Y-93599000D03*
X161544000Y-93599000D03*
D21*
X149479000Y-104267000D03*
D22*
X149479000Y-101767000D03*
X149479000Y-99267000D03*
D21*
X157988000Y-104267000D03*
D22*
X157988000Y-101767000D03*
X157988000Y-99267000D03*
D21*
X200152000Y-104267000D03*
D22*
X200152000Y-101767000D03*
X200152000Y-99267000D03*
D21*
X191389000Y-104267000D03*
D22*
X191389000Y-101767000D03*
X191389000Y-99267000D03*
D21*
X183007000Y-104267000D03*
D22*
X183007000Y-101767000D03*
X183007000Y-99267000D03*
D21*
X174625000Y-104267000D03*
D22*
X174625000Y-101767000D03*
X174625000Y-99267000D03*
D21*
X166497000Y-104267000D03*
D22*
X166497000Y-101767000D03*
X166497000Y-99267000D03*
D23*
X169418000Y-67746000D03*
X169418000Y-63246000D03*
X175918000Y-67746000D03*
X175918000Y-63246000D03*
X169418000Y-76763000D03*
X169418000Y-72263000D03*
X175918000Y-76763000D03*
X175918000Y-72263000D03*
D24*
X147370800Y-57404000D03*
X151180800Y-57404000D03*
D12*
X172466000Y-85090000D03*
X172466000Y-58877200D03*
M02*
