M48
;DRILL file {KiCad 4.0.7-e2-6376~58~ubuntu16.04.1} date Mon Mar 12 18:01:58 2018
;FORMAT={-:-/ absolute / inch / decimal}
FMAT,2
INCH,TZ
T1C0.013
T2C0.030
T3C0.031
T4C0.039
T5C0.040
T6C0.043
T7C0.051
%
G90
G05
M72
T1
X5.985Y-3.33
X6.044Y-2.608
X6.21Y-2.92
X6.235Y-3.49
X6.31Y-3.6
X6.32Y-3.18
X6.354Y-2.438
X6.356Y-2.582
X6.356Y-2.758
X6.372Y-2.208
X6.385Y-2.825
X6.394Y-2.376
X6.415Y-3.815
X6.49Y-2.666
X6.59Y-2.63
X6.63Y-3.9
X6.68Y-3.405
X6.72Y-3.305
X6.79Y-2.55
X6.805Y-3.59
X6.81Y-2.95
X6.84Y-3.65
X6.84Y-3.8
X6.89Y-2.58
X6.925Y-2.945
X6.94Y-3.665
X7.015Y-3.485
X7.045Y-3.095
X7.045Y-3.41
X7.055Y-2.83
X7.055Y-3.24
X7.055Y-3.45
X7.1Y-2.89
X7.106Y-2.394
X7.16Y-2.535
X7.165Y-3.665
X7.22Y-3.15
X7.245Y-3.485
X7.345Y-2.73
X7.355Y-2.57
X7.37Y-2.89
X7.41Y-3.31
X7.43Y-3.645
X7.435Y-3.77
X7.44Y-2.825
X7.52Y-3.375
X7.608Y-2.856
X7.68Y-2.62
X7.725Y-3.61
X7.73Y-2.62
T2
X6.16Y-3.685
X6.36Y-3.685
T3
X5.99Y-2.96
X5.99Y-3.0978
T4
X5.86Y-3.33
X5.86Y-3.43
X5.86Y-3.53
X5.86Y-3.63
X5.885Y-3.9081
X5.885Y-4.0066
X5.885Y-4.105
X6.22Y-3.9081
X6.22Y-4.0066
X6.22Y-4.105
X6.555Y-3.9081
X6.555Y-4.0066
X6.555Y-4.105
X6.875Y-3.9081
X6.875Y-4.0066
X6.875Y-4.105
X7.205Y-3.9081
X7.205Y-4.0066
X7.205Y-4.105
X7.535Y-3.9081
X7.535Y-4.0066
X7.535Y-4.105
X7.88Y-3.9081
X7.88Y-4.0066
X7.88Y-4.105
T5
X5.802Y-2.26
X5.952Y-2.26
X5.98Y-3.255
T6
X6.67Y-2.49
X6.67Y-2.6672
X6.67Y-2.845
X6.67Y-3.0222
X6.9259Y-2.49
X6.9259Y-2.6672
X6.9259Y-2.845
X6.9259Y-3.0222
T7
X5.86Y-2.505
X5.86Y-2.7019
T0
M30
